<?xml version="1.0" encoding="utf-8"?>
<!-- Generator: Adobe Illustrator 27.2.0, SVG Export Plug-In . SVG Version: 6.00 Build 0)  -->
<svg version="1.1" id="_Слой_1" xmlns="http://www.w3.org/2000/svg" xmlns:xlink="http://www.w3.org/1999/xlink" x="0px"
	 y="0px" viewBox="0 0 641.6 341.5" style="enable-background:new 0 0 641.6 341.5;" xml:space="preserve">
<style type="text/css">
	.st0{fill:#18151E;}
	.st1{fill:#FFE032;}
	.st2{fill:none;stroke:#FFFFFF;stroke-linecap:round;stroke-linejoin:round;}
	.st3{fill:#00B9FF;}
	.st4{fill:#00D692;}
	.st5{fill:#FF504D;}
	.st6{fill:none;stroke:#00D692;stroke-linecap:round;stroke-linejoin:round;}
	.st7{fill:none;stroke:#FFE032;stroke-linecap:round;stroke-linejoin:round;}
	.st8{fill:#FFFFFF;}
	.st9{fill-rule:evenodd;clip-rule:evenodd;fill:#F5F5F4;}
	.st10{fill-rule:evenodd;clip-rule:evenodd;fill:#2966B7;}
	.st11{fill-rule:evenodd;clip-rule:evenodd;fill:#210446;}
	.st12{fill-rule:evenodd;clip-rule:evenodd;fill:#359CD3;}
	.st13{fill-rule:evenodd;clip-rule:evenodd;fill:#3F2986;}
	.st14{fill-rule:evenodd;clip-rule:evenodd;fill:#E8F5FB;}
	.st15{fill-rule:evenodd;clip-rule:evenodd;fill:#04ACF3;}
	.st16{fill-rule:evenodd;clip-rule:evenodd;fill:#0474BC;}
	.st17{fill-rule:evenodd;clip-rule:evenodd;fill:#5CC6F6;}
	.st18{fill-rule:evenodd;clip-rule:evenodd;fill:#5AA7D4;}
	.st19{fill-rule:evenodd;clip-rule:evenodd;fill:#FBFBFC;}
	.st20{fill-rule:evenodd;clip-rule:evenodd;fill:#1CDBFC;}
	.st21{fill-rule:evenodd;clip-rule:evenodd;fill:#1CBDFB;}
	.st22{fill-rule:evenodd;clip-rule:evenodd;fill:#1C63F0;}
	.st23{fill-rule:evenodd;clip-rule:evenodd;fill:#1C93F4;}
</style>
<g id="Laptop">
	<g id="Laptop-2">
		<polygon class="st0" points="230.5,162.8 183.9,173.2 110.2,189.8 109.9,189.9 77.2,197.2 48.5,203.6 22.2,209.6 0,49.3 215.3,20 
					"/>
		<polygon class="st1" points="233.3,158 189.2,167.9 119.3,183.6 119.1,183.7 88.1,190.6 60.9,196.8 36,202.4 14.9,50.5 82.8,41.3 
			218.9,22.8 225.5,85 		"/>
		<g>
			<path class="st2" d="M180.3,44.4c1.4,16.6,2.8,33.3,4.2,49.9c7.9-1,15.8-2.1,23.7-3.1"/>
			<path class="st2" d="M32.7,55.6L43,128.7c-7.4,1.1-14.8,2.2-22.1,3.4"/>
			<path class="st2" d="M37.8,53.8c2.6,18.3,5.2,36.7,7.8,55"/>
			<path class="st2" d="M188.4,98.5c7.9-0.8,15.8-1.7,23.7-2.5"/>
		</g>
		<polygon class="st0" points="229.9,162.4 22.1,209.6 21.6,225.6 178.4,255 323.6,191.3 323.6,182.4 		"/>
		<polyline class="st2" points="193.9,218.4 250.5,198.5 264.9,200.7 		"/>
		<line class="st2" x1="121.3" y1="204.6" x2="179" y2="215.6"/>
		<line class="st2" x1="112.5" y1="216.8" x2="218.9" y2="183.5"/>
		<line class="st2" x1="132.4" y1="224.5" x2="232.2" y2="190.2"/>
		<polyline class="st2" points="59.3,210.1 69.2,212.3 81.4,206.8 		"/>
	</g>
	<g id="Buttons">
		<path class="st3" d="M14.4,38.4c1.1,1.7,3.4,2.3,5.3,1.9c2.3-0.5,4.1-2.5,4.4-4.9s-1.2-4.7-3.5-5.4C16.3,28.6,11.9,34.7,14.4,38.4
			C14.4,38.4,14.4,38.4,14.4,38.4z"/>
		<path class="st4" d="M35.4,35.1c1.1,1.7,3.4,2.3,5.3,1.9c2.3-0.5,4.1-2.5,4.4-4.9c0.2-2.3-1.2-4.7-3.5-5.4
			C37.4,25.3,33,31.3,35.4,35.1C35.4,35.1,35.4,35.1,35.4,35.1z"/>
		<path class="st5" d="M55.4,32.8c1.1,1.7,3.4,2.3,5.3,1.9c2.3-0.5,4.1-2.5,4.4-4.9s-1.2-4.7-3.5-5.4C57.3,23.1,52.9,29.1,55.4,32.8
			C55.4,32.8,55.4,32.8,55.4,32.8z"/>
	</g>
</g>
<g id="Lines">
	<g>
		<path class="st6" d="M416.9,120.7c9.3,0.8,18.7,1.6,28,2.4"/>
		<path class="st6" d="M430.8,135.4h10"/>
		<path class="st6" d="M256.3,44.8c2-0.2,3.8-1.3,5.1-2.8c1.2-1.4,2.1-3.2,1.9-5.1c-0.6-6.5-9.4-5.9-12.8-2.1
			C246.9,38.9,251.1,45.5,256.3,44.8z"/>
		<path class="st6" d="M260.2,50c5-0.5,9-5.6,8.4-10.5"/>
		<path class="st6" d="M235.1,97.5c18,1,30-1,35,1c11.5,4.6,12.7,21.8,26,0c11-18,10.6,7.6,29-20c3.1-4.7,9.9-19.7,15.8-19.1
			c11.2,1.1-3.7,27.8-4.9,35.2c-0.6,3.6,1.1,7.3,4.4,8.8c6.8,3.1,13.4-5.9,16-11.4c1.6-3.4,5-10,8.7-10.6c11.3-1.8,1.8,15.1,7,19
			c3.9,2.9,19.3-1.2,24.2-3.6c1.5-0.7,3.2,0.2,3.7,1.8c0.6,1.8,2.4,3.2,6.4,4.1c1.9,0.4,3.8,0.6,5.8,0.7l58.9,1.3"/>
	</g>
</g>
<g id="Tablet">
	<g id="BG">
		<polygon class="st4" points="506.6,217.6 497.6,239.6 486.9,265.9 485.2,270.2 483.3,274.7 475.7,293.6 456.2,341.5 450.1,341.4 
			332.5,338.7 294.2,337.8 265.1,337.2 231.6,336.4 182,335.3 166.6,334.9 185.8,307.9 188.3,304.5 201.6,285.7 215.2,266.6 
			253.3,213.2 331.2,214.5 342.6,214.7 344.2,214.8 362.1,215.1 367.3,215.1 430.3,216.2 432.5,216.3 457.1,216.7 459.6,216.8 
			464.4,216.8 488.6,217.2 		"/>
		<path class="st0" d="M475.3,290.3c-21.3,8-40.6,20.7-62.8,26.3c-26.2,6.6-53.6,6.6-80.4,4.9c-30-1.9-59.8-5.6-89.7-8.7
			c-21.1-2.2-42.7-1.3-63.1,4.3l-12.6,17.7l15.4,0.4l49.7,1.1l33.5,0.8l29.1,0.7l38.3,0.9l117.6,2.7l6.1,0.1l19.5-47.9l1.6-4
			C476.6,289.9,475.9,290.1,475.3,290.3L475.3,290.3L475.3,290.3z"/>
		<path class="st0" d="M496.7,271.9c-8.8-1.1-9.9,10.2-3.3,11C503.3,283.9,505.5,273,496.7,271.9z"/>
		<path class="st7" d="M488.1,288.8c5.4,2.9,12.5,1.8,16.8-2.6s5.3-11.5,2.4-16.8"/>
	</g>
</g>
<g id="Phone">
	<g id="BG-2">
		<path class="st3" d="M635.1,0c4.4,0,7.5,4.2,6.2,8.4l-30.4,98l-25.8,83c-1.6,5.1-6.4,8.4-11.7,7.9l-48.7-3.7l-48.2-3.6
			c-4.2-0.3-7-4.6-5.6-8.6l62-177.1c0.9-2.6,3.3-4.3,6.1-4.3H635.1L635.1,0z"/>
		<path class="st0" d="M629.8,15.6l-27.5,88.6l-2.9,9.4l-25.8,83c-1.6,5.1-6.4,8.4-11.7,7.9l-32.1-2.4l-16.7-1.3l-48.2-3.6
			c-4.2-0.3-7-4.6-5.6-8.6l62-177.1c0.9-2.6,3.3-4.3,6.1-4.3h96.2C628,7.2,631.1,11.5,629.8,15.6L629.8,15.6L629.8,15.6z"/>
		<path class="st8" d="M522.4,191.4c4.3-5.8-0.2-10.7-6.6-10.1c-4.4,0.4-8.9,3.3-11.1,7.2C498.1,199.8,517.6,197.8,522.4,191.4
			L522.4,191.4L522.4,191.4z"/>
	</g>
</g>
<g id="Noise">
	<path class="st6" d="M244.4,130.2c-1.5,2.9-1,6.8,1.2,9.2s5.9,3.4,9,2.3"/>
	<path class="st6" d="M393.4,126c0.4,4.2,4.1,7.8,8.3,8.2"/>
</g>
<g id="svgg">
	<path id="path0" class="st9" d="M319.1,231c-1.5,1-3.2,2.4-4.2,3.5l-0.9,0.9l0.9,1.3c0.5,0.7,2,2.8,3.2,4.6l2.3,3.3l0,1
		c0,1,0.4,2.4,0.5,2.4c0.1,0,3.7-6.1,3.9-6.5c0-0.1-0.1-0.1-0.3-0.2c-1.5-0.3-2.3-1.6-2.2-3.4c0.1-3.3-0.5-7.5-1.2-7.7
		C320.4,230.2,320.2,230.3,319.1,231 M331.8,231.9c-0.4,0.4-0.2,0.9,0.4,0.9s0.7-0.5,0.4-0.9c-0.1-0.1-0.3-0.2-0.4-0.2
		S331.9,231.8,331.8,231.9 M348.7,236.1c-0.2,0-0.7,0.1-1.2,0.2c-2.3,0.3-4.2,1.2-9.9,4.7c-3.4,2-4.4,2.6-6.5,3.5
		c-3,1.3-4.6,2.3-6.6,4.1l-0.8,0.7l0.5,0.7c0.3,0.4,1.9,2.7,3.6,5.2c7.1,10.2,11.5,16.1,12.2,16.3c0.5,0.2,10.6-3,22.9-7.3
		c6.8-2.4,23.8-8.5,23.9-8.6c0.4-0.4-1.2-8.8-2.4-12.4c-0.8-2.4-0.6-2.2-2.6-2.3c-3.5-0.2-8.8-1-15.8-2.4c-9-1.8-10.1-2-11.5-2.1
		C353,236,349.3,236,348.7,236.1 M312,238c-4.3,6.6-4.5,14.8-0.6,24.1l0.5,1.3h-0.4c-2,0-7.1-2.9-7.2-4.2c-0.1-1-0.2,1.6-0.2,4.5
		c0,6.5,0.6,11.7,2.1,16.9l0.5,1.8l37.4,12.2l37.4,12.2l0.4-0.5c3.7-4,7-9.8,8.7-15.1c0.4-1.1,1.1-4,1.1-4.2c0,0-0.5,0.1-1.1,0.4
		c-1.9,0.9-6.5,2.6-6.7,2.4c0,0,0.3-0.5,0.8-1c4.2-5.3,6.7-11.8,7.1-18.1l0.1-1.3l-0.9,0.8c-2,1.8-5.2,4-7.1,4.8l-0.5,0.2l0.2-0.5
		c1.5-2.9,2.6-8.3,2.8-14.3l0.1-2.1l-1,0.4c-0.6,0.2-2.8,1-5,1.7c-10.6,3.6-32,10.8-37.1,12.6c-2,0.7-3.7,1.2-3.8,1.2
		c-0.7,0-7.6-9.5-21.7-29.8c-2.7-4-5-7.3-5.1-7.4C312.8,236.9,312.6,237,312,238"/>
	<path id="path1" class="st10" d="M351.6,196.7c-3.5,1.4-6.2,3.4-8.2,5.8c-0.9,1.1-0.9,1.1-0.1,0.7c0.4-0.1,1.3-0.5,2-0.7l1.4-0.5
		l0.6-0.9c1.1-1.6,2.5-2.9,4.4-4.1C352.8,196.3,352.8,196.2,351.6,196.7 M353.6,199.1c-0.6,0.3-1.4,0.9-1.8,1.2l-0.6,0.6l0.9-0.2
		c0.7-0.1,1-0.2,1.1-0.4c0.1-0.2,0.5-0.6,0.9-1.1c0.4-0.4,0.6-0.8,0.6-0.8C354.7,198.5,354.2,198.8,353.6,199.1 M356.7,206
		c-6.9,7.8-6.9,7.8-6.7,7.6c0.1-0.1,0.2-0.1,0.3-0.1c0,0,0.1,0,0.1-0.1s0.1-0.1,0.1-0.1c0.1,0,0.1,0.2,0.1,0.3c0,0.2,0,0.2-0.1,0
		c-0.1-0.1-0.1-0.1-0.3,0c-0.1,0.1-0.2,0.1-0.3,0.1c0-0.1-0.1,0,0,0.1s0.2,0.1,0.4,0.1c0.2,0,0.3,0,0.2,0.1c0,0.1-0.1,0.1-0.2,0.1
		c-0.1,0-0.1,0-0.2,0.1c-0.1,0.1,0,0.2,0.2,0.1c0.2-0.1,0.2-0.1,0.1,0.2c-0.1,0.2-0.2,0.2-0.2,0.1c-0.1-0.2-0.3-0.2-0.3,0
		c0,0.2,0.4,0.2,0.6,0c0.3-0.3,2.5-1.6,3.5-2.2l0.9-0.5l-1.1,1.1c-3.7,3.8-7.5,9.1-11.3,15.9c-2.8,5-4.5,6.6-9.3,8.8
		c-1.4,0.6-2.8,1.3-3.2,1.5c-0.9,0.5-0.9,0.5,0.5-1.6l1.2-1.8l-0.6-0.1c-2-0.4-1.8-4.8,0.3-6.9c1.5-1.5,4.5-1.7,5.4-0.4l0.3,0.4
		l0.1-0.3c0.2-0.6,3.8-4.8,6.4-7.6c1.1-1.2,1.7-2,0.9-1.3c-0.1,0.1-0.5,0.3-0.8,0.4c-1.6,0.4-2,0.6-2.3,0.8
		c-0.2,0.1-0.5,0.3-0.8,0.4c-0.3,0.1-0.6,0.2-0.8,0.4c-0.2,0.2-0.5,0.3-0.8,0.4c-0.9,0.2-1.9,0.5-2.2,0.8c-0.2,0.1-0.4,0.2-0.5,0.2
		s-0.3,0.1-0.5,0.3c-0.2,0.2-0.4,0.3-0.5,0.3c-0.3,0-2.2,0.6-2.4,0.8c-0.1,0.1-0.6,0.3-1.1,0.4c-0.5,0.1-1.1,0.4-1.2,0.5
		s-0.4,0.2-0.5,0.2c-0.4,0-1.3,2-1.7,3.9c-0.3,1.3-0.3,5.3,0,7l0.2,1.1l-1.6,1.9c-0.9,1-1.6,1.9-1.5,1.9c0.3,0.1,1.8-0.4,2.6-0.8
		l1-0.5v0.8c0,1.1,0.2,1.8,0.6,2.2l0.4,0.4l-0.7,0.4c-1.8,1-3.8,2.7-5.4,4.6c-1.4,1.8-1.4,1.8,0.2,0.2c2-2,4-3.2,6.7-4.3
		c1.7-0.7,3.6-1.7,6.5-3.4c4.9-3,7.1-4.1,8.8-4.6c0.5-0.1,0.8-0.2,0.8-0.2c-0.6,0-0.1-0.8,0.5-0.8c0.8-0.1,4.1,0.2,5.5,0.4
		c0.6,0.1,1.5,0.2,2,0.3c0.8,0.1,5.1,0.9,5.7,1.1c0.2,0.1,1.1-0.8,5-5.3c3.5-4,4.8-5.4,5-5.3c2,0.7,6.4,4.5,8.5,7.2
		c1.1,1.4,1.5,1.8,0.8,0.9c-0.2-0.3-0.4-0.6-0.4-0.6c0.1-0.1,29.7-9.4,29.8-9.4c0.2,0,0.3,1.6,0.2,3.5c-0.1,2.2-0.9,5.6-1.1,5.1
		c-0.9-2.4-1.6-3.5-3.1-5c-1.2-1.3-1.3-1.2-1,0.2c0.6,3.4,0,7.7-1.5,10.6c-0.6,1.3-0.6,1.3-0.9,0.1c-0.4-2.1-1.4-3.8-2.9-4.9
		c-0.7-0.5-0.7-0.5-0.5,0.2c0.3,1.8-0.1,5-1,7.6c-0.4,1.3-2.3,5.1-2.4,5c0,0-0.1-0.6-0.2-1.1c-0.4-2.5-1.3-4.8-2.3-5.8
		c-0.7-0.7-0.7-0.7-0.6,0.2c0.4,2.4-1.3,6.9-4.3,11.6l-1.1,1.7l0,1.7l0,1.7l17.6-7.6c9.7-4.2,17.6-7.6,17.7-7.6
		c0.7,0.4-1-5.5-2.5-8.3c-0.4-0.7-0.6-1.3-0.6-1.4s0-0.1-0.1-0.1s-0.2-0.2-0.3-0.4c-0.2-0.5-1.6-2.6-1.9-2.9
		c-0.1-0.1-0.2-0.3-0.2-0.3s-0.1-0.2-0.3-0.4c-0.2-0.2-0.4-0.5-0.5-0.7c-0.1-0.2-0.3-0.5-0.5-0.7c-0.1-0.1-0.3-0.3-0.3-0.3
		c0-0.3-4-5.2-6.3-7.5c-6-6.3-17.7-13.1-25.4-14.8c-0.5-0.1-1.6-0.4-2.4-0.7c-5.5-2.1-11.8-3.2-17.5-3.2H362L356.7,206 M333.3,206.3
		l-0.4,0.4L333.3,206.3c0.4-0.3,0.5-0.4,0.4-0.4C333.7,205.9,333.5,206.1,333.3,206.3 M329.6,207.7c-25.3,12.4-37.7,38.9-30.8,65.8
		c1.5,5.9,4.4,12.1,8.1,17.3c1.6,2.3,4.1,5.2,4.3,5.1c0.1,0,0.1,0,0.1,0.1c0,0.1,0.3,0.5,0.8,0.9s0.9,0.9,1,1.1s0.3,0.3,0.4,0.3
		c0.1,0,0.8,0.3,1.4,0.7c1.1,0.7,2.6,1.5,3.3,1.7c0.2,0.1-0.2-0.4-1.2-1.4c-3.9-4-7-8.6-9.1-13.8c-0.2-0.5-0.3-0.9-0.3-1
		s0-0.1,0-0.2c-0.1-0.2-0.5-1.2-0.5-1.5c0-0.1-0.1-0.2-0.1-0.2c-0.4,0-2-7-2.4-10.9c-0.5-4.4-0.6-13.7-0.1-12.5
		c0.3,0.8,2.3,2.4,4,3.3c1.6,0.8,1.6,0.8,1.3-0.5c-0.1-0.5-0.2-1.1-0.3-1.5l-0.1-0.7l0.5,0.9c1,1.7,2.3,3.3,1.8,2.2
		c-4.2-9.6-4.2-17.9,0.1-24.6l0.7-1.1v-3.3l1.1-1.1c2.2-2.3,7.3-5.5,7.5-4.6c0,0.1,0.1-0.3,0.1-1c0-3.4,1.1-5.5,5.3-10.7
		c0.5-0.6,1.2-1.7,1.7-2.6c1-1.8,2.8-4.5,4.1-6c0.5-0.6,0.8-1,0.6-0.8c-0.4,0.3-1.3,0.3-1.1,0C331.7,206.7,331.8,206.6,329.6,207.7
		 M337.2,230.3c0,0.4,0,0.6,0,0.3s0-0.6,0-0.7S337.2,229.9,337.2,230.3 M336.3,233.1c-0.1,0.2-0.2,0.4-0.1,0.4
		c0.1,0,0.5-0.8,0.4-0.8C336.6,232.7,336.5,232.9,336.3,233.1 M315,234.2l-0.7,0.8L315,234.2c0.8-0.6,0.9-0.8,0.8-0.8
		C315.8,233.4,315.4,233.8,315,234.2 M313.4,235.9c-0.7,0.9-0.9,1.2-0.4,0.6c0.5-0.5,1-1.2,0.9-1.2
		C313.9,235.4,313.7,235.6,313.4,235.9 M350.2,236c0.3,0,0.9,0,1.2,0c0.3,0,0.1-0.1-0.6-0.1S349.9,235.9,350.2,236 M422.1,242.6
		c0,0.4,0,0.5,0,0.3c0-0.2,0-0.5,0-0.7S422.1,242.2,422.1,242.6 M422.2,244.4c0,0.4,0,0.6,0,0.4c0-0.2,0-0.6,0-0.8
		C422.2,243.8,422.2,244,422.2,244.4 M422.1,246.1c0,0.4,0,0.5,0,0.3c0-0.2,0-0.5,0-0.7S422.1,245.8,422.1,246.1 M416.2,247.7
		c-0.4,4.2-2.4,9.6-5,13.3l-0.4,0.5v-2.2c0-3.1-0.4-5.5-1.3-7l-0.2-0.4l-0.1,0.5c-1.1,6-4.7,12.5-9.2,16.3c-1,0.8-1,0.8-0.7-0.3
		c0.8-2.8,0.8-6.2,0.1-8.8c-0.3-1.2-0.4-1.2-0.9,0c-1.4,3.2-3.5,6.4-5.8,8.9l-0.8,0.9l-0.1,1.5c-0.3,5.9-2.8,12.4-6.9,17.7
		c-0.5,0.7-0.9,1.3-0.9,1.3c0.2,0,4.3-1.5,5.6-2.1c0.9-0.4,1.8-0.8,1.9-0.8c1.9-0.2,8.5-5.1,10.1-7.5l0.4-0.6l-0.1,0.7
		c-0.5,4.4-3.4,10.3-7.5,15.3c-1,1.3-1,1.2,0.4,0.9c6.4-1.7,12.4-5.5,14.9-9.4c0.4-0.6,0.4-0.5,0.1,0.7c-0.8,3.9-3.8,9-8.3,14.4
		c-1.2,1.4-1.2,1.4,0.2,1c5.2-1.4,11-5.2,15.2-10.2c8-9.4,11.2-22.5,9.2-37.9c-0.2-1.3-0.3-2.4-0.2-2.5c0-0.1,0-0.1,0-0.1
		c-0.1,0-0.6-2.5-0.5-2.7c0-0.1,0-0.1-0.1-0.1c-0.1,0.1-0.1,0-0.1-0.1c0-0.2-0.4-0.4-1.6-0.9c-1.3-0.6-1.6-0.8-1.6-1
		c0-0.1-0.1,0.2-0.2,0.7c-0.4,2.1-1.1,4.1-2.1,5.8c-0.6,1-0.7,1-0.7-0.1c0-2.3-1.1-5.8-2.1-6.9C416.3,245.9,416.4,245.9,416.2,247.7
		 M314.3,299.1c0.4,0.4,0.7,0.7,0.7,0.7c0.1,0-1-1.2-1.2-1.3C313.8,298.5,314,298.7,314.3,299.1 M380.4,307.8
		c-4.6,4.5-9.2,7.8-15.6,11.1c-1.4,0.7-1.5,1-0.2,0.9c9.5-1.2,18.8-5.1,23-9.5c0.5-0.5,0.6-0.4-2.5-2.4c-1.6-1-2.6-1.8-2.6-1.9
		C382.5,305.7,382.7,305.6,380.4,307.8 M387.5,310.8c-2,3.5-6.2,7.2-10.7,9.6c-0.7,0.4-1.2,0.7-1.2,0.7c0.2,0.2,5.7-1.1,8.8-2.1
		c3.7-1.2,10.1-3.9,9.9-4.2c0-0.1,0-0.1,0.1,0c0.1,0,0.4-0.1,0.7-0.2c0.4-0.2,0.4-0.3,0.2-0.2c-0.2,0.1-0.9-0.3-3.6-2.1
		c-1.8-1.2-3.4-2.2-3.4-2.2C388.1,309.8,387.8,310.3,387.5,310.8"/>
	<path id="path2" class="st11" d="M333.8,230.2c-0.6,0.1-1.1,0.5-1.7,1.2l-0.4,0.5l0.4-0.1c0.7-0.1,0.9,0.8,0.4,1.1
		c-0.3,0.2-0.8,0-0.9-0.4c0-0.1,0-0.1-0.1,0.1c-0.1,0.4-0.1,1.5,0,2l0.1,0.5l0.2-0.4c0.2-0.4,0.3-0.4,0.6-0.2
		c0.8,0.4,1.9,0.1,2.5-0.7c0.5-0.7,0.2-2.1-0.6-2.5l-0.3-0.2l0.2-0.4C334.8,230,334.7,230,333.8,230.2 M308.2,285.9
		c3.6,8.5,9.6,15.3,18.1,20.4c1.7,1,4.9,2.7,4.9,2.5c0-0.1-0.6-1.2-1.2-2.5c-2.6-5.1-5.6-12.8-5.4-13.6c0-0.1,0.6,0.4,1.3,1
		c4.3,3.8,8.6,6,13.1,6.6c0.9,0.1,0.8,0-2-3.8c-1-1.3-1.9-2.6-2-2.8c-0.4-0.6,1.2,0-14.1-5c-7.1-2.3-12.9-4.2-13-4.2
		S307.8,285.1,308.2,285.9 M323.4,305.8c0.3,0.2,2.3,1.2,2.1,1.1c-0.1-0.1-0.6-0.4-1.2-0.7S323.3,305.7,323.4,305.8"/>
	<path id="path3" class="st12" d="M350.2,196.3c-3.7,0.6-8.1,2.6-11.6,5.2c-1.8,1.3-4,3.3-4.7,4.2c-0.3,0.3-1,1.2-1.5,1.9
		c-1.3,1.6-3.1,4.2-4.2,6.2c-0.5,0.8-1.2,2-1.7,2.6c-5.5,6.8-6,8.8-4.7,15.9c0.4,1.9,0.5,3.9,0.5,5.7c-0.1,1.9,0.7,3.1,2.2,3.4
		c0.2,0,0.3,0.1,0.3,0.2c-0.1,0.3-3.8,6.5-3.9,6.5c-0.2,0-0.5-1.5-0.5-2.4l0-1l-2.3-3.3c-3.5-5.1-4-5.8-4.1-5.8c0,0-0.3,0.3-0.6,0.7
		l-0.5,0.7l5.1,7.4c14.5,20.9,21.1,30,21.8,30c0.1,0,1.8-0.5,3.8-1.2c5.1-1.7,26.5-9,37.1-12.6c2.2-0.7,4.5-1.5,5-1.7l1-0.4
		l-0.1,2.1c-0.2,5.9-1.3,11.3-2.8,14.3l-0.2,0.5l0.5-0.2c5.5-2.2,11.5-8.5,14.4-15c0.7-1.5,0.7-1.5,1-0.3c0.7,2.6,0.7,6-0.1,8.8
		c-0.3,1.1-0.3,1.2,0.7,0.3c4.5-3.9,8.1-10.3,9.2-16.3l0.1-0.5l0.2,0.4c0.8,1.5,1.3,3.9,1.3,7v2.2l0.4-0.5c2.6-3.7,4.6-9.1,5-13.3
		c0.2-1.7,0.2-1.7,0.7-1.1c0.9,1,1.6,3,1.9,5.6c0.1,0.8,0.2,1.6,0.3,1.9l0.1,0.4l0.4-0.6c1.8-2.7,2.8-7,2.5-10.6
		c0-0.8-0.1-1.4-0.2-1.4s-8,3.4-17.7,7.6l-17.6,7.6l0-0.8c0-0.7-0.1-0.8-0.2-0.7c-2.8,1.1-18,6.5-23.8,8.6
		c-12.1,4.2-22.3,7.5-22.8,7.3c-0.7-0.3-6.8-8.6-15.3-20.8c-0.4-0.6-0.9-1.2-0.9-1.3c-0.1-0.1-0.3,0.1-0.6,0.4
		c-0.8,0.9-0.3,0.1,0.8-1.2c1.6-1.9,3.6-3.7,5.4-4.6l0.7-0.4l-0.4-0.4c-0.4-0.4-0.6-1.2-0.6-2.2v-0.8l-1,0.5
		c-0.9,0.4-2.4,0.9-2.6,0.8c-0.1,0,0.6-0.9,1.5-1.9l1.6-1.9l-0.2-1.1c-0.3-1.6-0.3-5.7,0-7c0.4-1.9,1.3-3.9,1.7-3.9
		c0.1,0,0.3-0.1,0.5-0.2c0.1-0.1,0.7-0.4,1.2-0.5c0.5-0.1,1-0.3,1.1-0.4c0.1-0.2,2-0.8,2.4-0.8c0.1,0,0.3-0.1,0.5-0.3
		c0.2-0.2,0.4-0.3,0.5-0.3s0.3-0.1,0.5-0.2c0.3-0.2,1.4-0.6,2.2-0.8c0.2-0.1,0.6-0.2,0.8-0.4c0.2-0.2,0.5-0.3,0.8-0.4
		c0.3-0.1,0.6-0.2,0.8-0.4c0.3-0.2,0.7-0.4,2.3-0.8c0.3-0.1,0.6-0.2,0.8-0.4c0.8-0.7,0.3,0.1-0.9,1.3c-1.6,1.7-3.2,3.5-4.7,5.4
		c-1.9,2.4-1.8,2.1-1.6,2.9c0.7,2.9-1.8,6.2-4.8,6.6l-0.6,0.1l-1.1,1.7c-1.4,2.1-1.4,2.1-0.5,1.6c0.4-0.2,1.8-0.9,3.2-1.5
		c4.8-2.2,6.4-3.7,9.3-8.8c3.8-6.8,7.6-12.1,11.3-15.9l1.1-1.1l-0.9,0.5c-1,0.5-3.1,1.9-3.5,2.2c-0.2,0.2-0.6,0.2-0.6,0
		c0-0.2,0.2-0.1,0.3,0c0,0.1,0.1,0,0.2-0.1c0.1-0.3,0.1-0.3-0.1-0.2c-0.2,0.1-0.2,0-0.2-0.1c0-0.1,0.1-0.2,0.2-0.1s0.1,0,0.2-0.1
		c0.1-0.1,0-0.1-0.2-0.1c-0.2,0-0.4,0-0.4-0.1s0-0.1,0-0.1c0,0.1,0.2,0,0.3-0.1c0.1-0.1,0.2-0.2,0.3,0c0.1,0.1,0.1,0.1,0.1,0
		c0-0.1,0-0.2-0.1-0.3s-0.1,0-0.1,0.1s0,0.1-0.1,0.1c0,0-0.2,0-0.3,0.1c-0.2,0.2-0.2,0.1,6.7-7.6l5.3-5.9l0.7,0
		c0.4,0-0.2-0.1-1.3-0.1c-3.2,0-6.6,0.2-9.3,0.8l-0.9,0.2l0.6-0.6c0.6-0.6,2.3-1.6,2.7-1.6c0.5-0.1,0.3-0.2-0.2-0.1
		c-1.7,0.2-6.4,2.1-7.5,3.2c-0.1,0.1-1,0.5-1.9,0.8c-0.9,0.3-1.8,0.6-2,0.7c-1.4,0.7,2.3-3.1,4.4-4.4c1.3-0.9,4.5-2.4,4.9-2.4
		c0.2,0,0.3-0.1,0.3-0.1s0.1-0.1,0.2-0.1C353.5,196.2,351.2,196.3,350.2,196.3 M394.5,229.5c-8.1,2.6-14.8,4.7-14.8,4.7
		c0,0,0.4,0.7,0.9,1.4c1.8,2.7,3.1,5.2,2.7,5.2c-0.2,0-0.2,0,0,0.1c0.8,0.3,2.9,8.9,3.3,12.9c0.1,0.9,0.1,1,0.1,0.5
		c0-0.6,0.1-0.8,1.1-2.4c3-4.7,4.7-9.2,4.3-11.6c-0.2-0.9-0.1-1,0.6-0.2c1,1.1,1.9,3.4,2.3,5.8c0.1,0.6,0.2,1.1,0.2,1.1
		c0.1,0.1,1.9-3.7,2.4-5c0.9-2.6,1.3-5.8,1-7.6c-0.1-0.8-0.1-0.8,0.5-0.2c1.5,1.2,2.5,2.8,2.9,4.9c0.2,0.8,0.5,0.7,0.9-0.1
		c1.4-2.9,2-7.1,1.5-10.6c-0.2-1.5-0.2-1.5,1-0.2c1.5,1.5,2.2,2.7,3.1,5c0.2,0.6,1-2.9,1.1-5.1c0.1-2.1,0.1-3.5-0.2-3.5
		C409.3,224.7,402.6,226.9,394.5,229.5 M308.6,248.8c0,0.3,0,0.5,0,0.3c0-0.2,0-0.5,0-0.6S308.6,248.5,308.6,248.8 M308.6,250.5
		c0,0.3,0,0.5,0,0.3c0-0.2,0-0.5,0-0.6S308.6,250.2,308.6,250.5 M304.2,259.5c0,0.2,0,0.4,0,0.4s0.1-0.2,0.1-0.4c0-0.2,0-0.4,0-0.4
		S304.2,259.3,304.2,259.5 M309.5,260.4c0,0.3,0.2,1,0.3,1.6c0.1,0.7,0.2,1,0,1c-0.2,0.1,1.3,0.5,1.9,0.5c0.2,0,0.3,0,0.2-0.1
		s-0.1-0.1-0.1-0.2c0-0.1,0-0.1-0.1,0c-0.2,0.1-1.1-1.1-1.9-2.5l-0.5-0.9L309.5,260.4 M304.1,264.1c0,1.3,0,1.9,0,1.3
		c0-0.6,0-1.8,0-2.4S304.1,262.7,304.1,264.1 M304.2,268.5c0,0.2,0,0.3,0.1,0.2s0-0.3,0-0.4S304.2,268.3,304.2,268.5 M307,282.6
		c-0.1,0.1,0.5,1.6,0.7,1.8c0.2,0.1,7.6,2.5,49.6,16.2l23,7.5l0.6-0.6c0.3-0.4,0.5-0.7,0.5-0.7c-0.1-0.1-48.3-15.8-48.8-15.9
		c0,0-0.1,0-0.2,0c0,0-0.1,0-0.2-0.1s-0.1,0-0.2-0.1c0,0-0.1,0-0.2-0.1s-0.1,0-0.2-0.1c0,0-0.1,0-0.2-0.1s-0.1,0-0.2-0.1
		c0,0-0.1,0-0.2-0.1s-0.1,0-0.2-0.1c0,0-0.1,0-0.2-0.1s-0.1,0-0.2-0.1c0,0-0.1,0-0.2-0.1s-0.1,0-0.2-0.1c0,0-0.1,0-0.2-0.1
		s-0.1,0-0.2-0.1c0,0-0.1,0-0.2-0.1s-0.1,0-0.2,0s-0.1,0-0.3-0.1c-0.5-0.1-18.5-5.9-18.6-6.1c-0.1-0.1-0.2-0.1-0.2,0s-0.1,0-0.2-0.1
		s-0.2-0.1-0.2-0.1s-0.1,0-0.2-0.1c-0.1-0.1-0.2-0.1-0.2-0.1s-0.1,0-0.2-0.1c-0.1-0.1-0.2-0.1-0.2-0.1s-0.1,0-0.2-0.1
		c-0.1-0.1-0.2-0.1-0.2-0.1s-0.1,0-0.2-0.1c-0.1-0.1-0.2-0.1-0.2-0.1s-0.1,0-0.2-0.1c-0.1-0.1-0.2-0.1-0.2-0.1s-0.1,0-0.2-0.1
		c-0.1-0.1-0.2-0.1-0.2-0.1s-0.1,0-0.2-0.1c-0.1-0.1-0.2-0.1-0.2-0.1s-0.1,0-0.2,0s-0.2-0.1-0.2,0"/>
	<path id="path4" class="st13" d="M332.7,206.4c-0.8,0.4-1.2,0.6-1.1,0.7c0.4,0.3,1,0.1,1.5-0.5c0.3-0.4,0.6-0.7,0.5-0.6
		C333.7,205.9,333.2,206.1,332.7,206.4 M365.6,231.8c-2.6,2.9-4.7,5.4-4.7,5.4c0,0,7.2,1.5,9.1,1.9c4.5,0.8,9.2,1.5,12,1.7l1.4,0.1
		l-0.1-0.3c-1.3-4.2-8.9-12.6-12.7-13.9C370.4,226.5,369.1,227.9,365.6,231.8 M319.7,228.5c-2.4,1.1-4.4,2.4-6.1,4.3l-1.1,1.1v3.3
		l0.3-0.4c2.5-3.2,6.7-6.6,8-6.5l0.6,0.1l-0.1-1C321.1,227.7,321.3,227.8,319.7,228.5 M332.7,228.1c-2.5,1-3.7,4.3-2.6,7.1
		c0.4,1.1,2.2,1.1,4.2,0.2c2.7-1.3,4-6.2,1.8-7.2C335.4,227.8,333.6,227.8,332.7,228.1 M334.6,230.2c0,0.1-0.1,0.3-0.2,0.5l-0.2,0.4
		l0.3,0.2c0.8,0.4,1.1,1.8,0.6,2.5c-0.6,0.8-1.7,1.1-2.5,0.7c-0.4-0.2-0.4-0.2-0.6,0.2l-0.2,0.4l-0.1-0.5c-0.6-2.1,0.9-4.4,3-4.6
		C334.5,230.1,334.6,230.1,334.6,230.2 M419.5,233.4c1.6,3.1,2.5,6.1,2.8,9.5c0.1,1.4,0.1,2-0.1,3.8l-0.1,0.6l1.6,0.7l1.6,0.7
		l0.3,1.4c0.3,1.8,0.4,1.9,0.4,1.5c0.2-3-3.4-13.1-6.5-18.6C418.7,231.9,418.8,232.1,419.5,233.4 M346.8,235.5
		c-0.4,0.4-0.1,0.8,0.5,0.7c1.3-0.2,3.4-0.3,5-0.3l1.7,0.1l-1.1-0.2C350.7,235.5,347,235.3,346.8,235.5 M426.1,252.8
		c0,0.1,0.1,1,0.2,2.1c2.5,19.4-3.7,35.5-16.9,44.2c-2.5,1.6-5.1,2.8-7.5,3.5c-1.4,0.4-1.4,0.5-0.2-1c4.5-5.4,7.5-10.5,8.3-14.4
		c0.3-1.3,0.2-1.3-0.1-0.7c-2.5,3.9-8.5,7.7-14.9,9.4c-1.4,0.4-1.4,0.4-0.4-0.9c4.1-5,7-11,7.5-15.3l0.1-0.7l-0.4,0.6
		c-1.4,2.1-4.6,4.6-8.2,6.6l-1.6,0.9l-0.4,1.6c-1.6,6.1-4.3,11.7-8.1,16.2c-0.5,0.6-0.9,1.2-0.9,1.2s1,0.7,2.3,1.5s2.5,1.6,2.8,1.9
		l0.5,0.4l0.2-0.3l0.2-0.3l-0.1,0.3c-0.1,0.2-0.1,0.3-0.1,0.3c0,0,1.6,1,3.4,2.2c3.8,2.5,3.6,2.4,4.7,1.7c0.2-0.2,0.5-0.3,0.7-0.4
		c0.4-0.1,3.5-2.1,4.9-3.1c3.3-2.3,6.9-5.4,9.4-8.2c0.3-0.4,0.7-0.8,0.9-1c10.7-12,16-27.2,14.7-42.5
		C426.6,256,426.1,251.8,426.1,252.8 M309.1,288.2c0,0.1,0.5,1,0.6,1c0,0-0.1-0.2-0.2-0.5C309.2,288.2,309.1,288.1,309.1,288.2
		 M313.5,298.2c0.1,0.1,0.3,0.3,0.4,0.4c0.2,0.1,0.3,0.2,0.2,0.2s0,0.1,0.1,0.2c0.1,0,0.1,0,0.1,0c0-0.1,0.4,0.3,0.9,0.9
		c3.9,3.7,11.2,8.1,14.9,8.9c1,0.2,1,0.2-0.3-0.5c-4.5-2.2-8.5-5-12.2-8.5c-1.6-1.5-1.7-1.6-0.6-0.5c1.3,1.3,1.4,1.4,0.9,1.2
		c-0.8-0.3-2.5-1.2-3.6-1.9C313.8,298.3,313.4,298.1,313.5,298.2"/>
</g>
<g id="svgg-2">
	<path id="path0-2" class="st14" d="M156.1,92.9c-11,7.7-18.9,13.1-19,13c-0.1,0-2.6-1.8-5.7-3.9c-3-2.1-5.5-3.8-5.6-3.8
		s-0.1,1.8,0,4.1l0,4.1l6,4c3.3,2.2,6,4,6.1,4s8.7-6,19.3-13.3l19.2-13.3l-0.1-2.4c0-1.5-0.1-2.6-0.2-3.1c-0.1-0.4-0.1-0.7-0.1-0.8
		s0-0.1-0.1,0c-0.1,0.1-0.2-0.1-0.1-0.5c0-0.1,0-0.1-0.1-0.1c0,0-0.2-0.2-0.4-0.5s-0.3-0.6-0.4-0.6C175,79.9,166.4,85.8,156.1,92.9
		 M89,85.8c-9.1,1.2-15.9,8.6-17.8,19.5c-3.7,20.6,7.1,36.3,23.1,33.7c9.5-1.6,16.1-10.2,17.2-22.6C113.4,97.3,103.6,83.9,89,85.8
		 M93.7,95.9c4.8,1.3,7.7,6.5,8.1,14.8c0.6,11.7-4.1,19.2-11.6,18.4c-6-0.7-9.6-6.8-9.6-16.5c0-9.7,3.2-15.5,9.2-16.8
		C90.5,95.6,92.9,95.7,93.7,95.9"/>
	<path id="path1-2" class="st15" d="M125.8,87.3v10.8l5.6,3.9c3.1,2.2,5.7,3.9,5.7,3.9c0.1,0,37.7-26,37.9-26.2c0.4-0.4-2-2.4-3.5-3
		l-0.7-0.3l-22.5,0l-22.5,0L125.8,87.3 M157.1,101.1c-10.5,7.3-19.2,13.3-19.2,13.3s-2.7-1.7-5.9-3.8s-5.9-3.9-6-4l-0.2-0.1v42.1
		h22.4c21.9,0,22.4,0,23.2-0.2c2.4-0.7,4.3-2.9,4.9-5.6c0.1-0.8,0.2-3.4,0.1-27.8l0-27L157.1,101.1"/>
	<path id="path2-2" class="st16" d="M90.2,51.7C70.8,55.9,55,59.3,55,59.3c0,0,0,23.9,0,53.1v53.1l0.2,0.1
		c0.5,0.1,70.3,15.1,70.4,15.1c0.1,0,0.1-12.9,0.1-68.2V44.2h-0.2C125.4,44.2,109.5,47.6,90.2,51.7 M94.9,85.8
		c11.4,1.9,18.3,14.5,16.7,30.5c-1.5,15.1-10.9,24.4-23.2,22.8c-12-1.6-19.3-14.1-17.8-30.3C72.2,93.1,82.1,83.7,94.9,85.8
		 M90.4,95.8c-6.1,0.5-9.8,6.9-9.8,16.7s3.8,16.3,10.1,16.6c6.9,0.3,11-5.8,11-16.5c0-9.9-3.4-16.2-9-16.8
		C91.5,95.7,91.3,95.7,90.4,95.8"/>
	<path id="path3-2" class="st17" d="M175.1,79.9c0.1,0.1,0.2,0.4,0.4,0.8s0.3,0.5,0.2,0.3c-0.1-0.4-0.6-1.2-0.7-1.2
		C175,79.8,175,79.8,175.1,79.9 M176.1,82.2c0,0.2,0.1,0.7,0.1,1.1c0.1,0.7,0.1,0.7,0.1,0.2c0-0.3-0.1-0.8-0.1-1.1
		C176.1,82.1,176,82,176.1,82.2 M101.8,112.1c0,0.2,0,0.3,0.1,0.2c0-0.1,0-0.3,0-0.4S101.8,111.9,101.8,112.1 M101.8,113.2
		c0,0.2,0,0.3,0.1,0.2c0-0.1,0-0.3,0-0.4S101.8,112.9,101.8,113.2 M84.6,126.1c0.4,0.5,0.5,0.6,0.5,0.5
		C85.1,126.6,84.9,126.4,84.6,126.1l-0.5-0.5L84.6,126.1"/>
	<path id="path4-2" class="st18" d="M91.2,85.6c0.3,0,0.8,0,1.1,0s0.1,0-0.5,0S90.9,85.6,91.2,85.6 M90.8,95.8c0.1,0,0.3,0,0.4,0
		c0.1,0,0-0.1-0.2-0.1S90.6,95.7,90.8,95.8 M91.7,95.8c0.1,0,0.3,0,0.3,0c0.1,0,0-0.1-0.2-0.1S91.6,95.7,91.7,95.8 M70.6,110.4
		c0,0.3,0,0.4,0,0.3c0-0.1,0-0.4,0-0.5S70.6,110.2,70.6,110.4 M111.8,112c0,0.3,0,0.4,0,0.3c0-0.1,0-0.4,0-0.5
		S111.8,111.8,111.8,112 M70.6,115.6c0,0.2,0,0.3,0.1,0.2c0-0.1,0-0.3,0-0.4C70.6,115.3,70.6,115.4,70.6,115.6 M77.1,133.1
		c0.3,0.3,0.5,0.6,0.6,0.6s-0.2-0.3-0.4-0.6c-0.3-0.3-0.5-0.6-0.6-0.6S76.8,132.8,77.1,133.1"/>
</g>
<g id="svgg-3">
	<path id="path0-3" class="st19" d="M521.9,77.7c-0.2,0-0.3,0-0.3,0.1c0,0.2,17.2,29.5,17.5,29.8c1.2,1.2,3,1.7,4.7,1.4
		c0.6-0.1,30.5-16.3,30.6-16.5s-1.1-0.6-26.4-7.6C530.3,80,522.1,77.7,521.9,77.7 M520.2,78.7c-0.1,0.2-1.4,4.8-4.5,15.9
		c-4.2,15.2-4.5,16.2-4.2,16.3c0,0,4.8-2.6,10.6-5.8l10.6-5.8l-6.1-10.4c-3.3-5.7-6.1-10.4-6.2-10.4S520.3,78.6,520.2,78.7
		 M564.3,99.4l-10.6,5.8l6.1,10.5l6.1,10.5l0.2-0.3c0.1-0.2,1.3-4.2,4.5-15.9c4.2-15.2,4.5-16.2,4.2-16.3
		C574.9,93.6,570.1,96.2,564.3,99.4 M522.7,106.2c-5.8,3.2-10.6,5.8-10.6,5.9c0.2,0.3,1.4,0.7,26.3,7.6s26.1,7.2,26.5,7.1
		c0,0-2.7-4.7-6.1-10.5l-6.1-10.5l-4.1,2.2c-5,2.7-5.4,2.8-7.6,2.3c-2.1-0.6-2.5-0.9-5.3-5.8l-2.4-4L522.7,106.2"/>
	<path id="path1-3" class="st20" d="M565.2,124.9c0.4,0.6,0.7,1.2,0.7,1.2S565.6,125.6,565.2,124.9c-0.3-0.6-0.6-1.1-0.6-1.1
		S564.8,124.3,565.2,124.9 M495.7,113.6c-2.1,10,2.3,18,11.9,21.8c2,0.8,46.9,13.2,49,13.6c10.1,1.7,18.6-3.3,21.4-12.7l0.2-0.7
		L537,124.2l-41.2-11.4L495.7,113.6"/>
	<path id="path2-3" class="st21" d="M558.9,102.2l-5.3,2.9l1.9,3.2l1.9,3.2l-0.8-0.2l-0.8-0.2l4.5,7.7c2.5,4.3,4.5,7.8,4.5,7.8
		c-0.1,0.2-1.3-0.1-26.5-7.1c-25.2-7-26.4-7.3-26.3-7.6c0,0,4.1-2.3,9-5s8.5-4.7,7.8-4.3l-1.2,0.6l-0.7-0.2l-0.7-0.2l3.3-1.8
		c1.8-1-1.5,0.8-7.4,4l-10.7,5.8l0-0.3c0-0.2,0.4-1.9,1.5-5.7l1.5-5.4l-6.9-1.9l-6.9-1.9l-2.2,8.2c-1.2,4.5-2.3,8.3-2.3,8.5l0,0.2
		l41.2,11.4l41.2,11.4l0-0.3c0-0.1,0.1-0.3,0.1-0.3c0.1,0,1-3.4,2.4-8.2l2.3-8.2l-6.9-1.9l-6.9-1.9l-1.5,5.4c-1.4,5.1-1.7,6-1.9,5.8
		c0,0-2.8-4.7-6.1-10.5l-6.1-10.4l5.3-2.9c2.9-1.6,5.2-2.9,5.2-2.9S561.8,100.6,558.9,102.2 M535.7,104.4c2.9,4.9,3.2,5.3,5.6,5.8
		c2,0.5,2.5,0.3,7.4-2.4c2.1-1.2,2.6-1.5,1.1-0.6l-2.7,1.5l-0.8-0.2c-0.7-0.2-0.8-0.2-1-0.1c-1,0.6-2.6,0.8-3.9,0.5
		c-1.6-0.4-2.2-1-3.5-3c-0.4-0.7-0.6-0.9-0.3-0.5l0.5,0.8l-0.7-0.2l-0.7-0.2l-1.6-2.7C534.1,101.6,534.4,102.2,535.7,104.4
		 M510.1,136.3c0.1,0.1,0.2,0.1,0.3,0.1s0,0-0.1-0.1S510,136.3,510.1,136.3"/>
	<path id="path3-3" class="st22" d="M531.1,55.9c-6.4-1.3-10.9-0.7-15.4,2.3c-4.5,2.9-6.6,6.4-8.9,14.8l-0.8,2.9l6.9,1.9l6.9,1.9
		l0.2-0.6c0.3-0.9,0.4-0.9,1,0.2l0.6,0.9l0.7,0.2l0.7,0.2l-0.8-1.4c-0.9-1.6-0.9-1.5-0.5-1.5c0.5,0,52,14.3,52.4,14.5l0.3,0.2
		l-1.4,0.8l-1.4,0.8l0.7,0.2l0.7,0.2l1-0.5c1.1-0.6,1.2-0.6,1,0.4l-0.1,0.6l6.9,1.9l6.9,1.9l1-3.8c2-7.5,2.1-11.2,0.3-15.3
		c-2.4-5.6-6-8.8-12.8-11.2C575.4,68,532.8,56.2,531.1,55.9"/>
	<path id="path4-3" class="st23" d="M521.4,77.8c0,0,0.4,0.7,0.8,1.5l0.8,1.4l-0.7-0.2l-0.7-0.2l-0.6-1c-0.3-0.5,2.2,3.8,5.6,9.6
		l6.1,10.5l-3.2,1.8l-3.2,1.8l0.7,0.2l0.7,0.2l2.8-1.5l2.8-1.5l1.6,2.7l1.6,2.7l0.7,0.2l0.7,0.2L529.8,92
		C525.2,84.1,521.5,77.8,521.4,77.8 M574,94l-0.9,0.5l-0.7-0.2l-0.7-0.2l0.4-0.2c0.2-0.1-5.6,3.1-13,7.1l-13.4,7.3l0.8,0.2l0.8,0.2
		l2.8-1.5l2.8-1.5l1.6,2.7l1.6,2.7l0.8,0.2l0.8,0.2l-1.9-3.2l-1.9-3.2l10.7-5.8c5.9-3.2,10.7-5.8,10.6-5.8
		C574.9,93.5,574.5,93.7,574,94 M503.3,85.9l-2.8,9.9l6.9,1.9l6.9,1.9l2.8-9.9l2.8-9.9l-6.9-1.9L506,76L503.3,85.9 M572.1,105
		l-2.8,9.9l6.9,1.9l6.9,1.9l2.8-9.9l2.8-9.9l-6.9-1.9l-6.9-1.9L572.1,105 M510.7,136.5c0.1,0.1,0.3,0.1,0.4,0.1s0,0-0.2-0.1
		S510.6,136.5,510.7,136.5 M521.7,139.6c5.7,1.6,15,4.2,20.7,5.7c5.7,1.6,1,0.3-10.3-2.9S516,138,521.7,139.6 M553,148.2
		c0.1,0.1,0.3,0.1,0.5,0.1c0.1,0,0,0-0.2-0.1C552.9,148.2,552.8,148.2,553,148.2"/>
</g>
</svg>
