<?xml version="1.0" encoding="UTF-8"?>
<svg id="_Слой_1" data-name=" Слой 1" xmlns="http://www.w3.org/2000/svg" viewBox="0 0 641.61 341.51">
  <defs>
    <style>
      .cls-1 {
        stroke: #fff;
      }

      .cls-1, .cls-2, .cls-3 {
        fill: none;
        stroke-linecap: round;
        stroke-linejoin: round;
      }

      .cls-2 {
        stroke: #ffe032;
      }

      .cls-3 {
        stroke: #00d692;
      }

      .cls-4 {
        fill: #00d692;
      }

      .cls-5 {
        fill: #00b9ff;
      }

      .cls-6 {
        fill: #fff;
      }

      .cls-7 {
        fill: #ffe032;
      }

      .cls-8 {
        fill: #ff504d;
      }

      .cls-9 {
        fill: #2966b7;
      }

      .cls-9, .cls-10, .cls-11, .cls-12, .cls-13, .cls-14, .cls-15, .cls-16, .cls-17, .cls-18, .cls-19, .cls-20, .cls-21, .cls-22, .cls-23 {
        fill-rule: evenodd;
      }

      .cls-10 {
        fill: #5aa7d4;
      }

      .cls-11 {
        fill: #5cc6f6;
      }

      .cls-12 {
        fill: #3f2986;
      }

      .cls-13 {
        fill: #359cd3;
      }

      .cls-14 {
        fill: #1c63f0;
      }

      .cls-15 {
        fill: #04acf3;
      }

      .cls-16 {
        fill: #1cdbfc;
      }

      .cls-17 {
        fill: #1c93f4;
      }

      .cls-18 {
        fill: #1cbdfb;
      }

      .cls-19 {
        fill: #210446;
      }

      .cls-20 {
        fill: #e8f5fb;
      }

      .cls-21 {
        fill: #f5f5f4;
      }

      .cls-22 {
        fill: #fbfbfc;
      }

      .cls-23 {
        fill: #0474bc;
      }
    </style>
  </defs>
  <g id="Laptop">
    <g id="Laptop-2">
      <polygon points="230.47 162.76 183.95 173.22 110.16 189.8 109.93 189.86 77.21 197.2 48.5 203.65 22.23 209.56 0 49.28 215.27 20.03 230.47 162.76"/>
      <polygon class="cls-7" points="233.28 158.02 189.2 167.93 119.3 183.63 119.08 183.69 88.09 190.65 60.89 196.76 35.99 202.35 14.94 50.51 82.8 41.29 218.87 22.8 225.5 85.02 233.28 158.02"/>
      <g>
        <path class="cls-1" d="m180.26,44.39c1.39,16.63,2.78,33.26,4.17,49.9,7.91-1.04,15.82-2.08,23.74-3.12"/>
        <path class="cls-1" d="m32.68,55.6l10.37,73.1c-7.38,1.13-14.77,2.25-22.15,3.38"/>
        <path class="cls-1" d="m37.84,53.82c2.58,18.35,5.17,36.7,7.75,55.05"/>
        <path class="cls-1" d="m188.43,98.47c7.89-.84,15.79-1.68,23.68-2.51"/>
      </g>
      <polygon points="229.95 162.45 22.14 209.56 21.58 225.63 178.41 255 323.61 191.27 323.61 182.4 229.95 162.45"/>
      <polyline class="cls-1" points="193.93 218.42 250.46 198.47 264.86 200.69"/>
      <line class="cls-1" x1="121.33" y1="204.57" x2="178.97" y2="215.65"/>
      <line class="cls-1" x1="112.47" y1="216.76" x2="218.87" y2="183.51"/>
      <line class="cls-1" x1="132.42" y1="224.52" x2="232.17" y2="190.16"/>
      <polyline class="cls-1" points="59.27 210.11 69.24 212.33 81.43 206.79"/>
    </g>
    <g id="Buttons">
      <path class="cls-5" d="m14.37,38.38c1.09,1.67,3.36,2.35,5.31,1.89,2.26-.53,4.14-2.54,4.39-4.86s-1.24-4.74-3.46-5.43c-4.28-1.35-8.68,4.67-6.23,8.4h-.01Z"/>
      <path class="cls-4" d="m35.43,35.06c1.09,1.67,3.36,2.35,5.31,1.89,2.26-.53,4.14-2.54,4.39-4.86.25-2.31-1.24-4.74-3.46-5.43-4.28-1.35-8.68,4.67-6.23,8.4h-.01Z"/>
      <path class="cls-8" d="m55.38,32.84c1.09,1.67,3.36,2.35,5.31,1.89,2.26-.53,4.14-2.54,4.39-4.86s-1.24-4.74-3.46-5.43c-4.28-1.35-8.68,4.67-6.23,8.4h-.01Z"/>
    </g>
  </g>
  <g id="Lines">
    <g>
      <path class="cls-3" d="m416.87,120.67c9.34.79,18.68,1.59,28.02,2.38"/>
      <path class="cls-3" d="m430.75,135.41h9.96"/>
      <path class="cls-3" d="m256.29,44.8c1.96-.25,3.76-1.34,5.08-2.81,1.24-1.38,2.12-3.21,1.94-5.06-.63-6.47-9.42-5.89-12.78-2.13-3.68,4.12.55,10.67,5.76,10Z"/>
      <path class="cls-3" d="m260.19,50.03c4.97-.53,8.98-5.6,8.35-10.55"/>
      <path class="cls-3" d="m235.11,97.5c18,1,30-1,35,1,11.55,4.62,12.68,21.79,26,0,11-18,10.62,7.63,29-20,3.14-4.72,9.87-19.69,15.8-19.11,11.2,1.11-3.73,27.79-4.9,35.2-.57,3.6,1.11,7.31,4.43,8.82,6.78,3.07,13.42-5.9,16-11.37,1.61-3.41,4.95-9.96,8.67-10.55,11.33-1.8,1.84,15.11,7,19,3.92,2.95,19.34-1.22,24.18-3.59,1.49-.73,3.2.17,3.71,1.75.6,1.85,2.36,3.16,6.44,4.07,1.9.42,3.84.62,5.78.67l58.92,1.28"/>
    </g>
  </g>
  <g id="Tablet">
    <g id="BG">
      <polygon class="cls-4" points="506.61 217.56 497.62 239.64 486.92 265.94 485.2 270.16 483.33 274.74 475.67 293.56 456.16 341.5 450.1 341.36 332.51 338.69 294.23 337.82 265.11 337.16 231.64 336.4 181.98 335.27 166.61 334.92 185.83 307.92 188.29 304.47 201.64 285.71 215.23 266.61 253.26 213.18 331.21 214.52 342.57 214.72 344.24 214.76 362.15 215.06 367.3 215.15 430.27 216.24 432.5 216.28 457.1 216.71 459.64 216.75 464.43 216.83 488.58 217.25 506.61 217.56"/>
      <path d="m475.26,290.34c-21.33,7.97-40.6,20.68-62.81,26.3-26.19,6.63-53.59,6.63-80.37,4.93-30.01-1.91-59.83-5.56-89.72-8.69-21.15-2.22-42.71-1.28-63.15,4.34l-12.61,17.71,15.37.35,49.66,1.13,33.47.76,29.12.66,38.28.87,117.59,2.67,6.06.14,19.51-47.94,1.61-3.96c-.68.24-1.35.49-2.01.74h0Z"/>
      <path d="m496.74,271.85c-8.77-1.1-9.92,10.23-3.29,10.97,9.87,1.1,12.06-9.87,3.29-10.97Z"/>
      <path class="cls-2" d="m488.07,288.78c5.37,2.85,12.54,1.75,16.81-2.57s5.28-11.51,2.36-16.84"/>
    </g>
  </g>
  <g id="Phone">
    <g id="BG-2">
      <path class="cls-5" d="m635.14,0c4.36,0,7.47,4.22,6.17,8.38l-30.44,97.99-25.79,83.01c-1.57,5.05-6.42,8.35-11.7,7.95l-48.74-3.68-48.24-3.65c-4.24-.32-7.02-4.57-5.61-8.58L532.81,4.33c.91-2.59,3.35-4.33,6.1-4.33h96.23Z"/>
      <path d="m629.8,15.63l-27.52,88.59-2.92,9.41-25.79,83.01c-1.56,5.05-6.42,8.35-11.69,7.95l-32.09-2.42-16.65-1.26-48.24-3.65c-4.24-.32-7.02-4.58-5.61-8.59l62.03-177.1c.91-2.59,3.35-4.33,6.1-4.33h96.22c4.36,0,7.47,4.22,6.17,8.38h0Z"/>
      <path class="cls-6" d="m522.36,191.37c4.27-5.83-.2-10.7-6.6-10.13-4.41.39-8.89,3.31-11.1,7.17-6.52,11.39,12.97,9.41,17.69,2.97h.01Z"/>
    </g>
  </g>
  <g id="Noise">
    <path class="cls-3" d="m244.41,130.16c-1.49,2.94-1.01,6.77,1.17,9.24s5.92,3.42,9.02,2.3"/>
    <path class="cls-3" d="m393.44,125.96c.38,4.2,4.06,7.85,8.26,8.21"/>
  </g>
  <g id="svgg">
    <path id="path0" class="cls-21" d="m319.14,230.99c-1.52,1.03-3.17,2.39-4.22,3.47l-.93.95.92,1.31c.51.72,1.95,2.79,3.21,4.6l2.29,3.29.04,1.03c.03.97.35,2.44.52,2.44.06,0,3.73-6.15,3.85-6.46.02-.05-.12-.12-.31-.16-1.5-.3-2.31-1.55-2.24-3.44.12-3.26-.55-7.54-1.19-7.67-.68-.13-.9-.06-1.93.64m12.64.94c-.38.37-.16.91.37.91s.74-.54.37-.91c-.11-.11-.27-.19-.37-.19s-.26.09-.37.19m16.88,4.15c-.17.02-.73.1-1.25.18-2.27.32-4.17,1.22-9.91,4.68-3.36,2.03-4.41,2.59-6.52,3.49-2.97,1.27-4.64,2.31-6.61,4.09l-.79.71.48.67c.27.37,1.9,2.7,3.64,5.18,7.13,10.17,11.54,16.09,12.17,16.33.53.2,10.64-3.03,22.86-7.3,6.77-2.37,23.76-8.5,23.88-8.63.43-.43-1.19-8.84-2.4-12.45-.8-2.37-.61-2.21-2.59-2.33-3.45-.21-8.78-1.04-15.83-2.45-9.03-1.81-10.11-2.02-11.47-2.13-1.29-.11-4.99-.14-5.67-.04m-36.65,1.94c-4.34,6.55-4.54,14.77-.59,24.1l.55,1.31h-.37c-2.02,0-7.1-2.94-7.22-4.18-.09-.95-.22,1.61-.23,4.49-.01,6.55.63,11.7,2.11,16.86l.52,1.8,37.38,12.17,37.38,12.17.44-.48c3.68-3.98,6.99-9.75,8.66-15.09.35-1.13,1.14-4.04,1.14-4.23,0-.05-.52.15-1.15.44-1.94.88-6.54,2.57-6.68,2.44-.02-.02.32-.49.76-1.05,4.17-5.3,6.71-11.75,7.14-18.15l.09-1.28-.86.8c-1.98,1.84-5.19,4.02-7.06,4.79l-.46.19.23-.45c1.51-2.92,2.59-8.34,2.83-14.26l.09-2.1-1.05.35c-.58.19-2.84.96-5.04,1.69-10.64,3.58-32.05,10.83-37.11,12.57-1.97.68-3.66,1.23-3.76,1.23-.71,0-7.58-9.45-21.68-29.81-2.74-3.96-5.05-7.27-5.13-7.35-.13-.13-.3.06-.94,1.02"/>
    <path id="path1" class="cls-9" d="m351.65,196.68c-3.45,1.42-6.23,3.36-8.24,5.76-.9,1.07-.9,1.08-.08.73.36-.15,1.26-.49,2-.74l1.35-.47.64-.93c1.09-1.58,2.53-2.91,4.39-4.05,1.12-.69,1.1-.78-.06-.3m1.96,2.42c-.6.34-1.39.88-1.75,1.2l-.65.57.93-.16c.74-.12.97-.21,1.12-.44.1-.16.49-.63.85-1.05.36-.42.64-.76.62-.75-.02,0-.53.29-1.13.63m3.13,6.89c-6.9,7.77-6.93,7.8-6.7,7.62.11-.08.23-.12.28-.07.05.04.08,0,.08-.07s.06-.12.12-.07c.07.04.12.17.12.28,0,.16-.03.17-.11.04-.09-.13-.14-.13-.29.02-.1.1-.23.15-.29.1-.05-.05-.06-.02-.02.05s.23.11.41.07c.23-.04.31-.02.24.08-.05.08-.14.11-.19.08-.06-.03-.14.02-.18.13-.06.15-.02.17.18.11.24-.07.25-.06.1.21-.09.17-.18.23-.21.13-.06-.17-.28-.21-.28-.04,0,.22.35.24.58.03.34-.31,2.47-1.63,3.47-2.16l.87-.46-1.13,1.15c-3.71,3.79-7.47,9.07-11.31,15.9-2.83,5.03-4.45,6.56-9.26,8.75-1.38.63-2.82,1.31-3.21,1.52-.9.47-.91.53.47-1.55l1.18-1.77-.65-.12c-2-.38-1.81-4.79.29-6.88,1.48-1.47,4.54-1.7,5.42-.41l.26.38.13-.32c.25-.6,3.82-4.83,6.37-7.55,1.13-1.21,1.66-1.98.86-1.28-.15.14-.5.31-.78.38-1.63.43-2.02.56-2.32.81-.19.15-.55.32-.82.36-.26.05-.62.21-.79.37-.17.16-.51.32-.75.37-.86.18-1.89.54-2.21.79-.18.14-.39.25-.48.25s-.3.14-.48.3c-.17.17-.4.3-.51.3-.34,0-2.24.64-2.38.8-.07.09-.57.27-1.1.4-.53.13-1.1.36-1.25.5s-.36.25-.45.25c-.39,0-1.28,2.04-1.69,3.9-.29,1.31-.3,5.33-.03,6.98l.18,1.06-1.65,1.86c-.91,1.02-1.6,1.88-1.54,1.9.26.09,1.75-.38,2.65-.83l.97-.48v.79c0,1.08.21,1.82.64,2.24l.36.35-.72.39c-1.8.98-3.82,2.72-5.4,4.65-1.44,1.75-1.39,1.81.23.23,2.05-1.99,3.99-3.25,6.7-4.33,1.68-.68,3.58-1.68,6.48-3.44,4.93-2.98,7.15-4.13,8.81-4.55.5-.13.84-.24.75-.24-.57-.02-.08-.8.54-.84.84-.06,4.13.2,5.5.42.61.1,1.5.23,1.98.29.8.09,5.14.89,5.74,1.05.21.06,1.06-.83,5.04-5.31,3.53-3.97,4.83-5.36,4.98-5.31,2.01.73,6.41,4.46,8.54,7.25,1.09,1.43,1.45,1.83.83.94-.22-.32-.38-.61-.36-.63.08-.08,29.67-9.45,29.84-9.45.22,0,.29,1.6.16,3.54-.15,2.21-.93,5.65-1.15,5.06-.88-2.35-1.59-3.5-3.11-5.03-1.24-1.26-1.26-1.25-1.01.23.57,3.42-.02,7.66-1.46,10.56-.64,1.3-.65,1.3-.89.12-.43-2.12-1.38-3.76-2.88-4.93-.66-.52-.68-.51-.54.24.34,1.79-.07,4.98-.96,7.62-.44,1.28-2.26,5.12-2.38,5-.03-.03-.14-.55-.24-1.15-.41-2.46-1.32-4.75-2.34-5.83-.68-.73-.73-.71-.57.24.4,2.4-1.26,6.86-4.3,11.57l-1.09,1.69.03,1.73.03,1.73,17.57-7.65c9.66-4.21,17.62-7.63,17.67-7.59.72.43-1.05-5.49-2.46-8.26-.36-.71-.63-1.33-.59-1.37s.02-.07-.06-.07-.21-.18-.3-.4c-.2-.48-1.56-2.6-1.88-2.94-.13-.13-.23-.29-.23-.34s-.14-.24-.3-.41c-.17-.17-.39-.49-.49-.71-.1-.21-.31-.51-.45-.66-.14-.15-.26-.3-.26-.34,0-.34-4.04-5.18-6.28-7.54-6.02-6.31-17.72-13.11-25.44-14.77-.55-.12-1.61-.45-2.37-.73-5.51-2.07-11.78-3.23-17.52-3.23h-1.34l-5.28,5.94m-23.37.31l-.37.4.4-.36c.38-.33.46-.43.37-.43-.02,0-.2.18-.41.4m-3.67,1.42c-25.34,12.43-37.74,38.88-30.84,65.79,1.52,5.94,4.43,12.14,8.11,17.26,1.63,2.28,4.08,5.2,4.3,5.14.07-.02.09.01.06.07-.04.06.31.47.77.91s.92.93,1.03,1.07.3.27.44.28c.13,0,.75.33,1.38.7,1.1.67,2.62,1.46,3.27,1.7.21.08-.23-.44-1.23-1.44-3.94-3.96-6.99-8.58-9.11-13.8-.2-.49-.34-.93-.3-.96s.02-.12-.04-.2c-.15-.2-.53-1.24-.55-1.53-.01-.14-.06-.25-.11-.25-.43,0-1.98-7-2.4-10.85-.49-4.4-.57-13.74-.1-12.47.31.84,2.26,2.43,4.02,3.26,1.65.78,1.6.8,1.33-.5-.1-.46-.21-1.13-.26-1.5l-.08-.67.52.91c.95,1.67,2.28,3.33,1.8,2.25-4.22-9.64-4.18-17.91.12-24.6l.69-1.08v-3.34l1.08-1.14c2.23-2.33,7.3-5.46,7.52-4.63.03.13.07-.33.07-1.02.03-3.36,1.07-5.47,5.29-10.7.46-.57,1.22-1.72,1.68-2.56,1.02-1.84,2.84-4.54,4.06-6.03.49-.6.76-.98.6-.84-.35.3-1.27.28-1.15-.03.09-.23.23-.28-1.95.79m7.52,22.63c0,.4.02.55.05.33s.03-.55,0-.73-.05,0-.05.4m-.82,2.81c-.11.23-.18.42-.15.42.09,0,.46-.75.41-.8-.03-.03-.14.14-.26.38m-21.34,1.07l-.74.76.78-.73c.72-.68.84-.8.74-.8-.02,0-.37.34-.78.76m-1.56,1.7c-.71.86-.91,1.16-.43.64.49-.52.98-1.16.9-1.16-.03,0-.24.23-.48.51m36.82.06c.33.03.86.03,1.18,0,.33-.03.06-.05-.59-.05s-.92.02-.59.05m71.81,6.62c0,.37.02.52.05.34.03-.18.03-.49,0-.67s-.05-.03-.05.34m.13,1.83c0,.44.02.61.05.4.03-.22.03-.57,0-.79-.03-.22-.05-.04-.05.4m-.13,1.71c0,.37.02.52.05.34.03-.18.03-.49,0-.67s-.05-.03-.05.34m-5.87,1.55c-.41,4.19-2.44,9.58-5,13.3l-.37.53v-2.18c0-3.07-.44-5.5-1.26-6.99l-.23-.43-.09.49c-1.08,6.03-4.72,12.46-9.24,16.34-.97.83-1,.82-.68-.33.78-2.79.82-6.16.11-8.8-.34-1.24-.36-1.24-.91,0-1.4,3.19-3.52,6.42-5.84,8.89l-.8.85-.08,1.45c-.31,5.87-2.83,12.38-6.85,17.68-.53.7-.94,1.27-.9,1.27.24,0,4.26-1.49,5.65-2.09.94-.41,1.79-.75,1.9-.76,1.9-.24,8.47-5.1,10.08-7.45l.42-.61-.08.72c-.49,4.39-3.37,10.32-7.46,15.34-1.04,1.28-1.05,1.25.35.88,6.39-1.69,12.43-5.5,14.88-9.37.4-.63.42-.55.15.72-.82,3.86-3.81,9.02-8.32,14.37-1.21,1.44-1.23,1.35.16.99,5.22-1.37,11-5.23,15.23-10.19,8.01-9.37,11.18-22.48,9.19-37.9-.17-1.3-.27-2.41-.24-2.47.04-.06.02-.11-.04-.11-.14,0-.57-2.52-.46-2.7.05-.09.03-.11-.06-.05-.09.05-.14,0-.14-.15,0-.19-.35-.39-1.62-.94-1.31-.57-1.62-.75-1.63-.96,0-.14-.09.18-.19.72-.38,2.07-1.12,4.13-2.08,5.77-.56.97-.69.96-.71-.06-.04-2.26-1.13-5.8-2.12-6.9-.57-.63-.56-.64-.73,1.1m-101.85,51.42c.36.37.68.67.7.67.1,0-1.02-1.21-1.18-1.27-.1-.04.12.23.48.6m66.05,8.68c-4.6,4.5-9.2,7.76-15.63,11.07-1.43.74-1.51,1.03-.24.86,9.45-1.25,18.79-5.13,23.03-9.55.47-.49.58-.39-2.54-2.41-1.57-1.02-2.59-1.76-2.56-1.85.08-.21.21-.33-2.06,1.89m7.07,3.03c-2.03,3.49-6.19,7.2-10.72,9.57-.67.35-1.19.66-1.16.7.22.21,5.67-1.1,8.77-2.11,3.73-1.22,10.1-3.94,9.92-4.23-.04-.07-.01-.08.07-.03.08.05.38-.06.67-.24.39-.23.44-.3.22-.25-.25.06-.92-.33-3.61-2.1-1.82-1.19-3.36-2.2-3.43-2.24-.07-.04-.39.39-.72.95"/>
    <path id="path2" class="cls-19" d="m333.77,230.17c-.58.13-1.15.53-1.67,1.18l-.38.47.35-.05c.66-.09.94.78.35,1.09-.32.17-.84-.04-.85-.35,0-.15-.04-.12-.11.09-.15.45-.14,1.46.01,2l.14.48.25-.38c.24-.37.26-.38.61-.2.83.42,1.91.12,2.53-.7.53-.7.2-2.11-.6-2.53l-.31-.16.25-.39c.43-.68.36-.74-.55-.53m-25.63,55.68c3.59,8.55,9.58,15.31,18.08,20.41,1.72,1.03,4.86,2.66,4.86,2.52,0-.06-.56-1.19-1.23-2.52-2.59-5.06-5.62-12.77-5.35-13.59.02-.06.6.4,1.28,1.01,4.27,3.81,8.65,6.03,13.06,6.62.86.11.77-.05-1.97-3.83-.95-1.31-1.87-2.59-2.05-2.83-.38-.56,1.21,0-14.15-4.98-7.06-2.29-12.91-4.19-12.99-4.22s.12.6.46,1.41m15.26,19.94c.28.22,2.31,1.25,2.13,1.08-.07-.07-.63-.38-1.25-.69s-1.02-.49-.89-.39"/>
    <path id="path3" class="cls-13" d="m350.22,196.34c-3.7.65-8.06,2.6-11.57,5.19-1.81,1.34-4,3.28-4.71,4.18-.26.34-.96,1.19-1.55,1.89-1.34,1.61-3.13,4.23-4.24,6.22-.47.84-1.22,1.99-1.68,2.56-5.47,6.79-6.05,8.76-4.66,15.91.37,1.88.53,3.88.46,5.73-.07,1.89.74,3.13,2.24,3.44.19.04.33.11.31.16-.13.31-3.79,6.46-3.85,6.46-.17,0-.48-1.47-.52-2.44l-.04-1.03-2.29-3.29c-3.51-5.05-4.04-5.79-4.12-5.79-.04,0-.31.3-.6.67l-.53.67,5.09,7.35c14.5,20.91,21.08,29.96,21.79,29.96.1,0,1.8-.55,3.76-1.23,5.06-1.74,26.47-8.99,37.11-12.57,2.19-.74,4.46-1.5,5.04-1.69l1.05-.35-.09,2.1c-.24,5.92-1.32,11.33-2.83,14.26l-.23.45.46-.19c5.49-2.24,11.53-8.53,14.43-15.03.69-1.54.7-1.55,1.04-.29.72,2.64.67,6-.11,8.8-.32,1.15-.29,1.16.68.33,4.52-3.88,8.15-10.31,9.24-16.34l.09-.49.23.43c.82,1.49,1.26,3.92,1.26,6.99v2.18l.37-.53c2.56-3.73,4.58-9.11,5-13.3.17-1.74.16-1.73.73-1.1.89,1,1.59,3,1.94,5.58.11.8.22,1.65.26,1.88l.06.42.39-.6c1.75-2.73,2.76-6.99,2.53-10.61-.05-.76-.13-1.41-.18-1.44s-7.99,3.39-17.66,7.6l-17.57,7.65-.04-.78c-.03-.68-.06-.77-.25-.7-2.77,1.05-18.01,6.54-23.75,8.55-12.14,4.25-22.29,7.49-22.82,7.29-.7-.26-6.83-8.58-15.3-20.77-.44-.64-.85-1.21-.9-1.28-.06-.08-.29.09-.6.42-.8.87-.32.11.75-1.19,1.59-1.93,3.6-3.67,5.4-4.65l.72-.39-.36-.35c-.43-.42-.64-1.16-.64-2.24v-.79l-.97.48c-.9.45-2.39.91-2.65.83-.06-.02.63-.88,1.54-1.9l1.65-1.86-.18-1.06c-.28-1.65-.26-5.67.03-6.98.41-1.86,1.29-3.9,1.69-3.9.1,0,.3-.11.45-.25.15-.14.71-.36,1.25-.5.53-.13,1.03-.31,1.1-.4.14-.16,2.03-.8,2.38-.8.11,0,.34-.14.51-.3.17-.17.39-.3.48-.3s.31-.11.48-.25c.31-.24,1.35-.61,2.21-.79.24-.05.58-.22.75-.37.17-.16.53-.32.79-.37.26-.05.63-.21.82-.36.31-.25.69-.39,2.32-.81.27-.07.62-.24.78-.38.8-.7.27.07-.86,1.28-1.64,1.74-3.21,3.53-4.73,5.4-1.92,2.36-1.79,2.13-1.61,2.87.7,2.87-1.78,6.23-4.83,6.55l-.65.07-1.13,1.71c-1.42,2.13-1.41,2.11-.54,1.65.39-.21,1.84-.89,3.22-1.52,4.82-2.2,6.43-3.72,9.26-8.75,3.84-6.83,7.61-12.11,11.31-15.9l1.13-1.15-.87.46c-1,.53-3.13,1.86-3.47,2.16-.23.2-.58.18-.58-.03,0-.16.22-.13.28.04.03.09.11.04.21-.13.14-.26.14-.28-.1-.21-.2.06-.24.04-.18-.11.04-.1.12-.16.18-.13s.14,0,.19-.08c.06-.1-.01-.12-.24-.08-.18.03-.37,0-.41-.07s-.04-.1.02-.05c.05.05.18,0,.29-.1.15-.15.21-.16.29-.02.08.12.11.11.11-.04,0-.11-.05-.24-.12-.28s-.12,0-.12.07-.04.11-.08.07c-.05-.04-.17,0-.28.07-.23.18-.2.15,6.7-7.62l5.28-5.94.71-.04c.39-.02-.19-.05-1.29-.07-3.22-.04-6.57.23-9.28.75l-.93.18.65-.57c.64-.56,2.33-1.59,2.7-1.64.46-.07.3-.18-.18-.13-1.72.17-6.36,2.15-7.54,3.23-.14.13-.98.48-1.87.8-.89.31-1.78.65-1.96.74-1.42.71,2.34-3.08,4.37-4.4,1.33-.87,4.45-2.4,4.94-2.43.17,0,.31-.05.31-.1s.1-.11.22-.14c.55-.14-1.76-.04-2.65.11m44.19,33.04c-8.12,2.58-14.79,4.72-14.81,4.73-.02.02.38.66.89,1.42,1.8,2.69,3.12,5.22,2.73,5.23-.17,0-.16.03.05.11.76.3,2.94,8.88,3.28,12.91.08.91.1,1.02.12.48.02-.65.09-.8,1.11-2.38,3.04-4.7,4.69-9.16,4.29-11.56-.16-.95-.11-.97.57-.24,1.02,1.09,1.93,3.37,2.34,5.83.1.6.21,1.11.24,1.15.12.12,1.94-3.72,2.38-5,.9-2.64,1.3-5.83.96-7.62-.14-.75-.12-.76.54-.24,1.5,1.18,2.46,2.81,2.88,4.93q.24,1.18.89-.12c1.44-2.9,2.02-7.14,1.46-10.56-.25-1.48-.23-1.48,1.01-.23,1.52,1.54,2.23,2.68,3.11,5.03.22.59,1-2.85,1.15-5.06.14-2.12.06-3.54-.2-3.53-.11,0-6.86,2.12-14.98,4.71m-85.85,19.37c0,.34.03.46.05.27.03-.19.03-.46,0-.61s-.05,0-.05.34m0,1.71c0,.34.03.46.05.27.03-.19.03-.46,0-.61s-.05,0-.05.34m-4.4,9.02c0,.23.02.43.05.43s.07-.19.1-.43c.03-.23,0-.43-.05-.43s-.1.19-.1.43m5.29.85c.04.34.16,1.04.27,1.57.15.73.16.98.05,1.05-.18.11,1.33.49,1.89.48.23,0,.34-.04.25-.07s-.12-.12-.07-.19c.05-.08.02-.09-.06-.04-.17.1-1.11-1.13-1.87-2.46l-.54-.94.08.61m-5.37,3.66c0,1.34.02,1.91.04,1.26.02-.65.02-1.75,0-2.44s-.04-.16-.04,1.18m.1,4.45c0,.23.03.33.06.21s.03-.31,0-.43-.06-.02-.06.21m2.8,14.11c-.1.15.47,1.65.67,1.77.18.11,7.56,2.53,49.61,16.25l23,7.51.6-.63c.33-.35.55-.67.5-.72-.08-.07-48.28-15.78-48.81-15.92-.05-.01-.12-.04-.16-.05-.03-.02-.12-.04-.19-.06s-.15-.04-.19-.06c-.03-.02-.12-.04-.19-.06s-.15-.04-.19-.06c-.03-.02-.12-.04-.19-.06s-.15-.04-.19-.06c-.03-.02-.12-.04-.19-.06s-.15-.04-.19-.06c-.03-.02-.12-.04-.19-.06s-.15-.04-.19-.06c-.03-.02-.12-.04-.19-.06s-.15-.04-.19-.06c-.03-.02-.12-.04-.19-.06s-.15-.04-.19-.06c-.03-.02-.12-.04-.19-.06s-.14-.04-.16-.05-.14-.05-.28-.07c-.52-.1-18.46-5.94-18.61-6.06-.09-.07-.16-.08-.16-.03s-.08.02-.19-.06-.19-.11-.19-.06-.08.02-.19-.06c-.1-.08-.19-.11-.19-.06s-.08.02-.19-.06c-.1-.08-.19-.11-.19-.06s-.08.02-.19-.06c-.1-.08-.19-.11-.19-.06s-.08.02-.19-.06c-.1-.08-.19-.11-.19-.06s-.08.02-.19-.06c-.1-.08-.19-.11-.19-.06s-.08.02-.19-.06c-.1-.08-.19-.11-.19-.06s-.08.02-.19-.06c-.1-.08-.19-.11-.19-.06s-.08.03-.18-.05-.2-.1-.24-.04"/>
    <path id="path4" class="cls-12" d="m332.7,206.35c-.78.36-1.2.64-1.08.72.43.3.98.12,1.52-.51.32-.36.56-.66.54-.65-.02,0-.46.2-.98.44m32.94,25.48c-2.61,2.94-4.74,5.35-4.72,5.36.04.04,7.2,1.5,9.12,1.86,4.48.84,9.19,1.49,11.95,1.67l1.35.09-.09-.29c-1.29-4.23-8.88-12.58-12.67-13.95-.15-.05-1.45,1.33-4.95,5.27m-45.9-3.39c-2.4,1.05-4.35,2.41-6.14,4.29l-1.08,1.14v3.28l.28-.35c2.49-3.18,6.69-6.6,7.96-6.48l.62.06-.08-.99c-.14-1.68-.02-1.61-1.54-.94m12.98-.34c-2.48.96-3.71,4.3-2.6,7.05.44,1.07,2.16,1.15,4.17.19,2.71-1.3,3.96-6.17,1.84-7.18-.76-.37-2.53-.39-3.41-.05m1.85,2.08c0,.08-.11.31-.25.53l-.25.39.31.16c.8.42,1.13,1.82.6,2.53-.62.82-1.7,1.12-2.53.7-.35-.18-.36-.17-.61.2l-.25.38-.14-.48c-.6-2.13.85-4.37,2.95-4.55.09,0,.16.05.16.12m84.88,3.25c1.61,3.13,2.48,6.12,2.76,9.49.12,1.45.11,2-.08,3.78l-.06.62,1.62.7,1.61.7.27,1.42c.34,1.8.35,1.85.37,1.51.16-3-3.4-13.13-6.53-18.61-.68-1.18-.65-.98.05.39m-72.71,2.06c-.35.35-.07.8.45.72,1.34-.21,3.42-.32,4.96-.27l1.68.06-1.06-.17c-2.08-.33-5.82-.55-6.03-.35m79.33,17.36c0,.09.11,1.02.24,2.06,2.47,19.41-3.71,35.53-16.94,44.15-2.49,1.62-5.12,2.83-7.54,3.47-1.38.36-1.37.45-.16-.99,4.51-5.36,7.5-10.51,8.32-14.37.27-1.26.25-1.34-.15-.72-2.45,3.87-8.49,7.68-14.88,9.37-1.4.37-1.39.4-.35-.88,4.08-5.02,6.97-10.95,7.46-15.34l.08-.72-.42.61c-1.44,2.1-4.59,4.6-8.25,6.57l-1.62.87-.42,1.63c-1.59,6.13-4.34,11.66-8.07,16.22-.52.63-.94,1.18-.94,1.22s1.02.73,2.27,1.53,2.5,1.64,2.79,1.85l.53.39.2-.27.2-.27-.14.28c-.08.16-.12.3-.1.32.02.02,1.56,1.03,3.41,2.24,3.76,2.47,3.56,2.4,4.66,1.69.25-.16.54-.32.66-.36.35-.13,3.54-2.12,4.9-3.06,3.27-2.26,6.85-5.41,9.35-8.25.33-.37.73-.83.9-1.01,10.68-12.05,15.95-27.24,14.74-42.52-.2-2.58-.75-6.8-.74-5.71m-116.93,35.39c0,.13.5,1.05.57,1.05.03,0-.06-.23-.2-.52-.29-.56-.36-.67-.36-.53m4.39,9.95c.08.13.28.29.44.36.16.07.26.18.22.24s0,.15.07.2c.08.05.11.04.08-.02-.04-.06.39.32.94.85,3.93,3.72,11.2,8.06,14.91,8.9,1.01.23.97.18-.34-.47-4.46-2.19-8.52-5.02-12.17-8.47-1.63-1.54-1.73-1.62-.56-.45,1.32,1.32,1.39,1.42.93,1.24-.81-.32-2.49-1.22-3.62-1.94-.6-.38-.99-.57-.91-.44"/>
  </g>
  <g id="svgg-2">
    <path id="path0-2" class="cls-20" d="m156.08,92.94c-11.03,7.65-18.93,13.05-19.03,13.02-.1-.02-2.65-1.76-5.67-3.87-3.03-2.1-5.53-3.82-5.57-3.82s-.05,1.82-.04,4.05l.03,4.05,5.96,3.96c3.28,2.18,6.01,3.96,6.06,3.96s8.73-5.97,19.29-13.27l19.2-13.27-.05-2.39c-.04-1.54-.11-2.63-.21-3.06-.08-.37-.12-.72-.09-.78s0-.08-.06-.03c-.11.08-.16-.09-.14-.48,0-.08-.02-.12-.05-.09-.03.04-.19-.19-.35-.5s-.32-.57-.36-.56c-.04,0-8.56,5.89-18.93,13.07m-67.03-7.16c-9.09,1.15-15.86,8.56-17.8,19.47-3.66,20.62,7.13,36.34,23.11,33.67,9.48-1.58,16.05-10.19,17.25-22.57,1.84-19.03-8.03-32.4-22.56-30.57m4.64,10.16c4.83,1.34,7.67,6.53,8.1,14.8.62,11.74-4.11,19.22-11.61,18.35-6.04-.7-9.55-6.76-9.57-16.48-.01-9.72,3.17-15.54,9.19-16.82.71-.15,3.11-.05,3.88.16"/>
    <path id="path1-2" class="cls-15" d="m125.75,87.28v10.83l5.63,3.91c3.1,2.15,5.68,3.91,5.74,3.91.1,0,37.7-25.98,37.89-26.18.38-.38-2.02-2.41-3.52-2.98l-.71-.27-22.52-.03-22.52-.03v10.83m31.39,13.81c-10.51,7.28-19.16,13.26-19.22,13.29s-2.72-1.68-5.91-3.8-5.9-3.92-6.03-3.99l-.23-.14v42.08h22.38c21.94,0,22.39,0,23.16-.22,2.39-.69,4.34-2.94,4.86-5.6.15-.75.16-3.43.13-27.84l-.03-27.01-19.11,13.23"/>
    <path id="path2-2" class="cls-23" d="m90.16,51.72c-19.32,4.15-35.14,7.55-35.16,7.55,0,0-.03,23.9-.03,53.1v53.09l.23.06c.47.13,70.29,15.06,70.41,15.06.11,0,.13-12.89.13-68.22V44.16h-.23c-.13.02-16.04,3.42-35.36,7.56m4.75,34.12c11.42,1.9,18.33,14.5,16.73,30.52-1.5,15.08-10.95,24.36-23.17,22.75-12.04-1.59-19.35-14.05-17.77-30.27,1.53-15.71,11.44-25.13,24.2-23m-4.5,9.94c-6.06.54-9.79,6.9-9.79,16.71s3.82,16.26,10.13,16.57c6.91.34,10.99-5.77,10.99-16.46,0-9.92-3.36-16.18-8.99-16.77-1.19-.13-1.43-.13-2.33-.05"/>
    <path id="path3-2" class="cls-11" d="m175.07,79.9c.06.09.25.43.42.77s.28.48.24.33c-.09-.36-.57-1.24-.69-1.25-.05,0-.04.07.03.15m.98,2.34c.03.22.1.7.14,1.08.07.65.08.66.09.17,0-.28-.06-.77-.14-1.08-.09-.34-.13-.41-.09-.17m-74.24,29.9c0,.22.02.31.05.2.03-.11.03-.29,0-.4s-.05-.02-.05.2m0,1.02c0,.22.02.31.05.2.03-.11.03-.29,0-.4s-.05-.02-.05.2m-17.21,12.99c.42.5.51.59.51.51,0-.02-.22-.26-.48-.54l-.48-.51.45.54"/>
    <path id="path4-2" class="cls-10" d="m91.15,85.63c.29.02.77.02,1.06,0s.05-.04-.53-.04-.82.02-.53.04m-.4,10.12c.13.03.31.03.4,0,.1-.03,0-.05-.23-.05s-.3.02-.18.05m.96,0c.1.03.26.03.35,0,.1-.03.02-.05-.18-.05s-.27.02-.18.05m-21.13,14.7c0,.28.02.4.04.26.02-.14.02-.37,0-.51s-.04-.03-.04.26m41.25,1.59c0,.28.02.4.04.26.02-.14.02-.37,0-.51s-.04-.03-.04.26m-41.25,3.58c0,.25.02.34.05.2.02-.14.02-.35,0-.45-.03-.11-.05,0-.04.26m6.5,17.45c.27.31.52.57.55.57s-.17-.26-.45-.57c-.27-.31-.52-.57-.55-.57s.17.26.45.57"/>
  </g>
  <g id="svgg-3">
    <path id="path0-3" class="cls-22" d="m521.87,77.73c-.18,0-.33.04-.34.07-.04.15,17.23,29.47,17.55,29.78,1.23,1.2,2.97,1.71,4.69,1.37.6-.12,30.49-16.27,30.56-16.51s-1.08-.58-26.39-7.58c-17.59-4.87-25.85-7.12-26.07-7.11m-1.67.97c-.13.18-1.43,4.77-4.51,15.9-4.21,15.18-4.48,16.21-4.23,16.28.03,0,4.82-2.59,10.65-5.78l10.58-5.79-6.09-10.42c-3.35-5.73-6.12-10.42-6.15-10.43s-.14.1-.24.24m44.08,20.64l-10.58,5.79,6.13,10.47,6.13,10.47.19-.26c.14-.2,1.27-4.15,4.54-15.94,4.22-15.22,4.49-16.25,4.25-16.32-.03,0-4.82,2.59-10.65,5.78m-41.63,6.83c-5.85,3.2-10.62,5.84-10.6,5.87.21.31,1.42.65,26.33,7.56s26.12,7.23,26.46,7.07c.03-.01-2.7-4.73-6.07-10.49l-6.12-10.47-4.09,2.22c-4.97,2.7-5.44,2.84-7.56,2.26-2.14-.59-2.46-.93-5.35-5.84l-2.36-4.01-10.64,5.82"/>
    <path id="path1-3" class="cls-16" d="m565.18,124.91c.37.63.69,1.16.72,1.16s-.26-.5-.62-1.14c-.37-.63-.69-1.16-.72-1.16s.26.5.62,1.14m-69.51-11.28c-2.11,9.97,2.3,18.04,11.91,21.79,1.97.77,46.87,13.21,48.97,13.57,10.13,1.73,18.6-3.28,21.43-12.67l.21-.71-41.16-11.43-41.17-11.43-.19.89"/>
    <path id="path2-3" class="cls-18" d="m558.86,102.23l-5.26,2.88,1.88,3.22,1.88,3.22-.78-.22-.78-.22,4.53,7.74c2.49,4.26,4.52,7.77,4.51,7.8-.07.24-1.32-.09-26.47-7.06-25.16-6.97-26.4-7.33-26.33-7.57,0-.03,4.06-2.28,9-4.99s8.46-4.66,7.82-4.32l-1.16.62-.74-.2-.73-.2,3.28-1.82c1.8-1-1.54.81-7.43,4.03l-10.71,5.84-.02-.32c-.02-.23.42-1.91,1.46-5.68l1.49-5.36-6.91-1.92-6.91-1.92-2.24,8.23c-1.23,4.52-2.26,8.34-2.28,8.48l-.04.25,41.17,11.43,41.17,11.43.02-.26c0-.14.06-.27.11-.28.06-.02,1.04-3.42,2.38-8.22l2.28-8.19-6.87-1.9-6.87-1.9-1.49,5.36c-1.41,5.1-1.71,6-1.9,5.83-.03-.02-2.79-4.74-6.13-10.48l-6.08-10.44,5.26-2.88c2.89-1.58,5.24-2.88,5.21-2.89s-2.41,1.28-5.31,2.87m-23.18,2.17c2.88,4.93,3.25,5.33,5.58,5.85,2.04.46,2.52.3,7.41-2.39,2.13-1.17,2.63-1.46,1.12-.64l-2.74,1.48-.79-.22c-.69-.19-.82-.2-1.02-.08-1.03.63-2.63.83-3.89.47-1.57-.44-2.25-1.04-3.47-3.04-.43-.71-.58-.92-.32-.46l.46.83-.73-.2-.73-.2-1.59-2.68c-.88-1.48-.55-.89.73,1.3m-25.59,31.92c.08.05.23.09.32.09s.03-.04-.15-.09-.26-.05-.17,0"/>
    <path id="path3-3" class="cls-14" d="m531.12,55.89c-6.41-1.31-10.88-.65-15.42,2.29-4.51,2.92-6.58,6.36-8.93,14.83l-.8,2.9,6.9,1.91,6.9,1.91.21-.62c.32-.94.4-.93,1.05.17l.56.95.73.2.73.2-.82-1.41c-.93-1.59-.9-1.52-.47-1.54.45-.03,52.03,14.27,52.41,14.52l.26.18-1.43.82-1.43.82.71.23.71.23.97-.53c1.13-.62,1.21-.59,1,.39l-.14.64,6.87,1.9,6.86,1.9.99-3.75c1.98-7.51,2.06-11.18.33-15.26-2.38-5.61-6.02-8.79-12.81-11.16-1.69-.59-44.26-12.38-45.95-12.73"/>
    <path id="path4-3" class="cls-17" d="m521.43,77.78s.36.68.81,1.46l.82,1.41-.73-.2-.73-.2-.58-.96c-.32-.53,2.18,3.78,5.56,9.57l6.14,10.52-3.25,1.78-3.25,1.78.74.2.74.2,2.83-1.5,2.83-1.5,1.6,2.73,1.6,2.73.74.18.74.18-8.29-14.21c-4.56-7.82-8.3-14.19-8.3-14.16m52.52,16.2l-.93.51-.73-.2-.73-.2.41-.25c.22-.14-5.63,3.05-13.01,7.08l-13.41,7.32.75.24.75.24,2.78-1.52,2.78-1.52,1.6,2.73,1.6,2.73.78.22.78.22-1.88-3.23-1.88-3.23,10.69-5.8c5.88-3.19,10.67-5.81,10.64-5.82-.03,0-.47.21-.98.5m-70.73-8.12l-2.75,9.94,6.91,1.92,6.91,1.92,2.75-9.94,2.75-9.94-6.91-1.92-6.91-1.92-2.75,9.94m68.84,19.07l-2.75,9.94,6.86,1.9,6.87,1.9,2.75-9.94,2.75-9.94-6.87-1.9-6.86-1.9-2.75,9.94m-61.36,31.57c.11.05.29.1.41.11s.03-.03-.2-.1-.33-.07-.22-.02m10.96,3.04c5.69,1.59,14.99,4.17,20.69,5.73,5.69,1.56,1.04.26-10.34-2.89s-16.04-4.43-10.35-2.84m31.29,8.67c.13.06.34.12.46.13.12,0,0-.04-.24-.11-.25-.07-.35-.08-.22-.02"/>
  </g>
</svg>