<?xml version="1.0" encoding="UTF-8"?>
<svg id="_Слой_1" data-name="Слой 1" xmlns="http://www.w3.org/2000/svg" viewBox="0 0 509.53 317.67">
  <defs>
    <style>
      .cls-1 {
        stroke: #ff504d;
      }

      .cls-1, .cls-2, .cls-3, .cls-4, .cls-5 {
        fill: none;
        stroke-linecap: round;
        stroke-linejoin: round;
      }

      .cls-2 {
        stroke: #fff;
      }

      .cls-3 {
        stroke: #211d28;
      }

      .cls-4 {
        stroke: #000;
      }

      .cls-5 {
        stroke: #00b9ff;
      }

      .cls-6 {
        fill: #00d692;
      }

      .cls-7 {
        fill: #00b9ff;
      }

      .cls-8 {
        fill: #fff;
      }

      .cls-9 {
        fill: #ffe032;
      }

      .cls-10 {
        fill: #ff504d;
      }

      .cls-11 {
        fill: #211d28;
      }
    </style>
  </defs>
  <g id="Post_1" data-name="Post 1">
    <polygon class="cls-6" points="264.16 232.59 264.15 254.62 247.28 228.95 264.16 232.59"/>
    <path class="cls-6" d="M166.08,230.13s-1.45-108.17-.41-108.18c1.05,0,97.02,.72,97.02,.72l1.47,109.92-98.08-2.46Z"/>
    <path class="cls-7" d="M256.18,203.51l-17.17-.31-27.18-.49-25.4-.46-12.8-.23s-1.09-71.29-.2-71.3c.46,0,23.2,.1,44.57,.19,19.09,.09,37.08,.16,37.08,.16l1.1,72.45Z"/>
    <path class="cls-8" d="M239.01,203.2c3.46-4.12,8.9-11.35,7.46-14.5-2.72-5.96-7.91-.64-15.84-2.91-6.3-1.81-9.6-8.77-10.07-17.59-5.9,.24-9.41-.94-12.92-5.68,7.14-7.56,11.39-12.78,12.05-18.35,.74-6.3,2.41-12.59,3.29-13.36,19.09,.09,32.09,.25,32.09,.25l1.1,72.45-17.17-.31Z"/>
    <path class="cls-10" d="M243.82,137.52c.76-.85,2.43-.22,2.34,.95-.36,4.89,2.1,9.92,6.12,12.73,.95,.67,2.01,1.21,3.13,1.53l-.33-21.66s-13.69-.05-29.85-.13c.69,7.53,13.11,12.73,18.59,6.58Z"/>
    <path class="cls-1" d="M235.35,178.52c4.77-1.42,8.68-5.42,9.99-10.22"/>
    <path class="cls-8" d="M211.83,202.71l-25.4-.46c-6.31-14.98-14.47-43.63-8.77-37.06,2.19,4.42,3.85,7.08,6.05,11.5-5.16-13.86-5.83-20.49-1.39-16.59,2.88,6.82,3.1,7.82,5.98,14.64-3.61-11.59-3.36-22.59-.11-15.2,4.08,9.28,10.42,24.16,12.44,22.33,2.59-4.29,1.27-1.98,3.96-7.88,2.48-4.79,4.77-1.93,4.03,5.96-.57,6.18-.27,14.6,3.21,22.75Z"/>
    <path class="cls-1" d="M198,182.65c-1.73,1.69-2.33,4.44-1.47,6.7"/>
    <path class="cls-1" d="M234.98,149.83c0-.78,0-1.58,.27-2.31,.27-.73,.88-1.39,1.66-1.48,.78-.1,1.54,.4,1.98,1.06s.62,1.44,.8,2.21"/>
    <path class="cls-4" d="M223.72,212.47c10.19,.23,20.39,.45,30.58,.68"/>
    <path class="cls-1" d="M183.1,175.92l1.81,3.09"/>
    <path class="cls-1" d="M185.96,167.57c1.18,3.61,2.36,7.23,3.53,10.84"/>
    <path class="cls-4" d="M224.69,219.52c4.7,.12,9.4,.23,14.1,.35"/>
  </g>
  <g id="Likes">
    <path class="cls-6" d="M267.37,132.12l-1.45-51.48c-.04-5.56,4.46-10.1,10.03-10.1h91.84c5.86,0,10.47,5.01,9.99,10.85l-1.21,14.72c-.43,5.2-4.77,9.2-9.99,9.2h-90.9l-8.3,26.8Z"/>
    <path class="cls-8" d="M335.48,84.73c-2.54-5.08-7.39-3.43-7.51-.22s7.74,12.31,7.74,12.31c0,0,4.71-6.63,6.29-10.49,1.38-3.38-2.54-7.6-6.51-1.6Z"/>
    <path class="cls-10" d="M312.26,84.73c-2.54-5.08-7.39-3.43-7.51-.22-.12,3.22,7.74,12.31,7.74,12.31,0,0,4.71-6.63,6.29-10.49,1.38-3.38-2.54-7.6-6.51-1.6Z"/>
    <path class="cls-10" d="M289.05,84.73c-2.54-5.08-7.39-3.43-7.51-.22-.12,3.22,7.74,12.31,7.74,12.31,0,0,4.71-6.63,6.29-10.49,1.38-3.38-2.54-7.6-6.51-1.6Z"/>
  </g>
  <g id="Post_2" data-name="Post 2">
    <polygon class="cls-6" points="264.16 282.03 251.36 282.04 176.93 282.1 176.91 282.57 166.51 282.43 166.52 282.1 167.08 264.57 263.78 264.57 264.16 282.03"/>
    <polygon class="cls-9" points="251.36 282.04 176.93 282.1 177.22 272.95 251.16 272.95 251.36 282.04"/>
  </g>
  <g id="Like">
    <path class="cls-6" d="M299.4,62.65l.9-62.65,46.51,.37c5.43,.04,9.79,4.48,9.73,9.91l-.36,36.6-47.78-.9-9.01,16.68Z"/>
    <path class="cls-10" d="M326.78,17.2c-4.8-9.59-13.95-6.49-14.19-.41s14.61,23.24,14.61,23.24c0,0,8.89-12.52,11.87-19.8,2.61-6.39-4.8-14.35-12.29-3.03Z"/>
  </g>
  <g id="Woman">
    <g id="Tablet">
      <polygon class="cls-11" points="129.92 260.16 161.16 211.12 201.04 211.12 171.69 258.66 129.92 260.16"/>
      <path class="cls-2" d="M170.36,227.94c2.09-2.19,5.85-2.53,8.29-.73s3.26,5.47,1.8,8.13c-1.46,2.66-5.01,3.94-7.83,2.83"/>
    </g>
    <g id="Hand_2" data-name="Hand 2">
      <path class="cls-9" d="M133.12,192.2c22.03-18.25,37.7,4.46,36.04,7.09-1.61,2.54-2.11,5.15-3.45,4.88-.81,.4,2.72,5.82,1.28,6.07-2.03,.34-4.66-4.17-6.37-7.88,0,0-2.22,2.75-7.21-1.29-5.08-4.11-20.75,13.6-43.34,34.78l-2.36-22.22s17.57-14.95,25.4-21.44Z"/>
      <path class="cls-1" d="M154.23,196.43c2.47,.94,4.63,2.64,6.12,4.82"/>
      <path class="cls-1" d="M163.39,197.41c.69,2.04,1.38,4.08,2.07,6.12"/>
      <path class="cls-1" d="M165.62,195.81c1.25,1.29,1.89,3.16,1.69,4.94"/>
    </g>
    <g id="Body">
      <path class="cls-7" d="M56.8,282.35H125.07c-3.44-15.73-10.87-48.81-18-75.34,7.35-7.83-9.95-34.26-13.2-38.01-9.21-10.64-24.64-8.8-24.64-8.8-5.15,2.61-23.5,19.88-17.52,74.44,2.67,24.32,4.2,38.96,5.09,47.72Z"/>
      <path class="cls-1" d="M88.25,212.74c3.33-1.42,6-4.32,7.14-7.76"/>
    </g>
    <g id="Head">
      <path class="cls-9" d="M109.12,105c-2.19-1.56-4.7-1.96-7.54-1.02-3.15,1.04-5.82,3.13-8.5,5-3.16,2.21-6.35,4.36-9.66,6.35-3.37,2.03-6.86,3.87-10.49,5.4-1.26,.53-2.54,1.01-3.84,1.45,.4,4.72,2.22,10.18,5.4,17.57,6.59,15.29-3.82,19.47-5.27,20.44,0,0,2.43,7.92,11.63,14.02,8.29,5.5,14,.15,13.01-5.22-7.47-11.52-2.53-15.85,9.33-19.6,15.91-5.04,17.4-30.02,5.92-44.39Z"/>
      <path class="cls-11" d="M112.76,110.74c-1.67-3.35-3.87-6.42-6.61-8.96-1.8-1.67-4.57-2.81-7.78-3.35,.12,1.88,.57,3.72,1.41,5.44,3.7,3.46,8.17,6.03,12.97,6.87Z"/>
      <path class="cls-11" d="M75.91,143.94c3.13-1.62,7.39-4.91,5.88-8.58-7.93,2.43-12.89-7.74-5.59-11.36,.82-.41,4.05-1.14,7.31-3.2,7.11-4.49,16.78-12.13,18.91-14.33,1.44-1.48,2.65-3.2,3.26-5.09-7.02-5.66-25.77-4.52-32.77,6.67-5.83,9.32-4.95,16.35,1.59,31.7,.65,1.52,1.1,2.91,1.41,4.19Z"/>
      <path class="cls-11" d="M74.1,99.27c-6.5-2.19-14.17-1.34-19.5,2.98-8.92,7.23-9.06,21.19-16.79,29.68-3.87,4.25-9.29,6.71-14.64,8.81-5.35,2.1-10.89,4.01-15.47,7.48-4.58,3.47-8.13,8.91-7.65,14.64,.42,5.09,4.02,9.56,8.53,11.97,4.51,2.4,9.8,2.97,14.89,2.63,12.93-.86,25.36-7.53,33.22-17.83,7.86-10.3,11.02-24.05,8.44-36.75-.69-3.39-1.77-6.84-1.18-10.25,.59-3.41,3.62-6.74,7.03-6.16,4.66,.8,8.97,14.21,13.3,6.53,3.94-6.99-4.64-11.86-10.18-13.74Z"/>
      <path class="cls-3" d="M108.99,121.09c-1.45,3.8-.52,8.39,2.31,11.32-2.88,0-5.75,0-8.63-.01"/>
      <path class="cls-3" d="M98.41,120.84l-1.07,2.33"/>
      <path class="cls-3" d="M97.04,135.73c.07,3.41,3.1,6.49,6.51,6.62"/>
    </g>
    <g id="Hand_1" data-name="Hand 1">
      <path class="cls-9" d="M155.4,236.84c2.82-1.1,5.59-2.57,8.24-4.07,.48-.27,4.69-2.63,2.55-3.11-3.61-.81-8.21,2.6-13.73,3.93-5.52,1.33-6.31-3.9-3.92-6.58,2.39-2.68,6.4-8.53-1.14-4.2-3.42,1.96-4.06,7.32-9.5,10.43-15.56,8.9-39.2,20.64-39.2,20.64l-18.78-46.75c-7.14,2.17-14.27,4.38-21.39,6.62,2.69,7.71,6.15,17,10.13,26.25,14.75,34.3,21.55,39.54,27.92,36.63,13.7-6.27,24.22-14.32,40.83-23.35,15.3-8.32,20.69-8.49,24.92-10.8,5.13-2.81,4.53-4.29,4.86-7.35,.27-2.59-9.98,1.84-9.88,.74,0,0,.4-.17,1.04-.46"/>
      <path class="cls-1" d="M157.95,240.59c3.35-.52,6.58-1.81,9.36-3.74"/>
      <path class="cls-1" d="M154.89,237.01c1.76-.62,3.52-1.25,5.28-1.87"/>
      <path class="cls-1" d="M77.43,188.27c1.88,6,3.76,12.01,5.64,18.01"/>
    </g>
  </g>
  <g id="Thumb">
    <path class="cls-6" d="M191.94,108.05l.8-77.32-58.3-.58c-6.18-.06-11.22,4.95-11.19,11.14l.25,48.52h61.68l6.76,18.24Z"/>
    <path class="cls-9" d="M136.44,45.23c25.29-3.3,25.84-29.69,32.99-27.49,7.15,2.2-5.5,26.94-5.5,26.94,0,0,20.34-.55,23.09,3.3,2.75,3.85-1.65,7.15-1.65,7.15,0,0,6.05,4.95-1.65,11,0,0,1.65,6.05-5.5,9.35-7.15,3.3-50.04,1.65-50.04,1.65l8.25-31.89Z"/>
    <path class="cls-1" d="M169.05,47.8c-1.39,.27-2.83,.55-4,1.35-1.17,.8-2.01,2.27-1.63,3.64,.26,.93,1.03,1.66,1.91,2.07,.88,.41,1.85,.56,2.82,.67,4.54,.53,9.15,.44,13.66-.26"/>
    <path class="cls-1" d="M164.46,57c-1.39,.44-2.83,.89-3.96,1.82s-1.91,2.44-1.53,3.85c.31,1.17,1.35,2.04,2.48,2.47,1.13,.43,2.37,.49,3.58,.55,6.1,.28,12.19,.56,18.29,.84"/>
    <path class="cls-1" d="M161.66,68.38c-1.02,.51-2.06,1.05-2.77,1.94s-.99,2.23-.34,3.16c.74,1.06,2.25,1.14,3.54,1.13,4.12-.06,8.23-.12,12.35-.17"/>
    <path class="cls-1" d="M148.33,65.8c3.53-1.09,6.7-3.32,8.93-6.28,2.22-2.96,3.49-6.62,3.56-10.32"/>
  </g>
  <g id="Man">
    <g id="Hand_1-2" data-name="Hand 1">
      <path class="cls-10" d="M285.54,239.16c-1.27,11.58,2.8,23.37,9.8,32.68,7,9.31,16.74,16.29,27.21,21.41,4.71,2.3,9.69,4.28,14.93,4.7s10.78-.88,14.64-4.43c4.03-3.71,5.75-9.45,5.64-14.93-.11-5.48-1.86-10.79-3.84-15.9-4.25-10.98-9.69-21.5-16.18-31.32-3.69-5.58-7.84-11.05-13.44-14.69-6.4-4.16-18.02-6.61-24.8-2.09-7.97,5.31-12.92,15.26-13.94,24.58Z"/>
      <path class="cls-9" d="M312.65,214.76l-18.78-31.3-19.89,11.94s8.72,16.36,18.88,34.64c6.58-5.12,13.17-10.22,19.8-15.28Z"/>
      <path class="cls-10" d="M354.74,203.36c-4.77,21.09-14.32,57.69-14.32,57.69l-18.33-30.56c-6.05,6.52-12.16,13-17.72,19.92,5.65,9.78,10.91,18.51,14.57,23.77,12.73,18.3,16.31,26.26,31.03,22.28,14.72-3.98,30.24-75.6,30.24-75.6l1.12-55.18c-12.26,7.03-21.81,16.58-26.58,37.67Z"/>
      <path class="cls-2" d="M344.8,244.34c1.64,4.02,3.28,8.03,4.91,12.05"/>
    </g>
    <g id="Phone">
      <path class="cls-11" d="M281.45,143.1l-22.42,1.05,28.25,50.7,22.79-.89c3.98-.16,6.37-4.49,4.38-7.94l-20.94-36.33c-2.47-4.28-7.12-6.83-12.06-6.6Z"/>
      <path class="cls-5" d="M290.74,149.87c6.93,11.36,12.93,23.17,19.86,34.53"/>
    </g>
    <g id="Body-2" data-name="Body">
      <polygon class="cls-10" points="371.27 222.56 364.3 298.73 459.99 298.6 452.95 205.51 424.82 157.29 381.32 165.69 371.27 222.56"/>
      <path class="cls-2" d="M372.02,194.86c-1.55,24.65-3.09,49.3-4.64,73.95"/>
    </g>
    <line id="Line" class="cls-5" x1="357.25" y1="298.71" x2="441.77" y2="298.71"/>
    <g id="Hand_2-2" data-name="Hand 2">
      <path class="cls-10" d="M424.82,157.29c26.6,8.67,30.98,13.44,52.86,40.5,21.88,27.06,36.21,45.76,30.64,78.78-5.57,33.02-32.63,39.79-53.71,31.03-21.09-8.75-9.62-25.92,.32-38.65,9.95-12.73,19.43-23.79,19.43-23.79l-48-55.33-1.54-32.54Z"/>
      <path class="cls-9" d="M455.2,317.67l9.06-9.36c-5.93-5.52-12.06-10.82-18.12-16.2l-9.58,11.97c3.79,6.63,11.57,10.91,18.63,13.59Z"/>
      <path class="cls-2" d="M442.6,207.41c4.89,5.72,9.79,11.44,14.68,17.16"/>
      <path class="cls-2" d="M457.38,266.72c-4.4,3.35-8.91,6.83-11.68,11.61-2.77,4.79-3.37,11.27,.04,15.62"/>
    </g>
    <g id="Wrist">
      <path class="cls-9" d="M273.98,195.4c-7.96-12.73-8.75-31.03-1.59-41.38,7.16-10.34,5.17-1.19,3.58,6.76l-1.59,7.96s3.98-3.98,11.54-3.18c7.56,.8,4.38,4.77,4.38,4.77,0,0,5.04,5.64,1.19,6.37-10.56,1.99-3.18,23.87-3.18,23.87l-14.32-5.17Z"/>
      <path class="cls-5" d="M289.38,171.41c-1.94-1.49-4.82-1.38-6.9-.09-2.08,1.29-3.4,3.58-3.95,5.96-.55,2.39-.4,4.88-.06,7.3"/>
      <path class="cls-5" d="M273.07,169.71c-2.14,1.81-3.23,4.78-2.77,7.55"/>
      <path class="cls-5" d="M287.65,196.52c2.49,.77,4.44,3.05,4.81,5.63"/>
    </g>
    <g id="Head-2" data-name="Head">
      <path class="cls-9" d="M407.65,136.27c-2.11-9.1,2.01-17.5,2.96-28.01-1.32-.47-2.6-1.09-3.69-1.94-2.74-2.14-3.15-5.78-3.84-8.96-.64-2.98-1.81-5.59-4.25-7.49-2.42-1.89-4.89-3.6-7.03-5.84-2.11-2.21-3.88-4.84-6.35-6.68-3.05-2.28-6.5-2.54-10.17-2-4.08,.61-8.01,1.28-12.15,.9-2.16-.2-4.27-.61-6.33-1.18-1.55,1.91-2.81,4.09-3.67,6.51-7.32,20.47-.9,18.89-12.29,31.25l13.27,3.67s-.19,19.03,16.09,18.76c16.28-.26,19.59,22.78,11.13,30.41,0,0,6.12,10.79,18.31,9.72,13.62-1.2,25.19-18.12,25.19-18.12,0,0-13.63-5.72-17.18-21.02Z"/>
      <path class="cls-7" d="M375.67,137.89c4.17-1.05,8.7-3.24,11.15-7.61,2.73-4.85,.87-11.25,4.51-15.72,5.83-7.15,11.69,.03,17.7,3.19,2.02-9.46,3.86-20.13-3.89-34.85-12.66-24.07-43.33-20.97-51.4-2.87,7.07,2.46,16.9,.71,23.57,.95,1.26,.05,2.59,.88,2.87,2.18,1.9,8.89,1.96,20.72-1.77,29.15-1.8,4.07-5.12,6.47-9.66,6.45-4.48-.02-10.13-3.35-14.66-2.26,.21,3.97,.31,23.89,21.56,21.38Z"/>
      <path class="cls-9" d="M388.44,92.73l.79,16.51s12.66-.83,12.31-9.4c-.32-7.71-10-8.06-13.1-7.11Z"/>
      <path class="cls-3" d="M356.33,91.63c-1.67,4.11-1.04,9.15,1.88,12.48,2.92,3.33,8.12,4.57,12.08,2.6,3.96-1.98,6.09-7.19,4.31-11.25"/>
      <path class="cls-3" d="M349.11,96.4c1.71,.31,3.42,.62,5.13,.93"/>
      <path class="cls-4" d="M368.93,125.76c2.67-.74,5.13-2.26,6.99-4.31,1.48,1.57,1.21,4.44-.55,5.7"/>
      <path class="cls-3" d="M365.06,97.31c.42,.85,.85,1.69,1.27,2.54"/>
      <path class="cls-5" d="M391.54,73.84c2.63-1.38,5.27-2.76,7.9-4.15"/>
    </g>
  </g>
  <g id="Lines">
    <path class="cls-1" d="M225.87,78.56c-4.42,1.11-8.25,4.39-10.02,8.59-1.77,4.2-1.44,9.23,.86,13.17,.96,1.64,2.33,3.15,4.15,3.69s4.1-.23,4.76-2.01c.52-1.38-.05-2.99-1.1-4.02-1.05-1.03-2.48-1.57-3.92-1.89-8.08-1.81-20.77,6.95-23.82,21.58"/>
    <path class="cls-1" d="M270.98,136.37c7.85-9.38,19.32-15.65,31.45-17.19,4.86-.62,10.08-.42,14.23,2.17,4.15,2.6,6.7,8.2,4.58,12.61-.94,1.95-2.83,3.53-4.99,3.66-2.16,.12-4.4-1.52-4.55-3.68-.21-3.23,3.62-5.06,6.81-5.61,2.45-.42,5.02-.61,7.36,.22s4.37,2.93,4.46,5.41"/>
    <path class="cls-1" d="M157.84,105.12c5.58,1.78,10.16,6.42,11.86,12.03"/>
    <polyline class="cls-5" points="283.31 282.01 264.16 282.03 251.36 282.04 176.93 282.1 166.52 282.1 48.82 282.2"/>
  </g>
</svg>