<?xml version="1.0" encoding="UTF-8" standalone="no"?>
<svg
   xmlns:dc="http://purl.org/dc/elements/1.1/"
   xmlns:cc="http://creativecommons.org/ns#"
   xmlns:rdf="http://www.w3.org/1999/02/22-rdf-syntax-ns#"
   xmlns:svg="http://www.w3.org/2000/svg"
   xmlns="http://www.w3.org/2000/svg"
   xmlns:sodipodi="http://sodipodi.sourceforge.net/DTD/sodipodi-0.dtd"
   xmlns:inkscape="http://www.inkscape.org/namespaces/inkscape"
   id="_Слой_1"
   data-name="Слой 1"
   viewBox="0 0 509.53 317.67"
   version="1.1"
   inkscape:version="0.91 r13725"
   sodipodi:docname="collaboration.svg">
  <metadata
     id="metadata177">
    <rdf:RDF>
      <cc:Work
         rdf:about="">
        <dc:format>image/svg+xml</dc:format>
        <dc:type
           rdf:resource="http://purl.org/dc/dcmitype/StillImage" />
      </cc:Work>
    </rdf:RDF>
  </metadata>
  <sodipodi:namedview
     pagecolor="#ffffff"
     bordercolor="#666666"
     borderopacity="1"
     objecttolerance="10"
     gridtolerance="10"
     guidetolerance="10"
     inkscape:pageopacity="0"
     inkscape:pageshadow="2"
     inkscape:window-width="1920"
     inkscape:window-height="1017"
     id="namedview175"
     showgrid="false"
     inkscape:zoom="1.9761742"
     inkscape:cx="214.15846"
     inkscape:cy="155.11837"
     inkscape:window-x="-8"
     inkscape:window-y="-8"
     inkscape:window-maximized="1"
     inkscape:current-layer="_Слой_1" />
  <defs
     id="defs3">
    <style
       id="style5">
      .cls-1 {
        stroke: #ff504d;
      }

      .cls-1, .cls-2, .cls-3, .cls-4, .cls-5 {
        fill: none;
        stroke-linecap: round;
        stroke-linejoin: round;
      }

      .cls-2 {
        stroke: #fff;
      }

      .cls-3 {
        stroke: #211d28;
      }

      .cls-4 {
        stroke: #000;
      }

      .cls-5 {
        stroke: #00b9ff;
      }

      .cls-6 {
        fill: #00d692;
      }

      .cls-7 {
        fill: #00b9ff;
      }

      .cls-8 {
        fill: #fff;
      }

      .cls-9 {
        fill: #ffe032;
      }

      .cls-10 {
        fill: #ff504d;
      }

      .cls-11 {
        fill: #211d28;
      }
    </style>
  </defs>
  <g
     id="Post_1"
     data-name="Post 1">
    <polygon
       class="cls-6"
       points="264.16 232.59 264.15 254.62 247.28 228.95 264.16 232.59"
       id="polygon8" />
    <path
       class="cls-6"
       d="M166.08,230.13s-1.45-108.17-.41-108.18c1.05,0,97.02,.72,97.02,.72l1.47,109.92-98.08-2.46Z"
       id="path10" />
    <path
       class="cls-7"
       d="M256.18,203.51l-17.17-.31-27.18-.49-25.4-.46-12.8-.23s-1.09-71.29-.2-71.3c.46,0,23.2,.1,44.57,.19,19.09,.09,37.08,.16,37.08,.16l1.1,72.45Z"
       id="path12" />
    <path
       class="cls-8"
       d="M239.01,203.2c3.46-4.12,8.9-11.35,7.46-14.5-2.72-5.96-7.91-.64-15.84-2.91-6.3-1.81-9.6-8.77-10.07-17.59-5.9,.24-9.41-.94-12.92-5.68,7.14-7.56,11.39-12.78,12.05-18.35,.74-6.3,2.41-12.59,3.29-13.36,19.09,.09,32.09,.25,32.09,.25l1.1,72.45-17.17-.31Z"
       id="path14" />
    <path
       class="cls-10"
       d="M243.82,137.52c.76-.85,2.43-.22,2.34,.95-.36,4.89,2.1,9.92,6.12,12.73,.95,.67,2.01,1.21,3.13,1.53l-.33-21.66s-13.69-.05-29.85-.13c.69,7.53,13.11,12.73,18.59,6.58Z"
       id="path16" />
    <path
       class="cls-1"
       d="M235.35,178.52c4.77-1.42,8.68-5.42,9.99-10.22"
       id="path18" />
    <path
       class="cls-8"
       d="M211.83,202.71l-25.4-.46c-6.31-14.98-14.47-43.63-8.77-37.06,2.19,4.42,3.85,7.08,6.05,11.5-5.16-13.86-5.83-20.49-1.39-16.59,2.88,6.82,3.1,7.82,5.98,14.64-3.61-11.59-3.36-22.59-.11-15.2,4.08,9.28,10.42,24.16,12.44,22.33,2.59-4.29,1.27-1.98,3.96-7.88,2.48-4.79,4.77-1.93,4.03,5.96-.57,6.18-.27,14.6,3.21,22.75Z"
       id="path20" />
    <path
       class="cls-1"
       d="M198,182.65c-1.73,1.69-2.33,4.44-1.47,6.7"
       id="path22" />
    <path
       class="cls-1"
       d="M234.98,149.83c0-.78,0-1.58,.27-2.31,.27-.73,.88-1.39,1.66-1.48,.78-.1,1.54,.4,1.98,1.06s.62,1.44,.8,2.21"
       id="path24" />
    <path
       class="cls-4"
       d="M223.72,212.47c10.19,.23,20.39,.45,30.58,.68"
       id="path26" />
    <path
       class="cls-1"
       d="M183.1,175.92l1.81,3.09"
       id="path28" />
    <path
       class="cls-1"
       d="M185.96,167.57c1.18,3.61,2.36,7.23,3.53,10.84"
       id="path30" />
    <path
       class="cls-4"
       d="M224.69,219.52c4.7,.12,9.4,.23,14.1,.35"
       id="path32" />
  </g>
  <g
     id="Likes">
    <path
       class="cls-6"
       d="M267.37,132.12l-1.45-51.48c-.04-5.56,4.46-10.1,10.03-10.1h91.84c5.86,0,10.47,5.01,9.99,10.85l-1.21,14.72c-.43,5.2-4.77,9.2-9.99,9.2h-90.9l-8.3,26.8Z"
       id="path35" />
    <path
       class="cls-8"
       d="M335.48,84.73c-2.54-5.08-7.39-3.43-7.51-.22s7.74,12.31,7.74,12.31c0,0,4.71-6.63,6.29-10.49,1.38-3.38-2.54-7.6-6.51-1.6Z"
       id="path37" />
    <path
       class="cls-10"
       d="M312.26,84.73c-2.54-5.08-7.39-3.43-7.51-.22-.12,3.22,7.74,12.31,7.74,12.31,0,0,4.71-6.63,6.29-10.49,1.38-3.38-2.54-7.6-6.51-1.6Z"
       id="path39" />
    <path
       class="cls-10"
       d="M289.05,84.73c-2.54-5.08-7.39-3.43-7.51-.22-.12,3.22,7.74,12.31,7.74,12.31,0,0,4.71-6.63,6.29-10.49,1.38-3.38-2.54-7.6-6.51-1.6Z"
       id="path41" />
  </g>
  <g
     id="Post_2"
     data-name="Post 2">
    <polygon
       class="cls-6"
       points="264.16 282.03 251.36 282.04 176.93 282.1 176.91 282.57 166.51 282.43 166.52 282.1 167.08 264.57 263.78 264.57 264.16 282.03"
       id="polygon44" />
    <polygon
       class="cls-9"
       points="251.36 282.04 176.93 282.1 177.22 272.95 251.16 272.95 251.36 282.04"
       id="polygon46" />
  </g>
  <g
     id="Like">
    <path
       class="cls-6"
       d="M299.4,62.65l.9-62.65,46.51,.37c5.43,.04,9.79,4.48,9.73,9.91l-.36,36.6-47.78-.9-9.01,16.68Z"
       id="path49" />
    <path
       class="cls-10"
       d="M326.78,17.2c-4.8-9.59-13.95-6.49-14.19-.41s14.61,23.24,14.61,23.24c0,0,8.89-12.52,11.87-19.8,2.61-6.39-4.8-14.35-12.29-3.03Z"
       id="path51" />
  </g>
  <g
     id="Tablet"
     style="fill:#000000">
    <polygon
       style="fill:#000000"
       id="polygon55"
       points="201.04,211.12 171.69,258.66 129.92,260.16 129.92,260.16 161.16,211.12 "
       class="cls-11" />
    <path
       style="fill:#000000;stroke:#ffffff;stroke-linecap:round;stroke-linejoin:round"
       inkscape:connector-curvature="0"
       id="path57"
       d="m 170.36,227.94 c 2.09,-2.19 5.85,-2.53 8.29,-0.73 2.44,1.8 3.26,5.47 1.8,8.13 -1.46,2.66 -5.01,3.94 -7.83,2.83"
       class="cls-2" />
  </g>
  <g
     data-name="Hand 2"
     id="Hand_2">
    <path
       style="fill:#ffe032"
       inkscape:connector-curvature="0"
       id="path60"
       d="m 133.12,192.2 c 22.03,-18.25 37.7,4.46 36.04,7.09 -1.61,2.54 -2.11,5.15 -3.45,4.88 -0.81,0.4 2.72,5.82 1.28,6.07 -2.03,0.34 -4.66,-4.17 -6.37,-7.88 0,0 -2.22,2.75 -7.21,-1.29 -5.08,-4.11 -20.75,13.6 -43.34,34.78 l -2.36,-22.22 c 0,0 17.57,-14.95 25.4,-21.44 z"
       class="cls-9" />
    <path
       style="fill:none;stroke:#ff504d;stroke-linecap:round;stroke-linejoin:round"
       inkscape:connector-curvature="0"
       id="path62"
       d="m 154.23,196.43 c 2.47,0.94 4.63,2.64 6.12,4.82"
       class="cls-1" />
    <path
       style="fill:none;stroke:#ff504d;stroke-linecap:round;stroke-linejoin:round"
       inkscape:connector-curvature="0"
       id="path64"
       d="m 163.39,197.41 c 0.69,2.04 1.38,4.08 2.07,6.12"
       class="cls-1" />
    <path
       style="fill:none;stroke:#ff504d;stroke-linecap:round;stroke-linejoin:round"
       inkscape:connector-curvature="0"
       id="path66"
       d="m 165.62,195.81 c 1.25,1.29 1.89,3.16 1.69,4.94"
       class="cls-1" />
  </g>
  <g
     id="Body">
    <path
       style="fill:#00b9ff"
       inkscape:connector-curvature="0"
       id="path69"
       d="m 56.8,282.35 68.27,0 c -3.44,-15.73 -10.87,-48.81 -18,-75.34 7.35,-7.83 -9.95,-34.26 -13.2,-38.01 -9.21,-10.64 -24.64,-8.8 -24.64,-8.8 -5.15,2.61 -23.5,19.88 -17.52,74.44 2.67,24.32 4.2,38.96 5.09,47.72 z"
       class="cls-7" />
    <path
       style="fill:none;stroke:#ff504d;stroke-linecap:round;stroke-linejoin:round"
       inkscape:connector-curvature="0"
       id="path71"
       d="m 88.25,212.74 c 3.33,-1.42 6,-4.32 7.14,-7.76"
       class="cls-1" />
  </g>
  <path
     class="cls-9"
     d="m 109.12,105 c -2.19,-1.56 -4.7,-1.96 -7.54,-1.02 -3.15,1.04 -5.82,3.13 -8.5,5 -3.16,2.21 -6.35,4.36 -9.66,6.35 -3.37,2.03 -6.86,3.87 -10.49,5.4 -1.26,0.53 -2.54,1.01 -3.84,1.45 0.4,4.72 2.22,10.18 5.4,17.57 6.59,15.29 -3.82,19.47 -5.27,20.44 0,0 2.43,7.92 11.63,14.02 8.29,5.5 14,0.15 13.01,-5.22 -7.47,-11.52 -2.53,-15.85 9.33,-19.6 15.91,-5.04 17.4,-30.02 5.92,-44.39 z"
     id="path74"
     inkscape:connector-curvature="0"
     style="fill:#ffe032" />
  <path
     class="cls-11"
     d="m 112.76,110.74 c -1.67,-3.35 -3.87,-6.42 -6.61,-8.96 -1.8,-1.67 -4.57,-2.81 -7.78,-3.35 0.12,1.88 0.57,3.72 1.41,5.44 3.7,3.46 8.17,6.03 12.97,6.87 z"
     id="path76"
     inkscape:connector-curvature="0"
     style="fill:#000000" />
  <path
     class="cls-11"
     d="m 75.91,143.94 c 3.13,-1.62 7.39,-4.91 5.88,-8.58 -7.93,2.43 -12.89,-7.74 -5.59,-11.36 0.82,-0.41 4.05,-1.14 7.31,-3.2 7.11,-4.49 16.78,-12.13 18.91,-14.33 1.44,-1.48 2.65,-3.2 3.26,-5.09 -7.02,-5.66 -25.77,-4.52 -32.77,6.67 -5.83,9.32 -4.95,16.35 1.59,31.7 0.65,1.52 1.1,2.91 1.41,4.19 z"
     id="path78"
     inkscape:connector-curvature="0"
     style="fill:#000000" />
  <path
     class="cls-11"
     d="m 74.1,99.27 c -6.5,-2.19 -14.17,-1.34 -19.5,2.98 -8.92,7.23 -9.06,21.19 -16.79,29.68 -3.87,4.25 -9.29,6.71 -14.64,8.81 -5.35,2.1 -10.89,4.01 -15.47,7.48 -4.58,3.47 -8.13,8.91 -7.65,14.64 0.42,5.09 4.02,9.56 8.53,11.97 4.51,2.4 9.8,2.97 14.89,2.63 12.93,-0.86 25.36,-7.53 33.22,-17.83 7.86,-10.3 11.02,-24.05 8.44,-36.75 -0.69,-3.39 -1.77,-6.84 -1.18,-10.25 0.59,-3.41 3.62,-6.74 7.03,-6.16 4.66,0.8 8.97,14.21 13.3,6.53 3.94,-6.99 -4.64,-11.86 -10.18,-13.74 z"
     id="path80"
     inkscape:connector-curvature="0"
     style="fill:#000000" />
  <path
     class="cls-3"
     d="m 108.99,121.09 c -1.45,3.8 -0.52,8.39 2.31,11.32 -2.88,0 -5.75,0 -8.63,-0.01"
     id="path82"
     inkscape:connector-curvature="0"
     style="fill:none;stroke:#211d28;stroke-linecap:round;stroke-linejoin:round" />
  <path
     class="cls-3"
     d="m 98.41,120.84 -1.07,2.33"
     id="path84"
     inkscape:connector-curvature="0"
     style="fill:none;stroke:#211d28;stroke-linecap:round;stroke-linejoin:round" />
  <path
     class="cls-3"
     d="m 97.04,135.73 c 0.07,3.41 3.1,6.49 6.51,6.62"
     id="path86"
     inkscape:connector-curvature="0"
     style="fill:none;stroke:#211d28;stroke-linecap:round;stroke-linejoin:round" />
  <g
     data-name="Hand 1"
     id="Hand_1">
    <path
       style="fill:#ffe032"
       inkscape:connector-curvature="0"
       id="path89"
       d="m 155.4,236.84 c 2.82,-1.1 5.59,-2.57 8.24,-4.07 0.48,-0.27 4.69,-2.63 2.55,-3.11 -3.61,-0.81 -8.21,2.6 -13.73,3.93 -5.52,1.33 -6.31,-3.9 -3.92,-6.58 2.39,-2.68 6.4,-8.53 -1.14,-4.2 -3.42,1.96 -4.06,7.32 -9.5,10.43 -15.56,8.9 -39.2,20.64 -39.2,20.64 L 79.92,207.13 c -7.14,2.17 -14.27,4.38 -21.39,6.62 2.69,7.71 6.15,17 10.13,26.25 14.75,34.3 21.55,39.54 27.92,36.63 13.7,-6.27 24.22,-14.32 40.83,-23.35 15.3,-8.32 20.69,-8.49 24.92,-10.8 5.13,-2.81 4.53,-4.29 4.86,-7.35 0.27,-2.59 -9.98,1.84 -9.88,0.74 0,0 0.4,-0.17 1.04,-0.46"
       class="cls-9" />
    <path
       style="fill:none;stroke:#ff504d;stroke-linecap:round;stroke-linejoin:round"
       inkscape:connector-curvature="0"
       id="path91"
       d="m 157.95,240.59 c 3.35,-0.52 6.58,-1.81 9.36,-3.74"
       class="cls-1" />
    <path
       style="fill:none;stroke:#ff504d;stroke-linecap:round;stroke-linejoin:round"
       inkscape:connector-curvature="0"
       id="path93"
       d="m 154.89,237.01 c 1.76,-0.62 3.52,-1.25 5.28,-1.87"
       class="cls-1" />
    <path
       style="fill:none;stroke:#ff504d;stroke-linecap:round;stroke-linejoin:round"
       inkscape:connector-curvature="0"
       id="path95"
       d="m 77.43,188.27 c 1.88,6 3.76,12.01 5.64,18.01"
       class="cls-1" />
  </g>
  <g
     id="Thumb">
    <path
       class="cls-6"
       d="M191.94,108.05l.8-77.32-58.3-.58c-6.18-.06-11.22,4.95-11.19,11.14l.25,48.52h61.68l6.76,18.24Z"
       id="path98" />
    <path
       class="cls-9"
       d="M136.44,45.23c25.29-3.3,25.84-29.69,32.99-27.49,7.15,2.2-5.5,26.94-5.5,26.94,0,0,20.34-.55,23.09,3.3,2.75,3.85-1.65,7.15-1.65,7.15,0,0,6.05,4.95-1.65,11,0,0,1.65,6.05-5.5,9.35-7.15,3.3-50.04,1.65-50.04,1.65l8.25-31.89Z"
       id="path100" />
    <path
       class="cls-1"
       d="M169.05,47.8c-1.39,.27-2.83,.55-4,1.35-1.17,.8-2.01,2.27-1.63,3.64,.26,.93,1.03,1.66,1.91,2.07,.88,.41,1.85,.56,2.82,.67,4.54,.53,9.15,.44,13.66-.26"
       id="path102" />
    <path
       class="cls-1"
       d="M164.46,57c-1.39,.44-2.83,.89-3.96,1.82s-1.91,2.44-1.53,3.85c.31,1.17,1.35,2.04,2.48,2.47,1.13,.43,2.37,.49,3.58,.55,6.1,.28,12.19,.56,18.29,.84"
       id="path104" />
    <path
       class="cls-1"
       d="M161.66,68.38c-1.02,.51-2.06,1.05-2.77,1.94s-.99,2.23-.34,3.16c.74,1.06,2.25,1.14,3.54,1.13,4.12-.06,8.23-.12,12.35-.17"
       id="path106" />
    <path
       class="cls-1"
       d="M148.33,65.8c3.53-1.09,6.7-3.32,8.93-6.28,2.22-2.96,3.49-6.62,3.56-10.32"
       id="path108" />
  </g>
  <g
     data-name="Hand 1"
     id="Hand_1-2">
    <path
       style="fill:#ff504d"
       inkscape:connector-curvature="0"
       id="path112"
       d="m 285.54,239.16 c -1.27,11.58 2.8,23.37 9.8,32.68 7,9.31 16.74,16.29 27.21,21.41 4.71,2.3 9.69,4.28 14.93,4.7 5.24,0.42 10.78,-0.88 14.64,-4.43 4.03,-3.71 5.75,-9.45 5.64,-14.93 -0.11,-5.48 -1.86,-10.79 -3.84,-15.9 -4.25,-10.98 -9.69,-21.5 -16.18,-31.32 -3.69,-5.58 -7.84,-11.05 -13.44,-14.69 -6.4,-4.16 -18.02,-6.61 -24.8,-2.09 -7.97,5.31 -12.92,15.26 -13.94,24.58 z"
       class="cls-10" />
    <path
       style="fill:#ffe032"
       inkscape:connector-curvature="0"
       id="path114"
       d="m 312.65,214.76 -18.78,-31.3 -19.89,11.94 c 0,0 8.72,16.36 18.88,34.64 6.58,-5.12 13.17,-10.22 19.8,-15.28 z"
       class="cls-9" />
    <path
       style="fill:#ff504d"
       inkscape:connector-curvature="0"
       id="path116"
       d="m 354.74,203.36 c -4.77,21.09 -14.32,57.69 -14.32,57.69 l -18.33,-30.56 c -6.05,6.52 -12.16,13 -17.72,19.92 5.65,9.78 10.91,18.51 14.57,23.77 12.73,18.3 16.31,26.26 31.03,22.28 14.72,-3.98 30.24,-75.6 30.24,-75.6 l 1.12,-55.18 c -12.26,7.03 -21.81,16.58 -26.58,37.67 z"
       class="cls-10" />
    <path
       style="fill:none;stroke:#ffffff;stroke-linecap:round;stroke-linejoin:round"
       inkscape:connector-curvature="0"
       id="path118"
       d="m 344.8,244.34 c 1.64,4.02 3.28,8.03 4.91,12.05"
       class="cls-2" />
  </g>
  <g
     id="Phone"
     style="fill:#000000">
    <path
       style="fill:#000000"
       inkscape:connector-curvature="0"
       id="path121"
       d="m 281.45,143.1 -22.42,1.05 28.25,50.7 22.79,-0.89 c 3.98,-0.16 6.37,-4.49 4.38,-7.94 l -20.94,-36.33 c -2.47,-4.28 -7.12,-6.83 -12.06,-6.6 z"
       class="cls-11" />
    <path
       style="fill:#000000;stroke:#00b9ff;stroke-linecap:round;stroke-linejoin:round"
       inkscape:connector-curvature="0"
       id="path123"
       d="m 290.74,149.87 c 6.93,11.36 12.93,23.17 19.86,34.53"
       class="cls-5" />
  </g>
  <g
     data-name="Body"
     id="Body-2">
    <polygon
       style="fill:#ff504d"
       id="polygon126"
       points="459.99,298.6 452.95,205.51 424.82,157.29 381.32,165.69 371.27,222.56 371.27,222.56 364.3,298.73 "
       class="cls-10" />
    <path
       style="fill:none;stroke:#ffffff;stroke-linecap:round;stroke-linejoin:round"
       inkscape:connector-curvature="0"
       id="path128"
       d="m 372.02,194.86 c -1.55,24.65 -3.09,49.3 -4.64,73.95"
       class="cls-2" />
  </g>
  <line
     style="fill:none;stroke:#00b9ff;stroke-linecap:round;stroke-linejoin:round"
     y2="298.70999"
     x2="441.76999"
     y1="298.70999"
     x1="357.25"
     class="cls-5"
     id="Line" />
  <g
     data-name="Hand 2"
     id="Hand_2-2">
    <path
       style="fill:#ff504d"
       inkscape:connector-curvature="0"
       id="path132"
       d="m 424.82,157.29 c 26.6,8.67 30.98,13.44 52.86,40.5 21.88,27.06 36.21,45.76 30.64,78.78 -5.57,33.02 -32.63,39.79 -53.71,31.03 -21.09,-8.75 -9.62,-25.92 0.32,-38.65 9.95,-12.73 19.43,-23.79 19.43,-23.79 l -48,-55.33 -1.54,-32.54 z"
       class="cls-10" />
    <path
       style="fill:#ffe032"
       inkscape:connector-curvature="0"
       id="path134"
       d="m 455.2,317.67 9.06,-9.36 c -5.93,-5.52 -12.06,-10.82 -18.12,-16.2 l -9.58,11.97 c 3.79,6.63 11.57,10.91 18.63,13.59 z"
       class="cls-9" />
    <path
       style="fill:none;stroke:#ffffff;stroke-linecap:round;stroke-linejoin:round"
       inkscape:connector-curvature="0"
       id="path136"
       d="m 442.6,207.41 c 4.89,5.72 9.79,11.44 14.68,17.16"
       class="cls-2" />
    <path
       style="fill:none;stroke:#ffffff;stroke-linecap:round;stroke-linejoin:round"
       inkscape:connector-curvature="0"
       id="path138"
       d="m 457.38,266.72 c -4.4,3.35 -8.91,6.83 -11.68,11.61 -2.77,4.79 -3.37,11.27 0.04,15.62"
       class="cls-2" />
  </g>
  <g
     id="Wrist">
    <path
       style="fill:#ffe032"
       inkscape:connector-curvature="0"
       id="path141"
       d="m 273.98,195.4 c -7.96,-12.73 -8.75,-31.03 -1.59,-41.38 7.16,-10.34 5.17,-1.19 3.58,6.76 l -1.59,7.96 c 0,0 3.98,-3.98 11.54,-3.18 7.56,0.8 4.38,4.77 4.38,4.77 0,0 5.04,5.64 1.19,6.37 -10.56,1.99 -3.18,23.87 -3.18,23.87 l -14.32,-5.17 z"
       class="cls-9" />
    <path
       style="fill:none;stroke:#00b9ff;stroke-linecap:round;stroke-linejoin:round"
       inkscape:connector-curvature="0"
       id="path143"
       d="m 289.38,171.41 c -1.94,-1.49 -4.82,-1.38 -6.9,-0.09 -2.08,1.29 -3.4,3.58 -3.95,5.96 -0.55,2.39 -0.4,4.88 -0.06,7.3"
       class="cls-5" />
    <path
       style="fill:none;stroke:#00b9ff;stroke-linecap:round;stroke-linejoin:round"
       inkscape:connector-curvature="0"
       id="path145"
       d="m 273.07,169.71 c -2.14,1.81 -3.23,4.78 -2.77,7.55"
       class="cls-5" />
    <path
       style="fill:none;stroke:#00b9ff;stroke-linecap:round;stroke-linejoin:round"
       inkscape:connector-curvature="0"
       id="path147"
       d="m 287.65,196.52 c 2.49,0.77 4.44,3.05 4.81,5.63"
       class="cls-5" />
  </g>
  <g
     data-name="Head"
     id="Head-2">
    <path
       style="fill:#ffe032"
       inkscape:connector-curvature="0"
       id="path150"
       d="m 407.65,136.27 c -2.11,-9.1 2.01,-17.5 2.96,-28.01 -1.32,-0.47 -2.6,-1.09 -3.69,-1.94 -2.74,-2.14 -3.15,-5.78 -3.84,-8.96 -0.64,-2.98 -1.81,-5.59 -4.25,-7.49 -2.42,-1.89 -4.89,-3.6 -7.03,-5.84 -2.11,-2.21 -3.88,-4.84 -6.35,-6.68 -3.05,-2.28 -6.5,-2.54 -10.17,-2 -4.08,0.61 -8.01,1.28 -12.15,0.9 -2.16,-0.2 -4.27,-0.61 -6.33,-1.18 -1.55,1.91 -2.81,4.09 -3.67,6.51 -7.32,20.47 -0.9,18.89 -12.29,31.25 l 13.27,3.67 c 0,0 -0.19,19.03 16.09,18.76 16.28,-0.26 19.59,22.78 11.13,30.41 0,0 6.12,10.79 18.31,9.72 13.62,-1.2 25.19,-18.12 25.19,-18.12 0,0 -13.63,-5.72 -17.18,-21.02 z"
       class="cls-9" />
    <path
       style="fill:#00b9ff"
       inkscape:connector-curvature="0"
       id="path152"
       d="m 375.67,137.89 c 4.17,-1.05 8.7,-3.24 11.15,-7.61 2.73,-4.85 0.87,-11.25 4.51,-15.72 5.83,-7.15 11.69,0.03 17.7,3.19 2.02,-9.46 3.86,-20.13 -3.89,-34.85 -12.66,-24.07 -43.33,-20.97 -51.4,-2.87 7.07,2.46 16.9,0.71 23.57,0.95 1.26,0.05 2.59,0.88 2.87,2.18 1.9,8.89 1.96,20.72 -1.77,29.15 -1.8,4.07 -5.12,6.47 -9.66,6.45 -4.48,-0.02 -10.13,-3.35 -14.66,-2.26 0.21,3.97 0.31,23.89 21.56,21.38 z"
       class="cls-7" />
    <path
       style="fill:#ffe032"
       inkscape:connector-curvature="0"
       id="path154"
       d="m 388.44,92.73 0.79,16.51 c 0,0 12.66,-0.83 12.31,-9.4 -0.32,-7.71 -10,-8.06 -13.1,-7.11 z"
       class="cls-9" />
    <path
       style="fill:none;stroke:#211d28;stroke-linecap:round;stroke-linejoin:round"
       inkscape:connector-curvature="0"
       id="path156"
       d="m 356.33,91.63 c -1.67,4.11 -1.04,9.15 1.88,12.48 2.92,3.33 8.12,4.57 12.08,2.6 3.96,-1.98 6.09,-7.19 4.31,-11.25"
       class="cls-3" />
    <path
       style="fill:none;stroke:#211d28;stroke-linecap:round;stroke-linejoin:round"
       inkscape:connector-curvature="0"
       id="path158"
       d="m 349.11,96.4 c 1.71,0.31 3.42,0.62 5.13,0.93"
       class="cls-3" />
    <path
       style="fill:none;stroke:#000000;stroke-linecap:round;stroke-linejoin:round"
       inkscape:connector-curvature="0"
       id="path160"
       d="m 368.93,125.76 c 2.67,-0.74 5.13,-2.26 6.99,-4.31 1.48,1.57 1.21,4.44 -0.55,5.7"
       class="cls-4" />
    <path
       style="fill:none;stroke:#211d28;stroke-linecap:round;stroke-linejoin:round"
       inkscape:connector-curvature="0"
       id="path162"
       d="m 365.06,97.31 c 0.42,0.85 0.85,1.69 1.27,2.54"
       class="cls-3" />
    <path
       style="fill:none;stroke:#00b9ff;stroke-linecap:round;stroke-linejoin:round"
       inkscape:connector-curvature="0"
       id="path164"
       d="m 391.54,73.84 c 2.63,-1.38 5.27,-2.76 7.9,-4.15"
       class="cls-5" />
  </g>
  <g
     id="Lines">
    <path
       class="cls-1"
       d="M225.87,78.56c-4.42,1.11-8.25,4.39-10.02,8.59-1.77,4.2-1.44,9.23,.86,13.17,.96,1.64,2.33,3.15,4.15,3.69s4.1-.23,4.76-2.01c.52-1.38-.05-2.99-1.1-4.02-1.05-1.03-2.48-1.57-3.92-1.89-8.08-1.81-20.77,6.95-23.82,21.58"
       id="path167" />
    <path
       class="cls-1"
       d="M270.98,136.37c7.85-9.38,19.32-15.65,31.45-17.19,4.86-.62,10.08-.42,14.23,2.17,4.15,2.6,6.7,8.2,4.58,12.61-.94,1.95-2.83,3.53-4.99,3.66-2.16,.12-4.4-1.52-4.55-3.68-.21-3.23,3.62-5.06,6.81-5.61,2.45-.42,5.02-.61,7.36,.22s4.37,2.93,4.46,5.41"
       id="path169" />
    <path
       class="cls-1"
       d="M157.84,105.12c5.58,1.78,10.16,6.42,11.86,12.03"
       id="path171" />
    <polyline
       class="cls-5"
       points="283.31 282.01 264.16 282.03 251.36 282.04 176.93 282.1 166.52 282.1 48.82 282.2"
       id="polyline173" />
  </g>
</svg>
