<?xml version="1.0" encoding="UTF-8"?>
<svg id="_Слой_1" data-name="Слой 1" xmlns="http://www.w3.org/2000/svg" viewBox="0 0 581.18 325.68">
  <defs>
    <style>
      .cls-1 {
        stroke: #ff504d;
      }

      .cls-1, .cls-2, .cls-3, .cls-4, .cls-5, .cls-6, .cls-7, .cls-8, .cls-9, .cls-10 {
        fill: none;
        stroke-linecap: round;
        stroke-linejoin: round;
      }

      .cls-2 {
        stroke: #fff;
      }

      .cls-3 {
        stroke: #ffe032;
      }

      .cls-4 {
        stroke: #ef1640;
      }

      .cls-5 {
        stroke: #211d28;
      }

      .cls-6, .cls-11 {
        stroke: #18151e;
      }

      .cls-7 {
        stroke: #000;
      }

      .cls-8 {
        stroke: #00b9ff;
      }

      .cls-9 {
        stroke: #00d692;
      }

      .cls-10 {
        stroke: #b0dfff;
      }

      .cls-12 {
        fill: #00d692;
      }

      .cls-13 {
        fill: #00b9ff;
      }

      .cls-14 {
        fill: #ef1640;
      }

      .cls-15 {
        fill: #ffec8d;
      }

      .cls-16 {
        fill: #ffe032;
      }

      .cls-17 {
        fill: #ff504d;
      }

      .cls-18 {
        fill: #211d28;
      }

      .cls-19, .cls-11 {
        fill: #18151e;
      }

      .cls-11 {
        stroke-miterlimit: 10;
      }
    </style>
  </defs>
  <g id="Window">
    <polygon class="cls-12" points="38.76 238.35 39.41 95.82 178.04 93.21 182.59 239 38.76 238.35"/>
    <polygon class="cls-13" points="178.42 105.43 178.04 93.21 39.41 95.82 39.36 105.43 178.42 105.43"/>
    <path class="cls-7" d="M73.39,128.2l.31-8.86c15.7-.19,31.41-.38,47.11-.57"/>
    <path class="cls-7" d="M53.74,146.04c10.36-.18,20.72-.35,31.07-.53"/>
    <path class="cls-7" d="M56.21,163.31c7.56-.16,15.13-.33,22.69-.49"/>
    <path class="cls-7" d="M55.71,184.33l40.94,.44"/>
    <path class="cls-7" d="M55.21,194.6l14.31-.4"/>
    <path class="cls-7" d="M160.77,141.02c1.48,0,2.96,0,4.44,0"/>
    <path class="cls-7" d="M46.65,100.89c5.33,0,10.67-.02,16-.03"/>
  </g>
  <g id="Frame">
    <path class="cls-12" d="M432.31,30.35l-42.1,161.41,108.77,2.06c6.82,.13,12.82-4.48,14.46-11.1l33.22-134.33c2.28-9.22-4.7-18.12-14.19-18.12l-100.16,.08Z"/>
    <line class="cls-7" x1="434.4" y1="43.23" x2="532.49" y2="43.23"/>
    <path class="cls-7" d="M460.95,60.86c16.26-.32,32.51-.65,48.77-.97-6,24.68-12,49.35-18.01,74.03"/>
    <path class="cls-7" d="M521.2,131.06c-1.7,7.15-3.4,14.3-5.11,21.45"/>
    <path class="cls-7" d="M438.99,37.11h12.77"/>
    <path class="cls-7" d="M530.4,37.62l4.09-.51"/>
    <path class="cls-7" d="M455.33,37.62h6.13"/>
  </g>
  <g id="Bench">
    <polygon class="cls-13" points="19.95 221.96 19.23 310.59 333.25 308.66 333.64 221.6 19.95 221.96"/>
    <line class="cls-7" x1="27.46" y1="246.48" x2="335.47" y2="246.48"/>
    <line class="cls-7" x1="22.97" y1="267.41" x2="330.98" y2="267.41"/>
    <line class="cls-7" x1="23.47" y1="286.85" x2="331.48" y2="286.85"/>
  </g>
  <g id="Message">
    <path class="cls-12" d="M219.85,256.06l.4-42.32,90.73-1.45c4.97-.08,9.01,3.97,8.93,8.94l-.1,5.55c-.08,4.75-3.92,8.57-8.66,8.64l-75.73,1.08-15.57,19.56Z"/>
    <path class="cls-7" d="M239.04,229.52c6.8,.09,13.61-1.28,19.84-3.99,2.04-.89,4.36-2.56,3.91-4.73-.43-2.11-3.66-2.7-5.12-1.12s-1.05,4.32,.52,5.8c1.57,1.47,3.95,1.82,6.06,1.41s4.04-1.45,5.93-2.49c-.09,1.44,.92,2.78,2.19,3.45s2.76,.8,4.2,.82c5.51,.05,11.03-1.45,15.76-4.28"/>
  </g>
  <g id="Man_1" data-name="Man 1">
    <g id="Hand_2" data-name="Hand 2">
      <path class="cls-15" d="M186.94,293.91s-2.31-4.63-7.61-19.78c-7.19,2.5-14.23,5.4-21.4,7.94,5.43,14.77,10.68,27.94,13.25,31.31,6.02,7.88,29.66,2.32,29.66,2.32l1.39-23.17-15.29,1.39Z"/>
      <path class="cls-17" d="M181.05,278.97c-1.77-4.9-3.96-11.24-6.62-19.36-8.8-26.88-9.73-43.1-28.63-50.54l-5.2,23.2s10.02,30.26,18.89,54c7.19-2.43,14.39-4.82,21.56-7.3Z"/>
    </g>
    <g id="Tablet">
      <polygon class="cls-18" points="205.48 267.49 249.04 266.1 219.38 321.25 175.78 323.86 205.48 267.49"/>
      <path class="cls-3" d="M213.32,281.25c-4.17,2.18-6.39,7.53-4.99,12.02s6.27,7.63,10.94,7.05"/>
      <path class="cls-3" d="M201.49,280.04c-1.04,2.26-2.09,4.52-3.13,6.78"/>
      <path class="cls-3" d="M196.28,293.6c-.52,.87-1.04,1.74-1.56,2.61"/>
    </g>
    <g id="Hand_1" data-name="Hand 1">
      <path class="cls-15" d="M60.9,266.57c-15.29-17.61-27.8-31.05-27.8-31.05l17.39-2.69c-1.69-7.98-2.89-16.12-2.96-24.27-7.96,1.13-16.06,2.39-24.16,3.8-27.29,4.75-31.05,15.29-9.27,39.39,19.66,21.75,43.1,46.34,44.95,48.2,1.85,1.85,2.06,19.45,6.2,19.89,2.17,.23,3.26-1.4,3.26-1.4,0,0,1.2,4.21,4.91,1.43,2.78-2.08,3.21-9.36,3.26-12.89,.12,2.43,.72,6.27,3.26,6.27,3.71,0,1.83-5.43,.44-15.16s-4.17-13.9-19.46-31.51Z"/>
      <path class="cls-17" d="M43.48,209.14c.41,8.16,1.28,16.3,2.26,24.42l59.17-9.16,5.24-22.75c-18.04,1.49-41.76,3.83-66.68,7.49Z"/>
      <path class="cls-9" d="M66.48,304.45c.4,4.52,.81,9.04,1.21,13.55"/>
      <path class="cls-9" d="M72.87,301.7c.42,5.72-.08,11.5-1.45,17.07"/>
      <path class="cls-2" d="M29.08,230.87c1.29,1.81,2.58,3.62,3.86,5.42"/>
    </g>
    <g id="Wrist">
      <path class="cls-15" d="M238.32,285.81c-2.38-8.42-10.33-14.06-11.28-12.15-1.44,2.89,5.97,8.6,6.67,13.5,0,0-5.65-3.85-12.55-.32-6.51,3.34-2.69,4.82-2.69,4.82,0,0-1.44,2.48,.15,3.28,2.95,1.48,4.47-3.31,7.62-.16s-.32,14.61-.32,14.61c0,0,5.15,2.22,11.8-6.18,6.65-8.4,5.67-26.54,5.67-26.54l-5.08,9.13Z"/>
      <path class="cls-2" d="M219.94,290.57c2.09-1.68,5.11-2.11,7.6-1.1s4.34,3.44,4.66,6.1"/>
      <path class="cls-2" d="M233.33,287.26c.49,.87,.99,1.74,1.48,2.62"/>
      <path class="cls-2" d="M238.32,285.81c.77,1.29,1.54,2.59,2.3,3.88"/>
    </g>
    <g id="Body">
      <path class="cls-17" d="M78.69,225.22s7.04,84.47,10.83,97.09l82.22-4.04s-17.03-73.18-16.72-89.9-9.22-19.3-9.22-19.3l-35.64-7.42-31.47,23.57Z"/>
      <path class="cls-3" d="M156.1,230.98c2.6,15.94,5.19,31.89,7.79,47.83"/>
      <path class="cls-3" d="M110.78,205c3.68,8.95,7.35,17.9,11.03,26.86,3.55-3.96,7.1-7.93,10.65-11.89"/>
      <path class="cls-3" d="M136.22,221.3c2.49,2.49,4.98,4.97,7.47,7.46,.54-5.34,1.09-10.69,1.63-16.03"/>
      <path class="cls-3" d="M133.79,225.93c1.62,10.24,3.24,20.49,4.86,30.73,1.92-.36,3.85-.72,5.77-1.09"/>
    </g>
    <g id="Head">
      <path class="cls-15" d="M160.28,149.31s-8.91,4.08-14.48-1.48c-3.35-3.35-7.08-8.98-13.74-11.4-3.11,2.13-6.37,4.09-9.15,6.65-1.44,1.32-2.7,2.78-3.65,4.49-1.1,2-1.5,4.23-1.92,6.45-.49,2.63-.98,5.24-1.61,7.85-.55,2.25-.9,4.53-.88,6.85,.04,4.16,1.59,8.03,1.92,12.14,.21,2.55-.41,5.11-2.28,6.39,1.55,1.5,2.69,3.12,3.09,5.12,1.86,9.28-7.42,9.28-7.42,9.28,0,0,9.28,17.82,21.9,17.45,12.62-.37,13.74-10.02,13.74-10.02,0,0-5.94-1.86-7.05-11.88-1.11-10.02,12.25-9.28,18.19-18.19s-1.86-18.56-1.86-18.56c1.86-1.86,5.2-11.14,5.2-11.14Z"/>
      <path class="cls-19" d="M116.5,189.69c1.91-.47,3.76-1.42,5.27-2.57,3.46-2.63,6.29-7.03,5.12-11.41-1.97,.52-4.09,.4-5.86-.72-3-1.9-4.37-6.03-3.07-9.34,1.72-4.39,6.63-4.58,10.62-3.57-.33-2.12-1.95-3.75-3.31-5.45-1.55-1.93-2.82-4.07-2.76-6.63,.06-2.73,1.59-4.97,3.64-6.67,2.06-1.71,4.44-2.94,6.7-4.37,.64-.4,1.28-.84,1.89-1.31-4.73-2.59-11.11-3.62-20.49-.21-4.08,1.48-16.33,7.42-16.33,25.99,0,16.61,14.26,19.25,18.59,26.27Z"/>
      <path class="cls-6" d="M136.37,152.56c.7,1.16,2.57,1.33,3.48,.33s.54-2.85-.68-3.43"/>
      <path class="cls-6" d="M141.75,168.55c2.32,3.26,6.95,4.65,10.68,3.2"/>
    </g>
  </g>
  <g id="Bird">
    <path class="cls-13" d="M157.43,63.84c-22.16-16.12-25.85-21.82-11.41-15.44,0,0-9.4-10.07-7.72-11.41s15.11,10.74,15.11,10.74c0,0-4.36-5.37-2.01-6.38,2.35-1.01,17.79,16.45,17.79,16.45,0,0,3.36-5.71,10.07-3.02s.34,13.43-8.06,17.46c-8.39,4.03-24.51-.67-24.51-.67l10.74-7.72Z"/>
    <path class="cls-1" d="M181.27,51.43c-.72,2.15-1.45,4.3-2.17,6.45,3.52-.92,7.04-1.84,10.55-2.76"/>
    <path class="cls-10" d="M157.68,64.25c1.77,.69,3.53,1.37,5.3,2.06"/>
    <path class="cls-10" d="M151.4,46.07l7.76,6.69"/>
    <path class="cls-10" d="M144.76,47.72c2.56,1.75,5.12,3.5,7.69,5.25"/>
  </g>
  <g id="Woman">
    <g id="Legs">
      <path class="cls-18" d="M286.17,64.24s-5.99,30.53-9.83,44.28c-3.84,13.75-3.74,11.22-21.1,17.36-17.19,6.08-24.09,8.4-24.09,8.4,0,0-.64,7.68-3.52,11.83l-4.8-21.43s32.46-12.47,40.14-15.03l6.24-49.58,16.95,4.16Z"/>
      <path class="cls-18" d="M264,64.08c-2.08,10.41-2.08,14.58,5.9,22.56,7.98,7.98,28.46,26.03,28.46,26.03,0,0-9.01,20.57-13.17,38.27l23.24,.6s-4.51-4.51-10.76-6.25c0,0,4.86-12.15,11.45-26.03,6.6-13.88,1.39-16.66-8.33-25.34-9.72-8.68-21.17-19.09-21.17-19.09l1.39-12.84-17.01,2.08Z"/>
      <path class="cls-9" d="M268.48,86.09c2.55,2.73,5.1,5.45,7.65,8.18"/>
    </g>
    <g id="Hand_2-2" data-name="Hand 2">
      <path class="cls-17" d="M287.04,31.47l16.18,17.45,13.01-19.68,6.98,4.44s3.27,12.34-4.08,20.29c-7.35,7.95-15.96,13.97-23.24,7-7.28-6.98-12.36-26.33-12.36-26.33l3.49-3.17Z"/>
      <path class="cls-13" d="M322.7,35.08c.71-5.96,1.31-12.49,1.04-16.05-.56-7.62-1.07-6.77-2.19-7.72-1.12-.95-.84-.95-2.24-.63-1.4,.32,.68,3.16-2.07,8.42-.72,1.37-.86,4.26-1.09,6.71-.24,2.45-.47,4.71-.64,6.99,2.45,.6,4.83,1.42,7.2,2.29Z"/>
      <path class="cls-3" d="M321.04,12.03c.1,1.38,.21,2.75,.31,4.13"/>
      <path class="cls-3" d="M319.11,15.13c.67,.25,1.1,1.03,.94,1.73-.11,.5-.48,.96-.44,1.47,.05,.51,.48,.88,.82,1.27,.87,1,1.19,2.45,.82,3.73"/>
      <path class="cls-3" d="M302.79,50.08c-.47,.67-.94,1.34-1.41,2.01"/>
    </g>
    <g id="Scooter">
      <g>
        <path class="cls-9" d="M322.64,60.92c11.11-1.74,22.22-3.47,33.33-5.21"/>
        <polyline class="cls-9" points="339.98 58.7 320.3 153.93 231.2 153.93"/>
        <path class="cls-9" d="M302.95,157.58c-4.21,1.78-6.83,6.7-5.97,11.19,.87,4.49,5.13,8.08,9.71,8.16,4.37,.08,8.53-2.91,10.23-6.94,1.7-4.03,1.05-8.86-1.31-12.55"/>
        <path class="cls-9" d="M211.82,157.58c-4.21,1.78-6.83,6.7-5.97,11.19,.87,4.49,5.13,8.08,9.71,8.16,4.37,.08,8.53-2.91,10.23-6.94,1.7-4.03,1.05-8.86-1.31-12.55"/>
        <path class="cls-9" d="M208.13,151.39c2.99-2.95,7.3-4.52,11.49-4.18s8.19,2.57,10.67,5.97"/>
      </g>
    </g>
    <path id="Body-2" data-name="Body" class="cls-17" d="M274.31,29.36c-5.39,5.38-20.13,21.62-18.38,32.61,1.75,10.99,29.73,10.74,29.73,10.74,0,0,5.75-29.48,1.5-43.97l-12.85,.62Z"/>
    <g id="Hand_1-2" data-name="Hand 1">
      <path class="cls-13" d="M331.38,58.98c-.5-3-4.25-7.75-12.24-5-2.1,.72-4.71,1.55-7.41,2.38,1.25,2.68,.94,6.01,1.92,8.81,3.49-2.24,7.58-4.64,8.96-5.1,3.75-1.25,1.86,3.14,3.86,3.39,.81,.1,1.7,.18,2.44-.46,1.89-.56,2.77-2.23,2.47-4.01Z"/>
      <path class="cls-17" d="M312.97,55.97c-7.86,2.43-17.06,5-17.06,5l-7.71-16.34c-2.88,1.64-5.76,3.28-8.59,5,6.08,15.66,8.89,22.3,14.29,24.6,7.39,3.15,17.39-2.27,22.1-10.01-.94-2.78-1.94-5.53-3.02-8.25Z"/>
      <path class="cls-3" d="M326.41,56.96c1.51,1.36,1.85,3.86,.74,5.57"/>
      <path class="cls-3" d="M329.6,58.19c.57,1.11,.66,2.45,.25,3.62"/>
      <path class="cls-3" d="M273.77,44.09c4.31,7.27,8.61,14.53,12.92,21.8"/>
      <path class="cls-3" d="M280.36,32.7c2.83,2.81,5.07,6.23,6.52,9.95"/>
    </g>
    <g id="Head-2" data-name="Head">
      <path class="cls-18" d="M258.35,4.69c-3.79,.02-7.91,1.14-10.11,4.23-2.74,3.85-1.4,9.55,1.95,12.88s8.16,4.73,12.84,5.39c5.25,.73,10.75,.66,15.65-1.37,4.9-2.03,9.08-6.28,9.99-11.51,.91-5.22-2.45-12.94-8.67-11.68-3.17,.64-5.93,2.38-9.21,2.7-4.16,.41-8.29-.66-12.44-.64Z"/>
      <path class="cls-13" d="M299.04,10.97c-4.7-.83-2.47-8.46-8.88-10.48-.45,1.54-1.16,2.99-2.68,3.76-.59,.3-1.22,.53-1.8,.86-.9,.5-1.63,1.18-2.33,1.93-1.31,1.43-1.63,3.26-1.64,5.14-.01,1.61,.16,3.31-.49,4.82-.22,.52-.53,.95-.9,1.32,.08,5.65-5.99,11.05-5.99,11.05,4.7,2.89,12.85-.62,12.85-.62,0,0-4.02-6.74,2.39-8.27,6.41-1.53,5.77-7.4,5.77-7.4l3.72-2.1Z"/>
      <path class="cls-18" d="M280.3,18.47c1.3-.23,2.57-.73,3.62-1.43,.7-.47,1.37-1.09,1.7-1.89,.19-.46,.24-.94,.18-1.44-.04-.3-.08-.77-.33-.99-.34-.28-1-.13-1.41-.25-.75-.23-1.15-.92-1.41-1.62-1.17-3.14,3.4-3.51,5.57-2.87,1.46-2.01,2.97-4.09,4.87-5.71-1.15-1.21-2.86-2.1-5.66-2.26-8.76-.49-13.21,7.39-8.47,14.19,.96,1.38,1.34,2.83,1.33,4.26Z"/>
      <path class="cls-3" d="M291.21,12.53c-.33,.71-.23,1.6,.25,2.22s1.31,.94,2.08,.8"/>
    </g>
  </g>
  <g id="Lines">
    <g>
      <path class="cls-1" d="M210.82,141.65c-7.94,.03-15.85-2.97-21.79-8.24-3.97-3.53-7.14-8.28-7.53-13.58s2.62-11,7.68-12.59,11.41,2.36,11.25,7.66c-.13,4.32-4.2,7.71-8.44,8.51-4.25,.8-8.6-.39-12.71-1.71-9.05-2.9-18.23-6.72-24.53-13.83-6.3-7.11-8.87-18.33-3.64-26.27"/>
      <path class="cls-4" d="M527.89,314.4c4.94-1.06,9.43-4.07,12.28-8.24,1.86-2.73,3.06-5.93,5.36-8.3,2.3-2.37,6.34-3.61,8.87-1.48,1.98,1.67,2.16,4.79,1.13,7.16-1.03,2.38-3.01,4.19-4.93,5.93,5.35,.59,10.94-1.71,14.33-5.89-.69,3.41,3.17,6.34,6.65,6.1s6.41-2.54,9.12-4.73"/>
      <path class="cls-4" d="M414.48,314.38c4.09-2.04,8.17-4.09,12.26-6.13"/>
    </g>
  </g>
  <g id="Man_2" data-name="Man 2">
    <g id="Leg">
      <path class="cls-18" d="M461.53,194.3l-39.1,22.17,24.32,70.81-34.17,.92s7.7-7.7,16.01-8.93c0,0-12.31-29.86-20.93-51.11-8.62-21.24-2.46-23.71,12.31-31.4,14.78-7.7,38.18-20.63,38.18-20.63l3.39,18.16Z"/>
      <path class="cls-3" d="M429.29,279.19c3.74-.17,7.49-.33,11.23-.5"/>
    </g>
    <g id="Bike">
      <path class="cls-16" d="M410.06,272.17c-2.55-2.55-4.74-4.11-7.38-5.96-22.8-10.15-40.11,7.93-38.43,25.83,1.41,14.91,19.58,30.76,39.02,21.02,20.07-10.05,12.91-33.58,6.78-40.9Z"/>
      <path class="cls-16" d="M539.81,273.75c-8.21-20.89-34.04-16.02-40.38-9.81-.02,.01-.04,.03-.06,.04-5.27,4.14-8.97,10.05-10.09,16.65-2.87,17.02,11.08,30.16,26.08,30.1,14.97-.06,32.39-16.74,24.44-36.98Z"/>
      <path class="cls-8" d="M465.18,201.88c-1.01,1.53-1.08,3.63-.17,5.21,.91,1.59,2.75,2.59,4.58,2.49,.64-.03,1.31-.21,1.79-.64s.74-1.15,.5-1.75c-.34-.83-1.42-1.07-2.3-.91-2.09,.39-3.66,2.6-3.34,4.7,.32,2.1,2.47,3.75,4.58,3.5,.87-.1,1.86-.72,1.75-1.6-.11-.95-1.36-1.28-2.3-1.08-2.15,.46-3.79,2.64-3.64,4.83,.15,2.19,2.07,4.13,4.26,4.3"/>
      <path class="cls-8" d="M468.87,220.79c4.1,20.26,15.04,39.01,30.48,52.72,4.33,3.84,9.01,7.28,13.98,10.24"/>
      <path class="cls-8" d="M451.66,260.6c5.65-14.04,10.19-28.53,13.55-43.29"/>
      <path class="cls-16" d="M481.85,188.5c-1.82,12.71-.85,17.57-12.95,16.36-12.1-1.21-29.08-9.37-29.08-9.37l42.04-6.99Z"/>
      <path class="cls-8" d="M391.1,290.22c34.9-41.09,16.4-95.05,1.4-138.05,3-2,7-2,9.97-4.36"/>
      <path class="cls-8" d="M355.41,143.97c4.88-1.03,9.76-2.06,14.64-3.09,2.47,13.61,6.53,26.94,12.06,39.62,1.31,2.99,2.88,6.15,5.76,7.69,4.42,2.36,9.78-.05,14.19-2.44"/>
      <path class="cls-14" d="M455.5,273.03c-3.5-.14-7.09,1.19-9.55,3.91-4.24,4.68-4.08,13.14,.17,17.81,4.24,4.68,11.75,5.04,16.51,1,10.02-8.49,4.56-22.27-7.12-22.73Z"/>
      <path class="cls-8" d="M431.98,270.14c5.39-.7,10.79-1.39,16.18-2.09,2.56,5.18,.21,12.09,3.69,16.7,2.39,3.16,7.33,4.02,10.64,1.84"/>
      <polygon class="cls-18" points="370.59 154.66 380.52 182.8 391.45 182.8 383.17 155.32 370.59 154.66"/>
      <path class="cls-5" d="M387.61,180.23l2.41,6.25"/>
      <path class="cls-3" d="M381.63,151.13c2.51-3.66,5.02-7.32,7.53-10.98"/>
      <path class="cls-3" d="M381.25,159.16c.68,2.38,1.37,4.76,2.05,7.15"/>
      <path class="cls-8" d="M492.62,259.75c11.28-10.29,30.17-10.86,42.05-1.26"/>
      <path class="cls-8" d="M365.84,267.82c7.45-10.94,23.88-14.5,35.19-7.62"/>
      <path class="cls-8" d="M429.59,290.37c4.43-.34,8.85-.68,13.28-1.02"/>
      <path class="cls-8" d="M410.01,214.23c3.23,12.17,6.97,24.22,11.66,35.91,2.16,5.39,4.46,10.75,7.01,15.98,1.74,3.56,4.05,7.6,8.38,8.17"/>
    </g>
    <path id="Hand_2-3" data-name="Hand 2" class="cls-16" d="M438.99,74.22c.46-.12,.89-.21,1.3-.29,.34-3.54,.68-4.34,1.08-7.87-4.17-1.39-11.64-2.43-16.04,2.85-25.05,30.05-28.07,35.15-20.23,41.48,7.84,6.32,46.03,23.01,46.03,23.01l2.53-12.65-36.42-19.47s14.92-25.29,21.75-27.06Z"/>
    <g id="Head-3" data-name="Head">
      <path class="cls-16" d="M454.59,104.57c-2.79-3.97,2.72-10.7,3.27-17.73-9.01-2.62-18.34-5.15-26.49-9.81-1.1,1.21-1.91,2.59-2.3,4.04-6.62,24.28,7.92,19.87,12.96,23.23,5.04,3.36,4.17,16.05,4.17,16.05,0,0,2.69-1.01,8.06-1.68,5.37-.67,9.74-5.71,9.74-5.71,0,0-6.72-4.57-9.4-8.39Z"/>
      <path class="cls-11" d="M438.13,78.23c.02-.34,.06-.68,.05-1.01,0-.29-.02-.58-.05-.86-.01-.11-.02-.22-.03-.33,0-.04,0-.05,0-.07,0-.07-.02-.13-.03-.2-.09-.53-.21-1.06-.36-1.58-.07-.23-.15-.47-.24-.69-.02-.06-.05-.13-.07-.19,0-.01,0-.01-.01-.03-.01-.03-.03-.06-.04-.09-4.1,1.44-7.31,4.45-8.25,7.89-.02,.08-.04,.15-.06,.23,3.22,1.06,7.16-.3,9.11-3.07Z"/>
      <path class="cls-19" d="M453.81,85.9c-2.36-1.25-4.65-2.77-7.05-4.02-.36,1.48-.71,2.97-1.11,4.44-.7,2.56-.71,5.74-3.26,7.28-2.3,1.39-5.5-.06-7.86-.62-2.26-.53-4.83-1.06-7.11-.42,.49,10.07,8.52,9.39,13.11,11.01,1.26-.26,2.44-.77,3.42-1.72,1.6-1.55,2.36-3.66,3.69-5.41,.87-1.14,2.2-2.06,3.64-1.29,1.1,.58,2.03,2.35,3.15,3.36,.97-3.18,2.8-6.9,3.34-10.73-1.37-.55-2.69-1.22-3.94-1.88Z"/>
      <path class="cls-17" d="M457.61,88.7c.81-4.22,.23-8.62-4.7-12.66-8.38-6.88-19.15-3.36-22.82,2.72,9.31,2.92,18.39,6.51,27.52,9.95Z"/>
      <path class="cls-17" d="M435.03,75.64c-15.76-3.71-18.69-4.94-20.54-3.24-1.85,1.7,12.83,5.3,15.6,6.36s4.94-3.11,4.94-3.11Z"/>
      <path class="cls-5" d="M435.17,85.31c-1,2.44-2.84,4.52-5.14,5.81,1.93,1.49,4.29,2.43,6.72,2.69"/>
      <path class="cls-16" d="M449.2,88.74l-1.66,7.93s5.46,.48,6.15-3.08c.83-4.26-4.49-4.85-4.49-4.85Z"/>
      <path class="cls-3" d="M437.69,98.55c2.28,.3,4.68-.74,6.03-2.6"/>
      <path class="cls-6" d="M428.06,82.21c-.16,1.23-.32,2.46-.48,3.69"/>
    </g>
    <g id="Wrist-2" data-name="Wrist">
      <path class="cls-16" d="M441.37,66.06c6.18,2.01,9.78,8.24,9.01,9.78-.77,1.54-1.6,.88-1.6,.88,0,0-.29,1.44-1.84,.98,0,0-1.72,.38-2.95-.55s-3.79-4.02-9.2-3.71,6.57-7.38,6.57-7.38Z"/>
      <path class="cls-8" d="M442.46,72.35c1.65,1.19,2.93,2.88,3.63,4.78"/>
      <path class="cls-8" d="M445.87,70.46c1.72,1.74,2.81,4.09,3.03,6.52"/>
    </g>
    <g id="Body-3" data-name="Body">
      <path class="cls-18" d="M463.99,112.97c21.49,12.76,20.82,50.36,21.82,62.78,1.01,12.42,0,21.15-19.81,22.49-19.81,1.34-49.02,2.35-49.02,2.35,0,0,36.93,49.35,42.97,63.79l-32.23,4.03s4.7-4.7,12.09-8.39c0,0-18.8-24.84-33.24-46-14.44-21.15-9.4-30.22,5.37-31.89s40.96-3.36,40.96-3.36c0,0-6.43-34.98-6.71-58.42l17.79-7.39Z"/>
      <path class="cls-8" d="M455.52,179.19c10.5-.73,21-1.45,31.5-2.18"/>
      <path class="cls-8" d="M479.95,192.39c.14-2.66,.27-5.33,.41-7.99,1.15-.08,2.29-.16,3.44-.24"/>
      <path class="cls-3" d="M440.49,258.12c3.4-1.03,6.8-2.06,10.21-3.08"/>
    </g>
    <g id="Hand_1-3" data-name="Hand 1">
      <path class="cls-16" d="M451.61,127.94l-15.4,27.35c-7.94-2.78-27-13.18-35.27-10.68-8.86,2.68-7.22,12.51-3.15,13.46,4.18,.97,6.02,.65,6.26-1.81,.25-2.46,4.76,1.37,17.12,6.68,14.9,6.4,19.21,11.52,28.54-2.23,5.51-8.12,11.35-18.22,15.2-25.13-4.49-2.46-8.97-4.94-13.3-7.65Z"/>
      <path class="cls-8" d="M400.68,157.09c-.13-1.42,.12-2.91,.91-4.1,.8-1.18,2.19-2.01,3.61-1.91s2.77,1.23,2.91,2.65"/>
      <path class="cls-8" d="M398.16,156.32c-.94-1.41-1.14-3.28-.5-4.85,.63-1.57,2.08-2.78,3.73-3.14"/>
      <path class="cls-8" d="M467.39,138.28c1.55-4.06,3.1-8.12,4.64-12.18"/>
    </g>
  </g>
  <g id="Noise">
    <path class="cls-3" d="M95.24,31.05c-4.99,10.2,.77,24.14,11.5,27.85,2.41,.83,5.2,1.16,7.41-.11s3.26-4.62,1.51-6.48c-1.87-1.98-5.55-.79-6.76,1.65s-.55,5.41,.63,7.86c4.12,8.57,14.78,13.38,23.94,10.8"/>
    <path class="cls-8" d="M216.68,76.23c2.87,3.83,8.13,5.68,12.77,4.49"/>
    <path class="cls-8" d="M538.7,236.52l-1.1,2.75"/>
    <path class="cls-3" d="M345.07,249.85c-2.37,3.48,0,9.09,4.16,9.8"/>
    <path class="cls-8" d="M347.49,272.67c-1.47,1.46-2.94,2.92-4.41,4.38"/>
    <path class="cls-8" d="M376.68,324.46l4.92,.72"/>
    <path class="cls-8" d="M467.74,248.5c-.58,.71-1.15,1.42-1.73,2.13"/>
    <path class="cls-8" d="M564.57,234.53c-4.31,3.88-8.62,7.76-12.93,11.63"/>
    <path class="cls-8" d="M559.94,247.33c-1.95,1.5-3.89,3-5.84,4.5"/>
    <path class="cls-8" d="M216.15,11.92c1.66-2.73,6.12-1.71,8.13,.76s2.67,5.8,4.43,8.46,5.7,4.52,8.08,2.39"/>
    <path class="cls-8" d="M224.83,23.69c1.5,4.83,7.03,8,11.95,6.86"/>
    <path class="cls-8" d="M239.52,40.56c-1.62,.98-2.07,3.46-.89,4.95s3.69,1.62,5.02,.27,1.15-3.86-.36-5.01"/>
  </g>
</svg>