<?xml version="1.0" encoding="UTF-8" standalone="no"?>
<svg
   xmlns:dc="http://purl.org/dc/elements/1.1/"
   xmlns:cc="http://creativecommons.org/ns#"
   xmlns:rdf="http://www.w3.org/1999/02/22-rdf-syntax-ns#"
   xmlns:svg="http://www.w3.org/2000/svg"
   xmlns="http://www.w3.org/2000/svg"
   xmlns:sodipodi="http://sodipodi.sourceforge.net/DTD/sodipodi-0.dtd"
   xmlns:inkscape="http://www.inkscape.org/namespaces/inkscape"
   id="_Слой_1"
   data-name="Слой 1"
   viewBox="0 0 581.18 325.68"
   version="1.1"
   inkscape:version="0.91 r13725"
   sodipodi:docname="commons.svg">
  <metadata
     id="metadata300">
    <rdf:RDF>
      <cc:Work
         rdf:about="">
        <dc:format>image/svg+xml</dc:format>
        <dc:type
           rdf:resource="http://purl.org/dc/dcmitype/StillImage" />
      </cc:Work>
    </rdf:RDF>
  </metadata>
  <sodipodi:namedview
     pagecolor="#ffffff"
     bordercolor="#666666"
     borderopacity="1"
     objecttolerance="10"
     gridtolerance="10"
     guidetolerance="10"
     inkscape:pageopacity="0"
     inkscape:pageshadow="2"
     inkscape:window-width="1920"
     inkscape:window-height="1017"
     id="namedview298"
     showgrid="false"
     inkscape:zoom="2.4501876"
     inkscape:cx="301.28024"
     inkscape:cy="211.45813"
     inkscape:window-x="-8"
     inkscape:window-y="-8"
     inkscape:window-maximized="1"
     inkscape:current-layer="_Слой_1" />
  <defs
     id="defs3">
    <style
       id="style5">
      .cls-1 {
        stroke: #ff504d;
      }

      .cls-1, .cls-2, .cls-3, .cls-4, .cls-5, .cls-6, .cls-7, .cls-8, .cls-9, .cls-10 {
        fill: none;
        stroke-linecap: round;
        stroke-linejoin: round;
      }

      .cls-2 {
        stroke: #fff;
      }

      .cls-3 {
        stroke: #ffe032;
      }

      .cls-4 {
        stroke: #ef1640;
      }

      .cls-5 {
        stroke: #211d28;
      }

      .cls-6, .cls-11 {
        stroke: #18151e;
      }

      .cls-7 {
        stroke: #000;
      }

      .cls-8 {
        stroke: #00b9ff;
      }

      .cls-9 {
        stroke: #00d692;
      }

      .cls-10 {
        stroke: #b0dfff;
      }

      .cls-12 {
        fill: #00d692;
      }

      .cls-13 {
        fill: #00b9ff;
      }

      .cls-14 {
        fill: #ef1640;
      }

      .cls-15 {
        fill: #ffec8d;
      }

      .cls-16 {
        fill: #ffe032;
      }

      .cls-17 {
        fill: #ff504d;
      }

      .cls-18 {
        fill: #211d28;
      }

      .cls-19, .cls-11 {
        fill: #18151e;
      }

      .cls-11 {
        stroke-miterlimit: 10;
      }
    </style>
  </defs>
  <g
     id="Window">
    <polygon
       class="cls-12"
       points="38.76 238.35 39.41 95.82 178.04 93.21 182.59 239 38.76 238.35"
       id="polygon8" />
    <polygon
       class="cls-13"
       points="178.42 105.43 178.04 93.21 39.41 95.82 39.36 105.43 178.42 105.43"
       id="polygon10" />
    <path
       class="cls-7"
       d="M73.39,128.2l.31-8.86c15.7-.19,31.41-.38,47.11-.57"
       id="path12" />
    <path
       class="cls-7"
       d="M53.74,146.04c10.36-.18,20.72-.35,31.07-.53"
       id="path14" />
    <path
       class="cls-7"
       d="M56.21,163.31c7.56-.16,15.13-.33,22.69-.49"
       id="path16" />
    <path
       class="cls-7"
       d="M55.71,184.33l40.94,.44"
       id="path18" />
    <path
       class="cls-7"
       d="M55.21,194.6l14.31-.4"
       id="path20" />
    <path
       class="cls-7"
       d="M160.77,141.02c1.48,0,2.96,0,4.44,0"
       id="path22" />
    <path
       class="cls-7"
       d="M46.65,100.89c5.33,0,10.67-.02,16-.03"
       id="path24" />
  </g>
  <g
     id="Frame">
    <path
       class="cls-12"
       d="M432.31,30.35l-42.1,161.41,108.77,2.06c6.82,.13,12.82-4.48,14.46-11.1l33.22-134.33c2.28-9.22-4.7-18.12-14.19-18.12l-100.16,.08Z"
       id="path27" />
    <line
       class="cls-7"
       x1="434.4"
       y1="43.23"
       x2="532.49"
       y2="43.23"
       id="line29" />
    <path
       class="cls-7"
       d="M460.95,60.86c16.26-.32,32.51-.65,48.77-.97-6,24.68-12,49.35-18.01,74.03"
       id="path31" />
    <path
       class="cls-7"
       d="M521.2,131.06c-1.7,7.15-3.4,14.3-5.11,21.45"
       id="path33" />
    <path
       class="cls-7"
       d="M438.99,37.11h12.77"
       id="path35" />
    <path
       class="cls-7"
       d="M530.4,37.62l4.09-.51"
       id="path37" />
    <path
       class="cls-7"
       d="M455.33,37.62h6.13"
       id="path39" />
  </g>
  <g
     id="Bench">
    <polygon
       class="cls-13"
       points="19.95 221.96 19.23 310.59 333.25 308.66 333.64 221.6 19.95 221.96"
       id="polygon42" />
    <line
       class="cls-7"
       x1="27.46"
       y1="246.48"
       x2="335.47"
       y2="246.48"
       id="line44" />
    <line
       class="cls-7"
       x1="22.97"
       y1="267.41"
       x2="330.98"
       y2="267.41"
       id="line46" />
    <line
       class="cls-7"
       x1="23.47"
       y1="286.85"
       x2="331.48"
       y2="286.85"
       id="line48" />
  </g>
  <g
     id="Message">
    <path
       class="cls-12"
       d="M219.85,256.06l.4-42.32,90.73-1.45c4.97-.08,9.01,3.97,8.93,8.94l-.1,5.55c-.08,4.75-3.92,8.57-8.66,8.64l-75.73,1.08-15.57,19.56Z"
       id="path51" />
    <path
       class="cls-7"
       d="M239.04,229.52c6.8,.09,13.61-1.28,19.84-3.99,2.04-.89,4.36-2.56,3.91-4.73-.43-2.11-3.66-2.7-5.12-1.12s-1.05,4.32,.52,5.8c1.57,1.47,3.95,1.82,6.06,1.41s4.04-1.45,5.93-2.49c-.09,1.44,.92,2.78,2.19,3.45s2.76,.8,4.2,.82c5.51,.05,11.03-1.45,15.76-4.28"
       id="path53" />
  </g>
  <g
     data-name="Hand 2"
     id="Hand_2">
    <path
       style="fill:#ffec8d"
       inkscape:connector-curvature="0"
       id="path57"
       d="m 186.94,293.91 c 0,0 -2.31,-4.63 -7.61,-19.78 -7.19,2.5 -14.23,5.4 -21.4,7.94 5.43,14.77 10.68,27.94 13.25,31.31 6.02,7.88 29.66,2.32 29.66,2.32 l 1.39,-23.17 -15.29,1.39 z"
       class="cls-15" />
    <path
       style="fill:#ff504d"
       inkscape:connector-curvature="0"
       id="path59"
       d="m 181.05,278.97 c -1.77,-4.9 -3.96,-11.24 -6.62,-19.36 -8.8,-26.88 -9.73,-43.1 -28.63,-50.54 l -5.2,23.2 c 0,0 10.02,30.26 18.89,54 7.19,-2.43 14.39,-4.82 21.56,-7.3 z"
       class="cls-17" />
  </g>
  <g
     id="Tablet"
     style="fill:#18151e;fill-opacity:1">
    <polygon
       style="fill:#18151e;fill-opacity:1"
       id="polygon62"
       points="219.38,321.25 175.78,323.86 205.48,267.49 205.48,267.49 249.04,266.1 "
       class="cls-18" />
    <path
       style="fill:#18151e;stroke:#ffe032;stroke-linecap:round;stroke-linejoin:round;fill-opacity:1"
       inkscape:connector-curvature="0"
       id="path64"
       d="m 213.32,281.25 c -4.17,2.18 -6.39,7.53 -4.99,12.02 1.4,4.49 6.27,7.63 10.94,7.05"
       class="cls-3" />
    <path
       style="fill:#18151e;stroke:#ffe032;stroke-linecap:round;stroke-linejoin:round;fill-opacity:1"
       inkscape:connector-curvature="0"
       id="path66"
       d="m 201.49,280.04 c -1.04,2.26 -2.09,4.52 -3.13,6.78"
       class="cls-3" />
    <path
       style="fill:#18151e;stroke:#ffe032;stroke-linecap:round;stroke-linejoin:round;fill-opacity:1"
       inkscape:connector-curvature="0"
       id="path68"
       d="m 196.28,293.6 c -0.52,0.87 -1.04,1.74 -1.56,2.61"
       class="cls-3" />
  </g>
  <g
     data-name="Hand 1"
     id="Hand_1">
    <path
       style="fill:#ffec8d"
       inkscape:connector-curvature="0"
       id="path71"
       d="M 60.9,266.57 C 45.61,248.96 33.1,235.52 33.1,235.52 l 17.39,-2.69 c -1.69,-7.98 -2.89,-16.12 -2.96,-24.27 -7.96,1.13 -16.06,2.39 -24.16,3.8 -27.29,4.75 -31.05,15.29 -9.27,39.39 19.66,21.75 43.1,46.34 44.95,48.2 1.85,1.85 2.06,19.45 6.2,19.89 2.17,0.23 3.26,-1.4 3.26,-1.4 0,0 1.2,4.21 4.91,1.43 2.78,-2.08 3.21,-9.36 3.26,-12.89 0.12,2.43 0.72,6.27 3.26,6.27 3.71,0 1.83,-5.43 0.44,-15.16 -1.39,-9.73 -4.17,-13.9 -19.46,-31.51 z"
       class="cls-15" />
    <path
       style="fill:#ff504d"
       inkscape:connector-curvature="0"
       id="path73"
       d="m 43.48,209.14 c 0.41,8.16 1.28,16.3 2.26,24.42 l 59.17,-9.16 5.24,-22.75 c -18.04,1.49 -41.76,3.83 -66.68,7.49 z"
       class="cls-17" />
    <path
       style="fill:none;stroke:#00d692;stroke-linecap:round;stroke-linejoin:round"
       inkscape:connector-curvature="0"
       id="path75"
       d="m 66.48,304.45 c 0.4,4.52 0.81,9.04 1.21,13.55"
       class="cls-9" />
    <path
       style="fill:none;stroke:#00d692;stroke-linecap:round;stroke-linejoin:round"
       inkscape:connector-curvature="0"
       id="path77"
       d="m 72.87,301.7 c 0.42,5.72 -0.08,11.5 -1.45,17.07"
       class="cls-9" />
    <path
       style="fill:none;stroke:#ffffff;stroke-linecap:round;stroke-linejoin:round"
       inkscape:connector-curvature="0"
       id="path79"
       d="m 29.08,230.87 c 1.29,1.81 2.58,3.62 3.86,5.42"
       class="cls-2" />
  </g>
  <g
     id="Wrist">
    <path
       style="fill:#ffec8d"
       inkscape:connector-curvature="0"
       id="path82"
       d="m 238.32,285.81 c -2.38,-8.42 -10.33,-14.06 -11.28,-12.15 -1.44,2.89 5.97,8.6 6.67,13.5 0,0 -5.65,-3.85 -12.55,-0.32 -6.51,3.34 -2.69,4.82 -2.69,4.82 0,0 -1.44,2.48 0.15,3.28 2.95,1.48 4.47,-3.31 7.62,-0.16 3.15,3.15 -0.32,14.61 -0.32,14.61 0,0 5.15,2.22 11.8,-6.18 6.65,-8.4 5.67,-26.54 5.67,-26.54 l -5.08,9.13 z"
       class="cls-15" />
    <path
       style="fill:none;stroke:#ffffff;stroke-linecap:round;stroke-linejoin:round"
       inkscape:connector-curvature="0"
       id="path84"
       d="m 219.94,290.57 c 2.09,-1.68 5.11,-2.11 7.6,-1.1 2.49,1.01 4.34,3.44 4.66,6.1"
       class="cls-2" />
    <path
       style="fill:none;stroke:#ffffff;stroke-linecap:round;stroke-linejoin:round"
       inkscape:connector-curvature="0"
       id="path86"
       d="m 233.33,287.26 c 0.49,0.87 0.99,1.74 1.48,2.62"
       class="cls-2" />
    <path
       style="fill:none;stroke:#ffffff;stroke-linecap:round;stroke-linejoin:round"
       inkscape:connector-curvature="0"
       id="path88"
       d="m 238.32,285.81 c 0.77,1.29 1.54,2.59 2.3,3.88"
       class="cls-2" />
  </g>
  <g
     id="Body">
    <path
       style="fill:#ff504d"
       inkscape:connector-curvature="0"
       id="path91"
       d="m 78.69,225.22 c 0,0 7.04,84.47 10.83,97.09 l 82.22,-4.04 c 0,0 -17.03,-73.18 -16.72,-89.9 0.31,-16.72 -9.22,-19.3 -9.22,-19.3 l -35.64,-7.42 -31.47,23.57 z"
       class="cls-17" />
    <path
       style="fill:none;stroke:#ffe032;stroke-linecap:round;stroke-linejoin:round"
       inkscape:connector-curvature="0"
       id="path93"
       d="m 156.1,230.98 c 2.6,15.94 5.19,31.89 7.79,47.83"
       class="cls-3" />
    <path
       style="fill:none;stroke:#ffe032;stroke-linecap:round;stroke-linejoin:round"
       inkscape:connector-curvature="0"
       id="path95"
       d="m 110.78,205 c 3.68,8.95 7.35,17.9 11.03,26.86 3.55,-3.96 7.1,-7.93 10.65,-11.89"
       class="cls-3" />
    <path
       style="fill:none;stroke:#ffe032;stroke-linecap:round;stroke-linejoin:round"
       inkscape:connector-curvature="0"
       id="path97"
       d="m 136.22,221.3 c 2.49,2.49 4.98,4.97 7.47,7.46 0.54,-5.34 1.09,-10.69 1.63,-16.03"
       class="cls-3" />
    <path
       style="fill:none;stroke:#ffe032;stroke-linecap:round;stroke-linejoin:round"
       inkscape:connector-curvature="0"
       id="path99"
       d="m 133.79,225.93 c 1.62,10.24 3.24,20.49 4.86,30.73 1.92,-0.36 3.85,-0.72 5.77,-1.09"
       class="cls-3" />
  </g>
  <g
     id="Head">
    <path
       style="fill:#ffec8d"
       inkscape:connector-curvature="0"
       id="path102"
       d="m 160.28,149.31 c 0,0 -8.91,4.08 -14.48,-1.48 -3.35,-3.35 -7.08,-8.98 -13.74,-11.4 -3.11,2.13 -6.37,4.09 -9.15,6.65 -1.44,1.32 -2.7,2.78 -3.65,4.49 -1.1,2 -1.5,4.23 -1.92,6.45 -0.49,2.63 -0.98,5.24 -1.61,7.85 -0.55,2.25 -0.9,4.53 -0.88,6.85 0.04,4.16 1.59,8.03 1.92,12.14 0.21,2.55 -0.41,5.11 -2.28,6.39 1.55,1.5 2.69,3.12 3.09,5.12 1.86,9.28 -7.42,9.28 -7.42,9.28 0,0 9.28,17.82 21.9,17.45 12.62,-0.37 13.74,-10.02 13.74,-10.02 0,0 -5.94,-1.86 -7.05,-11.88 -1.11,-10.02 12.25,-9.28 18.19,-18.19 5.94,-8.91 -1.86,-18.56 -1.86,-18.56 1.86,-1.86 5.2,-11.14 5.2,-11.14 z"
       class="cls-15" />
    <path
       style="fill:#18151e"
       inkscape:connector-curvature="0"
       id="path104"
       d="m 116.5,189.69 c 1.91,-0.47 3.76,-1.42 5.27,-2.57 3.46,-2.63 6.29,-7.03 5.12,-11.41 -1.97,0.52 -4.09,0.4 -5.86,-0.72 -3,-1.9 -4.37,-6.03 -3.07,-9.34 1.72,-4.39 6.63,-4.58 10.62,-3.57 -0.33,-2.12 -1.95,-3.75 -3.31,-5.45 -1.55,-1.93 -2.82,-4.07 -2.76,-6.63 0.06,-2.73 1.59,-4.97 3.64,-6.67 2.06,-1.71 4.44,-2.94 6.7,-4.37 0.64,-0.4 1.28,-0.84 1.89,-1.31 -4.73,-2.59 -11.11,-3.62 -20.49,-0.21 -4.08,1.48 -16.33,7.42 -16.33,25.99 0,16.61 14.26,19.25 18.59,26.27 z"
       class="cls-19" />
    <path
       style="fill:none;stroke:#18151e;stroke-linecap:round;stroke-linejoin:round"
       inkscape:connector-curvature="0"
       id="path106"
       d="m 136.37,152.56 c 0.7,1.16 2.57,1.33 3.48,0.33 0.91,-1 0.54,-2.85 -0.68,-3.43"
       class="cls-6" />
    <path
       style="fill:none;stroke:#18151e;stroke-linecap:round;stroke-linejoin:round"
       inkscape:connector-curvature="0"
       id="path108"
       d="m 141.75,168.55 c 2.32,3.26 6.95,4.65 10.68,3.2"
       class="cls-6" />
  </g>
  <g
     id="Bird">
    <path
       class="cls-13"
       d="M157.43,63.84c-22.16-16.12-25.85-21.82-11.41-15.44,0,0-9.4-10.07-7.72-11.41s15.11,10.74,15.11,10.74c0,0-4.36-5.37-2.01-6.38,2.35-1.01,17.79,16.45,17.79,16.45,0,0,3.36-5.71,10.07-3.02s.34,13.43-8.06,17.46c-8.39,4.03-24.51-.67-24.51-.67l10.74-7.72Z"
       id="path111" />
    <path
       class="cls-1"
       d="M181.27,51.43c-.72,2.15-1.45,4.3-2.17,6.45,3.52-.92,7.04-1.84,10.55-2.76"
       id="path113" />
    <path
       class="cls-10"
       d="M157.68,64.25c1.77,.69,3.53,1.37,5.3,2.06"
       id="path115" />
    <path
       class="cls-10"
       d="M151.4,46.07l7.76,6.69"
       id="path117" />
    <path
       class="cls-10"
       d="M144.76,47.72c2.56,1.75,5.12,3.5,7.69,5.25"
       id="path119" />
  </g>
  <path
     class="cls-18"
     d="m 286.17,64.24 c 0,0 -5.99,30.53 -9.83,44.28 -3.84,13.75 -3.74,11.22 -21.1,17.36 -17.19,6.08 -24.09,8.4 -24.09,8.4 0,0 -0.64,7.68 -3.52,11.83 l -4.8,-21.43 c 0,0 32.46,-12.47 40.14,-15.03 l 6.24,-49.58 16.95,4.16 z"
     id="path123"
     inkscape:connector-curvature="0"
     style="fill:#18151e;fill-opacity:1" />
  <path
     class="cls-18"
     d="m 264,64.08 c -2.08,10.41 -2.08,14.58 5.9,22.56 7.98,7.98 28.46,26.03 28.46,26.03 0,0 -9.01,20.57 -13.17,38.27 l 23.24,0.6 c 0,0 -4.51,-4.51 -10.76,-6.25 0,0 4.86,-12.15 11.45,-26.03 6.6,-13.88 1.39,-16.66 -8.33,-25.34 -9.72,-8.68 -21.17,-19.09 -21.17,-19.09 L 281.01,61.99 264,64.07 Z"
     id="path125"
     inkscape:connector-curvature="0"
     style="fill:#18151e;fill-opacity:1" />
  <path
     class="cls-9"
     d="m 268.48,86.09 c 2.55,2.73 5.1,5.45 7.65,8.18"
     id="path127"
     inkscape:connector-curvature="0"
     style="fill:none;stroke:#00d692;stroke-linecap:round;stroke-linejoin:round" />
  <g
     data-name="Hand 2"
     id="Hand_2-2">
    <path
       style="fill:#ff504d"
       inkscape:connector-curvature="0"
       id="path130"
       d="m 287.04,31.47 16.18,17.45 13.01,-19.68 6.98,4.44 c 0,0 3.27,12.34 -4.08,20.29 -7.35,7.95 -15.96,13.97 -23.24,7 -7.28,-6.98 -12.36,-26.33 -12.36,-26.33 l 3.49,-3.17 z"
       class="cls-17" />
    <path
       style="fill:#00b9ff"
       inkscape:connector-curvature="0"
       id="path132"
       d="m 322.7,35.08 c 0.71,-5.96 1.31,-12.49 1.04,-16.05 -0.56,-7.62 -1.07,-6.77 -2.19,-7.72 -1.12,-0.95 -0.84,-0.95 -2.24,-0.63 -1.4,0.32 0.68,3.16 -2.07,8.42 -0.72,1.37 -0.86,4.26 -1.09,6.71 -0.24,2.45 -0.47,4.71 -0.64,6.99 2.45,0.6 4.83,1.42 7.2,2.29 z"
       class="cls-13" />
    <path
       style="fill:none;stroke:#ffe032;stroke-linecap:round;stroke-linejoin:round"
       inkscape:connector-curvature="0"
       id="path134"
       d="m 321.04,12.03 c 0.1,1.38 0.21,2.75 0.31,4.13"
       class="cls-3" />
    <path
       style="fill:none;stroke:#ffe032;stroke-linecap:round;stroke-linejoin:round"
       inkscape:connector-curvature="0"
       id="path136"
       d="m 319.11,15.13 c 0.67,0.25 1.1,1.03 0.94,1.73 -0.11,0.5 -0.48,0.96 -0.44,1.47 0.05,0.51 0.48,0.88 0.82,1.27 0.87,1 1.19,2.45 0.82,3.73"
       class="cls-3" />
    <path
       style="fill:none;stroke:#ffe032;stroke-linecap:round;stroke-linejoin:round"
       inkscape:connector-curvature="0"
       id="path138"
       d="m 302.79,50.08 c -0.47,0.67 -0.94,1.34 -1.41,2.01"
       class="cls-3" />
  </g>
  <g
     id="Scooter">
    <g
       id="g141">
      <path
         style="fill:none;stroke:#00d692;stroke-linecap:round;stroke-linejoin:round"
         inkscape:connector-curvature="0"
         id="path143"
         d="m 322.64,60.92 c 11.11,-1.74 22.22,-3.47 33.33,-5.21"
         class="cls-9" />
      <polyline
         style="fill:none;stroke:#00d692;stroke-linecap:round;stroke-linejoin:round"
         id="polyline145"
         points="339.98 58.7 320.3 153.93 231.2 153.93"
         class="cls-9" />
      <path
         style="fill:none;stroke:#00d692;stroke-linecap:round;stroke-linejoin:round"
         inkscape:connector-curvature="0"
         id="path147"
         d="m 302.95,157.58 c -4.21,1.78 -6.83,6.7 -5.97,11.19 0.87,4.49 5.13,8.08 9.71,8.16 4.37,0.08 8.53,-2.91 10.23,-6.94 1.7,-4.03 1.05,-8.86 -1.31,-12.55"
         class="cls-9" />
      <path
         style="fill:none;stroke:#00d692;stroke-linecap:round;stroke-linejoin:round"
         inkscape:connector-curvature="0"
         id="path149"
         d="m 211.82,157.58 c -4.21,1.78 -6.83,6.7 -5.97,11.19 0.87,4.49 5.13,8.08 9.71,8.16 4.37,0.08 8.53,-2.91 10.23,-6.94 1.7,-4.03 1.05,-8.86 -1.31,-12.55"
         class="cls-9" />
      <path
         style="fill:none;stroke:#00d692;stroke-linecap:round;stroke-linejoin:round"
         inkscape:connector-curvature="0"
         id="path151"
         d="m 208.13,151.39 c 2.99,-2.95 7.3,-4.52 11.49,-4.18 4.19,0.34 8.19,2.57 10.67,5.97"
         class="cls-9" />
    </g>
  </g>
  <path
     style="fill:#ff504d"
     inkscape:connector-curvature="0"
     d="m 274.31,29.36 c -5.39,5.38 -20.13,21.62 -18.38,32.61 1.75,10.99 29.73,10.74 29.73,10.74 0,0 5.75,-29.48 1.5,-43.97 l -12.85,0.62 z"
     class="cls-17"
     data-name="Body"
     id="Body-2" />
  <g
     data-name="Hand 1"
     id="Hand_1-2">
    <path
       style="fill:#00b9ff"
       inkscape:connector-curvature="0"
       id="path155"
       d="m 331.38,58.98 c -0.5,-3 -4.25,-7.75 -12.24,-5 -2.1,0.72 -4.71,1.55 -7.41,2.38 1.25,2.68 0.94,6.01 1.92,8.81 3.49,-2.24 7.58,-4.64 8.96,-5.1 3.75,-1.25 1.86,3.14 3.86,3.39 0.81,0.1 1.7,0.18 2.44,-0.46 1.89,-0.56 2.77,-2.23 2.47,-4.01 z"
       class="cls-13" />
    <path
       style="fill:#ff504d"
       inkscape:connector-curvature="0"
       id="path157"
       d="m 312.97,55.97 c -7.86,2.43 -17.06,5 -17.06,5 L 288.2,44.63 c -2.88,1.64 -5.76,3.28 -8.59,5 6.08,15.66 8.89,22.3 14.29,24.6 7.39,3.15 17.39,-2.27 22.1,-10.01 -0.94,-2.78 -1.94,-5.53 -3.02,-8.25 z"
       class="cls-17" />
    <path
       style="fill:none;stroke:#ffe032;stroke-linecap:round;stroke-linejoin:round"
       inkscape:connector-curvature="0"
       id="path159"
       d="m 326.41,56.96 c 1.51,1.36 1.85,3.86 0.74,5.57"
       class="cls-3" />
    <path
       style="fill:none;stroke:#ffe032;stroke-linecap:round;stroke-linejoin:round"
       inkscape:connector-curvature="0"
       id="path161"
       d="m 329.6,58.19 c 0.57,1.11 0.66,2.45 0.25,3.62"
       class="cls-3" />
    <path
       style="fill:none;stroke:#ffe032;stroke-linecap:round;stroke-linejoin:round"
       inkscape:connector-curvature="0"
       id="path163"
       d="m 273.77,44.09 c 4.31,7.27 8.61,14.53 12.92,21.8"
       class="cls-3" />
    <path
       style="fill:none;stroke:#ffe032;stroke-linecap:round;stroke-linejoin:round"
       inkscape:connector-curvature="0"
       id="path165"
       d="m 280.36,32.7 c 2.83,2.81 5.07,6.23 6.52,9.95"
       class="cls-3" />
  </g>
  <path
     class="cls-18"
     d="m 258.35,4.69 c -3.79,0.02 -7.91,1.14 -10.11,4.23 -2.74,3.85 -1.4,9.55 1.95,12.88 3.35,3.33 8.16,4.73 12.84,5.39 5.25,0.73 10.75,0.66 15.65,-1.37 4.9,-2.03 9.08,-6.28 9.99,-11.51 0.91,-5.22 -2.45,-12.94 -8.67,-11.68 -3.17,0.64 -5.93,2.38 -9.21,2.7 -4.16,0.41 -8.29,-0.66 -12.44,-0.64 z"
     id="path168"
     inkscape:connector-curvature="0"
     style="fill:#18151e;fill-opacity:1" />
  <path
     class="cls-13"
     d="m 299.04,10.97 c -4.7,-0.83 -2.47,-8.46 -8.88,-10.48 -0.45,1.54 -1.16,2.99 -2.68,3.76 -0.59,0.3 -1.22,0.53 -1.8,0.86 -0.9,0.5 -1.63,1.18 -2.33,1.93 -1.31,1.43 -1.63,3.26 -1.64,5.14 -0.01,1.61 0.16,3.31 -0.49,4.82 -0.22,0.52 -0.53,0.95 -0.9,1.32 0.08,5.65 -5.99,11.05 -5.99,11.05 4.7,2.89 12.85,-0.62 12.85,-0.62 0,0 -4.02,-6.74 2.39,-8.27 6.41,-1.53 5.77,-7.4 5.77,-7.4 l 3.72,-2.1 z"
     id="path170"
     inkscape:connector-curvature="0"
     style="fill:#00b9ff" />
  <path
     class="cls-18"
     d="m 280.3,18.47 c 1.3,-0.23 2.57,-0.73 3.62,-1.43 0.7,-0.47 1.37,-1.09 1.7,-1.89 0.19,-0.46 0.24,-0.94 0.18,-1.44 -0.04,-0.3 -0.08,-0.77 -0.33,-0.99 -0.34,-0.28 -1,-0.13 -1.41,-0.25 -0.75,-0.23 -1.15,-0.92 -1.41,-1.62 -1.17,-3.14 3.4,-3.51 5.57,-2.87 1.46,-2.01 2.97,-4.09 4.87,-5.71 -1.15,-1.21 -2.86,-2.1 -5.66,-2.26 -8.76,-0.49 -13.21,7.39 -8.47,14.19 0.96,1.38 1.34,2.83 1.33,4.26 z"
     id="path172"
     inkscape:connector-curvature="0"
     style="fill:#18151e;fill-opacity:1" />
  <path
     class="cls-3"
     d="m 291.21,12.53 c -0.33,0.71 -0.23,1.6 0.25,2.22 0.48,0.62 1.31,0.94 2.08,0.8"
     id="path174"
     inkscape:connector-curvature="0"
     style="fill:none;stroke:#ffe032;stroke-linecap:round;stroke-linejoin:round" />
  <g
     id="Lines">
    <g
       id="g177">
      <path
         class="cls-1"
         d="M210.82,141.65c-7.94,.03-15.85-2.97-21.79-8.24-3.97-3.53-7.14-8.28-7.53-13.58s2.62-11,7.68-12.59,11.41,2.36,11.25,7.66c-.13,4.32-4.2,7.71-8.44,8.51-4.25,.8-8.6-.39-12.71-1.71-9.05-2.9-18.23-6.72-24.53-13.83-6.3-7.11-8.87-18.33-3.64-26.27"
         id="path179" />
      <path
         class="cls-4"
         d="M527.89,314.4c4.94-1.06,9.43-4.07,12.28-8.24,1.86-2.73,3.06-5.93,5.36-8.3,2.3-2.37,6.34-3.61,8.87-1.48,1.98,1.67,2.16,4.79,1.13,7.16-1.03,2.38-3.01,4.19-4.93,5.93,5.35,.59,10.94-1.71,14.33-5.89-.69,3.41,3.17,6.34,6.65,6.1s6.41-2.54,9.12-4.73"
         id="path181" />
      <path
         class="cls-4"
         d="M414.48,314.38c4.09-2.04,8.17-4.09,12.26-6.13"
         id="path183" />
    </g>
  </g>
  <g
     id="Leg"
     style="fill:#18151e;fill-opacity:1">
    <path
       style="fill:#18151e;fill-opacity:1"
       inkscape:connector-curvature="0"
       id="path187"
       d="m 461.53,194.3 -39.1,22.17 24.32,70.81 -34.17,0.92 c 0,0 7.7,-7.7 16.01,-8.93 0,0 -12.31,-29.86 -20.93,-51.11 -8.62,-21.24 -2.46,-23.71 12.31,-31.4 14.78,-7.7 38.18,-20.63 38.18,-20.63 l 3.39,18.16 z"
       class="cls-18" />
    <path
       style="fill:#18151e;stroke:#ffe032;stroke-linecap:round;stroke-linejoin:round;fill-opacity:1"
       inkscape:connector-curvature="0"
       id="path189"
       d="m 429.29,279.19 c 3.74,-0.17 7.49,-0.33 11.23,-0.5"
       class="cls-3" />
  </g>
  <path
     class="cls-16"
     d="m 410.06,272.17 c -2.55,-2.55 -4.74,-4.11 -7.38,-5.96 -22.8,-10.15 -40.11,7.93 -38.43,25.83 1.41,14.91 19.58,30.76 39.02,21.02 20.07,-10.05 12.91,-33.58 6.78,-40.9 z"
     id="path192"
     inkscape:connector-curvature="0"
     style="fill:#ffe032" />
  <path
     class="cls-16"
     d="m 539.81,273.75 c -8.21,-20.89 -34.04,-16.02 -40.38,-9.81 -0.02,0.01 -0.04,0.03 -0.06,0.04 -5.27,4.14 -8.97,10.05 -10.09,16.65 -2.87,17.02 11.08,30.16 26.08,30.1 14.97,-0.06 32.39,-16.74 24.44,-36.98 z"
     id="path194"
     inkscape:connector-curvature="0"
     style="fill:#ffe032" />
  <path
     class="cls-8"
     d="m 465.18,201.88 c -1.01,1.53 -1.08,3.63 -0.17,5.21 0.91,1.59 2.75,2.59 4.58,2.49 0.64,-0.03 1.31,-0.21 1.79,-0.64 0.48,-0.43 0.74,-1.15 0.5,-1.75 -0.34,-0.83 -1.42,-1.07 -2.3,-0.91 -2.09,0.39 -3.66,2.6 -3.34,4.7 0.32,2.1 2.47,3.75 4.58,3.5 0.87,-0.1 1.86,-0.72 1.75,-1.6 -0.11,-0.95 -1.36,-1.28 -2.3,-1.08 -2.15,0.46 -3.79,2.64 -3.64,4.83 0.15,2.19 2.07,4.13 4.26,4.3"
     id="path196"
     inkscape:connector-curvature="0"
     style="fill:none;stroke:#00b9ff;stroke-linecap:round;stroke-linejoin:round" />
  <path
     class="cls-8"
     d="m 468.87,220.79 c 4.1,20.26 15.04,39.01 30.48,52.72 4.33,3.84 9.01,7.28 13.98,10.24"
     id="path198"
     inkscape:connector-curvature="0"
     style="fill:none;stroke:#00b9ff;stroke-linecap:round;stroke-linejoin:round" />
  <path
     class="cls-8"
     d="m 451.66,260.6 c 5.65,-14.04 10.19,-28.53 13.55,-43.29"
     id="path200"
     inkscape:connector-curvature="0"
     style="fill:none;stroke:#00b9ff;stroke-linecap:round;stroke-linejoin:round" />
  <path
     class="cls-16"
     d="m 481.85,188.5 c -1.82,12.71 -0.85,17.57 -12.95,16.36 -12.1,-1.21 -29.08,-9.37 -29.08,-9.37 l 42.04,-6.99 z"
     id="path202"
     inkscape:connector-curvature="0"
     style="fill:#ffe032" />
  <path
     class="cls-8"
     d="m 391.1,290.22 c 34.9,-41.09 16.4,-95.05 1.4,-138.05 3,-2 7,-2 9.97,-4.36"
     id="path204"
     inkscape:connector-curvature="0"
     style="fill:none;stroke:#00b9ff;stroke-linecap:round;stroke-linejoin:round" />
  <path
     class="cls-8"
     d="m 355.41,143.97 c 4.88,-1.03 9.76,-2.06 14.64,-3.09 2.47,13.61 6.53,26.94 12.06,39.62 1.31,2.99 2.88,6.15 5.76,7.69 4.42,2.36 9.78,-0.05 14.19,-2.44"
     id="path206"
     inkscape:connector-curvature="0"
     style="fill:none;stroke:#00b9ff;stroke-linecap:round;stroke-linejoin:round" />
  <path
     class="cls-14"
     d="m 455.5,273.03 c -3.5,-0.14 -7.09,1.19 -9.55,3.91 -4.24,4.68 -4.08,13.14 0.17,17.81 4.24,4.68 11.75,5.04 16.51,1 10.02,-8.49 4.56,-22.27 -7.12,-22.73 z"
     id="path208"
     inkscape:connector-curvature="0"
     style="fill:#ef1640" />
  <path
     class="cls-8"
     d="m 431.98,270.14 c 5.39,-0.7 10.79,-1.39 16.18,-2.09 2.56,5.18 0.21,12.09 3.69,16.7 2.39,3.16 7.33,4.02 10.64,1.84"
     id="path210"
     inkscape:connector-curvature="0"
     style="fill:none;stroke:#00b9ff;stroke-linecap:round;stroke-linejoin:round" />
  <polygon
     class="cls-18"
     points="370.59,154.66 370.59,154.66 380.52,182.8 391.45,182.8 383.17,155.32 "
     id="polygon212"
     style="fill:#18151e;fill-opacity:1" />
  <path
     class="cls-5"
     d="m 387.61,180.23 2.41,6.25"
     id="path214"
     inkscape:connector-curvature="0"
     style="fill:none;stroke:#211d28;stroke-linecap:round;stroke-linejoin:round" />
  <path
     class="cls-3"
     d="m 381.63,151.13 c 2.51,-3.66 5.02,-7.32 7.53,-10.98"
     id="path216"
     inkscape:connector-curvature="0"
     style="fill:none;stroke:#ffe032;stroke-linecap:round;stroke-linejoin:round" />
  <path
     class="cls-3"
     d="m 381.25,159.16 c 0.68,2.38 1.37,4.76 2.05,7.15"
     id="path218"
     inkscape:connector-curvature="0"
     style="fill:none;stroke:#ffe032;stroke-linecap:round;stroke-linejoin:round" />
  <path
     class="cls-8"
     d="m 492.62,259.75 c 11.28,-10.29 30.17,-10.86 42.05,-1.26"
     id="path220"
     inkscape:connector-curvature="0"
     style="fill:none;stroke:#00b9ff;stroke-linecap:round;stroke-linejoin:round" />
  <path
     class="cls-8"
     d="m 365.84,267.82 c 7.45,-10.94 23.88,-14.5 35.19,-7.62"
     id="path222"
     inkscape:connector-curvature="0"
     style="fill:none;stroke:#00b9ff;stroke-linecap:round;stroke-linejoin:round" />
  <path
     class="cls-8"
     d="m 429.59,290.37 c 4.43,-0.34 8.85,-0.68 13.28,-1.02"
     id="path224"
     inkscape:connector-curvature="0"
     style="fill:none;stroke:#00b9ff;stroke-linecap:round;stroke-linejoin:round" />
  <path
     class="cls-8"
     d="m 410.01,214.23 c 3.23,12.17 6.97,24.22 11.66,35.91 2.16,5.39 4.46,10.75 7.01,15.98 1.74,3.56 4.05,7.6 8.38,8.17"
     id="path226"
     inkscape:connector-curvature="0"
     style="fill:none;stroke:#00b9ff;stroke-linecap:round;stroke-linejoin:round" />
  <path
     style="fill:#ffe032"
     inkscape:connector-curvature="0"
     d="m 438.99,74.22 c 0.46,-0.12 0.89,-0.21 1.3,-0.29 0.34,-3.54 0.68,-4.34 1.08,-7.87 -4.17,-1.39 -11.64,-2.43 -16.04,2.85 -25.05,30.05 -28.07,35.15 -20.23,41.48 7.84,6.32 46.03,23.01 46.03,23.01 l 2.53,-12.65 -36.42,-19.47 c 0,0 14.92,-25.29 21.75,-27.06 z"
     class="cls-16"
     data-name="Hand 2"
     id="Hand_2-3" />
  <g
     data-name="Head"
     id="Head-3">
    <path
       style="fill:#ffe032"
       inkscape:connector-curvature="0"
       id="path230"
       d="m 454.59,104.57 c -2.79,-3.97 2.72,-10.7 3.27,-17.73 -9.01,-2.62 -18.34,-5.15 -26.49,-9.81 -1.1,1.21 -1.91,2.59 -2.3,4.04 -6.62,24.28 7.92,19.87 12.96,23.23 5.04,3.36 4.17,16.05 4.17,16.05 0,0 2.69,-1.01 8.06,-1.68 5.37,-0.67 9.74,-5.71 9.74,-5.71 0,0 -6.72,-4.57 -9.4,-8.39 z"
       class="cls-16" />
    <path
       style="fill:#18151e;stroke:#18151e;stroke-miterlimit:10"
       inkscape:connector-curvature="0"
       id="path232"
       d="m 438.13,78.23 c 0.02,-0.34 0.06,-0.68 0.05,-1.01 0,-0.29 -0.02,-0.58 -0.05,-0.86 -0.01,-0.11 -0.02,-0.22 -0.03,-0.33 0,-0.04 0,-0.05 0,-0.07 0,-0.07 -0.02,-0.13 -0.03,-0.2 -0.09,-0.53 -0.21,-1.06 -0.36,-1.58 -0.07,-0.23 -0.15,-0.47 -0.24,-0.69 -0.02,-0.06 -0.05,-0.13 -0.07,-0.19 0,-0.01 0,-0.01 -0.01,-0.03 -0.01,-0.03 -0.03,-0.06 -0.04,-0.09 -4.1,1.44 -7.31,4.45 -8.25,7.89 -0.02,0.08 -0.04,0.15 -0.06,0.23 3.22,1.06 7.16,-0.3 9.11,-3.07 z"
       class="cls-11" />
    <path
       style="fill:#18151e"
       inkscape:connector-curvature="0"
       id="path234"
       d="m 453.81,85.9 c -2.36,-1.25 -4.65,-2.77 -7.05,-4.02 -0.36,1.48 -0.71,2.97 -1.11,4.44 -0.7,2.56 -0.71,5.74 -3.26,7.28 -2.3,1.39 -5.5,-0.06 -7.86,-0.62 -2.26,-0.53 -4.83,-1.06 -7.11,-0.42 0.49,10.07 8.52,9.39 13.11,11.01 1.26,-0.26 2.44,-0.77 3.42,-1.72 1.6,-1.55 2.36,-3.66 3.69,-5.41 0.87,-1.14 2.2,-2.06 3.64,-1.29 1.1,0.58 2.03,2.35 3.15,3.36 0.97,-3.18 2.8,-6.9 3.34,-10.73 -1.37,-0.55 -2.69,-1.22 -3.94,-1.88 z"
       class="cls-19" />
    <path
       style="fill:#ff504d"
       inkscape:connector-curvature="0"
       id="path236"
       d="m 457.61,88.7 c 0.81,-4.22 0.23,-8.62 -4.7,-12.66 -8.38,-6.88 -19.15,-3.36 -22.82,2.72 9.31,2.92 18.39,6.51 27.52,9.95 z"
       class="cls-17" />
    <path
       style="fill:#ff504d"
       inkscape:connector-curvature="0"
       id="path238"
       d="m 435.03,75.64 c -15.76,-3.71 -18.69,-4.94 -20.54,-3.24 -1.85,1.7 12.83,5.3 15.6,6.36 2.77,1.06 4.94,-3.11 4.94,-3.11 z"
       class="cls-17" />
    <path
       style="fill:none;stroke:#211d28;stroke-linecap:round;stroke-linejoin:round"
       inkscape:connector-curvature="0"
       id="path240"
       d="m 435.17,85.31 c -1,2.44 -2.84,4.52 -5.14,5.81 1.93,1.49 4.29,2.43 6.72,2.69"
       class="cls-5" />
    <path
       style="fill:#ffe032"
       inkscape:connector-curvature="0"
       id="path242"
       d="m 449.2,88.74 -1.66,7.93 c 0,0 5.46,0.48 6.15,-3.08 0.83,-4.26 -4.49,-4.85 -4.49,-4.85 z"
       class="cls-16" />
    <path
       style="fill:none;stroke:#ffe032;stroke-linecap:round;stroke-linejoin:round"
       inkscape:connector-curvature="0"
       id="path244"
       d="m 437.69,98.55 c 2.28,0.3 4.68,-0.74 6.03,-2.6"
       class="cls-3" />
    <path
       style="fill:none;stroke:#18151e;stroke-linecap:round;stroke-linejoin:round"
       inkscape:connector-curvature="0"
       id="path246"
       d="m 428.06,82.21 c -0.16,1.23 -0.32,2.46 -0.48,3.69"
       class="cls-6" />
  </g>
  <g
     data-name="Wrist"
     id="Wrist-2">
    <path
       style="fill:#ffe032"
       inkscape:connector-curvature="0"
       id="path249"
       d="m 441.37,66.06 c 6.18,2.01 9.78,8.24 9.01,9.78 -0.77,1.54 -1.6,0.88 -1.6,0.88 0,0 -0.29,1.44 -1.84,0.98 0,0 -1.72,0.38 -2.95,-0.55 -1.23,-0.93 -3.79,-4.02 -9.2,-3.71 -5.41,0.31 6.57,-7.38 6.57,-7.38 z"
       class="cls-16" />
    <path
       style="fill:none;stroke:#00b9ff;stroke-linecap:round;stroke-linejoin:round"
       inkscape:connector-curvature="0"
       id="path251"
       d="m 442.46,72.35 c 1.65,1.19 2.93,2.88 3.63,4.78"
       class="cls-8" />
    <path
       style="fill:none;stroke:#00b9ff;stroke-linecap:round;stroke-linejoin:round"
       inkscape:connector-curvature="0"
       id="path253"
       d="m 445.87,70.46 c 1.72,1.74 2.81,4.09 3.03,6.52"
       class="cls-8" />
  </g>
  <path
     class="cls-18"
     d="m 463.99,112.97 c 21.49,12.76 20.82,50.36 21.82,62.78 1.01,12.42 0,21.15 -19.81,22.49 -19.81,1.34 -49.02,2.35 -49.02,2.35 0,0 36.93,49.35 42.97,63.79 l -32.23,4.03 c 0,0 4.7,-4.7 12.09,-8.39 0,0 -18.8,-24.84 -33.24,-46 -14.44,-21.15 -9.4,-30.22 5.37,-31.89 14.77,-1.67 40.96,-3.36 40.96,-3.36 0,0 -6.43,-34.98 -6.71,-58.42 l 17.79,-7.39 z"
     id="path256"
     inkscape:connector-curvature="0"
     style="fill:#18151e;fill-opacity:1" />
  <path
     class="cls-8"
     d="m 455.52,179.19 c 10.5,-0.73 21,-1.45 31.5,-2.18"
     id="path258"
     inkscape:connector-curvature="0"
     style="fill:none;stroke:#00b9ff;stroke-linecap:round;stroke-linejoin:round" />
  <path
     class="cls-8"
     d="m 479.95,192.39 c 0.14,-2.66 0.27,-5.33 0.41,-7.99 1.15,-0.08 2.29,-0.16 3.44,-0.24"
     id="path260"
     inkscape:connector-curvature="0"
     style="fill:none;stroke:#00b9ff;stroke-linecap:round;stroke-linejoin:round" />
  <path
     class="cls-3"
     d="m 440.49,258.12 c 3.4,-1.03 6.8,-2.06 10.21,-3.08"
     id="path262"
     inkscape:connector-curvature="0"
     style="fill:none;stroke:#ffe032;stroke-linecap:round;stroke-linejoin:round" />
  <g
     data-name="Hand 1"
     id="Hand_1-3">
    <path
       style="fill:#ffe032"
       inkscape:connector-curvature="0"
       id="path265"
       d="m 451.61,127.94 -15.4,27.35 c -7.94,-2.78 -27,-13.18 -35.27,-10.68 -8.86,2.68 -7.22,12.51 -3.15,13.46 4.18,0.97 6.02,0.65 6.26,-1.81 0.25,-2.46 4.76,1.37 17.12,6.68 14.9,6.4 19.21,11.52 28.54,-2.23 5.51,-8.12 11.35,-18.22 15.2,-25.13 -4.49,-2.46 -8.97,-4.94 -13.3,-7.65 z"
       class="cls-16" />
    <path
       style="fill:none;stroke:#00b9ff;stroke-linecap:round;stroke-linejoin:round"
       inkscape:connector-curvature="0"
       id="path267"
       d="m 400.68,157.09 c -0.13,-1.42 0.12,-2.91 0.91,-4.1 0.8,-1.18 2.19,-2.01 3.61,-1.91 1.42,0.1 2.77,1.23 2.91,2.65"
       class="cls-8" />
    <path
       style="fill:none;stroke:#00b9ff;stroke-linecap:round;stroke-linejoin:round"
       inkscape:connector-curvature="0"
       id="path269"
       d="m 398.16,156.32 c -0.94,-1.41 -1.14,-3.28 -0.5,-4.85 0.63,-1.57 2.08,-2.78 3.73,-3.14"
       class="cls-8" />
    <path
       style="fill:none;stroke:#00b9ff;stroke-linecap:round;stroke-linejoin:round"
       inkscape:connector-curvature="0"
       id="path271"
       d="m 467.39,138.28 c 1.55,-4.06 3.1,-8.12 4.64,-12.18"
       class="cls-8" />
  </g>
  <g
     id="Noise">
    <path
       class="cls-3"
       d="M95.24,31.05c-4.99,10.2,.77,24.14,11.5,27.85,2.41,.83,5.2,1.16,7.41-.11s3.26-4.62,1.51-6.48c-1.87-1.98-5.55-.79-6.76,1.65s-.55,5.41,.63,7.86c4.12,8.57,14.78,13.38,23.94,10.8"
       id="path274" />
    <path
       class="cls-8"
       d="M216.68,76.23c2.87,3.83,8.13,5.68,12.77,4.49"
       id="path276" />
    <path
       class="cls-8"
       d="M538.7,236.52l-1.1,2.75"
       id="path278" />
    <path
       class="cls-3"
       d="M345.07,249.85c-2.37,3.48,0,9.09,4.16,9.8"
       id="path280" />
    <path
       class="cls-8"
       d="M347.49,272.67c-1.47,1.46-2.94,2.92-4.41,4.38"
       id="path282" />
    <path
       class="cls-8"
       d="M376.68,324.46l4.92,.72"
       id="path284" />
    <path
       class="cls-8"
       d="M467.74,248.5c-.58,.71-1.15,1.42-1.73,2.13"
       id="path286" />
    <path
       class="cls-8"
       d="M564.57,234.53c-4.31,3.88-8.62,7.76-12.93,11.63"
       id="path288" />
    <path
       class="cls-8"
       d="M559.94,247.33c-1.95,1.5-3.89,3-5.84,4.5"
       id="path290" />
    <path
       class="cls-8"
       d="M216.15,11.92c1.66-2.73,6.12-1.71,8.13,.76s2.67,5.8,4.43,8.46,5.7,4.52,8.08,2.39"
       id="path292" />
    <path
       class="cls-8"
       d="M224.83,23.69c1.5,4.83,7.03,8,11.95,6.86"
       id="path294" />
    <path
       class="cls-8"
       d="M239.52,40.56c-1.62,.98-2.07,3.46-.89,4.95s3.69,1.62,5.02,.27,1.15-3.86-.36-5.01"
       id="path296" />
  </g>
</svg>
