<?xml version="1.0" encoding="UTF-8"?>
<svg id="_Слой_1" data-name="Слой 1" xmlns="http://www.w3.org/2000/svg" viewBox="0 0 627.87 463.41">
  <defs>
    <style>
      .cls-1 {
        stroke: #fff0d2;
      }

      .cls-1, .cls-2, .cls-3, .cls-4, .cls-5, .cls-6, .cls-7 {
        fill: none;
        stroke-linecap: round;
        stroke-linejoin: round;
      }

      .cls-2 {
        stroke: #ffe032;
      }

      .cls-3 {
        stroke: #211d28;
      }

      .cls-4 {
        stroke: #000;
      }

      .cls-5 {
        stroke: #00b9ff;
      }

      .cls-6 {
        stroke: #00d692;
      }

      .cls-7 {
        stroke: #020202;
      }

      .cls-8 {
        fill: #00d692;
      }

      .cls-9 {
        fill: #00b9ff;
      }

      .cls-10 {
        fill: #fff;
      }

      .cls-11 {
        fill: #ffe1f1;
      }

      .cls-12 {
        fill: #ffe032;
      }

      .cls-13 {
        fill: #ff504d;
      }

      .cls-14 {
        fill: #b77100;
      }

      .cls-15 {
        fill: #211d28;
      }
    </style>
  </defs>
  <g id="Window_2" data-name="Window 2">
    <g id="BG">
      <polygon class="cls-9" points="256.01 463.41 244.14 463.28 110.37 461.76 101.7 461.66 80.24 461.42 69.37 461.3 69.13 206.1 253.98 209.35 256.01 463.41"/>
      <path class="cls-8" d="M87.92,278.74c11.18-6.86,21.38-15.27,30.44-24.74,9.21-9.64,17.25-20.41,23.75-32.05,2.61-4.67,4.95-9.5,7.01-14.44l-79.99-1.41,.08,82.15c6.49-2.64,12.75-5.84,18.71-9.51Z"/>
      <path class="cls-4" d="M96.19,212.14c.76,26.63,1.51,53.27,2.27,79.9"/>
      <path class="cls-4" d="M224.87,243.8c.56,57.44,1.13,114.87,1.69,172.31"/>
      <path class="cls-4" d="M230.21,247.07c.45,18.11-.37,36.81,.07,54.93,5.33-1.7,10.67-3.41,16-5.11"/>
      <path class="cls-4" d="M89.51,215.76c.53,26.07,1.07,52.14,1.6,78.2"/>
    </g>
    <g id="Cup">
      <polygon class="cls-13" points="101.7 461.66 80.24 461.42 78.65 435.75 100.81 436.48 101.7 461.66"/>
      <path class="cls-2" d="M83.19,441.35c-1.07-1.52-5.72-1.05-7.37-.22-1.65,.84-2.7,2.58-3.13,4.39-.72,3.04,.2,6.41,2.36,8.67s5.48,3.33,8.55,2.75"/>
    </g>
    <g id="Woman">
      <g id="Legs">
        <path class="cls-12" d="M244.14,463.28l-133.77-1.51,.29-37.21,43.87,.77,2.53,10s49.35-1.84,66.54-1.99c16.17-.14,21.88,3.55,20.54,29.95Z"/>
        <path class="cls-7" d="M142.38,437.93c5.78-.8,11.57-1.6,17.35-2.4"/>
      </g>
      <path id="Head" d="M109.93,288.63c-4.5,11.04-32.81,18.3-32.81,18.3,0,0,11.11,32.57,30.57,38.43,19.46,5.86,23.47-31.71,23.47-31.71l-21.23-25.02Z"/>
      <g id="Body">
        <path class="cls-13" d="M199.18,374.75c-1.55-11.43-5.79-6.64-15.33-13.71-3.87-2.87-18.71-13.08-25.83-23.01-4.8-6.69-11.9-7.66-11.9-7.66l-28.55-3.03c-8.87,.63-18.85-5.68-20.83,7.44-1.98,13.12,2.55,54.42,2.55,54.42,0,0-10.5,2.1-10.97,12.09-.4,8.59,8.83,10.24,8.83,10.24,0,0-7.1,6.03,4.9,13.76,5.25,3.38,14.65,1.67,14.65,1.67l.15,5.27c1.75-.07,3.49-.16,5.24-.26,11.78-.69,23.52-1.91,35.29-2.74l-.84-53.49s9.57,4.55,11.74,5.47c0,0,1,9.5,10.6,10.79,4.51,.61,7-3.24,7-3.24,0,0,3.13,1.92,6.51,.64,2.65-1.01,8.36-3.21,6.81-14.64Z"/>
        <path class="cls-5" d="M153.17,351.33c1.63,1.8,3.27,3.63,4.39,5.78,1.12,2.16,1.66,4.71,.96,7.04-.43,1.42-1.29,2.67-1.91,4.01-.62,1.35-1,2.94-.41,4.3"/>
        <path class="cls-5" d="M118.68,362.54c1.02,15.15,2.03,30.31,3.05,45.46,.3,4.49,.49,9.39-2.12,13.06"/>
      </g>
      <g id="Hand_2" data-name="Hand 2">
        <path class="cls-14" d="M103.1,422.77s4.54,29.4,2.97,32.15-15.61,1.66-16.2,6.7l37.04,.38s-.66-3.22-5.71-5.05c-2.71-.98-3.46-33.42-3.46-33.42l-14.64-.76Z"/>
        <path class="cls-4" d="M100.17,460.98c3.09-2.45,7.19-3.59,11.11-3.08"/>
        <path class="cls-4" d="M94.62,460.56c1.64-1.88,4-3.12,6.48-3.38"/>
      </g>
      <g id="Hand_1" data-name="Hand 1">
        <path class="cls-14" d="M187.2,372.34s3.12-46.44,4.02-58.62c.63-8.52,3.41-6.57,3.84-4.72,0,0,.88-5.66,2.1-5.76,1.85-.16,1.58,1.64,1.58,1.64,0,0,.2-2.72,2.04-2.69,1.84,.03,1.88,2.3,1.88,2.3,0,0,.35-1.38,1.49-1.13s.46,7.61,.77,16.59c.3,8.98-.3,56.38-4.52,60.91-4.22,4.53-13.86,2.75-13.86,2.75l.66-11.27Z"/>
        <path class="cls-4" d="M195.27,310.8c-.66,2.88-.07,6.03,1.58,8.48,.61,.91,1.36,1.73,1.87,2.71s.75,2.18,.27,3.16"/>
        <path class="cls-4" d="M199.3,305.38c.06,3.18,.12,6.37,.18,9.55"/>
        <path class="cls-4" d="M201.71,305.07c.71,3.01,.83,6.15,.36,9.2"/>
      </g>
      <g id="Head-2" data-name="Head">
        <path class="cls-14" d="M164.54,287.36s-9.69,.67-12.55-4.01c-2.01-3.29-8.12-10.38-16.72-11.92-.69,7.71-2.65,15.69-8.3,21.26-.52,.51-1.25,.29-1.63-.24-.51-.72-1.31-1.64-2.29-1.4-.88,.21-1.55,1.09-2.01,1.8-1.23,1.87-1.99,4.18-2.22,6.39-.24,2.33,.47,4.06,1.97,5.85,1.33,1.6,3.16,3.08,3.74,5.16,.45,1.63-.08,3.17-.94,4.54,.94,.7,1.59,1.36,1.75,2.15,1.75,8.6-7.75,10.38-7.75,10.38l23.35,35.74s4.22-21.69,5.2-32.72c-7.36-11.91,.66-13.45,8.3-17.52,7.64-4.07,2.4-16.78,2.4-16.78,1.28-.82,7.72-8.7,7.72-8.7Z"/>
        <path d="M125.51,321.5c1.02-2.19,1.25-12.8,1.27-15.23-2.09-.27-4.26-.87-5.74-2.42-4.3-4.52,2.22-12.42,6.98-8.71,4.02-3.08,7.33-7.09,9.3-11.78,1.43-3.41,2.11-7.01,2.21-10.66-4.59-1.91-10.16-2.42-16.39,.47,0,0-16.99,5.88-13.55,23.53,2.52,12.95,10.46,24.82,13.74,27.6,.81-.56,1.89-2.18,2.19-2.81Z"/>
        <path class="cls-3" d="M144.43,284.82c.26,1.25,.18,1.24,.44,2.49"/>
        <path class="cls-3" d="M149.48,300.2c-.38,.89,.1,2.04,.99,2.4s2.04-.12,2.39-1.02"/>
      </g>
    </g>
  </g>
  <g id="Lines">
    <g>
      <path class="cls-6" d="M265.88,384.87c20.14-5.33,38.55-17.02,51.94-32.99,3.37-4.02,6.65-8.48,11.48-10.56,4.82-2.08,11.71-.46,13.12,4.6,1.3,4.68-2.49,9.05-5.43,12.92s-5,10.03-1.21,13.07c3.94,3.16,9.77-.66,12.35-4.99,2.59-4.34,4.44-9.78,9.1-11.72,3.87-1.61,8.82,.24,10.69,3.99s.36,8.82-3.26,10.93c5.11-1.16,10.23-2.31,15.34-3.47-1.29,2.13-.17,5.31,2.16,6.16,2.34,.85,5.24-.86,5.63-3.32"/>
      <path class="cls-6" d="M171.08,111.86c-33.46-2.87-67.48,1.05-99.41,11.46-18.87,6.15-37.43,14.83-51.36,28.98S-2.3,186.81,1.33,206.33c3.63,19.51,21.63,36.52,41.45,35.38,6.58-.38,14.45-4.82,13.26-11.3-1.14-6.24-10.93-7.48-14.96-2.59-4.04,4.89-2.74,12.57,1.21,17.53,3.94,4.96,9.87,7.85,15.59,10.59"/>
      <path class="cls-6" d="M356.8,103.53c13.78,2.74,28.03,3.08,41.93,.99,4.84-.73,9.98-1.93,13.29-5.55,3.3-3.62,3.48-10.37-.8-12.75-4.34-2.41-10.23,1.81-10.47,6.77s3.8,9.36,8.49,10.98,9.86,1.01,14.71-.06c4.85-1.06,9.66-2.57,14.62-2.69,8.67-.21,17.31,4.15,22.3,11.24"/>
      <path class="cls-6" d="M586.27,226.54c3.83,11.77,13.42,21.52,25.13,25.53,3.56,1.22,7.56,1.91,11.04,.48,3.48-1.44,6-5.65,4.47-9.09-2.1-4.71-9.75-3.91-12.79,.26-3.04,4.17-2.82,9.8-2.47,14.95,.93,13.71,1.87,27.42,2.8,41.13,.59,8.64,1.11,17.67-2.37,25.6-3.48,7.93-12.36,14.21-20.65,11.74"/>
    </g>
  </g>
  <g id="Window_3" data-name="Window 3">
    <g id="BG-2" data-name="BG">
      <path class="cls-15" d="M580.82,399.97l-29.56,.58-16.37,.32-116.19,2.28-19.88,.39-3.42-200.51c-.84-44.89,34.91-81.94,79.79-82.71l22.15-.38c45.19-.77,82.31,35.51,82.58,80.71l.59,130.38,.31,68.94Z"/>
      <line class="cls-6" x1="403.18" y1="192.02" x2="575.76" y2="191.88"/>
      <path class="cls-6" d="M434.07,143.22c12.71,14.22,25.41,28.44,38.12,42.66"/>
      <path class="cls-6" d="M482.78,127.47c2.7,19.24,5.39,38.49,8.09,57.73"/>
      <path class="cls-6" d="M510.95,188.26c9.23-15.06,19.44-29.51,30.54-43.25"/>
      <path class="cls-6" d="M424.09,197.33c.44,26.59-7.52,53.26-22.46,75.26"/>
      <path class="cls-6" d="M563.82,196.61c.34,6.32,4.28,12.33,9.95,15.17"/>
    </g>
    <g id="Man">
      <path id="Hand_2-2" data-name="Hand 2" class="cls-11" d="M417.55,291.97c-9.44,34.52-12.17,66.8-13.41,78.48-1.24,11.67,3.97,22.1,21.36,21.61,17.38-.5,69.04-50.17,69.04-50.17l-19.27-24.73-47.32,50.52,6.98-68.25-17.38-7.45Z"/>
      <g id="Body-2" data-name="Body">
        <path class="cls-8" d="M580.82,399.97l-29.56,.58-16.37,.32-33.54-1.52-4.37-13.77-21.71-68.43s17.85-26.4,42.83-30.64c0,0,24.1,3.87,36.59,6.6,12.49,2.73,20.22,6.56,23.57,18.46,.92,3.27,1.66,10.47,2.25,19.46l.31,68.94Z"/>
        <path class="cls-4" d="M488.57,321.25c.83,8.95,1.66,17.91,2.49,26.86"/>
      </g>
      <g id="Cat">
        <path class="cls-13" d="M529.52,320.34c.48,19.82-17.74,33.22-30.59,33.53-12.85,.32-59.86-11.78-58.49-28.8,0,0,6.04-1.65,7.96-8.51,2.58-9.2-8.33-19.5-8.33-19.5,0,0,.91-15.68-.89-15.92-1.8-.24-6.81,14.19-6.81,14.19l-6.49-1.57s-2.41-18.19-3.97-15.66c-1.56,2.54-3.75,9.24-5.52,13.68-12.41,31.18-4.01,55.99,2.08,67.62,6.89,13.15,13.37,33.57,13.37,33.57l16.44,4.71s3.82-12.2,2.85-18.52c0,0,8.1,9.06,32.06-.27,4.62-1.8,7.1,15.29,7.92,22.39,.05-.02,.09-.05,.14-.06,2.16-.48,4.35-.82,6.54-1.19,1.94-2.09,4.02-5.17,5.75-9.69,4.73-12.41,.67-27.39,.67-27.39,0,0,32.14-12.13,38.71-29.1,6.57-16.97-13.91-34.35-13.41-13.5Z"/>
        <path class="cls-3" d="M489.22,376.98c1.91-.2,3.9,.6,5.13,2.08,1.23,1.47,1.67,3.57,1.14,5.42"/>
        <path class="cls-3" d="M426.43,310.54c-.88-1.18,.09-3.19,1.56-3.23s2.55,1.92,1.74,3.14"/>
        <path class="cls-3" d="M437.16,320.53c2.78,.09,5.47-2.03,6.05-4.75,.11,1.34,1.64,2.35,2.91,1.92"/>
        <path class="cls-3" d="M440.96,314.38l2.99-.8"/>
        <path class="cls-3" d="M427.28,369.54c5.76,3.43,9.71,9.71,10.31,16.39"/>
        <path class="cls-3" d="M431.24,317.93c-3.84,1.45-7.68,2.9-11.52,4.35"/>
      </g>
      <g id="Wrist">
        <path class="cls-11" d="M425.18,289.03c10.22,1,14.35,3.53,17.34,7.01,2.99,3.49,1.25,5.98,1.25,5.98,0,0-1.25,3.49-3.24,3.24,0,0-3.33,1.23-4.87-1.36-1.08-1.82-6.78-9.64-9.77-10.15-.43-2.15-.71-4.73-.71-4.73Z"/>
        <path class="cls-4" d="M434.5,294.52c2.77,2.78,4.55,6.53,4.95,10.44"/>
        <path class="cls-4" d="M439.16,295.04c1.98,2.67,3.01,6.03,2.88,9.36"/>
      </g>
      <g id="Hand_1-2" data-name="Hand 1">
        <path class="cls-11" d="M564.23,364.73c-4.67,14.48-9.62,29.88-12.97,36.82l-16.37,.32-116.19,2.28c3.5-5.66,14.97-15.15,25.2-16.18,18.88-1.89,37.97-2.39,53.08-2.39,17.75,.01,30.02,.72,30.02,.72l10.58-29.04c2.39,.57,4.75,1.3,7.1,2.01,4.11,1.23,8.26,2.31,12.4,3.44,2.39,.66,4.77,1.33,7.15,2.02Z"/>
        <path class="cls-4" d="M421.01,402.86c3.24-2.83,6.48-5.66,9.71-8.5"/>
        <path class="cls-4" d="M426.71,402.02c2.09-3.21,5.86-5.25,9.68-5.23"/>
        <path class="cls-4" d="M566.87,364.82c1.33,.29,2.66,.59,3.99,.88,1.55-4.74,3.1-9.48,4.64-14.23"/>
      </g>
      <g id="Head-3" data-name="Head">
        <path class="cls-11" d="M517.5,211.54c-32.75,30.82-8.4,54.58,2.4,56.98s4.31,16.56-1.8,17.99c0,0-.75,17.73,15.39,19.2,13.38,1.22,21.19-12.6,21.19-12.6,0,0-10.8-9-7.2-19.79,3.6-10.8,25.22-17.9,17.99-46.79-6-23.99-37.79-24.59-47.99-15Z"/>
        <path class="cls-9" d="M565.49,226.53c-6-23.99-37.79-24.59-47.99-15-.17,.16-.32,.31-.49,.47,3.09,2.99,6.65,5.48,10.59,7.52,6.63,3.43,13.72,5.83,20.44,9.06,.8,.39,.68,1.56,0,1.97-2.04,1.25-3.98,2.85-5.2,4.94-.78,1.34-1.38,3.18-.32,4.54,.43,.56,1.07,.97,1.77,1.26,1.54-.79,3.29-1.25,4.91-1.47,2.5-.34,5.4-.2,7.55,1.29,2.4,1.66,3.14,4.72,2.24,7.44-1.87,5.69-9.16,6.87-14.54,5.89,.09,3.73,2.08,7.37,5.09,9.58,.93,.68,1.97,1.28,3.06,1.76,7.26-7.96,18.37-17.34,12.89-39.25Z"/>
        <path class="cls-3" d="M519.42,224.21c-3.15,4.21-8.85,6.33-13.99,5.2,.09,4.68,2.83,9.22,6.93,11.48"/>
        <path class="cls-3" d="M529.91,228.13l-.15,2.45"/>
        <path class="cls-3" d="M513.54,251.07c1.76,1.71,4.49,2.35,6.82,1.6,2.34-.75,4.19-2.85,4.63-5.26"/>
      </g>
    </g>
    <g id="Text">
      <polygon class="cls-8" points="467.95 412.08 469.26 425.19 575.43 423.88 576.09 410.77 467.95 412.08"/>
      <path class="cls-4" d="M510.55,419.62l50.45-.61"/>
    </g>
  </g>
  <g id="Bird">
    <path class="cls-9" d="M82.37,201.62c14.2-21.3,27.01-38.02,36.48-31.43,9.47,6.59,2.69,26.15-9.06,30.07-9.89,3.3-27.42,1.36-27.42,1.36Z"/>
    <path class="cls-3" d="M101.88,199.42l-.75,7.4c.82-.86,2.19-1.16,3.3-.72s1.89,1.6,1.9,2.79"/>
    <path class="cls-3" d="M109.86,199.05l-.75,7.4c.82-.86,2.28-1.33,3.45-1.07,.87,.19,1.82,1.14,1.82,2.34"/>
    <path class="cls-7" d="M109.13,175.42c3.32,3.1,3.74,8.52,1.74,12.6s-5.99,6.9-10.26,8.45c-4.27,1.56-8.85,2-13.37,2.43"/>
    <path class="cls-3" d="M122.21,170.86c-1.29,1.04-2.59,2.08-3.88,3.12,1.78,.48,3.55,.95,5.33,1.43"/>
  </g>
  <g id="Window_1" data-name="Window 1">
    <g id="BG-3" data-name="BG">
      <path class="cls-8" d="M331.51,0c10.24-.08,18.55,8.27,18.41,18.51l-1.62,117.98-1.57,91.09-87.63,.73-20.93,.17-44.54,.37-.6-70.28L191.97,1.13,331.51,0Z"/>
      <line class="cls-4" x1="196.32" y1="28.89" x2="344" y2="28.89"/>
      <line class="cls-4" x1="194.79" y1="19.15" x2="342.46" y2="19.15"/>
      <line class="cls-4" x1="196.84" y1="10.44" x2="344.51" y2="10.44"/>
      <path class="cls-4" d="M305.47,41.32c.73,18.5,1.46,37,2.19,55.5,9.49-.62,22.4,.06,31.89-.57"/>
      <path class="cls-4" d="M201.61,50.83v25.23"/>
    </g>
    <g id="Woman-2" data-name="Woman">
      <g id="Head-4" data-name="Head">
        <path class="cls-10" d="M280.77,95.28c.39-5.79-.31-15.29-4.89-21.99-3.1,1.19-4.92,4.98-6.65,7.65-1.18,1.83-2.47,3.61-4.2,4.97-2.14,1.67-4.57,2.2-7.23,1.8-2.36-.36-4.62-1.3-7.02-1.38-1.99-.06-4.16,.16-5.91,1.19-3.34,1.96-3.6,6.66-3.06,10.11,.47,2.96,.57,5.96-2,8-1.79,1.42-4.03,1.92-6.22,2.37,3.41,8.3-.47,9.54-2.09,11.5,0,0-.39,.23-1.21,.79,1.87,5.95,6.43,11.38,11.61,14.67,1.5,.95,3.06,1.78,4.68,2.51-.69-7.91,1.34-12.4,9.3-11.07,13.58,2.26,19.81-14.15,19.81-14.15,2.83,0,12.45-1.7,12.45-1.7,0,0-7.92-6.79-7.36-15.28Z"/>
        <path class="cls-15" d="M234.83,111.33c5.28-1.65,10.2-4.95,13.59-9.2-3.9-1.29-6.22-6.44-4.22-10.34,2.71-5.28,10.31-3.42,14.41-.79,6.61-1.71,12.22-6.63,16.24-11.99,.83-1.1,1.62-2.27,2.35-3.47-2.17-4.15-5.51-7.61-10.58-9.13-35.52-10.64-43.01,23.77-35.09,37.36,1.81,3.1,2.82,5.58,3.3,7.56Z"/>
        <path class="cls-15" d="M224.1,52.01c-5.05,1.29-9.11,5.92-9.55,11.11-1.06,12.54,15.29,16.66,23.14,8.73,8.97-9.08-2.62-22.65-13.59-19.84Z"/>
        <path class="cls-15" d="M234.83,111.33c4.17-10.55,1.77-22.83,3.17-34.08l1.3-7.02c-6.78,14-22.09,23.23-37.56,23.32,8.29,6.98,15.05,18.6,33.09,17.78Z"/>
        <path class="cls-3" d="M272.84,94.17c-.39,.92-.78,1.83-1.18,2.75"/>
        <path class="cls-3" d="M259.72,110.63c-.37,1.94,.27,4.06,1.67,5.46,1.4,1.4,3.51,2.05,5.45,1.68"/>
        <path class="cls-15" d="M263.74,76.25c5.73,1.74,6.73,9.72,6.73,9.72l14.7-6.73s-9.97-13.46-18.19-10.72c-8.22,2.74-3.24,7.73-3.24,7.73Z"/>
      </g>
      <g id="Laptop">
        <polygon class="cls-15" points="348.3 136.49 348.16 144.43 347.19 201.12 346.73 227.58 259.1 228.31 293.16 202.75 304.9 141.75 348.3 136.49"/>
        <polygon class="cls-12" points="348.16 144.43 347.19 201.12 300.09 199.15 308.46 149.3 348.16 144.43"/>
        <path class="cls-5" d="M325.97,211.08c6.43,.08,12.87,.16,19.3,.24"/>
        <polygon class="cls-15" points="331.19 224.82 346.78 253.59 346.73 227.58 331.19 224.82"/>
        <path class="cls-5" d="M330.6,216.83c2.93-.05,5.86-.1,8.79-.16-.19,1.21-.37,2.41-.56,3.62"/>
        <path class="cls-5" d="M313.51,151.98l-4.23,22.83c9.67-.1,19.33-.2,29-.3"/>
        <path class="cls-5" d="M309.93,182.22c4.67-.11,9.34-.22,14-.33"/>
        <path class="cls-5" d="M329.27,181.67l6.67-.33"/>
      </g>
      <g id="Hand_2-3" data-name="Hand 2">
        <path class="cls-10" d="M238.32,194.3c31.38-17.51,39.28-19.51,45.7-13.92,4.39,3.82,8.99,7.06,6.8,7.79-2.19,.73-4.16,.02-7.93-1.98-4.82-2.55-2.61,5.93-16.1,12.13-13.5,6.2-34.29,20.8-34.29,20.8l5.84-24.81Z"/>
        <path class="cls-5" d="M267.39,192.39c2.69-2.09,5.38-4.18,8.08-6.27,.7-.55,1.47-1.12,2.36-1.16s1.86,.75,1.65,1.61"/>
        <path class="cls-5" d="M280.69,181.52c3.28,1.47,6.55,2.94,9.83,4.41"/>
      </g>
      <path id="Body-3" data-name="Body" class="cls-13" d="M245.67,187.53s-4.56,23.78-7.5,40.95l-44.54,.37-.6-70.28c12.54-20.89,33.92-36.05,38.26-38.99,2.08,5.85,5.83,11.1,11.18,14.37,1.28,.78,2.61,1.4,3.98,1.89,.23,5.77,2.24,13.72,4.56,22.75,5.1,19.81,.46,23.74-5.34,28.94Z"/>
      <g id="Hand_1-3" data-name="Hand 1">
        <path class="cls-10" d="M324.25,212.59s-2.48-8.83-14.81-9.01c-6.16-.09-22.98,2.89-38.28,5.9,1.72,6.01,3.87,11.88,6.12,17.71,19.93-6.09,38.6-11.83,41.5-10.85,4.67,1.57,7.85,5.53,8.57,2.49s-3.1-6.23-3.1-6.23Z"/>
        <path class="cls-13" d="M277.32,208.29c-17.58,3.34-35.28,7.23-35.28,7.23l-2.28-73.36-24.68,5.59s.86,17.61,2.64,48.71c1.78,31.11-.73,47.46,25.13,40.77,11.04-2.86,25.65-7.37,39.13-11.48-1.54-5.83-3.1-11.64-4.65-17.47Z"/>
        <path class="cls-1" d="M212.69,165.37c1.76,19.44,3.53,38.89,5.29,58.33"/>
        <path class="cls-1" d="M233.59,156.73c2.18,18.59,4.35,37.18,6.53,55.77"/>
        <path class="cls-5" d="M317.18,211.96c3.73,.57,7.18,2.8,9.23,5.98"/>
        <path class="cls-5" d="M315.13,207.15c2.83,.65,5.48,2.07,7.58,4.08"/>
      </g>
    </g>
  </g>
  <g id="Noise">
    <path class="cls-5" d="M50.53,192.92c2.81-2.57,5.62-5.14,8.43-7.72"/>
    <path class="cls-5" d="M54.53,178.49l-7.69,6.92"/>
  </g>
</svg>