<svg width="76" height="114" viewBox="0 0 76 114" fill="none" xmlns="http://www.w3.org/2000/svg">
<g clip-path="url(#clip0_4124_44747)">
<path d="M37.97 114.233L37.97 76.2332H75.9701C75.9701 86.3114 71.9663 95.9769 64.8399 103.103C57.7135 110.23 48.0483 114.233 37.97 114.233V114.233Z" fill="white"/>
<path d="M0 75.9399H38V113.94C27.9218 113.94 18.2563 109.936 11.1299 102.81C4.00356 95.6836 0 86.0182 0 75.9399H0Z" fill="#FF504D"/>
<path d="M37.9702 76.5004H75.9701V38.5005C65.8919 38.5005 56.2266 42.504 49.1003 49.6304C41.9739 56.7567 37.9702 66.4222 37.9702 76.5004V76.5004Z" fill="white"/>
<path d="M37.97 76.9299H-0.0299569L-0.0299569 38.93C10.0483 38.93 19.7138 42.9335 26.8402 50.0598C33.9665 57.1862 37.97 66.8517 37.97 76.9299V76.9299Z" fill="#FF504D"/>
<path d="M18.98 37.96C29.4624 37.96 37.96 29.4624 37.96 18.98C37.96 8.49764 29.4624 0 18.98 0C8.49763 0 0 8.49764 0 18.98C0 29.4624 8.49763 37.96 18.98 37.96Z" fill="#00D692"/>
<path d="M61.1618 37.4479C68.1373 37.4479 73.7921 31.7931 73.7921 24.8176C73.7921 17.842 68.1373 12.1873 61.1618 12.1873C54.1863 12.1873 48.5316 17.842 48.5316 24.8176C48.5316 31.7931 54.1863 37.4479 61.1618 37.4479Z" fill="#FFE032"/>
</g>
<defs>
<clipPath id="clip0_4124_44747">
<rect width="75.94" height="113.91" fill="white"/>
</clipPath>
</defs>
</svg>
