<svg width="131" height="196" viewBox="0 0 131 196" fill="none" xmlns="http://www.w3.org/2000/svg">
<g clip-path="url(#clip0_4021_44926)">
<path d="M0 130.94H64.72V195.66C47.5552 195.66 31.0934 188.841 18.956 176.704C6.81869 164.567 0 148.105 0 130.94H0Z" fill="#00D692"/>
<path d="M129.44 1.5C112.275 1.5 95.8134 8.3187 83.676 20.4561C71.5387 32.5934 64.72 49.0552 64.72 66.22V130.94C81.8848 130.94 98.3465 124.121 110.484 111.984C122.621 99.8465 129.44 83.3848 129.44 66.22V1.5Z" fill="#211D28" stroke="#00B9FF" stroke-width="3" stroke-miterlimit="10"/>
<path d="M64.73 130.94H0.0100098L0.0100098 66.22C17.1748 66.22 33.6366 73.0387 45.7739 85.176C57.9113 97.3134 64.73 113.775 64.73 130.94Z" fill="#00D692"/>
<path d="M32.36 66.22C50.2319 66.22 64.72 51.7319 64.72 33.86C64.72 15.9881 50.2319 1.5 32.36 1.5C14.4881 1.5 0 15.9881 0 33.86C0 51.7319 14.4881 66.22 32.36 66.22Z" fill="white"/>
</g>
<defs>
<clipPath id="clip0_4021_44926">
<rect width="130.94" height="195.66" fill="white"/>
</clipPath>
</defs>
</svg>
