<svg xmlns="http://www.w3.org/2000/svg" xmlns:xlink="http://www.w3.org/1999/xlink" width="553" zoomAndPan="magnify" viewBox="0 0 414.75 143.249994" height="191" preserveAspectRatio="xMidYMid meet" version="1.0"><defs><clipPath id="b32dfddb58"><path d="M 0.957031 0 L 413.546875 0 L 413.546875 142.503906 L 0.957031 142.503906 Z M 0.957031 0 " clip-rule="nonzero"/></clipPath><clipPath id="c278a94dbb"><path d="M 228 83 L 233 83 L 233 86 L 228 86 Z M 228 83 " clip-rule="nonzero"/></clipPath><clipPath id="231dfab927"><path d="M 232.828125 13.957031 L 343.953125 53.507812 L 317.167969 128.765625 L 206.042969 89.210938 Z M 232.828125 13.957031 " clip-rule="nonzero"/></clipPath><clipPath id="58576633af"><path d="M 344.0625 53.546875 L 232.9375 13.996094 L 206.152344 89.25 L 317.277344 128.804688 Z M 344.0625 53.546875 " clip-rule="nonzero"/></clipPath><clipPath id="6cc5e3626d"><path d="M 227 48 L 230 48 L 230 53 L 227 53 Z M 227 48 " clip-rule="nonzero"/></clipPath><clipPath id="7aba8b3850"><path d="M 232.828125 13.957031 L 343.953125 53.507812 L 317.167969 128.765625 L 206.042969 89.210938 Z M 232.828125 13.957031 " clip-rule="nonzero"/></clipPath><clipPath id="44843975a5"><path d="M 344.0625 53.546875 L 232.9375 13.996094 L 206.152344 89.25 L 317.277344 128.804688 Z M 344.0625 53.546875 " clip-rule="nonzero"/></clipPath><clipPath id="8735b90c60"><path d="M 221 85 L 226 85 L 226 88 L 221 88 Z M 221 85 " clip-rule="nonzero"/></clipPath><clipPath id="a0e28aa039"><path d="M 232.828125 13.957031 L 343.953125 53.507812 L 317.167969 128.765625 L 206.042969 89.210938 Z M 232.828125 13.957031 " clip-rule="nonzero"/></clipPath><clipPath id="ced4797664"><path d="M 344.0625 53.546875 L 232.9375 13.996094 L 206.152344 89.25 L 317.277344 128.804688 Z M 344.0625 53.546875 " clip-rule="nonzero"/></clipPath><clipPath id="b824a8297e"><path d="M 228 41 L 231 41 L 231 46 L 228 46 Z M 228 41 " clip-rule="nonzero"/></clipPath><clipPath id="14182e796f"><path d="M 232.828125 13.957031 L 343.953125 53.507812 L 317.167969 128.765625 L 206.042969 89.210938 Z M 232.828125 13.957031 " clip-rule="nonzero"/></clipPath><clipPath id="7119857405"><path d="M 344.0625 53.546875 L 232.9375 13.996094 L 206.152344 89.25 L 317.277344 128.804688 Z M 344.0625 53.546875 " clip-rule="nonzero"/></clipPath><clipPath id="1c071175a7"><path d="M 213 87 L 219 87 L 219 89 L 213 89 Z M 213 87 " clip-rule="nonzero"/></clipPath><clipPath id="5f7a5c2727"><path d="M 232.828125 13.957031 L 343.953125 53.507812 L 317.167969 128.765625 L 206.042969 89.210938 Z M 232.828125 13.957031 " clip-rule="nonzero"/></clipPath><clipPath id="db4983e4b4"><path d="M 344.0625 53.546875 L 232.9375 13.996094 L 206.152344 89.25 L 317.277344 128.804688 Z M 344.0625 53.546875 " clip-rule="nonzero"/></clipPath><clipPath id="f4eba32161"><path d="M 229 55 L 233 55 L 233 60 L 229 60 Z M 229 55 " clip-rule="nonzero"/></clipPath><clipPath id="da755d9e25"><path d="M 232.828125 13.957031 L 343.953125 53.507812 L 317.167969 128.765625 L 206.042969 89.210938 Z M 232.828125 13.957031 " clip-rule="nonzero"/></clipPath><clipPath id="876fbedd75"><path d="M 344.0625 53.546875 L 232.9375 13.996094 L 206.152344 89.25 L 317.277344 128.804688 Z M 344.0625 53.546875 " clip-rule="nonzero"/></clipPath><clipPath id="38879368ed"><path d="M 206 88 L 211 88 L 211 90 L 206 90 Z M 206 88 " clip-rule="nonzero"/></clipPath><clipPath id="6352f6db43"><path d="M 232.828125 13.957031 L 343.953125 53.507812 L 317.167969 128.765625 L 206.042969 89.210938 Z M 232.828125 13.957031 " clip-rule="nonzero"/></clipPath><clipPath id="ca7cc2b32c"><path d="M 344.0625 53.546875 L 232.9375 13.996094 L 206.152344 89.25 L 317.277344 128.804688 Z M 344.0625 53.546875 " clip-rule="nonzero"/></clipPath><clipPath id="6fdb1a8fa2"><path d="M 211.074219 88.382812 L 207.023438 86.941406 L 206.140625 89.425781 L 210.191406 90.867188 Z M 211.074219 88.382812 " clip-rule="nonzero"/></clipPath><clipPath id="a56590d178"><path d="M 211.074219 88.382812 L 207.109375 86.972656 L 206.28125 89.292969 L 210.25 90.703125 Z M 211.074219 88.382812 " clip-rule="nonzero"/></clipPath><clipPath id="de158fafa4"><path d="M 246 70 L 251 70 L 251 73 L 246 73 Z M 246 70 " clip-rule="nonzero"/></clipPath><clipPath id="58b8eb9bd9"><path d="M 232.828125 13.957031 L 343.953125 53.507812 L 317.167969 128.765625 L 206.042969 89.210938 Z M 232.828125 13.957031 " clip-rule="nonzero"/></clipPath><clipPath id="af12c98662"><path d="M 344.0625 53.546875 L 232.9375 13.996094 L 206.152344 89.25 L 317.277344 128.804688 Z M 344.0625 53.546875 " clip-rule="nonzero"/></clipPath><clipPath id="fac850cdae"><path d="M 251 40 L 255 40 L 255 45 L 251 45 Z M 251 40 " clip-rule="nonzero"/></clipPath><clipPath id="71f9bca2f7"><path d="M 232.828125 13.957031 L 343.953125 53.507812 L 317.167969 128.765625 L 206.042969 89.210938 Z M 232.828125 13.957031 " clip-rule="nonzero"/></clipPath><clipPath id="dfb2c87d0a"><path d="M 344.0625 53.546875 L 232.9375 13.996094 L 206.152344 89.25 L 317.277344 128.804688 Z M 344.0625 53.546875 " clip-rule="nonzero"/></clipPath><clipPath id="900350ca6b"><path d="M 254 38 L 257 38 L 257 43 L 254 43 Z M 254 38 " clip-rule="nonzero"/></clipPath><clipPath id="8a45bac03b"><path d="M 232.828125 13.957031 L 343.953125 53.507812 L 317.167969 128.765625 L 206.042969 89.210938 Z M 232.828125 13.957031 " clip-rule="nonzero"/></clipPath><clipPath id="ec04e43f55"><path d="M 344.0625 53.546875 L 232.9375 13.996094 L 206.152344 89.25 L 317.277344 128.804688 Z M 344.0625 53.546875 " clip-rule="nonzero"/></clipPath><clipPath id="bbbdc2cd3d"><path d="M 259 35 L 264 35 L 264 38 L 259 38 Z M 259 35 " clip-rule="nonzero"/></clipPath><clipPath id="de3081d052"><path d="M 232.828125 13.957031 L 343.953125 53.507812 L 317.167969 128.765625 L 206.042969 89.210938 Z M 232.828125 13.957031 " clip-rule="nonzero"/></clipPath><clipPath id="3de509f186"><path d="M 344.0625 53.546875 L 232.9375 13.996094 L 206.152344 89.25 L 317.277344 128.804688 Z M 344.0625 53.546875 " clip-rule="nonzero"/></clipPath><clipPath id="887c0c500a"><path d="M 273 36 L 277 36 L 277 40 L 273 40 Z M 273 36 " clip-rule="nonzero"/></clipPath><clipPath id="75c3e8eb67"><path d="M 232.828125 13.957031 L 343.953125 53.507812 L 317.167969 128.765625 L 206.042969 89.210938 Z M 232.828125 13.957031 " clip-rule="nonzero"/></clipPath><clipPath id="02fe40f2da"><path d="M 344.0625 53.546875 L 232.9375 13.996094 L 206.152344 89.25 L 317.277344 128.804688 Z M 344.0625 53.546875 " clip-rule="nonzero"/></clipPath><clipPath id="71c61d5d44"><path d="M 238 34 L 243 34 L 243 36 L 238 36 Z M 238 34 " clip-rule="nonzero"/></clipPath><clipPath id="c94c0b7579"><path d="M 232.828125 13.957031 L 343.953125 53.507812 L 317.167969 128.765625 L 206.042969 89.210938 Z M 232.828125 13.957031 " clip-rule="nonzero"/></clipPath><clipPath id="f9e6414489"><path d="M 344.0625 53.546875 L 232.9375 13.996094 L 206.152344 89.25 L 317.277344 128.804688 Z M 344.0625 53.546875 " clip-rule="nonzero"/></clipPath><clipPath id="5c7aea03ff"><path d="M 231 36 L 236 36 L 236 39 L 231 39 Z M 231 36 " clip-rule="nonzero"/></clipPath><clipPath id="e3d23b3078"><path d="M 232.828125 13.957031 L 343.953125 53.507812 L 317.167969 128.765625 L 206.042969 89.210938 Z M 232.828125 13.957031 " clip-rule="nonzero"/></clipPath><clipPath id="25d27c61f6"><path d="M 344.0625 53.546875 L 232.9375 13.996094 L 206.152344 89.25 L 317.277344 128.804688 Z M 344.0625 53.546875 " clip-rule="nonzero"/></clipPath><clipPath id="9b04b1cfea"><path d="M 253 72 L 258 72 L 258 74 L 253 74 Z M 253 72 " clip-rule="nonzero"/></clipPath><clipPath id="34b2028c22"><path d="M 232.828125 13.957031 L 343.953125 53.507812 L 317.167969 128.765625 L 206.042969 89.210938 Z M 232.828125 13.957031 " clip-rule="nonzero"/></clipPath><clipPath id="45b8650fd4"><path d="M 344.0625 53.546875 L 232.9375 13.996094 L 206.152344 89.25 L 317.277344 128.804688 Z M 344.0625 53.546875 " clip-rule="nonzero"/></clipPath><clipPath id="31429572d5"><path d="M 245 35 L 250 35 L 250 39 L 245 39 Z M 245 35 " clip-rule="nonzero"/></clipPath><clipPath id="140b244b8e"><path d="M 232.828125 13.957031 L 343.953125 53.507812 L 317.167969 128.765625 L 206.042969 89.210938 Z M 232.828125 13.957031 " clip-rule="nonzero"/></clipPath><clipPath id="5082b268e7"><path d="M 344.0625 53.546875 L 232.9375 13.996094 L 206.152344 89.25 L 317.277344 128.804688 Z M 344.0625 53.546875 " clip-rule="nonzero"/></clipPath><clipPath id="b396850382"><path d="M 276 49 L 279 49 L 279 55 L 276 55 Z M 276 49 " clip-rule="nonzero"/></clipPath><clipPath id="b7bc537dab"><path d="M 232.828125 13.957031 L 343.953125 53.507812 L 317.167969 128.765625 L 206.042969 89.210938 Z M 232.828125 13.957031 " clip-rule="nonzero"/></clipPath><clipPath id="b94b33421d"><path d="M 344.0625 53.546875 L 232.9375 13.996094 L 206.152344 89.25 L 317.277344 128.804688 Z M 344.0625 53.546875 " clip-rule="nonzero"/></clipPath><clipPath id="c97608e55a"><path d="M 277 42 L 279 42 L 279 47 L 277 47 Z M 277 42 " clip-rule="nonzero"/></clipPath><clipPath id="cf799d1eb1"><path d="M 232.828125 13.957031 L 343.953125 53.507812 L 317.167969 128.765625 L 206.042969 89.210938 Z M 232.828125 13.957031 " clip-rule="nonzero"/></clipPath><clipPath id="b05fe4d8fb"><path d="M 344.0625 53.546875 L 232.9375 13.996094 L 206.152344 89.25 L 317.277344 128.804688 Z M 344.0625 53.546875 " clip-rule="nonzero"/></clipPath><clipPath id="ea3aa3a1e1"><path d="M 273 56 L 277 56 L 277 61 L 273 61 Z M 273 56 " clip-rule="nonzero"/></clipPath><clipPath id="4d2e349804"><path d="M 232.828125 13.957031 L 343.953125 53.507812 L 317.167969 128.765625 L 206.042969 89.210938 Z M 232.828125 13.957031 " clip-rule="nonzero"/></clipPath><clipPath id="e220bec042"><path d="M 344.0625 53.546875 L 232.9375 13.996094 L 206.152344 89.25 L 317.277344 128.804688 Z M 344.0625 53.546875 " clip-rule="nonzero"/></clipPath><clipPath id="9fb9ed541a"><path d="M 233 61 L 238 61 L 238 66 L 233 66 Z M 233 61 " clip-rule="nonzero"/></clipPath><clipPath id="32fb6ae78e"><path d="M 232.828125 13.957031 L 343.953125 53.507812 L 317.167969 128.765625 L 206.042969 89.210938 Z M 232.828125 13.957031 " clip-rule="nonzero"/></clipPath><clipPath id="3b3775b31a"><path d="M 344.0625 53.546875 L 232.9375 13.996094 L 206.152344 89.25 L 317.277344 128.804688 Z M 344.0625 53.546875 " clip-rule="nonzero"/></clipPath><clipPath id="43c9cec487"><path d="M 266 34 L 271 34 L 271 36 L 266 36 Z M 266 34 " clip-rule="nonzero"/></clipPath><clipPath id="65efc9d1e5"><path d="M 232.828125 13.957031 L 343.953125 53.507812 L 317.167969 128.765625 L 206.042969 89.210938 Z M 232.828125 13.957031 " clip-rule="nonzero"/></clipPath><clipPath id="43e5793052"><path d="M 344.0625 53.546875 L 232.9375 13.996094 L 206.152344 89.25 L 317.277344 128.804688 Z M 344.0625 53.546875 " clip-rule="nonzero"/></clipPath><clipPath id="3e8663a2dd"><path d="M 282 71 L 288 71 L 288 74 L 282 74 Z M 282 71 " clip-rule="nonzero"/></clipPath><clipPath id="b6ff6c8722"><path d="M 232.828125 13.957031 L 343.953125 53.507812 L 317.167969 128.765625 L 206.042969 89.210938 Z M 232.828125 13.957031 " clip-rule="nonzero"/></clipPath><clipPath id="40e21c31f8"><path d="M 344.0625 53.546875 L 232.9375 13.996094 L 206.152344 89.25 L 317.277344 128.804688 Z M 344.0625 53.546875 " clip-rule="nonzero"/></clipPath><clipPath id="37568f5c6f"><path d="M 304 64 L 309 64 L 309 67 L 304 67 Z M 304 64 " clip-rule="nonzero"/></clipPath><clipPath id="ac0ef8e8bf"><path d="M 232.828125 13.957031 L 343.953125 53.507812 L 317.167969 128.765625 L 206.042969 89.210938 Z M 232.828125 13.957031 " clip-rule="nonzero"/></clipPath><clipPath id="643da04a71"><path d="M 344.0625 53.546875 L 232.9375 13.996094 L 206.152344 89.25 L 317.277344 128.804688 Z M 344.0625 53.546875 " clip-rule="nonzero"/></clipPath><clipPath id="831b51826d"><path d="M 297 67 L 302 67 L 302 70 L 297 70 Z M 297 67 " clip-rule="nonzero"/></clipPath><clipPath id="84a899241e"><path d="M 232.828125 13.957031 L 343.953125 53.507812 L 317.167969 128.765625 L 206.042969 89.210938 Z M 232.828125 13.957031 " clip-rule="nonzero"/></clipPath><clipPath id="96c86fc0b1"><path d="M 344.0625 53.546875 L 232.9375 13.996094 L 206.152344 89.25 L 317.277344 128.804688 Z M 344.0625 53.546875 " clip-rule="nonzero"/></clipPath><clipPath id="8c74d303bd"><path d="M 290 69 L 295 69 L 295 72 L 290 72 Z M 290 69 " clip-rule="nonzero"/></clipPath><clipPath id="b33642e42b"><path d="M 232.828125 13.957031 L 343.953125 53.507812 L 317.167969 128.765625 L 206.042969 89.210938 Z M 232.828125 13.957031 " clip-rule="nonzero"/></clipPath><clipPath id="8ac369bd46"><path d="M 344.0625 53.546875 L 232.9375 13.996094 L 206.152344 89.25 L 317.277344 128.804688 Z M 344.0625 53.546875 " clip-rule="nonzero"/></clipPath><clipPath id="4893a8a671"><path d="M 269 63 L 273 63 L 273 67 L 269 67 Z M 269 63 " clip-rule="nonzero"/></clipPath><clipPath id="1ae5ea04a5"><path d="M 232.828125 13.957031 L 343.953125 53.507812 L 317.167969 128.765625 L 206.042969 89.210938 Z M 232.828125 13.957031 " clip-rule="nonzero"/></clipPath><clipPath id="f8c924274d"><path d="M 344.0625 53.546875 L 232.9375 13.996094 L 206.152344 89.25 L 317.277344 128.804688 Z M 344.0625 53.546875 " clip-rule="nonzero"/></clipPath><clipPath id="c279adde6d"><path d="M 275 73 L 280 73 L 280 75 L 275 75 Z M 275 73 " clip-rule="nonzero"/></clipPath><clipPath id="17105cec49"><path d="M 232.828125 13.957031 L 343.953125 53.507812 L 317.167969 128.765625 L 206.042969 89.210938 Z M 232.828125 13.957031 " clip-rule="nonzero"/></clipPath><clipPath id="f3cda4c178"><path d="M 344.0625 53.546875 L 232.9375 13.996094 L 206.152344 89.25 L 317.277344 128.804688 Z M 344.0625 53.546875 " clip-rule="nonzero"/></clipPath><clipPath id="a2f907bf4e"><path d="M 239 66 L 244 66 L 244 70 L 239 70 Z M 239 66 " clip-rule="nonzero"/></clipPath><clipPath id="8ccb88aed4"><path d="M 232.828125 13.957031 L 343.953125 53.507812 L 317.167969 128.765625 L 206.042969 89.210938 Z M 232.828125 13.957031 " clip-rule="nonzero"/></clipPath><clipPath id="2ab5c24db4"><path d="M 344.0625 53.546875 L 232.9375 13.996094 L 206.152344 89.25 L 317.277344 128.804688 Z M 344.0625 53.546875 " clip-rule="nonzero"/></clipPath><clipPath id="0834eb7355"><path d="M 250 76 L 255 76 L 255 79 L 250 79 Z M 250 76 " clip-rule="nonzero"/></clipPath><clipPath id="bc0c2115d2"><path d="M 232.828125 13.957031 L 343.953125 53.507812 L 317.167969 128.765625 L 206.042969 89.210938 Z M 232.828125 13.957031 " clip-rule="nonzero"/></clipPath><clipPath id="b8c3518893"><path d="M 344.0625 53.546875 L 232.9375 13.996094 L 206.152344 89.25 L 317.277344 128.804688 Z M 344.0625 53.546875 " clip-rule="nonzero"/></clipPath><clipPath id="e0dcff707f"><path d="M 243 79 L 248 79 L 248 82 L 243 82 Z M 243 79 " clip-rule="nonzero"/></clipPath><clipPath id="defc5b8afe"><path d="M 232.828125 13.957031 L 343.953125 53.507812 L 317.167969 128.765625 L 206.042969 89.210938 Z M 232.828125 13.957031 " clip-rule="nonzero"/></clipPath><clipPath id="3c17aafd25"><path d="M 344.0625 53.546875 L 232.9375 13.996094 L 206.152344 89.25 L 317.277344 128.804688 Z M 344.0625 53.546875 " clip-rule="nonzero"/></clipPath><clipPath id="118b60ec1a"><path d="M 235 81 L 241 81 L 241 84 L 235 84 Z M 235 81 " clip-rule="nonzero"/></clipPath><clipPath id="03681e385b"><path d="M 232.828125 13.957031 L 343.953125 53.507812 L 317.167969 128.765625 L 206.042969 89.210938 Z M 232.828125 13.957031 " clip-rule="nonzero"/></clipPath><clipPath id="b0f4173392"><path d="M 344.0625 53.546875 L 232.9375 13.996094 L 206.152344 89.25 L 317.277344 128.804688 Z M 344.0625 53.546875 " clip-rule="nonzero"/></clipPath><clipPath id="db00317904"><path d="M 260 73 L 265 73 L 265 75 L 260 75 Z M 260 73 " clip-rule="nonzero"/></clipPath><clipPath id="958c103d83"><path d="M 232.828125 13.957031 L 343.953125 53.507812 L 317.167969 128.765625 L 206.042969 89.210938 Z M 232.828125 13.957031 " clip-rule="nonzero"/></clipPath><clipPath id="5c05f9e573"><path d="M 344.0625 53.546875 L 232.9375 13.996094 L 206.152344 89.25 L 317.277344 128.804688 Z M 344.0625 53.546875 " clip-rule="nonzero"/></clipPath><clipPath id="c259994bb9"><path d="M 256 72 L 261 72 L 261 76 L 256 76 Z M 256 72 " clip-rule="nonzero"/></clipPath><clipPath id="79a12ca213"><path d="M 232.828125 13.957031 L 343.953125 53.507812 L 317.167969 128.765625 L 206.042969 89.210938 Z M 232.828125 13.957031 " clip-rule="nonzero"/></clipPath><clipPath id="543bc0639e"><path d="M 344.0625 53.546875 L 232.9375 13.996094 L 206.152344 89.25 L 317.277344 128.804688 Z M 344.0625 53.546875 " clip-rule="nonzero"/></clipPath><clipPath id="6f956e6537"><path d="M 263 68 L 267 68 L 267 72 L 263 72 Z M 263 68 " clip-rule="nonzero"/></clipPath><clipPath id="cf25e85d3e"><path d="M 232.828125 13.957031 L 343.953125 53.507812 L 317.167969 128.765625 L 206.042969 89.210938 Z M 232.828125 13.957031 " clip-rule="nonzero"/></clipPath><clipPath id="778025c27f"><path d="M 344.0625 53.546875 L 232.9375 13.996094 L 206.152344 89.25 L 317.277344 128.804688 Z M 344.0625 53.546875 " clip-rule="nonzero"/></clipPath><clipPath id="ace0fbd1c4"><path d="M 268 73 L 273 73 L 273 75 L 268 75 Z M 268 73 " clip-rule="nonzero"/></clipPath><clipPath id="267ca931f9"><path d="M 232.828125 13.957031 L 343.953125 53.507812 L 317.167969 128.765625 L 206.042969 89.210938 Z M 232.828125 13.957031 " clip-rule="nonzero"/></clipPath><clipPath id="2c84b88f34"><path d="M 344.0625 53.546875 L 232.9375 13.996094 L 206.152344 89.25 L 317.277344 128.804688 Z M 344.0625 53.546875 " clip-rule="nonzero"/></clipPath><clipPath id="f1038cd397"><path d="M 303 52 L 338 52 L 338 54 L 303 54 Z M 303 52 " clip-rule="nonzero"/></clipPath><clipPath id="885f4fa7b1"><path d="M 232.828125 13.957031 L 343.953125 53.507812 L 317.167969 128.765625 L 206.042969 89.210938 Z M 232.828125 13.957031 " clip-rule="nonzero"/></clipPath><clipPath id="0805a1e721"><path d="M 344.0625 53.546875 L 232.9375 13.996094 L 206.152344 89.25 L 317.277344 128.804688 Z M 344.0625 53.546875 " clip-rule="nonzero"/></clipPath><clipPath id="fc551cfdc3"><path d="M 315 53 L 344 53 L 344 71 L 315 71 Z M 315 53 " clip-rule="nonzero"/></clipPath><clipPath id="8e9e04ad23"><path d="M 232.828125 13.957031 L 343.953125 53.507812 L 317.167969 128.765625 L 206.042969 89.210938 Z M 232.828125 13.957031 " clip-rule="nonzero"/></clipPath><clipPath id="ec076d4324"><path d="M 344.0625 53.546875 L 232.9375 13.996094 L 206.152344 89.25 L 317.277344 128.804688 Z M 344.0625 53.546875 " clip-rule="nonzero"/></clipPath><clipPath id="ca96d64b91"><path d="M 309 53 L 340 53 L 340 64 L 309 64 Z M 309 53 " clip-rule="nonzero"/></clipPath><clipPath id="1e40d4bd5c"><path d="M 232.828125 13.957031 L 343.953125 53.507812 L 317.167969 128.765625 L 206.042969 89.210938 Z M 232.828125 13.957031 " clip-rule="nonzero"/></clipPath><clipPath id="b902b37bb2"><path d="M 344.0625 53.546875 L 232.9375 13.996094 L 206.152344 89.25 L 317.277344 128.804688 Z M 344.0625 53.546875 " clip-rule="nonzero"/></clipPath><clipPath id="593ca03380"><path d="M 309 57 L 317 57 L 317 65 L 309 65 Z M 309 57 " clip-rule="nonzero"/></clipPath><clipPath id="770c7e6366"><path d="M 232.828125 13.957031 L 343.953125 53.507812 L 317.167969 128.765625 L 206.042969 89.210938 Z M 232.828125 13.957031 " clip-rule="nonzero"/></clipPath><clipPath id="d7dbdfe2ce"><path d="M 344.0625 53.546875 L 232.9375 13.996094 L 206.152344 89.25 L 317.277344 128.804688 Z M 344.0625 53.546875 " clip-rule="nonzero"/></clipPath><clipPath id="8b05caca46"><path d="M 71 84 L 77 84 L 77 86 L 71 86 Z M 71 84 " clip-rule="nonzero"/></clipPath><clipPath id="cb99c7b915"><path d="M 70.683594 83.011719 L 86.9375 73.839844 L 93.175781 84.890625 L 76.921875 94.0625 Z M 70.683594 83.011719 " clip-rule="nonzero"/></clipPath><clipPath id="644308d548"><path d="M -42.949219 73.953125 L 59.773438 15.976562 L 99.035156 85.542969 L -3.691406 143.515625 Z M -42.949219 73.953125 " clip-rule="nonzero"/></clipPath><clipPath id="8ea7711a0a"><path d="M 79 85 L 84 85 L 84 87 L 79 87 Z M 79 85 " clip-rule="nonzero"/></clipPath><clipPath id="14bd0a7063"><path d="M 70.683594 83.011719 L 86.9375 73.839844 L 93.175781 84.890625 L 76.921875 94.0625 Z M 70.683594 83.011719 " clip-rule="nonzero"/></clipPath><clipPath id="d28b32bbf5"><path d="M -42.949219 73.953125 L 59.773438 15.976562 L 99.035156 85.542969 L -3.691406 143.515625 Z M -42.949219 73.953125 " clip-rule="nonzero"/></clipPath><clipPath id="40e0a6cb80"><path d="M 86 85 L 92 85 L 92 87 L 86 87 Z M 86 85 " clip-rule="nonzero"/></clipPath><clipPath id="3f0aa86680"><path d="M 70.683594 83.011719 L 86.9375 73.839844 L 93.175781 84.890625 L 76.921875 94.0625 Z M 70.683594 83.011719 " clip-rule="nonzero"/></clipPath><clipPath id="c0b8cf484f"><path d="M -42.949219 73.953125 L 59.773438 15.976562 L 99.035156 85.542969 L -3.691406 143.515625 Z M -42.949219 73.953125 " clip-rule="nonzero"/></clipPath><clipPath id="0c96ccfd65"><path d="M 94 85 L 100 85 L 100 87 L 94 87 Z M 94 85 " clip-rule="nonzero"/></clipPath><clipPath id="cc9c7b7877"><path d="M 93.566406 83.757812 L 109.820312 74.585938 L 116.058594 85.636719 L 99.804688 94.808594 Z M 93.566406 83.757812 " clip-rule="nonzero"/></clipPath><clipPath id="d7345f3e8e"><path d="M -20.070312 74.699219 L 82.652344 16.722656 L 121.914062 86.289062 L 19.191406 144.265625 Z M -20.070312 74.699219 " clip-rule="nonzero"/></clipPath><clipPath id="ec5ad48fbe"><path d="M 102 86 L 107 86 L 107 87 L 102 87 Z M 102 86 " clip-rule="nonzero"/></clipPath><clipPath id="f1060363a1"><path d="M 93.566406 83.757812 L 109.820312 74.585938 L 116.058594 85.636719 L 99.804688 94.808594 Z M 93.566406 83.757812 " clip-rule="nonzero"/></clipPath><clipPath id="8d41a5c8d1"><path d="M -20.070312 74.699219 L 82.652344 16.722656 L 121.914062 86.289062 L 19.191406 144.265625 Z M -20.070312 74.699219 " clip-rule="nonzero"/></clipPath><clipPath id="ccfc9338c7"><path d="M 109 86 L 115 86 L 115 87 L 109 87 Z M 109 86 " clip-rule="nonzero"/></clipPath><clipPath id="99a6e96bf1"><path d="M 93.566406 83.757812 L 109.820312 74.585938 L 116.058594 85.636719 L 99.804688 94.808594 Z M 93.566406 83.757812 " clip-rule="nonzero"/></clipPath><clipPath id="744058b7f0"><path d="M -20.070312 74.699219 L 82.652344 16.722656 L 121.914062 86.289062 L 19.191406 144.265625 Z M -20.070312 74.699219 " clip-rule="nonzero"/></clipPath><clipPath id="849ab7645f"><path d="M 117 86 L 122 86 L 122 88 L 117 88 Z M 117 86 " clip-rule="nonzero"/></clipPath><clipPath id="ea47201ac9"><path d="M 116.449219 84.503906 L 132.703125 75.332031 L 138.941406 86.382812 L 122.6875 95.558594 Z M 116.449219 84.503906 " clip-rule="nonzero"/></clipPath><clipPath id="70b931f0dc"><path d="M 2.8125 75.445312 L 105.535156 17.46875 L 144.796875 87.035156 L 42.074219 145.011719 Z M 2.8125 75.445312 " clip-rule="nonzero"/></clipPath><clipPath id="36976812a3"><path d="M 125 86 L 130 86 L 130 88 L 125 88 Z M 125 86 " clip-rule="nonzero"/></clipPath><clipPath id="8687f9351c"><path d="M 116.449219 84.503906 L 132.703125 75.332031 L 138.941406 86.382812 L 122.6875 95.558594 Z M 116.449219 84.503906 " clip-rule="nonzero"/></clipPath><clipPath id="4c2557c9f0"><path d="M 2.8125 75.445312 L 105.535156 17.46875 L 144.796875 87.035156 L 42.074219 145.011719 Z M 2.8125 75.445312 " clip-rule="nonzero"/></clipPath><clipPath id="d47b8b54b1"><path d="M 132 86 L 138 86 L 138 88 L 132 88 Z M 132 86 " clip-rule="nonzero"/></clipPath><clipPath id="bed17139fa"><path d="M 116.449219 84.503906 L 132.703125 75.332031 L 138.941406 86.382812 L 122.6875 95.558594 Z M 116.449219 84.503906 " clip-rule="nonzero"/></clipPath><clipPath id="22a12e97f9"><path d="M 2.8125 75.445312 L 105.535156 17.46875 L 144.796875 87.035156 L 42.074219 145.011719 Z M 2.8125 75.445312 " clip-rule="nonzero"/></clipPath><clipPath id="6007f72b68"><path d="M 140 87 L 145 87 L 145 88 L 140 88 Z M 140 87 " clip-rule="nonzero"/></clipPath><clipPath id="2a0703b93a"><path d="M 139.332031 85.25 L 155.582031 76.078125 L 161.820312 87.128906 L 145.566406 96.304688 Z M 139.332031 85.25 " clip-rule="nonzero"/></clipPath><clipPath id="b7827c3725"><path d="M 25.695312 76.191406 L 128.417969 18.214844 L 167.679688 87.78125 L 64.957031 145.757812 Z M 25.695312 76.191406 " clip-rule="nonzero"/></clipPath><clipPath id="0ce6380014"><path d="M 147 87 L 153 87 L 153 89 L 147 89 Z M 147 87 " clip-rule="nonzero"/></clipPath><clipPath id="cb0ae7557c"><path d="M 139.332031 85.25 L 155.582031 76.078125 L 161.820312 87.128906 L 145.566406 96.304688 Z M 139.332031 85.25 " clip-rule="nonzero"/></clipPath><clipPath id="cee41b0de9"><path d="M 25.695312 76.191406 L 128.417969 18.214844 L 167.679688 87.78125 L 64.957031 145.757812 Z M 25.695312 76.191406 " clip-rule="nonzero"/></clipPath><clipPath id="776b1343fd"><path d="M 155 87 L 160 87 L 160 89 L 155 89 Z M 155 87 " clip-rule="nonzero"/></clipPath><clipPath id="0987fd8b63"><path d="M 139.332031 85.25 L 155.582031 76.078125 L 161.820312 87.128906 L 145.566406 96.304688 Z M 139.332031 85.25 " clip-rule="nonzero"/></clipPath><clipPath id="2cdb45ed9a"><path d="M 25.695312 76.191406 L 128.417969 18.214844 L 167.679688 87.78125 L 64.957031 145.757812 Z M 25.695312 76.191406 " clip-rule="nonzero"/></clipPath><clipPath id="fe9973320f"><path d="M 163 87 L 168 87 L 168 89 L 163 89 Z M 163 87 " clip-rule="nonzero"/></clipPath><clipPath id="143157bc03"><path d="M 162.210938 85.996094 L 178.464844 76.824219 L 184.703125 87.875 L 168.449219 97.050781 Z M 162.210938 85.996094 " clip-rule="nonzero"/></clipPath><clipPath id="42b52e2a87"><path d="M 48.574219 76.9375 L 151.300781 18.964844 L 190.5625 88.527344 L 87.835938 146.503906 Z M 48.574219 76.9375 " clip-rule="nonzero"/></clipPath><clipPath id="68461c6077"><path d="M 170 88 L 176 88 L 176 90 L 170 90 Z M 170 88 " clip-rule="nonzero"/></clipPath><clipPath id="f358ef2f19"><path d="M 162.210938 85.996094 L 178.464844 76.824219 L 184.703125 87.875 L 168.449219 97.050781 Z M 162.210938 85.996094 " clip-rule="nonzero"/></clipPath><clipPath id="4d8de604aa"><path d="M 48.574219 76.9375 L 151.300781 18.964844 L 190.5625 88.527344 L 87.835938 146.503906 Z M 48.574219 76.9375 " clip-rule="nonzero"/></clipPath><clipPath id="4e5088c295"><path d="M 178 88 L 183 88 L 183 90 L 178 90 Z M 178 88 " clip-rule="nonzero"/></clipPath><clipPath id="0ba9ecbd09"><path d="M 162.210938 85.996094 L 178.464844 76.824219 L 184.703125 87.875 L 168.449219 97.050781 Z M 162.210938 85.996094 " clip-rule="nonzero"/></clipPath><clipPath id="f77d892aac"><path d="M 48.574219 76.9375 L 151.300781 18.964844 L 190.5625 88.527344 L 87.835938 146.503906 Z M 48.574219 76.9375 " clip-rule="nonzero"/></clipPath><clipPath id="e39f2c32f6"><path d="M 184 88 L 189 88 L 189 90 L 184 90 Z M 184 88 " clip-rule="nonzero"/></clipPath><clipPath id="b37fc3543b"><path d="M 183.222656 86.742188 L 199.476562 77.570312 L 205.714844 88.625 L 189.460938 97.796875 Z M 183.222656 86.742188 " clip-rule="nonzero"/></clipPath><clipPath id="89ed7c094c"><path d="M 69.585938 77.683594 L 172.308594 19.710938 L 211.570312 89.277344 L 108.847656 147.25 Z M 69.585938 77.683594 " clip-rule="nonzero"/></clipPath><clipPath id="a17f8cfc0b"><path d="M 191 89 L 197 89 L 197 90 L 191 90 Z M 191 89 " clip-rule="nonzero"/></clipPath><clipPath id="31e7076c88"><path d="M 183.222656 86.742188 L 199.476562 77.570312 L 205.714844 88.625 L 189.460938 97.796875 Z M 183.222656 86.742188 " clip-rule="nonzero"/></clipPath><clipPath id="b4b5f100bb"><path d="M 69.585938 77.683594 L 172.308594 19.710938 L 211.570312 89.277344 L 108.847656 147.25 Z M 69.585938 77.683594 " clip-rule="nonzero"/></clipPath><clipPath id="3a1ff855e8"><path d="M 199 89 L 204 89 L 204 90 L 199 90 Z M 199 89 " clip-rule="nonzero"/></clipPath><clipPath id="28bc292b8b"><path d="M 183.222656 86.742188 L 199.476562 77.570312 L 205.714844 88.625 L 189.460938 97.796875 Z M 183.222656 86.742188 " clip-rule="nonzero"/></clipPath><clipPath id="2778fbea2d"><path d="M 69.585938 77.683594 L 172.308594 19.710938 L 211.570312 89.277344 L 108.847656 147.25 Z M 69.585938 77.683594 " clip-rule="nonzero"/></clipPath></defs><g clip-path="url(#b32dfddb58)"><path fill="#ffffff" d="M 0.957031 0 L 413.792969 0 L 413.792969 150.054688 L 0.957031 150.054688 Z M 0.957031 0 " fill-opacity="1" fill-rule="nonzero"/><path fill="#ffffff" d="M 0.957031 0 L 413.792969 0 L 413.792969 142.589844 L 0.957031 142.589844 Z M 0.957031 0 " fill-opacity="1" fill-rule="nonzero"/><path fill="#211d28" d="M 0.957031 0 L 413.792969 0 L 413.792969 142.589844 L 0.957031 142.589844 Z M 0.957031 0 " fill-opacity="1" fill-rule="nonzero"/></g><g clip-path="url(#c278a94dbb)"><g clip-path="url(#231dfab927)"><g clip-path="url(#58576633af)"><path fill="#00d692" d="M 232.546875 83.9375 C 232.527344 83.9375 232.503906 83.941406 232.484375 83.945312 C 231.292969 84.261719 230.070312 84.566406 228.847656 84.859375 C 228.761719 84.878906 228.691406 84.933594 228.644531 85.007812 C 228.597656 85.082031 228.585938 85.167969 228.605469 85.253906 C 228.636719 85.394531 228.753906 85.496094 228.894531 85.507812 C 228.910156 85.507812 228.925781 85.507812 228.945312 85.507812 C 228.960938 85.507812 228.980469 85.503906 229 85.5 C 230.234375 85.203125 231.460938 84.894531 232.652344 84.582031 C 232.734375 84.5625 232.808594 84.507812 232.851562 84.433594 C 232.894531 84.355469 232.910156 84.265625 232.886719 84.183594 C 232.847656 84.03125 232.703125 83.925781 232.546875 83.9375 " fill-opacity="1" fill-rule="nonzero"/></g></g></g><g clip-path="url(#6cc5e3626d)"><g clip-path="url(#7aba8b3850)"><g clip-path="url(#44843975a5)"><path fill="#00d692" d="M 228.664062 52.753906 C 228.679688 52.753906 228.695312 52.753906 228.714844 52.753906 C 228.734375 52.753906 228.753906 52.75 228.777344 52.742188 C 228.859375 52.722656 228.929688 52.667969 228.976562 52.59375 C 229.019531 52.515625 229.03125 52.425781 229.011719 52.34375 C 228.691406 51.117188 228.511719 49.894531 228.472656 48.707031 C 228.46875 48.621094 228.433594 48.539062 228.367188 48.480469 C 228.304688 48.417969 228.21875 48.386719 228.132812 48.390625 L 228.121094 48.390625 C 227.945312 48.402344 227.808594 48.554688 227.816406 48.730469 C 227.855469 49.96875 228.046875 51.238281 228.375 52.507812 C 228.410156 52.644531 228.527344 52.742188 228.664062 52.753906 " fill-opacity="1" fill-rule="nonzero"/></g></g></g><g clip-path="url(#8735b90c60)"><g clip-path="url(#a0e28aa039)"><g clip-path="url(#ced4797664)"><path fill="#00d692" d="M 225.191406 85.695312 C 223.976562 85.957031 222.742188 86.214844 221.515625 86.457031 C 221.429688 86.472656 221.355469 86.523438 221.308594 86.59375 C 221.257812 86.667969 221.238281 86.757812 221.257812 86.84375 C 221.285156 86.984375 221.40625 87.09375 221.546875 87.105469 C 221.566406 87.109375 221.582031 87.109375 221.601562 87.105469 C 221.613281 87.105469 221.628906 87.105469 221.640625 87.101562 C 222.875 86.859375 224.113281 86.601562 225.328125 86.335938 C 225.503906 86.296875 225.617188 86.121094 225.582031 85.945312 C 225.542969 85.773438 225.367188 85.65625 225.191406 85.695312 " fill-opacity="1" fill-rule="nonzero"/></g></g></g><g clip-path="url(#b824a8297e)"><g clip-path="url(#14182e796f)"><g clip-path="url(#7119857405)"><path fill="#00d692" d="M 228.421875 45.3125 C 228.441406 45.316406 228.457031 45.320312 228.472656 45.320312 C 228.488281 45.320312 228.503906 45.320312 228.519531 45.320312 C 228.667969 45.3125 228.785156 45.210938 228.820312 45.066406 C 229.105469 43.859375 229.5625 42.722656 230.175781 41.6875 C 230.21875 41.609375 230.234375 41.523438 230.210938 41.4375 C 230.191406 41.351562 230.136719 41.28125 230.0625 41.238281 C 230.003906 41.203125 229.9375 41.1875 229.871094 41.191406 C 229.765625 41.199219 229.667969 41.257812 229.613281 41.351562 C 228.960938 42.441406 228.480469 43.644531 228.179688 44.917969 C 228.160156 45.003906 228.175781 45.089844 228.222656 45.164062 C 228.265625 45.242188 228.339844 45.292969 228.421875 45.3125 " fill-opacity="1" fill-rule="nonzero"/></g></g></g><g clip-path="url(#1c071175a7)"><g clip-path="url(#5f7a5c2727)"><g clip-path="url(#db4983e4b4)"><path fill="#00d692" d="M 217.828125 87.144531 C 216.597656 87.363281 215.351562 87.574219 214.125 87.765625 C 213.945312 87.792969 213.824219 87.960938 213.851562 88.140625 C 213.875 88.292969 213.996094 88.40625 214.144531 88.417969 C 214.164062 88.417969 214.179688 88.421875 214.195312 88.417969 C 214.203125 88.417969 214.214844 88.417969 214.226562 88.417969 C 215.460938 88.222656 216.710938 88.011719 217.941406 87.792969 C 218.027344 87.777344 218.101562 87.730469 218.152344 87.660156 C 218.203125 87.585938 218.222656 87.5 218.207031 87.414062 C 218.175781 87.234375 218.011719 87.113281 217.828125 87.144531 " fill-opacity="1" fill-rule="nonzero"/></g></g></g><g clip-path="url(#f4eba32161)"><g clip-path="url(#da755d9e25)"><g clip-path="url(#876fbedd75)"><path fill="#00d692" d="M 230.273438 55.804688 C 230.214844 55.679688 230.089844 55.609375 229.953125 55.617188 C 229.914062 55.621094 229.875 55.628906 229.835938 55.648438 C 229.671875 55.726562 229.601562 55.921875 229.679688 56.085938 C 230.203125 57.203125 230.839844 58.308594 231.570312 59.378906 C 231.625 59.460938 231.714844 59.511719 231.8125 59.519531 C 231.828125 59.523438 231.847656 59.523438 231.863281 59.519531 C 231.921875 59.515625 231.980469 59.496094 232.027344 59.464844 C 232.101562 59.414062 232.148438 59.339844 232.164062 59.253906 C 232.179688 59.167969 232.164062 59.078125 232.113281 59.007812 C 231.402344 57.96875 230.785156 56.890625 230.273438 55.804688 " fill-opacity="1" fill-rule="nonzero"/></g></g></g><g clip-path="url(#38879368ed)"><g clip-path="url(#6352f6db43)"><g clip-path="url(#ca7cc2b32c)"><g clip-path="url(#6fdb1a8fa2)"><g clip-path="url(#a56590d178)"><path fill="#00d692" d="M 206.71875 89.316406 Z M 210.777344 88.59375 C 210.800781 88.773438 210.675781 88.9375 210.496094 88.964844 C 208.421875 89.242188 207.101562 89.382812 206.742188 89.417969 L 206.726562 89.417969 C 206.707031 89.421875 206.6875 89.421875 206.671875 89.417969 C 206.511719 89.40625 206.386719 89.28125 206.375 89.125 C 206.355469 88.945312 206.488281 88.78125 206.667969 88.765625 C 206.683594 88.761719 208.042969 88.632812 210.410156 88.308594 C 210.589844 88.285156 210.753906 88.414062 210.777344 88.59375 " fill-opacity="1" fill-rule="nonzero"/></g></g></g></g></g><g clip-path="url(#de158fafa4)"><g clip-path="url(#58b8eb9bd9)"><g clip-path="url(#af12c98662)"><path fill="#00d692" d="M 246.304688 70.835938 C 247.445312 71.3125 248.632812 71.753906 249.839844 72.144531 C 249.863281 72.152344 249.886719 72.160156 249.910156 72.160156 C 249.929688 72.164062 249.945312 72.164062 249.960938 72.160156 C 250.097656 72.152344 250.210938 72.0625 250.253906 71.933594 C 250.28125 71.851562 250.273438 71.761719 250.234375 71.683594 C 250.195312 71.605469 250.125 71.546875 250.042969 71.519531 C 248.851562 71.132812 247.679688 70.699219 246.558594 70.226562 C 246.511719 70.207031 246.460938 70.199219 246.410156 70.203125 C 246.285156 70.210938 246.179688 70.289062 246.128906 70.402344 C 246.058594 70.570312 246.136719 70.765625 246.304688 70.835938 " fill-opacity="1" fill-rule="nonzero"/></g></g></g><g clip-path="url(#fac850cdae)"><g clip-path="url(#71f9bca2f7)"><g clip-path="url(#dfb2c87d0a)"><path fill="#00d692" d="M 253.589844 44.054688 C 253.640625 44.15625 253.738281 44.222656 253.851562 44.230469 C 253.867188 44.234375 253.886719 44.234375 253.902344 44.230469 C 253.945312 44.230469 253.988281 44.214844 254.03125 44.195312 C 254.191406 44.113281 254.253906 43.914062 254.171875 43.75 C 253.773438 42.972656 253.101562 41.78125 252.152344 40.523438 C 252.085938 40.433594 251.980469 40.386719 251.871094 40.390625 C 251.804688 40.398438 251.746094 40.417969 251.695312 40.457031 C 251.550781 40.566406 251.519531 40.773438 251.628906 40.917969 C 252.546875 42.136719 253.199219 43.296875 253.589844 44.054688 " fill-opacity="1" fill-rule="nonzero"/></g></g></g><g clip-path="url(#900350ca6b)"><g clip-path="url(#8a45bac03b)"><g clip-path="url(#ec04e43f55)"><path fill="#00d692" d="M 254.546875 42.753906 C 254.570312 42.761719 254.59375 42.765625 254.613281 42.765625 C 254.628906 42.769531 254.648438 42.769531 254.664062 42.765625 C 254.800781 42.757812 254.917969 42.664062 254.957031 42.53125 C 255.277344 41.433594 255.875 40.390625 256.738281 39.425781 C 256.859375 39.292969 256.847656 39.082031 256.710938 38.960938 C 256.644531 38.902344 256.558594 38.875 256.472656 38.878906 C 256.386719 38.886719 256.304688 38.925781 256.25 38.988281 C 255.320312 40.023438 254.675781 41.15625 254.328125 42.347656 C 254.277344 42.519531 254.375 42.703125 254.546875 42.753906 " fill-opacity="1" fill-rule="nonzero"/></g></g></g><g clip-path="url(#bbbdc2cd3d)"><g clip-path="url(#de3081d052)"><g clip-path="url(#3de509f186)"><path fill="#00d692" d="M 259.375 37.1875 C 259.390625 37.191406 259.410156 37.191406 259.425781 37.191406 C 259.476562 37.1875 259.527344 37.171875 259.570312 37.144531 C 260.601562 36.535156 261.734375 36.046875 262.933594 35.6875 C 263.105469 35.636719 263.207031 35.453125 263.15625 35.28125 C 263.109375 35.128906 262.972656 35.035156 262.820312 35.042969 C 262.792969 35.046875 262.769531 35.050781 262.746094 35.058594 C 261.496094 35.429688 260.316406 35.941406 259.238281 36.578125 C 259.082031 36.667969 259.03125 36.871094 259.121094 37.027344 C 259.175781 37.121094 259.269531 37.179688 259.375 37.1875 " fill-opacity="1" fill-rule="nonzero"/></g></g></g><g clip-path="url(#887c0c500a)"><g clip-path="url(#75c3e8eb67)"><g clip-path="url(#02fe40f2da)"><path fill="#00d692" d="M 273.488281 36.777344 C 274.492188 37.453125 275.335938 38.316406 276 39.339844 C 276.054688 39.425781 276.144531 39.480469 276.246094 39.488281 C 276.261719 39.492188 276.277344 39.492188 276.296875 39.492188 C 276.351562 39.484375 276.40625 39.46875 276.453125 39.4375 C 276.605469 39.339844 276.648438 39.132812 276.550781 38.984375 C 275.839844 37.882812 274.933594 36.957031 273.851562 36.230469 C 273.792969 36.191406 273.722656 36.171875 273.648438 36.175781 C 273.546875 36.183594 273.457031 36.238281 273.398438 36.320312 C 273.296875 36.472656 273.335938 36.675781 273.488281 36.777344 " fill-opacity="1" fill-rule="nonzero"/></g></g></g><g clip-path="url(#71c61d5d44)"><g clip-path="url(#c94c0b7579)"><g clip-path="url(#f9e6414489)"><path fill="#00d692" d="M 238.882812 35.597656 C 238.898438 35.601562 238.914062 35.601562 238.929688 35.597656 C 238.949219 35.597656 238.96875 35.59375 238.988281 35.589844 C 240.222656 35.292969 241.449219 35.191406 242.605469 35.289062 C 242.78125 35.304688 242.945312 35.148438 242.960938 34.964844 C 242.976562 34.800781 242.863281 34.605469 242.675781 34.582031 L 242.65625 34.582031 C 242.15625 34.539062 241.628906 34.535156 241.089844 34.570312 C 240.378906 34.617188 239.621094 34.738281 238.839844 34.925781 C 238.753906 34.945312 238.679688 35.003906 238.632812 35.085938 C 238.589844 35.164062 238.574219 35.257812 238.59375 35.339844 C 238.628906 35.480469 238.746094 35.585938 238.882812 35.597656 " fill-opacity="1" fill-rule="nonzero"/></g></g></g><g clip-path="url(#5c7aea03ff)"><g clip-path="url(#e3d23b3078)"><g clip-path="url(#25d27c61f6)"><path fill="#00d692" d="M 234.664062 37.355469 C 234.964844 37.183594 235.261719 37.023438 235.554688 36.878906 C 235.71875 36.796875 235.78125 36.597656 235.703125 36.4375 C 235.644531 36.316406 235.519531 36.246094 235.386719 36.253906 C 235.34375 36.257812 235.300781 36.269531 235.261719 36.289062 C 234.957031 36.445312 234.644531 36.609375 234.339844 36.78125 C 233.515625 37.25 232.75 37.792969 232.066406 38.394531 C 231.933594 38.515625 231.917969 38.722656 232.039062 38.859375 C 232.09375 38.925781 232.167969 38.964844 232.253906 38.96875 C 232.269531 38.972656 232.289062 38.972656 232.304688 38.972656 C 232.378906 38.964844 232.445312 38.9375 232.5 38.890625 C 233.148438 38.316406 233.878906 37.800781 234.664062 37.355469 " fill-opacity="1" fill-rule="nonzero"/></g></g></g><g clip-path="url(#9b04b1cfea)"><g clip-path="url(#34b2028c22)"><g clip-path="url(#45b8650fd4)"><path fill="#00d692" d="M 253.46875 73.164062 C 254.667969 73.453125 255.910156 73.707031 257.160156 73.914062 C 257.171875 73.914062 257.179688 73.914062 257.183594 73.914062 C 257.203125 73.917969 257.21875 73.917969 257.234375 73.917969 C 257.386719 73.90625 257.511719 73.792969 257.539062 73.640625 C 257.566406 73.464844 257.445312 73.292969 257.269531 73.265625 C 256.039062 73.058594 254.8125 72.8125 253.621094 72.527344 C 253.589844 72.519531 253.554688 72.515625 253.523438 72.515625 C 253.378906 72.527344 253.257812 72.628906 253.226562 72.769531 C 253.183594 72.945312 253.292969 73.125 253.46875 73.164062 " fill-opacity="1" fill-rule="nonzero"/></g></g></g><g clip-path="url(#31429572d5)"><g clip-path="url(#140b244b8e)"><g clip-path="url(#5082b268e7)"><path fill="#00d692" d="M 246.09375 36.21875 C 247.148438 36.703125 248.171875 37.375 249.140625 38.214844 C 249.191406 38.261719 249.257812 38.289062 249.324219 38.292969 C 249.339844 38.296875 249.359375 38.296875 249.375 38.292969 C 249.464844 38.289062 249.542969 38.25 249.601562 38.183594 C 249.722656 38.046875 249.707031 37.835938 249.570312 37.71875 C 248.558594 36.835938 247.480469 36.128906 246.371094 35.621094 C 246.320312 35.597656 246.265625 35.589844 246.210938 35.59375 C 246.089844 35.601562 245.984375 35.671875 245.933594 35.785156 C 245.898438 35.863281 245.894531 35.953125 245.921875 36.035156 C 245.953125 36.117188 246.015625 36.183594 246.09375 36.21875 " fill-opacity="1" fill-rule="nonzero"/></g></g></g><g clip-path="url(#b396850382)"><g clip-path="url(#b7bc537dab)"><g clip-path="url(#b94b33421d)"><path fill="#00d692" d="M 276.71875 53.902344 C 276.765625 53.980469 276.835938 54.035156 276.917969 54.058594 C 276.941406 54.0625 276.957031 54.066406 276.976562 54.066406 C 276.992188 54.070312 277.007812 54.070312 277.027344 54.066406 C 277.164062 54.058594 277.285156 53.960938 277.320312 53.824219 C 277.667969 52.539062 277.9375 51.292969 278.121094 50.121094 C 278.136719 50.03125 278.117188 49.945312 278.0625 49.875 C 278.011719 49.804688 277.9375 49.757812 277.851562 49.742188 C 277.828125 49.738281 277.800781 49.738281 277.777344 49.738281 C 277.625 49.75 277.496094 49.867188 277.476562 50.019531 C 277.292969 51.171875 277.027344 52.394531 276.6875 53.65625 C 276.664062 53.738281 276.675781 53.828125 276.71875 53.902344 " fill-opacity="1" fill-rule="nonzero"/></g></g></g><g clip-path="url(#c97608e55a)"><g clip-path="url(#cf799d1eb1)"><g clip-path="url(#b05fe4d8fb)"><path fill="#00d692" d="M 277.628906 42.285156 C 277.453125 42.328125 277.34375 42.507812 277.386719 42.683594 C 277.648438 43.792969 277.78125 45.019531 277.78125 46.332031 C 277.78125 46.5 277.910156 46.640625 278.082031 46.65625 C 278.089844 46.65625 278.097656 46.660156 278.109375 46.660156 C 278.117188 46.660156 278.121094 46.660156 278.128906 46.65625 C 278.300781 46.644531 278.4375 46.5 278.4375 46.328125 C 278.4375 44.96875 278.300781 43.6875 278.023438 42.53125 C 277.980469 42.355469 277.808594 42.242188 277.628906 42.285156 " fill-opacity="1" fill-rule="nonzero"/></g></g></g><g clip-path="url(#ea3aa3a1e1)"><g clip-path="url(#4d2e349804)"><g clip-path="url(#e220bec042)"><path fill="#00d692" d="M 276.105469 57.171875 C 276.074219 57.089844 276.011719 57.027344 275.933594 56.992188 C 275.882812 56.972656 275.832031 56.960938 275.78125 56.964844 C 275.65625 56.972656 275.550781 57.050781 275.5 57.164062 C 275.027344 58.273438 274.453125 59.375 273.796875 60.441406 C 273.75 60.515625 273.734375 60.605469 273.757812 60.691406 C 273.777344 60.777344 273.828125 60.847656 273.902344 60.894531 C 273.945312 60.921875 273.996094 60.9375 274.046875 60.941406 C 274.0625 60.945312 274.082031 60.945312 274.097656 60.941406 C 274.203125 60.933594 274.296875 60.878906 274.355469 60.789062 C 275.03125 59.691406 275.617188 58.558594 276.105469 57.421875 C 276.136719 57.34375 276.140625 57.253906 276.105469 57.171875 " fill-opacity="1" fill-rule="nonzero"/></g></g></g><g clip-path="url(#9fb9ed541a)"><g clip-path="url(#32fb6ae78e)"><g clip-path="url(#3b3775b31a)"><path fill="#00d692" d="M 236.652344 64.976562 C 236.703125 65.023438 236.765625 65.050781 236.832031 65.054688 C 236.851562 65.054688 236.867188 65.058594 236.886719 65.054688 C 236.972656 65.050781 237.054688 65.007812 237.113281 64.941406 C 237.230469 64.800781 237.214844 64.59375 237.078125 64.476562 C 236.125 63.664062 235.226562 62.796875 234.414062 61.90625 C 234.34375 61.832031 234.25 61.792969 234.148438 61.796875 C 234.074219 61.804688 234.003906 61.835938 233.949219 61.882812 C 233.816406 62.007812 233.804688 62.214844 233.925781 62.347656 C 234.761719 63.261719 235.675781 64.148438 236.652344 64.976562 " fill-opacity="1" fill-rule="nonzero"/></g></g></g><g clip-path="url(#43c9cec487)"><g clip-path="url(#65efc9d1e5)"><g clip-path="url(#43e5793052)"><path fill="#00d692" d="M 270.320312 34.722656 C 269.121094 34.441406 267.839844 34.335938 266.503906 34.402344 C 266.328125 34.414062 266.191406 34.570312 266.199219 34.746094 C 266.207031 34.910156 266.335938 35.042969 266.496094 35.058594 C 266.511719 35.058594 266.527344 35.058594 266.542969 35.058594 C 267.808594 34.996094 269.03125 35.097656 270.171875 35.363281 C 270.203125 35.371094 270.234375 35.375 270.269531 35.371094 C 270.414062 35.363281 270.53125 35.261719 270.566406 35.117188 C 270.585938 35.03125 270.570312 34.945312 270.523438 34.867188 C 270.480469 34.792969 270.40625 34.742188 270.320312 34.722656 " fill-opacity="1" fill-rule="nonzero"/></g></g></g><g clip-path="url(#3e8663a2dd)"><g clip-path="url(#b6ff6c8722)"><g clip-path="url(#40e21c31f8)"><path fill="#00d692" d="M 286.878906 71.652344 C 285.652344 71.941406 284.425781 72.203125 283.226562 72.4375 C 283.140625 72.457031 283.066406 72.503906 283.019531 72.578125 C 282.96875 72.652344 282.949219 72.738281 282.96875 72.824219 C 282.996094 72.96875 283.113281 73.078125 283.257812 73.089844 C 283.277344 73.089844 283.292969 73.089844 283.3125 73.089844 C 283.324219 73.089844 283.335938 73.085938 283.351562 73.085938 C 284.5625 72.847656 285.796875 72.582031 287.027344 72.292969 C 287.113281 72.273438 287.1875 72.222656 287.234375 72.148438 C 287.277344 72.074219 287.292969 71.984375 287.273438 71.898438 C 287.234375 71.722656 287.0625 71.613281 286.878906 71.652344 " fill-opacity="1" fill-rule="nonzero"/></g></g></g><g clip-path="url(#37568f5c6f)"><g clip-path="url(#ac0ef8e8bf)"><g clip-path="url(#643da04a71)"><path fill="#00d692" d="M 308.574219 64.742188 C 308.519531 64.613281 308.390625 64.53125 308.25 64.542969 C 308.214844 64.542969 308.179688 64.554688 308.144531 64.566406 C 306.988281 65.058594 305.824219 65.539062 304.683594 65.988281 C 304.601562 66.023438 304.539062 66.085938 304.503906 66.164062 C 304.46875 66.246094 304.46875 66.335938 304.5 66.417969 C 304.542969 66.535156 304.652344 66.613281 304.773438 66.625 C 304.792969 66.625 304.808594 66.625 304.824219 66.625 C 304.859375 66.621094 304.890625 66.613281 304.925781 66.601562 C 306.066406 66.148438 307.238281 65.667969 308.402344 65.171875 C 308.566406 65.101562 308.644531 64.910156 308.574219 64.742188 " fill-opacity="1" fill-rule="nonzero"/></g></g></g><g clip-path="url(#831b51826d)"><g clip-path="url(#84a899241e)"><g clip-path="url(#96c86fc0b1)"><path fill="#00d692" d="M 301.28125 67.304688 C 301.25 67.308594 301.21875 67.316406 301.1875 67.324219 C 300.015625 67.757812 298.828125 68.175781 297.660156 68.566406 C 297.578125 68.597656 297.507812 68.65625 297.46875 68.734375 C 297.429688 68.8125 297.425781 68.902344 297.453125 68.984375 C 297.492188 69.109375 297.605469 69.195312 297.734375 69.207031 C 297.75 69.210938 297.769531 69.210938 297.785156 69.207031 C 297.8125 69.207031 297.839844 69.199219 297.867188 69.191406 C 299.023438 68.804688 300.21875 68.382812 301.414062 67.945312 C 301.496094 67.914062 301.5625 67.851562 301.597656 67.773438 C 301.636719 67.695312 301.640625 67.605469 301.609375 67.523438 C 301.558594 67.386719 301.421875 67.296875 301.28125 67.304688 " fill-opacity="1" fill-rule="nonzero"/></g></g></g><g clip-path="url(#8c74d303bd)"><g clip-path="url(#b33642e42b)"><g clip-path="url(#8ac369bd46)"><path fill="#00d692" d="M 294.171875 69.695312 C 294.144531 69.695312 294.121094 69.703125 294.097656 69.707031 C 292.886719 70.078125 291.679688 70.425781 290.503906 70.738281 C 290.328125 70.789062 290.226562 70.96875 290.273438 71.144531 C 290.308594 71.277344 290.421875 71.375 290.558594 71.386719 C 290.578125 71.386719 290.59375 71.386719 290.613281 71.386719 C 290.632812 71.382812 290.652344 71.382812 290.675781 71.375 C 291.863281 71.054688 293.078125 70.707031 294.289062 70.339844 C 294.460938 70.285156 294.558594 70.101562 294.507812 69.929688 C 294.460938 69.78125 294.324219 69.683594 294.171875 69.695312 " fill-opacity="1" fill-rule="nonzero"/></g></g></g><g clip-path="url(#4893a8a671)"><g clip-path="url(#1ae5ea04a5)"><g clip-path="url(#f8c924274d)"><path fill="#00d692" d="M 271.878906 63.335938 C 271.789062 63.339844 271.703125 63.382812 271.644531 63.453125 C 270.890625 64.382812 270.046875 65.304688 269.140625 66.195312 C 269.011719 66.324219 269.011719 66.53125 269.136719 66.660156 C 269.191406 66.71875 269.265625 66.75 269.34375 66.757812 C 269.359375 66.761719 269.375 66.761719 269.394531 66.757812 C 269.472656 66.753906 269.546875 66.722656 269.601562 66.664062 C 270.523438 65.757812 271.382812 64.816406 272.152344 63.871094 C 272.269531 63.730469 272.25 63.523438 272.109375 63.40625 C 272.042969 63.355469 271.960938 63.328125 271.878906 63.335938 " fill-opacity="1" fill-rule="nonzero"/></g></g></g><g clip-path="url(#c279adde6d)"><g clip-path="url(#17105cec49)"><g clip-path="url(#f3cda4c178)"><path fill="#00d692" d="M 275.902344 74.128906 Z M 279.921875 73.359375 C 279.949219 73.539062 279.824219 73.707031 279.648438 73.734375 C 278.394531 73.929688 277.140625 74.097656 275.917969 74.230469 L 275.90625 74.234375 C 275.890625 74.234375 275.871094 74.234375 275.855469 74.234375 C 275.699219 74.21875 275.574219 74.097656 275.558594 73.941406 C 275.539062 73.761719 275.667969 73.597656 275.847656 73.578125 C 277.0625 73.441406 278.304688 73.277344 279.546875 73.085938 C 279.558594 73.082031 279.566406 73.082031 279.578125 73.082031 C 279.746094 73.070312 279.894531 73.1875 279.921875 73.359375 " fill-opacity="1" fill-rule="nonzero"/></g></g></g><g clip-path="url(#a2f907bf4e)"><g clip-path="url(#8ccb88aed4)"><g clip-path="url(#2ab5c24db4)"><path fill="#00d692" d="M 243.023438 69.25 C 243.039062 69.25 243.058594 69.253906 243.074219 69.25 C 243.1875 69.242188 243.289062 69.179688 243.339844 69.078125 C 243.425781 68.917969 243.367188 68.71875 243.207031 68.632812 C 242.105469 68.039062 241.035156 67.398438 240.027344 66.71875 C 239.96875 66.675781 239.898438 66.65625 239.824219 66.664062 C 239.722656 66.667969 239.628906 66.722656 239.574219 66.808594 C 239.472656 66.957031 239.511719 67.164062 239.660156 67.265625 C 240.683594 67.957031 241.773438 68.609375 242.898438 69.210938 C 242.9375 69.234375 242.980469 69.246094 243.023438 69.25 " fill-opacity="1" fill-rule="nonzero"/></g></g></g><g clip-path="url(#0834eb7355)"><g clip-path="url(#bc0c2115d2)"><g clip-path="url(#b8c3518893)"><path fill="#00d692" d="M 253.777344 76.441406 C 253.738281 76.445312 253.695312 76.453125 253.660156 76.472656 C 252.554688 76.996094 251.40625 77.507812 250.242188 78.003906 C 250.078125 78.074219 250 78.265625 250.070312 78.433594 C 250.117188 78.546875 250.21875 78.625 250.34375 78.632812 C 250.359375 78.636719 250.375 78.636719 250.394531 78.636719 C 250.429688 78.632812 250.464844 78.625 250.5 78.609375 C 251.675781 78.109375 252.832031 77.589844 253.9375 77.066406 C 254.019531 77.027344 254.078125 76.960938 254.109375 76.878906 C 254.136719 76.796875 254.132812 76.707031 254.097656 76.628906 C 254.039062 76.503906 253.914062 76.433594 253.777344 76.441406 " fill-opacity="1" fill-rule="nonzero"/></g></g></g><g clip-path="url(#e0dcff707f)"><g clip-path="url(#defc5b8afe)"><g clip-path="url(#3c17aafd25)"><path fill="#00d692" d="M 246.859375 79.386719 C 246.828125 79.386719 246.796875 79.394531 246.765625 79.40625 C 245.628906 79.84375 244.445312 80.273438 243.246094 80.691406 C 243.078125 80.75 242.984375 80.9375 243.042969 81.109375 C 243.085938 81.230469 243.195312 81.316406 243.324219 81.328125 C 243.339844 81.332031 243.359375 81.332031 243.375 81.328125 C 243.40625 81.328125 243.433594 81.320312 243.460938 81.3125 C 244.671875 80.890625 245.859375 80.457031 247 80.023438 C 247.078125 79.988281 247.144531 79.929688 247.179688 79.847656 C 247.21875 79.769531 247.21875 79.679688 247.1875 79.597656 C 247.136719 79.460938 247.003906 79.375 246.859375 79.386719 " fill-opacity="1" fill-rule="nonzero"/></g></g></g><g clip-path="url(#118b60ec1a)"><g clip-path="url(#03681e385b)"><g clip-path="url(#b0f4173392)"><path fill="#00d692" d="M 239.765625 81.855469 C 239.742188 81.855469 239.714844 81.863281 239.691406 81.871094 C 238.515625 82.242188 237.308594 82.605469 236.101562 82.953125 C 235.925781 83.003906 235.828125 83.183594 235.875 83.359375 C 235.914062 83.492188 236.027344 83.585938 236.160156 83.597656 C 236.175781 83.597656 236.195312 83.597656 236.210938 83.597656 C 236.234375 83.597656 236.257812 83.589844 236.28125 83.585938 C 237.5 83.234375 238.710938 82.867188 239.886719 82.496094 C 239.96875 82.472656 240.039062 82.414062 240.078125 82.335938 C 240.121094 82.257812 240.128906 82.167969 240.101562 82.085938 C 240.054688 81.9375 239.917969 81.84375 239.765625 81.855469 " fill-opacity="1" fill-rule="nonzero"/></g></g></g><g clip-path="url(#db00317904)"><g clip-path="url(#958c103d83)"><g clip-path="url(#5c05f9e573)"><path fill="#00d692" d="M 264.675781 74.007812 C 263.40625 73.957031 262.144531 73.847656 260.957031 73.742188 L 260.945312 73.742188 C 260.769531 73.730469 260.617188 73.871094 260.597656 74.042969 C 260.582031 74.222656 260.714844 74.394531 260.890625 74.410156 C 261.03125 74.425781 261.167969 74.4375 261.304688 74.449219 C 261.394531 74.453125 261.484375 74.460938 261.574219 74.46875 C 262.558594 74.558594 263.589844 74.621094 264.648438 74.664062 C 264.660156 74.664062 264.671875 74.664062 264.683594 74.664062 C 264.851562 74.652344 264.984375 74.515625 264.992188 74.347656 C 264.996094 74.257812 264.964844 74.175781 264.902344 74.113281 C 264.84375 74.046875 264.761719 74.007812 264.675781 74.007812 " fill-opacity="1" fill-rule="nonzero"/></g></g></g><g clip-path="url(#c259994bb9)"><g clip-path="url(#79a12ca213)"><g clip-path="url(#543bc0639e)"><path fill="#00d692" d="M 260.707031 73.0625 C 260.640625 72.957031 260.523438 72.894531 260.402344 72.902344 C 260.351562 72.90625 260.300781 72.921875 260.253906 72.949219 C 259.226562 73.574219 258.132812 74.191406 257.003906 74.792969 C 256.84375 74.878906 256.78125 75.078125 256.867188 75.238281 C 256.917969 75.335938 257.015625 75.402344 257.128906 75.414062 C 257.144531 75.414062 257.160156 75.414062 257.175781 75.414062 C 257.226562 75.410156 257.269531 75.398438 257.308594 75.375 C 258.445312 74.773438 259.546875 74.144531 260.59375 73.515625 C 260.746094 73.421875 260.800781 73.21875 260.707031 73.0625 " fill-opacity="1" fill-rule="nonzero"/></g></g></g><g clip-path="url(#6f956e6537)"><g clip-path="url(#cf25e85d3e)"><g clip-path="url(#778025c27f)"><path fill="#00d692" d="M 266.554688 68.605469 C 266.484375 68.609375 266.421875 68.632812 266.367188 68.675781 C 265.4375 69.4375 264.433594 70.191406 263.386719 70.917969 C 263.316406 70.96875 263.269531 71.046875 263.253906 71.132812 C 263.238281 71.21875 263.253906 71.304688 263.304688 71.378906 C 263.359375 71.457031 263.449219 71.507812 263.546875 71.515625 C 263.5625 71.519531 263.582031 71.519531 263.597656 71.519531 C 263.65625 71.515625 263.714844 71.496094 263.761719 71.460938 C 264.820312 70.722656 265.835938 69.957031 266.78125 69.1875 C 266.921875 69.070312 266.941406 68.863281 266.828125 68.722656 C 266.761719 68.640625 266.660156 68.597656 266.554688 68.605469 " fill-opacity="1" fill-rule="nonzero"/></g></g></g><g clip-path="url(#ace0fbd1c4)"><g clip-path="url(#267ca931f9)"><g clip-path="url(#2c84b88f34)"><path fill="#00d692" d="M 272.164062 74.457031 Z M 272.367188 73.984375 C 272.433594 74.042969 272.472656 74.117188 272.476562 74.207031 C 272.488281 74.386719 272.351562 74.535156 272.171875 74.546875 L 272.167969 74.546875 C 270.910156 74.632812 269.644531 74.6875 268.410156 74.707031 C 268.398438 74.707031 268.386719 74.714844 268.375 74.714844 C 268.210938 74.699219 268.082031 74.558594 268.078125 74.390625 C 268.078125 74.210938 268.222656 74.058594 268.402344 74.058594 C 269.628906 74.039062 270.882812 73.988281 272.128906 73.90625 C 272.21875 73.902344 272.300781 73.925781 272.367188 73.984375 " fill-opacity="1" fill-rule="nonzero"/></g></g></g><g clip-path="url(#f1038cd397)"><g clip-path="url(#885f4fa7b1)"><g clip-path="url(#0805a1e721)"><path fill="#00d692" d="M 303.453125 52.03125 L 311.753906 53.90625 L 337.042969 53.125 Z M 303.453125 52.03125 " fill-opacity="1" fill-rule="nonzero"/></g></g></g><g clip-path="url(#fc551cfdc3)"><g clip-path="url(#8e9e04ad23)"><g clip-path="url(#ec076d4324)"><path fill="#00d692" d="M 315.015625 57.070312 L 317.199219 62.328125 C 317.199219 62.332031 317.203125 62.335938 317.203125 62.339844 L 320.433594 70.113281 L 343.925781 53.5 L 315.015625 57.070312 " fill-opacity="1" fill-rule="nonzero"/></g></g></g><g clip-path="url(#ca96d64b91)"><g clip-path="url(#1e40d4bd5c)"><g clip-path="url(#b902b37bb2)"><path fill="#00d692" d="M 309.898438 63.855469 L 314.449219 56.730469 C 314.449219 56.730469 314.453125 56.726562 314.453125 56.726562 C 314.457031 56.722656 314.457031 56.722656 314.460938 56.71875 C 314.46875 56.707031 314.476562 56.695312 314.484375 56.6875 C 314.488281 56.683594 314.492188 56.683594 314.492188 56.679688 C 314.496094 56.675781 314.5 56.671875 314.503906 56.671875 C 314.507812 56.667969 314.511719 56.667969 314.511719 56.664062 C 314.515625 56.660156 314.519531 56.660156 314.523438 56.65625 C 314.527344 56.652344 314.53125 56.652344 314.535156 56.652344 C 314.539062 56.648438 314.539062 56.648438 314.542969 56.644531 C 314.550781 56.640625 314.558594 56.636719 314.566406 56.632812 C 314.570312 56.632812 314.574219 56.628906 314.578125 56.628906 C 314.59375 56.625 314.613281 56.621094 314.628906 56.617188 L 339.476562 53.546875 L 311.929688 54.402344 L 309.898438 63.855469 " fill-opacity="1" fill-rule="nonzero"/></g></g></g><g clip-path="url(#593ca03380)"><g clip-path="url(#770c7e6366)"><g clip-path="url(#d7dbdfe2ce)"><path fill="#00d692" d="M 309.96875 64.667969 L 316.644531 62.289062 L 314.613281 57.398438 Z M 309.96875 64.667969 " fill-opacity="1" fill-rule="nonzero"/></g></g></g><g clip-path="url(#8b05caca46)"><g clip-path="url(#cb99c7b915)"><g clip-path="url(#644308d548)"><path fill="#00d692" d="M 72.117188 84.820312 C 72.136719 84.820312 72.160156 84.820312 72.179688 84.820312 C 73.40625 84.925781 74.667969 85.019531 75.917969 85.097656 C 76.007812 85.101562 76.085938 85.144531 76.144531 85.207031 C 76.203125 85.273438 76.234375 85.359375 76.226562 85.445312 C 76.21875 85.585938 76.121094 85.707031 75.984375 85.746094 C 75.96875 85.746094 75.953125 85.75 75.9375 85.753906 C 75.917969 85.753906 75.898438 85.753906 75.878906 85.753906 C 74.613281 85.675781 73.351562 85.582031 72.125 85.476562 C 72.039062 85.46875 71.957031 85.429688 71.902344 85.359375 C 71.847656 85.292969 71.816406 85.210938 71.824219 85.121094 C 71.839844 84.964844 71.960938 84.839844 72.117188 84.820312 " fill-opacity="1" fill-rule="nonzero"/></g></g></g><g clip-path="url(#8ea7711a0a)"><g clip-path="url(#14bd0a7063)"><g clip-path="url(#d28b32bbf5)"><path fill="#00d692" d="M 79.667969 85.292969 C 80.910156 85.347656 82.167969 85.390625 83.417969 85.417969 C 83.503906 85.417969 83.585938 85.453125 83.648438 85.519531 C 83.707031 85.582031 83.742188 85.664062 83.738281 85.753906 C 83.734375 85.898438 83.636719 86.027344 83.496094 86.0625 C 83.480469 86.070312 83.464844 86.070312 83.445312 86.074219 C 83.433594 86.074219 83.417969 86.074219 83.402344 86.074219 C 82.148438 86.046875 80.882812 86.003906 79.640625 85.953125 C 79.460938 85.945312 79.316406 85.789062 79.324219 85.609375 C 79.332031 85.429688 79.484375 85.285156 79.667969 85.292969 " fill-opacity="1" fill-rule="nonzero"/></g></g></g><g clip-path="url(#40e0a6cb80)"><g clip-path="url(#3f0aa86680)"><g clip-path="url(#c0b8cf484f)"><path fill="#00d692" d="M 87.167969 85.464844 C 88.417969 85.472656 89.683594 85.464844 90.925781 85.445312 C 91.105469 85.441406 91.253906 85.585938 91.257812 85.765625 C 91.261719 85.917969 91.160156 86.050781 91.015625 86.089844 C 90.996094 86.09375 90.984375 86.097656 90.964844 86.101562 C 90.957031 86.101562 90.945312 86.101562 90.9375 86.101562 C 89.683594 86.121094 88.417969 86.128906 87.167969 86.125 C 87.082031 86.125 87 86.089844 86.9375 86.027344 C 86.875 85.964844 86.839844 85.882812 86.839844 85.792969 C 86.839844 85.613281 86.980469 85.464844 87.167969 85.464844 " fill-opacity="1" fill-rule="nonzero"/></g></g></g><g clip-path="url(#0c96ccfd65)"><g clip-path="url(#cc9c7b7877)"><g clip-path="url(#d7345f3e8e)"><path fill="#00d692" d="M 95 85.570312 C 95.019531 85.566406 95.042969 85.566406 95.0625 85.566406 C 96.289062 85.671875 97.546875 85.765625 98.800781 85.84375 C 98.890625 85.851562 98.96875 85.890625 99.027344 85.953125 C 99.085938 86.019531 99.113281 86.105469 99.109375 86.191406 C 99.101562 86.335938 99.003906 86.453125 98.867188 86.492188 C 98.851562 86.496094 98.835938 86.496094 98.816406 86.5 C 98.800781 86.5 98.78125 86.5 98.761719 86.5 C 97.496094 86.421875 96.234375 86.328125 95.007812 86.222656 C 94.921875 86.214844 94.839844 86.175781 94.785156 86.109375 C 94.726562 86.039062 94.699219 85.957031 94.707031 85.867188 C 94.71875 85.710938 94.84375 85.585938 95 85.570312 " fill-opacity="1" fill-rule="nonzero"/></g></g></g><g clip-path="url(#ec5ad48fbe)"><g clip-path="url(#f1060363a1)"><g clip-path="url(#8d41a5c8d1)"><path fill="#00d692" d="M 102.546875 86.042969 C 103.789062 86.09375 105.050781 86.136719 106.296875 86.164062 C 106.386719 86.164062 106.46875 86.203125 106.527344 86.265625 C 106.589844 86.328125 106.621094 86.414062 106.621094 86.5 C 106.617188 86.644531 106.515625 86.773438 106.378906 86.808594 C 106.363281 86.816406 106.34375 86.816406 106.328125 86.820312 C 106.3125 86.820312 106.300781 86.820312 106.285156 86.820312 C 105.03125 86.792969 103.761719 86.75 102.523438 86.699219 C 102.339844 86.691406 102.199219 86.535156 102.207031 86.355469 C 102.214844 86.179688 102.367188 86.035156 102.546875 86.042969 " fill-opacity="1" fill-rule="nonzero"/></g></g></g><g clip-path="url(#ccfc9338c7)"><g clip-path="url(#99a6e96bf1)"><g clip-path="url(#744058b7f0)"><path fill="#00d692" d="M 110.050781 86.210938 C 111.300781 86.21875 112.5625 86.210938 113.804688 86.191406 C 113.988281 86.1875 114.136719 86.332031 114.140625 86.511719 C 114.140625 86.664062 114.042969 86.796875 113.898438 86.835938 C 113.878906 86.839844 113.863281 86.84375 113.847656 86.847656 C 113.839844 86.847656 113.828125 86.847656 113.816406 86.847656 C 112.566406 86.867188 111.296875 86.875 110.050781 86.871094 C 109.964844 86.871094 109.878906 86.835938 109.816406 86.773438 C 109.757812 86.710938 109.722656 86.628906 109.722656 86.539062 C 109.722656 86.359375 109.863281 86.210938 110.050781 86.210938 " fill-opacity="1" fill-rule="nonzero"/></g></g></g><g clip-path="url(#849ab7645f)"><g clip-path="url(#ea47201ac9)"><g clip-path="url(#70b931f0dc)"><path fill="#00d692" d="M 117.878906 86.316406 C 117.902344 86.3125 117.921875 86.3125 117.941406 86.3125 C 119.171875 86.417969 120.429688 86.511719 121.683594 86.589844 C 121.769531 86.597656 121.851562 86.636719 121.910156 86.699219 C 121.96875 86.769531 121.996094 86.851562 121.992188 86.9375 C 121.984375 87.082031 121.886719 87.199219 121.75 87.238281 C 121.734375 87.242188 121.714844 87.242188 121.699219 87.246094 C 121.679688 87.246094 121.664062 87.25 121.644531 87.246094 C 120.378906 87.167969 119.113281 87.074219 117.890625 86.96875 C 117.800781 86.960938 117.722656 86.921875 117.667969 86.855469 C 117.609375 86.789062 117.582031 86.703125 117.589844 86.613281 C 117.601562 86.457031 117.722656 86.332031 117.878906 86.316406 " fill-opacity="1" fill-rule="nonzero"/></g></g></g><g clip-path="url(#36976812a3)"><g clip-path="url(#8687f9351c)"><g clip-path="url(#4c2557c9f0)"><path fill="#00d692" d="M 125.429688 86.789062 C 126.671875 86.839844 127.933594 86.882812 129.179688 86.910156 C 129.265625 86.910156 129.347656 86.949219 129.410156 87.011719 C 129.46875 87.074219 129.503906 87.160156 129.5 87.246094 C 129.5 87.390625 129.398438 87.519531 129.261719 87.554688 C 129.242188 87.5625 129.226562 87.5625 129.210938 87.566406 C 129.195312 87.566406 129.179688 87.566406 129.167969 87.566406 C 127.910156 87.539062 126.644531 87.5 125.402344 87.445312 C 125.222656 87.4375 125.082031 87.28125 125.089844 87.101562 C 125.09375 86.925781 125.25 86.78125 125.429688 86.789062 " fill-opacity="1" fill-rule="nonzero"/></g></g></g><g clip-path="url(#d47b8b54b1)"><g clip-path="url(#bed17139fa)"><g clip-path="url(#22a12e97f9)"><path fill="#00d692" d="M 132.933594 86.960938 C 134.183594 86.964844 135.445312 86.957031 136.6875 86.9375 C 136.867188 86.933594 137.019531 87.078125 137.019531 87.261719 C 137.023438 87.410156 136.925781 87.542969 136.777344 87.582031 C 136.761719 87.585938 136.746094 87.589844 136.730469 87.59375 C 136.71875 87.59375 136.710938 87.59375 136.699219 87.59375 C 135.449219 87.613281 134.179688 87.621094 132.933594 87.617188 C 132.84375 87.617188 132.761719 87.582031 132.699219 87.519531 C 132.636719 87.457031 132.605469 87.375 132.605469 87.285156 C 132.605469 87.105469 132.746094 86.957031 132.933594 86.960938 " fill-opacity="1" fill-rule="nonzero"/></g></g></g><g clip-path="url(#6007f72b68)"><g clip-path="url(#2a0703b93a)"><g clip-path="url(#b7827c3725)"><path fill="#00d692" d="M 140.761719 87.0625 C 140.785156 87.058594 140.804688 87.058594 140.824219 87.0625 C 142.054688 87.164062 143.3125 87.257812 144.566406 87.335938 C 144.652344 87.34375 144.734375 87.382812 144.789062 87.449219 C 144.847656 87.515625 144.878906 87.597656 144.875 87.6875 C 144.863281 87.828125 144.765625 87.945312 144.632812 87.984375 C 144.613281 87.988281 144.597656 87.992188 144.582031 87.992188 C 144.5625 87.996094 144.542969 87.996094 144.523438 87.992188 C 143.257812 87.914062 141.996094 87.820312 140.769531 87.714844 C 140.683594 87.707031 140.605469 87.667969 140.546875 87.601562 C 140.492188 87.535156 140.464844 87.449219 140.46875 87.359375 C 140.484375 87.203125 140.605469 87.078125 140.761719 87.0625 " fill-opacity="1" fill-rule="nonzero"/></g></g></g><g clip-path="url(#0ce6380014)"><g clip-path="url(#cb0ae7557c)"><g clip-path="url(#cee41b0de9)"><path fill="#00d692" d="M 148.3125 87.535156 C 149.554688 87.585938 150.816406 87.628906 152.0625 87.65625 C 152.148438 87.660156 152.230469 87.695312 152.292969 87.757812 C 152.351562 87.820312 152.386719 87.90625 152.382812 87.992188 C 152.378906 88.136719 152.28125 88.265625 152.140625 88.304688 C 152.125 88.308594 152.109375 88.3125 152.089844 88.3125 C 152.078125 88.3125 152.0625 88.3125 152.046875 88.3125 C 150.792969 88.285156 149.527344 88.246094 148.285156 88.191406 C 148.105469 88.183594 147.964844 88.03125 147.96875 87.847656 C 147.976562 87.671875 148.132812 87.527344 148.3125 87.535156 " fill-opacity="1" fill-rule="nonzero"/></g></g></g><g clip-path="url(#776b1343fd)"><g clip-path="url(#0987fd8b63)"><g clip-path="url(#2cdb45ed9a)"><path fill="#00d692" d="M 155.816406 87.707031 C 157.0625 87.710938 158.328125 87.703125 159.570312 87.683594 C 159.75 87.679688 159.898438 87.824219 159.902344 88.007812 C 159.90625 88.15625 159.804688 88.289062 159.660156 88.328125 C 159.644531 88.332031 159.628906 88.335938 159.609375 88.339844 C 159.601562 88.339844 159.589844 88.339844 159.582031 88.339844 C 158.328125 88.359375 157.0625 88.367188 155.8125 88.363281 C 155.726562 88.363281 155.644531 88.328125 155.582031 88.265625 C 155.519531 88.203125 155.484375 88.121094 155.484375 88.035156 C 155.484375 87.855469 155.628906 87.707031 155.816406 87.707031 " fill-opacity="1" fill-rule="nonzero"/></g></g></g><g clip-path="url(#fe9973320f)"><g clip-path="url(#143157bc03)"><g clip-path="url(#42b52e2a87)"><path fill="#00d692" d="M 163.644531 87.808594 C 163.664062 87.804688 163.6875 87.804688 163.707031 87.808594 C 164.933594 87.910156 166.191406 88.003906 167.445312 88.082031 C 167.535156 88.089844 167.613281 88.128906 167.671875 88.195312 C 167.730469 88.261719 167.761719 88.34375 167.753906 88.433594 C 167.746094 88.574219 167.648438 88.691406 167.511719 88.730469 C 167.496094 88.734375 167.480469 88.738281 167.464844 88.738281 C 167.445312 88.742188 167.425781 88.742188 167.40625 88.742188 C 166.140625 88.660156 164.878906 88.566406 163.652344 88.460938 C 163.566406 88.457031 163.484375 88.414062 163.429688 88.347656 C 163.371094 88.28125 163.34375 88.195312 163.351562 88.105469 C 163.367188 87.949219 163.488281 87.824219 163.644531 87.808594 " fill-opacity="1" fill-rule="nonzero"/></g></g></g><g clip-path="url(#68461c6077)"><g clip-path="url(#f358ef2f19)"><g clip-path="url(#4d8de604aa)"><path fill="#00d692" d="M 171.191406 88.28125 C 172.4375 88.332031 173.695312 88.375 174.945312 88.402344 C 175.03125 88.40625 175.113281 88.441406 175.171875 88.503906 C 175.234375 88.570312 175.265625 88.652344 175.265625 88.738281 C 175.261719 88.882812 175.160156 89.011719 175.023438 89.050781 C 175.007812 89.054688 174.992188 89.058594 174.972656 89.058594 C 174.957031 89.058594 174.945312 89.0625 174.929688 89.058594 C 173.675781 89.03125 172.410156 88.992188 171.167969 88.9375 C 170.984375 88.929688 170.84375 88.777344 170.851562 88.597656 C 170.859375 88.417969 171.011719 88.273438 171.191406 88.28125 " fill-opacity="1" fill-rule="nonzero"/></g></g></g><g clip-path="url(#4e5088c295)"><g clip-path="url(#0ba9ecbd09)"><g clip-path="url(#f77d892aac)"><path fill="#00d692" d="M 178.695312 88.453125 C 179.945312 88.457031 181.207031 88.449219 182.449219 88.429688 C 182.632812 88.425781 182.78125 88.570312 182.785156 88.753906 C 182.789062 88.902344 182.6875 89.035156 182.542969 89.078125 C 182.523438 89.082031 182.507812 89.082031 182.492188 89.085938 C 182.484375 89.085938 182.472656 89.085938 182.464844 89.085938 C 181.210938 89.105469 179.945312 89.113281 178.695312 89.109375 C 178.609375 89.109375 178.527344 89.074219 178.464844 89.011719 C 178.402344 88.949219 178.367188 88.867188 178.367188 88.78125 C 178.367188 88.601562 178.507812 88.453125 178.695312 88.453125 " fill-opacity="1" fill-rule="nonzero"/></g></g></g><g clip-path="url(#e39f2c32f6)"><g clip-path="url(#b37fc3543b)"><g clip-path="url(#89ed7c094c)"><path fill="#00d692" d="M 184.652344 88.554688 C 184.675781 88.550781 184.695312 88.550781 184.71875 88.554688 C 185.945312 88.660156 187.203125 88.75 188.457031 88.832031 C 188.542969 88.835938 188.625 88.875 188.683594 88.941406 C 188.742188 89.007812 188.769531 89.089844 188.765625 89.179688 C 188.757812 89.320312 188.660156 89.441406 188.523438 89.476562 C 188.507812 89.480469 188.488281 89.484375 188.472656 89.484375 C 188.453125 89.488281 188.4375 89.488281 188.417969 89.488281 C 187.152344 89.40625 185.886719 89.3125 184.664062 89.207031 C 184.574219 89.203125 184.496094 89.160156 184.441406 89.09375 C 184.382812 89.027344 184.355469 88.941406 184.363281 88.855469 C 184.375 88.695312 184.5 88.570312 184.652344 88.554688 " fill-opacity="1" fill-rule="nonzero"/></g></g></g><g clip-path="url(#a17f8cfc0b)"><g clip-path="url(#31e7076c88)"><g clip-path="url(#b4b5f100bb)"><path fill="#00d692" d="M 192.203125 89.027344 C 193.445312 89.078125 194.707031 89.121094 195.953125 89.148438 C 196.039062 89.152344 196.125 89.1875 196.183594 89.25 C 196.246094 89.316406 196.277344 89.398438 196.273438 89.484375 C 196.273438 89.632812 196.171875 89.757812 196.035156 89.796875 C 196.015625 89.800781 196 89.804688 195.984375 89.804688 C 195.96875 89.808594 195.953125 89.808594 195.941406 89.808594 C 194.683594 89.777344 193.417969 89.738281 192.175781 89.683594 C 191.996094 89.675781 191.855469 89.523438 191.863281 89.34375 C 191.871094 89.164062 192.023438 89.019531 192.203125 89.027344 " fill-opacity="1" fill-rule="nonzero"/></g></g></g><g clip-path="url(#3a1ff855e8)"><g clip-path="url(#28bc292b8b)"><g clip-path="url(#2778fbea2d)"><path fill="#00d692" d="M 199.707031 89.199219 C 200.957031 89.203125 202.21875 89.195312 203.460938 89.175781 C 203.640625 89.171875 203.792969 89.320312 203.796875 89.5 C 203.796875 89.652344 203.699219 89.785156 203.550781 89.824219 C 203.535156 89.828125 203.519531 89.832031 203.503906 89.832031 C 203.492188 89.832031 203.484375 89.832031 203.472656 89.832031 C 202.222656 89.851562 200.953125 89.863281 199.707031 89.855469 C 199.617188 89.855469 199.535156 89.820312 199.472656 89.757812 C 199.410156 89.699219 199.378906 89.613281 199.378906 89.527344 C 199.378906 89.347656 199.519531 89.199219 199.707031 89.199219 " fill-opacity="1" fill-rule="nonzero"/></g></g></g></svg>