<?xml version="1.0" encoding="UTF-8" standalone="no"?>
<svg
   xmlns:dc="http://purl.org/dc/elements/1.1/"
   xmlns:cc="http://creativecommons.org/ns#"
   xmlns:rdf="http://www.w3.org/1999/02/22-rdf-syntax-ns#"
   xmlns:svg="http://www.w3.org/2000/svg"
   xmlns="http://www.w3.org/2000/svg"
   xmlns:sodipodi="http://sodipodi.sourceforge.net/DTD/sodipodi-0.dtd"
   xmlns:inkscape="http://www.inkscape.org/namespaces/inkscape"
   id="_Слой_1"
   data-name="Слой 1"
   viewBox="0 0 659.32 383.95"
   version="1.1"
   inkscape:version="0.91 r13725"
   sodipodi:docname="people_chatting.svg">
  <metadata
     id="metadata248">
    <rdf:RDF>
      <cc:Work
         rdf:about="">
        <dc:format>image/svg+xml</dc:format>
        <dc:type
           rdf:resource="http://purl.org/dc/dcmitype/StillImage" />
        <dc:title></dc:title>
      </cc:Work>
    </rdf:RDF>
  </metadata>
  <sodipodi:namedview
     pagecolor="#ffffff"
     bordercolor="#666666"
     borderopacity="1"
     objecttolerance="10"
     gridtolerance="10"
     guidetolerance="10"
     inkscape:pageopacity="0"
     inkscape:pageshadow="2"
     inkscape:window-width="1920"
     inkscape:window-height="1017"
     id="namedview246"
     showgrid="false"
     inkscape:zoom="1.5272099"
     inkscape:cx="335.09803"
     inkscape:cy="224.78342"
     inkscape:window-x="-8"
     inkscape:window-y="-8"
     inkscape:window-maximized="1"
     inkscape:current-layer="_Слой_1"
     showguides="true" />
  <defs
     id="defs3">
    <style
       id="style5">
      .cls-1 {
        stroke: #fff;
      }

      .cls-1, .cls-2, .cls-3, .cls-4, .cls-5, .cls-6, .cls-7, .cls-8 {
        fill: none;
        stroke-linecap: round;
        stroke-linejoin: round;
      }

      .cls-2 {
        stroke: #ffe032;
      }

      .cls-3 {
        stroke: #211d28;
      }

      .cls-4 {
        stroke: #000;
      }

      .cls-5 {
        stroke: #00b9ff;
      }

      .cls-6 {
        stroke: #00d692;
      }

      .cls-7 {
        stroke: #020202;
      }

      .cls-8 {
        stroke: #b0dfff;
      }

      .cls-9 {
        fill: #00d692;
      }

      .cls-10 {
        fill: #00b9ff;
      }

      .cls-11 {
        fill: #fff;
      }

      .cls-12 {
        fill: #ffec8d;
      }

      .cls-13 {
        fill: #ffe032;
      }

      .cls-14 {
        fill: #ff504d;
      }

      .cls-15 {
        fill: #211d28;
      }

      .cls-16 {
        fill: #777;
      }
    </style>
  </defs>
  <polygon
     style="fill:#18151e;fill-opacity:1"
     id="polygon8"
     points="60.41,168.21 67.07,156.63 25.61,155.31 25.61,155.31 3.27,167.78 "
     class="cls-15" />
  <path
     style="fill:none;stroke:#00d692;stroke-linecap:round;stroke-linejoin:round"
     inkscape:connector-curvature="0"
     id="path10"
     d="m 0.5,171.91 c 21.88,0.08 43.75,0.16 65.63,0.24 1.8,-3.4 3.6,-6.8 5.4,-10.19"
     class="cls-6" />
  <path
     style="fill:#00d692"
     inkscape:connector-curvature="0"
     id="path12"
     d="m 37.4,160.89 c -14.34,-16.62 -20.87,-45.8 1.04,-43.79 28.01,2.58 0.97,45.08 -1.04,43.79 z"
     class="cls-9" />
  <path
     style="fill:#ffffff"
     inkscape:connector-curvature="0"
     id="path14"
     d="m 31.59,138.32 c 3.09,2.83 8.38,2.8 11.41,-0.08 3.03,-2.89 3.3,-8.21 0.53,-11.35 -7.54,-8.55 -20.83,3.31 -11.94,11.44 z"
     class="cls-11" />
  <g
     id="Table">
    <g
       id="g17">
      <path
         class="cls-5"
         d="M6.7,185.45c32.28,.24,74.3,2.81,74.3,2.81l3.53,129.9"
         id="path19" />
      <line
         class="cls-5"
         x1="20.23"
         y1="194.53"
         x2="66.23"
         y2="195.55"
         id="line21" />
    </g>
  </g>
  <path
     class="cls-15"
     d="m 160.18,180.27 c 14.99,22.26 55.43,70.95 51.79,88.99 -3.63,18.04 -43.16,80.7 -43.16,80.7 0,0 10.41,10.57 13.27,18.17 l -47.06,-20.76 c 0,0 35.57,-79.01 40.85,-83.05 l -43.37,-90.29 27.68,6.23 z"
     id="path25"
     inkscape:connector-curvature="0"
     style="fill:#18151e;fill-opacity:1" />
  <path
     class="cls-15"
     d="m 107.7,181.63 c -2.54,27.38 48.24,95.96 48.24,95.96 0,0 28.54,80.08 37.8,89.47 l 41.51,-16.59 c 0,0 -13.95,-4.77 -21.54,-3.08 0,0 -62.3,-164.85 -65.19,-167.79 -2.89,-2.94 -40.82,2.02 -40.82,2.02 z"
     id="path27"
     inkscape:connector-curvature="0"
     style="fill:#18151e;fill-opacity:1" />
  <path
     class="cls-5"
     d="m 181.58,255.28 c -9.39,-16.42 -18.78,-32.84 -28.16,-49.26 2,-1.59 4.01,-3.18 6.02,-4.77"
     id="path29"
     inkscape:connector-curvature="0"
     style="fill:none;stroke:#00b9ff;stroke-linecap:round;stroke-linejoin:round" />
  <path
     class="cls-5"
     d="m 181.58,255.28 c -7.44,9.67 -12.91,20.61 -18.22,31.63"
     id="path31"
     inkscape:connector-curvature="0"
     style="fill:none;stroke:#00b9ff;stroke-linecap:round;stroke-linejoin:round" />
  <path
     class="cls-5"
     d="m 193.26,306.36 c -4.82,8.73 -9.64,17.46 -14.45,26.19"
     id="path33"
     inkscape:connector-curvature="0"
     style="fill:none;stroke:#00b9ff;stroke-linecap:round;stroke-linejoin:round" />
  <g
     data-name="Hand 2"
     id="Hand_2">
    <path
       style="fill:#ffe032"
       inkscape:connector-curvature="0"
       id="path36"
       d="m 228.08,104.45 c 1.72,-2.12 -1.25,-3.84 -1.25,-3.84 0,0 3.88,-5.93 -5.92,-5.16 -9.8,0.78 -24.25,52.64 -24.25,52.64 0,0 -5.79,-6.95 -12.37,-15.98 -5.49,5.07 -10.83,10.3 -16.15,15.54 12.27,15.43 27.46,32.11 33.42,28.59 10.7,-6.31 20.93,-63.74 25.19,-64.98 4.27,-1.25 1.33,-6.81 1.33,-6.81 z"
       class="cls-13" />
    <path
       style="fill:#ff504d"
       inkscape:connector-curvature="0"
       id="path38"
       d="m 178.95,124.53 c -6.24,-9.2 -13.94,-13.11 -25.27,-18.03 -0.31,-0.14 -0.64,-0.28 -0.96,-0.42 -2.43,2 -5.42,3.35 -8.52,3.44 l 1.1,2.51 5.22,11.92 c 0,0 6.41,9.32 14.8,20.11 1.6,2.06 3.28,4.18 4.99,6.29 5.26,-5.26 10.39,-10.65 15.9,-15.64 -2.33,-3.14 -4.83,-6.62 -7.26,-10.19 z"
       class="cls-14" />
    <polygon
       style="fill:#00b9ff"
       id="polygon40"
       points="245.61,117.19 249.74,93.94 226.8,93.11 226.8,93.11 231.75,115.44 "
       class="cls-10" />
    <path
       style="fill:none;stroke:#00b9ff;stroke-linecap:round;stroke-linejoin:round"
       inkscape:connector-curvature="0"
       id="path42"
       d="m 229.58,96.09 c -1.49,0.31 -3.03,-0.02 -4.55,0.07 -1.52,0.09 -3.21,0.85 -3.56,2.33"
       class="cls-5" />
    <path
       style="fill:none;stroke:#00b9ff;stroke-linecap:round;stroke-linejoin:round"
       inkscape:connector-curvature="0"
       id="path44"
       d="m 226.95,110.26 c 2.57,1.07 5.54,1.13 8.16,0.17"
       class="cls-5" />
    <path
       style="fill:none;stroke:#211d28;stroke-linecap:round;stroke-linejoin:round"
       inkscape:connector-curvature="0"
       id="path46"
       d="m 215.2,105.93 c 2.65,-0.62 5.15,-1.88 7.24,-3.61 1.84,-1.53 0.09,-4.44 -2.12,-3.53 -0.33,0.13 -0.64,0.29 -0.95,0.47"
       class="cls-3" />
    <path
       style="fill:none;stroke:#211d28;stroke-linecap:round;stroke-linejoin:round"
       inkscape:connector-curvature="0"
       id="path48"
       d="m 222.89,104.94 c -0.58,0.25 -1.19,0.5 -1.61,0.97 -0.42,0.47 -0.61,1.21 -0.27,1.74 0.35,0.53 1.11,0.65 1.71,0.45 0.6,-0.2 1.08,-0.66 1.53,-1.1 -1.32,0.28 -1.95,2.16 -1.06,3.17 0.89,1.01 2.84,0.64 3.29,-0.63"
       class="cls-3" />
  </g>
  <g
     id="Body">
    <path
       style="fill:#ff504d"
       inkscape:connector-curvature="0"
       id="path51"
       d="m 165.32,144.07 c -1.68,-9 -2.79,-16.58 -2.41,-19.31 0.53,-3.72 -5.26,-9.66 -11.9,-15.17 -0.55,-0.46 -1.11,-0.9 -1.67,-1.35 -2.77,1.31 -5.88,1.75 -8.91,0.73 -0.51,-0.17 -0.98,-0.38 -1.43,-0.62 -1.3,-0.33 -2.52,-0.93 -3.57,-1.83 -2.84,-2.45 -3.44,-6.53 -2.95,-10.27 l -1.55,0.28 -16.5,2.97 c -1.15,3.62 -4.33,6.6 -5.23,10.81 -6.77,31.92 -4.5,77.98 -4.5,77.98 0,0 63.41,-1.79 70.19,-0.05 0,0 -6.05,-25.24 -9.57,-44.16 z"
       class="cls-14" />
    <path
       style="fill:none;stroke:#00b9ff;stroke-linecap:round;stroke-linejoin:round"
       inkscape:connector-curvature="0"
       id="path53"
       d="m 163.4,129.22 c 0.56,4.85 1.12,9.7 1.68,14.54"
       class="cls-5" />
    <path
       style="fill:none;stroke:#00b9ff;stroke-linecap:round;stroke-linejoin:round"
       inkscape:connector-curvature="0"
       id="path55"
       d="m 160.06,132.54 c -12.77,-1.57 -25.54,-3.14 -38.31,-4.71 0,5.41 0,10.82 0,16.23 13.66,1.13 27.32,2.26 40.98,3.38"
       class="cls-5" />
  </g>
  <g
     data-name="Hand 1"
     id="Hand_1">
    <path
       style="fill:#ffe032"
       inkscape:connector-curvature="0"
       id="path58"
       d="m 88.29,139.05 16.42,-19.75 c -6.5,-3.25 -13,-6.48 -19.63,-9.46 -14.02,16.27 -26.58,34.03 -25.92,39.62 0.8,6.85 61.51,5.59 64.88,11.6 3.37,6.01 0.86,10.83 4.65,12.06 0,0 -0.12,1.82 1.39,1.94 1.62,0.12 2.41,-1.02 2.41,-1.02 0,0 1.23,-1.58 1.9,-5.57 0.67,-3.99 0.23,-9.42 -0.7,-13.58 -0.93,-4.16 -34.24,-14.31 -45.41,-15.84 z"
       class="cls-13" />
    <path
       style="fill:#ff504d"
       inkscape:connector-curvature="0"
       id="path60"
       d="m 132.62,95.36 c -0.4,-0.24 -0.81,-0.47 -1.19,-0.7 -17.65,-10.23 -21.85,-11.24 -36.84,4.63 -3.61,3.82 -7.29,7.93 -10.85,12.12 5.88,4.01 12.12,7.51 18.33,11.07 l 9.31,-11.2 2.39,-2.87 17.33,-5.59 1.73,-0.56 c -0.63,-2.19 -0.61,-4.64 -0.2,-6.91 z"
       class="cls-14" />
    <path
       style="fill:none;stroke:#020202;stroke-linecap:round;stroke-linejoin:round"
       inkscape:connector-curvature="0"
       id="path62"
       d="m 129.96,163.45 c -0.22,3.13 -0.44,6.26 -0.66,9.39"
       class="cls-7" />
    <path
       style="fill:none;stroke:#020202;stroke-linecap:round;stroke-linejoin:round"
       inkscape:connector-curvature="0"
       id="path64"
       d="m 132.47,161.44 c 0.75,4.28 0.67,8.7 -0.25,12.95"
       class="cls-7" />
  </g>
  <path
     style="fill:none;stroke:#00b9ff;stroke-linecap:round;stroke-linejoin:round"
     inkscape:connector-curvature="0"
     d="m 239.39,86.59 c 2.39,1.6 5.95,-0.93 5.9,-3.81 -0.04,-2.88 -2.69,-5.2 -5.5,-5.81 -2.81,-0.61 -5.73,0.12 -8.48,0.96 -2.75,0.85 -5.53,1.84 -8.41,1.78 -2.88,-0.06 -5.94,-1.44 -7.06,-4.1 -1.7,-4.05 2.1,-8.62 6.36,-9.69 4.26,-1.07 8.7,0.15 13.05,0.74 4.35,0.6 9.33,0.35 12.33,-2.86 2.51,-2.68 2.82,-7.18 0.64,-10.14 -2.18,-2.96 -6.64,-3.98 -9.85,-2.2 -3.21,1.78 -4.7,6.17 -3.17,9.51 1.96,4.27 7.48,5.59 12.16,5.17 13.94,-1.25 25.69,-14.59 25.16,-28.58"
     class="cls-5"
     id="Steam" />
  <path
     class="cls-13"
     d="m 172.83,65.65 c -4.09,-5.2 -10.46,-8.57 -17.01,-9.53 -6.55,-0.96 -13.78,1.36 -17.62,6.76 -3.97,5.59 -3.69,13.04 -3.38,19.89 0.22,4.98 0.22,10 -1.41,14.77 -0.26,0.77 -0.64,1.66 -1,2.59 0.03,0.04 0.08,0.06 0.11,0.1 2.34,2.9 4.79,5.71 7.17,8.59 1.69,0.12 3.37,0.06 4.62,-0.6 8.1,-4.24 6.13,-12.34 17.27,-14.31 10.36,-1.83 20.16,-16.92 11.25,-28.26 z"
     id="path68"
     inkscape:connector-curvature="0"
     style="fill:#ffe032" />
  <path
     class="cls-15"
     d="m 141.29,86.78 c -1.93,-0.83 -3.3,-2.64 -3.3,-4.79 0,-3.92 3.65,-5.72 7.11,-6.1 0,-0.12 -0.02,-0.25 -0.02,-0.36 -0.07,-1.52 -0.3,-3.02 -0.34,-4.54 -0.04,-1.57 1.16,-2.94 2.61,-3.37 6.33,-1.9 12.87,-4.28 18.44,-8.01 -3.07,-1.79 -6.49,-2.98 -9.97,-3.49 -6.55,-0.96 -13.78,1.36 -17.62,6.76 -3.97,5.59 -3.69,13.04 -3.38,19.89 0.13,2.87 0.17,5.74 -0.12,8.58 0.24,0.05 0.49,0.11 0.73,0.15 1.99,0.33 4.34,0.41 6.1,-0.8 1.28,-0.88 1.96,-2.13 1.89,-3.37 -0.73,-0.07 -1.45,-0.24 -2.13,-0.54 z"
     id="path70"
     inkscape:connector-curvature="0"
     style="fill:#18151e;fill-opacity:1" />
  <path
     class="cls-13"
     d="m 153.68,106.5 c -0.7,1.17 -1.6,2.22 -2.67,3.09 -1.53,1.23 -3.43,2.11 -5.71,2.44 -0.71,0.1 -1.46,0.15 -2.24,0.15 -6.73,-0.05 -10.71,-4.31 -11.96,-9.35 -0.5,-2.05 -0.55,-4.23 -0.16,-6.31 0.12,-0.63 0.28,-1.25 0.49,-1.86 2.64,1.53 5.58,3.27 8.91,5.18 l -1.6,0.51 c 0.67,0.46 1.37,0.96 2.1,1.48 l -0.51,-1.17 c 4.96,2.25 9.38,4.1 13.36,5.83 z"
     id="path72"
     inkscape:connector-curvature="0"
     style="fill:#ffe032" />
  <path
     class="cls-3"
     d="m 164.51,68.59 c 1.86,2.62 5.31,4.01 8.47,3.42 -1.4,2.56 -3.75,4.59 -6.49,5.59"
     id="path74"
     inkscape:connector-curvature="0"
     style="fill:none;stroke:#211d28;stroke-linecap:round;stroke-linejoin:round" />
  <path
     class="cls-3"
     d="m 159.66,82.97 c 1.38,1.5 4.13,1.38 5.37,-0.24"
     id="path76"
     inkscape:connector-curvature="0"
     style="fill:none;stroke:#211d28;stroke-linecap:round;stroke-linejoin:round" />
  <path
     class="cls-3"
     d="m 164.76,59.42 0.31,0.31 c 2.04,-0.96 3.51,-3.05 3.88,-5.27"
     id="path78"
     inkscape:connector-curvature="0"
     style="fill:none;stroke:#211d28;stroke-linecap:round;stroke-linejoin:round" />
  <g
     id="Armchair">
    <path
       style="fill:#00b9ff"
       inkscape:connector-curvature="0"
       id="path82"
       d="m 405.98,73.88 19.31,1.95 c 9.86,1 16.61,10.42 14.37,20.08 l -23.62,101.85 c -1.47,6.32 -8.75,12.69 -15.24,12.98 l -44.69,1.99 c -1.66,0.07 -3.33,-0.14 -4.92,-0.63 l -42.73,-15.56 20.67,-58.51 76.84,-64.15 z"
       class="cls-10" />
    <polyline
       style="fill:none;stroke:#00b9ff;stroke-linecap:round;stroke-linejoin:round"
       id="polyline84"
       points="351.2 212.09 358.99 247.16 364.1 212.34"
       class="cls-5" />
    <path
       style="fill:none;stroke:#00b9ff;stroke-linecap:round;stroke-linejoin:round"
       inkscape:connector-curvature="0"
       id="path86"
       d="m 394.2,205.02 c 3.5,4.44 11.19,38.99 11.19,38.99 l 5.18,-41.93 -16.36,2.94 z"
       class="cls-5" />
  </g>
  <g
     data-name="Legs"
     id="Legs-2">
    <path
       style="fill:#ff504d"
       inkscape:connector-curvature="0"
       id="path89"
       d="m 306.41,132.68 c -24.97,6.87 -37.23,10.53 -36.38,23.71 0.84,13.17 44.08,77.92 44.08,77.92 l -0.56,11.75 17.03,-13.04 -26.76,-67.44 37.3,-20.88 -34.71,-12.02 z"
       class="cls-14" />
    <path
       style="fill:#ff504d"
       inkscape:connector-curvature="0"
       id="path91"
       d="m 399.11,141.36 c -0.65,5.18 -1.71,21.16 -13.47,22.01 -11.76,0.85 -55.96,0.05 -55.96,0.05 l -12.43,89.72 -38.47,-11.1 c 0,0 9.43,-3.22 16.48,-3.17 0,0 -0.33,-81.35 7.26,-89.29 7.58,-7.94 63.59,-14.57 63.59,-14.57 l 33.01,6.35 z"
       class="cls-14" />
    <path
       style="fill:none;stroke:#211d28;stroke-linecap:round;stroke-linejoin:round"
       inkscape:connector-curvature="0"
       id="path93"
       d="m 307.11,149.3 c -3.08,0.04 -5.74,2.43 -7.02,5.23 -1.28,2.8 -1.47,5.96 -1.64,9.04 -0.69,12.78 -1.38,25.56 -2.06,38.35"
       class="cls-3" />
    <path
       style="fill:none;stroke:#211d28;stroke-linecap:round;stroke-linejoin:round"
       inkscape:connector-curvature="0"
       id="path95"
       d="m 321.28,213.48 c -1.01,8.65 -2.02,17.3 -3.03,25.95"
       class="cls-3" />
    <path
       style="fill:none;stroke:#211d28;stroke-linecap:round;stroke-linejoin:round"
       inkscape:connector-curvature="0"
       id="path97"
       d="m 297.87,238 c 5.61,1.1 11.23,2.2 16.84,3.3"
       class="cls-3" />
    <path
       style="fill:none;stroke:#211d28;stroke-linecap:round;stroke-linejoin:round"
       inkscape:connector-curvature="0"
       id="path99"
       d="m 325.32,227.19 c -1.37,0.75 -2.75,1.5 -4.12,2.25"
       class="cls-3" />
  </g>
  <polygon
     style="fill:#00d692"
     points="369.62,140.56 326.89,125.77 287.48,136.64 331.67,152.25 331.67,152.25 369.88,144.04 "
     class="cls-9"
     id="Keyboard" />
  <path
     style="fill:#ffe032"
     inkscape:connector-curvature="0"
     d="m 367.53,38.58 c -5.05,4.87 -12.81,5.05 -19.77,5.9 -6.96,0.85 -14.96,3.71 -16.77,10.49 -1.14,4.27 0.73,8.91 3.78,12.11 3.05,3.19 7.14,5.18 11.22,6.88 12.28,5.09 25.42,8.12 38.7,8.91 5.45,0.33 11.1,0.24 16.1,-1.95 6.42,-2.82 10.96,-8.81 13.81,-15.21 3.4,-7.62 4.78,-16.28 3,-24.43 -1.78,-8.15 -6.9,-15.7 -14.27,-19.61 -6.45,-3.42 -16.19,-4.19 -22.48,0.15 -6.04,4.17 -8.23,11.86 -13.32,16.78 z"
     class="cls-13"
     id="Hair" />
  <path
     style="fill:#18151e;fill-opacity:1"
     inkscape:connector-curvature="0"
     d="M 390.48,73.27 C 373.79,78.6 343.33,111 343.33,111 l -31.16,16.4 12.96,3.81 44.33,-13.12 21.02,-44.82 z"
     class="cls-15"
     data-name="Hand 2"
     id="Hand_2-2" />
  <g
     data-name="Body"
     id="Body-2"
     style="fill:#18151e;fill-opacity:1">
    <path
       style="fill:#18151e;fill-opacity:1"
       inkscape:connector-curvature="0"
       id="path105"
       d="m 385.53,67.47 c -13.81,8.89 -26.05,18.61 -20.24,28.08 0,0 -4.84,16.85 -23.74,23.38 0,0 44.19,24.29 57.55,22.42 0,0 18.57,-67.79 8.02,-73.76 -10.56,-5.97 -21.6,-0.13 -21.6,-0.13 z"
       class="cls-15" />
    <path
       style="fill:#18151e;stroke:#ffffff;stroke-linecap:round;stroke-linejoin:round;fill-opacity:1"
       inkscape:connector-curvature="0"
       id="path107"
       d="m 364.55,92.29 c -0.33,1.97 0.41,4.08 1.89,5.41 -3.42,5.7 -14.47,16.46 -19.98,20.16"
       class="cls-1" />
  </g>
  <g
     data-name="Head"
     id="Head-2">
    <path
       style="fill:#ffffff"
       inkscape:connector-curvature="0"
       id="path110"
       d="m 404.41,36.84 c -0.08,-2.27 -1.04,-5.51 -1.86,-7.24 -1.51,-3.2 -5.25,-3.42 -8.43,-3.55 -5.22,-0.2 -10.38,0.59 -15.57,0.98 -0.38,1.25 -0.66,2.61 -0.86,4.07 -0.81,6 -2.5,9.47 -7.88,12.61 3.17,0.9 4.61,1.38 8.31,1.52 0.78,5.78 7.17,9.72 11.76,9.41 6.87,-0.46 11.71,-4.04 15.01,-8.8 0.77,-1.11 1.38,-2.23 1.84,-3.37 0.16,-0.41 -2.64,-3.85 -2.32,-5.63 z"
       class="cls-11" />
    <path
       style="fill:#ffe032"
       inkscape:connector-curvature="0"
       id="path112"
       d="m 382.27,29.05 c 3.32,0.44 6.42,0.86 9.7,0.47 3.02,-0.36 3.94,4.61 4.2,4.45 3.64,-2.28 6.54,2.82 4.13,5.62 -0.18,0.22 1.61,2.22 2.06,2.49 0.88,0.53 2,0.59 3,0.55 0.46,-0.02 0.92,-0.08 1.37,-0.16 1.36,-3.36 1.46,-6.87 0.66,-10.78 -2.7,-13.34 -13.26,-16.59 -23.76,-11.54 -3.09,1.48 -4.7,4.63 -5.55,8.67 1.53,0.13 3.4,0.13 4.18,0.23 z"
       class="cls-13" />
    <path
       style="fill:#ffe032"
       inkscape:connector-curvature="0"
       id="path114"
       d="m 372.24,26.83 c 3.57,3.57 7.3,4.39 12.22,5.53 3.92,0.91 9.39,0.12 9.4,-0.27 1.28,-5.49 -3.84,-10.38 -9.14,-10.62 -5.52,-0.25 -9.37,2.71 -12.48,5.36 z"
       class="cls-13" />
    <path
       style="fill:none;stroke:#211d28;stroke-linecap:round;stroke-linejoin:round"
       inkscape:connector-curvature="0"
       id="path116"
       d="m 386.04,37.99 0.52,1.31"
       class="cls-3" />
    <path
       style="fill:none;stroke:#211d28;stroke-linecap:round;stroke-linejoin:round"
       inkscape:connector-curvature="0"
       id="path118"
       d="m 390.11,50.49 c 1.33,0.08 2.63,-1.01 2.77,-2.33"
       class="cls-3" />
    <path
       style="fill:#ffffff"
       inkscape:connector-curvature="0"
       id="path120"
       d="m 386.66,52.07 c 2.32,-0.27 4.53,1.59 5.16,3.83 0.63,2.24 -0.08,4.7 -1.36,6.64 -1.28,1.94 -3.11,3.46 -4.92,4.93 3.17,3.74 8.2,5.83 13.1,5.44 4.89,-0.4 11.26,-3.09 9.7,-4.31 -1.56,-1.22 -5.38,-6.31 -5.86,-8.22 -1.2,-4.83 -0.78,-10.05 1.18,-14.62 -3.76,1.81 -7.53,3.62 -11.29,5.43"
       class="cls-11" />
  </g>
  <g
     id="Armrest">
    <path
       style="fill:#00b9ff"
       inkscape:connector-curvature="0"
       id="path123"
       d="m 412.38,137.6 c -29.17,1.55 -42.5,11.61 -43.57,36.34 -1.07,24.73 38.06,-8.99 38.06,-8.99 l 5.51,-27.35 z"
       class="cls-10" />
    <path
       style="fill:none;stroke:#ffe032;stroke-linecap:round;stroke-linejoin:round"
       inkscape:connector-curvature="0"
       id="path125"
       d="m 371.42,165.07 c -0.48,5.74 -1.72,12.41 -2.2,18.15"
       class="cls-2" />
    <path
       style="fill:none;stroke:#ffe032;stroke-linecap:round;stroke-linejoin:round"
       inkscape:connector-curvature="0"
       id="path127"
       d="m 401.52,138.27 c 1.88,-0.19 3.75,-0.39 5.63,-0.58"
       class="cls-2" />
  </g>
  <path
     class="cls-11"
     d="m 348.06,123.35 c -8.58,0.08 -16.11,3.9 -19.55,10.36 -3.45,6.47 2.49,2.14 2.49,2.14 0,0 0.37,3.3 3.38,1.62 0,0 1.73,2.18 3.3,0.02 1.57,-2.16 1.95,-2.47 12.45,-0.84 10.5,1.62 -2.06,-13.31 -2.06,-13.31 z"
     id="path130"
     inkscape:connector-curvature="0"
     style="fill:#ffffff" />
  <path
     class="cls-15"
     d="m 408.33,68.6 c 7.18,6.41 5.27,54.62 -4.39,64.13 -9.66,9.51 -53.82,3.92 -53.82,3.92 l -2.06,-13.31 42.39,-4.63 17.88,-50.12 z"
     id="path132"
     inkscape:connector-curvature="0"
     style="fill:#18151e;fill-opacity:1" />
  <path
     class="cls-1"
     d="m 395.15,88.8 c -1.3,9.78 -2.59,19.56 -3.89,29.33 -13.48,1.73 -26.97,3.46 -40.45,5.19"
     id="path134"
     inkscape:connector-curvature="0"
     style="fill:none;stroke:#ffffff;stroke-linecap:round;stroke-linejoin:round" />
  <path
     class="cls-5"
     d="m 331.15,135.61 c 0,-1.62 1.18,-3.16 2.74,-3.57"
     id="path136"
     inkscape:connector-curvature="0"
     style="fill:none;stroke:#00b9ff;stroke-linecap:round;stroke-linejoin:round" />
  <path
     class="cls-5"
     d="m 334.66,136.98 c 0.05,-1.38 0.97,-2.68 2.25,-3.2"
     id="path138"
     inkscape:connector-curvature="0"
     style="fill:none;stroke:#00b9ff;stroke-linecap:round;stroke-linejoin:round" />
  <g
     data-name="Laptop front"
     id="Laptop_front">
    <path
       style="fill:#00d692"
       inkscape:connector-curvature="0"
       id="path141"
       d="m 279.83,88.08 7.65,48.56 44.19,15.61 -9.06,-51.37 c -0.71,-4.03 -3.93,-7.16 -7.98,-7.74 l -34.79,-5.06 z"
       class="cls-9" />
    <path
       style="fill:none;stroke:#ffe032;stroke-linecap:round;stroke-linejoin:round"
       inkscape:connector-curvature="0"
       id="path143"
       d="m 327.59,130.02 c 0.45,2.48 2.62,15.86 3.08,18.35 1.76,-0.66 3.51,-1.33 5.27,-1.99"
       class="cls-2" />
    <path
       style="fill:none;stroke:#000000;stroke-linecap:round;stroke-linejoin:round"
       inkscape:connector-curvature="0"
       id="path145"
       d="m 300.09,110.17 c -2.64,0.43 -4.89,2.66 -5.34,5.3 -0.45,2.64 0.93,5.49 3.28,6.77 2.35,1.28 5.49,0.89 7.46,-0.92"
       class="cls-4" />
  </g>
  <g
     id="Message_1"
     data-name="Message 1">
    <path
       class="cls-9"
       d="M540.95,43.83l-94.98-.31c-10.24-.03-18.53,8.3-18.45,18.54l.18,22.93c.07,9.63,7.56,17.57,17.16,18.21l100.5,2.53,13.2,36.62,.73-80.28c-.09-10.07-8.26-18.19-18.33-18.23Z"
       id="path148" />
    <path
       class="cls-4"
       d="M438.43,71.86c8.31,1.65,17.44-3.66,20.11-11.71-2.65-.45-4.68,3.08-3.54,5.51,1.14,2.43,4.25,3.4,6.89,2.92,2.64-.48,4.92-2.08,7.1-3.65,2.89,2.67,7.69,2.96,10.88,.65,14.3,2.43,29.09,1.86,43.16-1.67"
       id="path150" />
    <path
       class="cls-4"
       d="M530.82,68.97c5.49,.49,11.16-1.6,15.02-5.54"
       id="path152" />
    <path
       class="cls-4"
       d="M449.18,87.78c14.14,3.01,28.92,2.99,43.06-.08,.04,3.38,4.06,5.57,7.4,5,3.34-.56,6.03-2.96,8.52-5.25,9.24,7.1,23.36,6.94,32.43-.37"
       id="path154" />
  </g>
  <g
     id="Message_2"
     data-name="Message 2">
    <path
       class="cls-9"
       d="M47.75,73.48s-.61-29.87-1.06-51.59C46.44,9.77,56.27-.14,68.39,0l105.49,1.26c13.62,.16,23.64,12.82,20.67,26.12h0c-2.2,9.86-10.99,16.85-21.09,16.77l-109.69-.83-16.02,30.15Z"
       id="path157" />
    <path
       class="cls-4"
       d="M68.3,26.78c10.51,.58,21.08,.16,31.51-1.24,2.78-.37,5.62-.84,8.05-2.24s4.39-3.93,4.34-6.74c-.09-4.75-6.6-7.6-10.57-4.99-3.97,2.6-4.48,8.81-1.61,12.59,2.87,3.78,8.22,5.11,12.85,4.04s8.56-4.18,11.58-7.85c2.85,6.72,13.2,8.55,18.19,3.21,5.67,3.25,12.99,3.44,18.82,.48"
       id="path159" />
  </g>
  <path
     class="cls-15"
     d="m 443.38,291.71 c -6.1,23.97 -20.85,59.4 -20.85,59.4 0,0 -14.8,-1.43 -20.74,1.49 l 34.42,17.04 26.69,-48.83 -19.52,-29.1 z"
     id="path163"
     inkscape:connector-curvature="0"
     style="fill:#18151e;fill-opacity:1" />
  <path
     class="cls-15"
     d="m 430.76,264.31 c -3.35,8.53 32.79,102.25 32.79,102.25 0,0 -9.91,4.53 -12.24,8.46 l 32.92,-2.06 -11.93,-76.76 63.52,-1.5 -16.53,-33.69 c 0,0 -74.31,-7.14 -81.91,-3.25 -7.6,3.89 -6.63,6.53 -6.63,6.53 z"
     id="path165"
     inkscape:connector-curvature="0"
     style="fill:#18151e;fill-opacity:1" />
  <path
     class="cls-5"
     d="m 442.74,307.05 c 3.26,9.85 6.51,19.7 9.77,29.54"
     id="path167"
     inkscape:connector-curvature="0"
     style="fill:none;stroke:#00b9ff;stroke-linecap:round;stroke-linejoin:round" />
  <path
     class="cls-5"
     d="m 422.16,349.83 c 4.28,5.1 8.56,10.2 12.84,15.3"
     id="path169"
     inkscape:connector-curvature="0"
     style="fill:none;stroke:#00b9ff;stroke-linecap:round;stroke-linejoin:round" />
  <path
     class="cls-5"
     d="m 482.39,363.43 c -6.56,0.6 -13.12,1.21 -19.69,1.81 1.09,0.32 2.16,2.96 3.25,3.28"
     id="path171"
     inkscape:connector-curvature="0"
     style="fill:none;stroke:#00b9ff;stroke-linecap:round;stroke-linejoin:round" />
  <path
     class="cls-5"
     d="m 415.96,349.87 c 0,1.25 -0.02,2.5 -0.03,3.75"
     id="path173"
     inkscape:connector-curvature="0"
     style="fill:none;stroke:#00b9ff;stroke-linecap:round;stroke-linejoin:round" />
  <g
     id="Cat">
    <path
       style="fill:#777777"
       inkscape:connector-curvature="0"
       id="path176"
       d="m 446.41,203.13 7.36,-7.77 c 0,0 -1.84,35.99 22.21,30.43 24.04,-5.56 33.35,5.99 36.3,29.49 2.95,23.5 -28.87,22.74 -28.87,22.74 0,0 -12.31,-1.06 -10.46,-5.93 -5.26,-2.77 -11.82,-5.93 -18.06,-8.07 -7.95,-0.06 -17.21,-1.99 -18.84,-2.01 -4.17,-0.03 -5.28,8.31 -6.79,0.99 -1.51,-7.32 8.41,-7.76 13.69,-16.07 5.28,-8.31 -0.92,-16.18 -9.23,-21.98 -8.3,-5.8 -8.6,-19.3 2.76,-21.57 4.36,-0.87 9.92,-0.25 9.92,-0.25 z"
       class="cls-16" />
    <path
       style="fill:#00b9ff"
       inkscape:connector-curvature="0"
       id="path178"
       d="m 462.88,265.83 c -0.85,-3.07 -2.5,-5.35 -4.56,-7.3 -0.71,1.16 -1.25,2.45 -2.13,3.53 -0.59,0.73 -1.23,1.36 -1.89,1.94 0.2,0 0.39,0.01 0.59,0.01 2.77,0.96 5.61,2.11 8.37,3.34 -0.12,-0.51 -0.24,-1.03 -0.38,-1.53 z"
       class="cls-10" />
    <path
       style="fill:none;stroke:#211d28;stroke-linecap:round;stroke-linejoin:round"
       inkscape:connector-curvature="0"
       id="path180"
       d="m 437.02,206.02 -1.4,1.02"
       class="cls-3" />
  </g>
  <path
     class="cls-12"
     d="m 546.18,163.01 c 5.28,2.04 11.04,13.06 0.95,19.29 -10.09,6.23 23.8,0.88 23.8,0.88 l -2.89,-19.86 -21.87,-0.3 z"
     id="path183"
     inkscape:connector-curvature="0"
     style="fill:#ffec8d" />
  <path
     class="cls-12"
     d="m 539.52,142.37 c -2.71,11.05 0.9,15.14 3.06,17.66 4.15,4.84 12.95,7.13 19.28,6.34 8.42,-1.05 15.23,-4.97 19.61,-12.24 7.98,-13.26 2.86,-34.1 -15.68,-35.96 -17.1,-1.71 -18.54,15.6 -33.5,13.26 1.14,4.8 4.08,6.97 7.24,10.94 z"
     id="path185"
     inkscape:connector-curvature="0"
     style="fill:#ffec8d" />
  <path
     class="cls-15"
     d="m 568.47,129.14 c -0.06,-0.03 -0.11,-0.06 -0.16,-0.09 -0.72,-0.39 -1.48,-0.7 -2.23,-1.03 -2.62,5.48 -4.92,11.38 -9.86,15.14 -2.72,2.07 -6.11,3.21 -9.52,2.44 -2.66,-0.6 -4.88,-2.54 -7.39,-3.48 0.07,0.09 0.14,0.17 0.21,0.26 -2.71,11.05 0.9,15.14 3.06,17.66 0.97,1.13 2.21,2.12 3.6,2.97 4.07,-1.7 7.11,-6.16 9.47,-10.09 4.63,-7.72 8.79,-15.72 12.82,-23.77 z"
     id="path187"
     inkscape:connector-curvature="0"
     style="fill:#18151e;fill-opacity:1" />
  <path
     class="cls-15"
     d="m 565.79,118.18 c -6.81,-0.68 -11.13,1.65 -14.81,4.56 0.31,3.98 4.95,6.58 9.55,7.8 2.06,0.55 3.22,3.21 2.01,5.04 -1.45,2.18 -2.38,3.81 -1.32,4.74 3.04,-1.48 7.09,-1.2 9.53,1.26 1.42,1.43 1.99,3.51 1.49,5.48 -0.79,3.09 -4.12,4.57 -6.83,5.01 -0.11,1.81 -0.38,9.95 2.08,13 1.86,2.3 7.54,-1.17 11.11,-5.99 0.99,-1.13 2.53,-3.46 3.29,-4.86 8.03,-14.7 2.45,-34.16 -16.09,-36.02 z"
     id="path189"
     inkscape:connector-curvature="0"
     style="fill:#18151e;fill-opacity:1" />
  <path
     class="cls-1"
     d="m 548.62,148.03 c -0.56,2.72 -3.22,4.85 -6,4.81"
     id="path191"
     inkscape:connector-curvature="0"
     style="fill:none;stroke:#ffffff;stroke-linecap:round;stroke-linejoin:round" />
  <path
     class="cls-7"
     d="m 547.73,133.61 c -0.27,-0.56 -0.03,-1.31 0.51,-1.62 0.54,-0.31 1.3,-0.16 1.69,0.32 0.39,0.48 0.39,1.24 0,1.73"
     id="path193"
     inkscape:connector-curvature="0"
     style="fill:none;stroke:#020202;stroke-linecap:round;stroke-linejoin:round" />
  <path
     class="cls-15"
     d="m 547.01,114.31 c 1.1,-3.36 4.44,-5.86 7.98,-5.96 3.68,-0.1 6.98,2.11 9.91,4.34 3.07,2.35 6.03,4.83 8.87,7.44 2.39,2.19 4.9,5.24 3.87,8.31 -0.81,2.41 -3.5,3.62 -5.99,4.09 -6.29,1.19 -12.71,-0.84 -17.56,-4.89 -4.06,-3.38 -9.06,-7.23 -7.06,-13.34 z"
     id="path195"
     inkscape:connector-curvature="0"
     style="fill:#18151e;fill-opacity:1" />
  <path
     style="fill:#00b9ff"
     inkscape:connector-curvature="0"
     d="m 564.77,180.18 c 30.42,-4.48 37.79,0.93 39.34,14.13 1.55,13.2 -2.7,84.48 -2.7,84.48 l -82.84,-1.45 13.38,-80.28 32.81,-16.89 z"
     class="cls-10"
     data-name="Body"
     id="Body-3" />
  <path
     class="cls-12"
     d="m 515.04,196.76 c 4.66,4.23 14.11,17.79 14.11,17.79 l -10.44,8.85 -17.91,-19.43 14.24,-7.2 z"
     id="path199"
     inkscape:connector-curvature="0"
     style="fill:#ffec8d" />
  <path
     class="cls-12"
     d="m 487.86,188.57 c -5.03,-0.31 -6.41,2.94 0.5,5.85 6.91,2.91 -0.5,-5.85 -0.5,-5.85 z"
     id="path201"
     inkscape:connector-curvature="0"
     style="fill:#ffec8d" />
  <polygon
     class="cls-15"
     points="500.42,180.7 500.42,180.7 481.72,181.93 499.37,210.37 517.79,209.14 "
     id="polygon203"
     style="fill:#18151e;fill-opacity:1" />
  <polygon
     class="cls-9"
     points="501.66,182.15 501.66,182.15 487.01,183.12 500.84,205.41 515.28,204.44 "
     id="polygon205"
     style="fill:#00d692" />
  <path
     class="cls-12"
     d="m 515.04,196.76 c -5.28,-7.73 -14.19,-8.48 -13.31,-6.53 0.89,1.96 4.59,2.98 6.2,5.42 1.61,2.44 8.91,9.02 8.91,9.02 l -1.81,-7.91 z"
     id="path207"
     inkscape:connector-curvature="0"
     style="fill:#ffec8d" />
  <path
     class="cls-12"
     d="m 490.02,197.12 c 1.14,-2.38 4.14,-2.63 4.08,1.11 0,0 2.96,-0.92 1.56,3.93 -1.4,4.85 -3.92,0.17 -3.92,0.17 0,0 -3.89,-0.65 -1.72,-5.21 z"
     id="path209"
     inkscape:connector-curvature="0"
     style="fill:#ffec8d" />
  <path
     class="cls-3"
     d="m 492.77,198.07 c -0.26,1.31 -0.51,2.62 -0.77,3.92"
     id="path211"
     inkscape:connector-curvature="0"
     style="fill:none;stroke:#211d28;stroke-linecap:round;stroke-linejoin:round" />
  <path
     class="cls-4"
     d="m 497.23,192.14 c 1.38,2.6 2.76,5.2 4.14,7.8 1.17,-0.07 2.34,-0.15 3.52,-0.22"
     id="path213"
     inkscape:connector-curvature="0"
     style="fill:none;stroke:#000000;stroke-linecap:round;stroke-linejoin:round" />
  <g
     id="Hand">
    <path
       style="fill:#ffec8d"
       inkscape:connector-curvature="0"
       id="path216"
       d="m 488.82,241.96 c -0.55,-0.42 -1.1,-0.85 -1.65,-1.27 -2.17,-1.67 -4.28,-4.12 -6.42,-5.5 -4.54,-2.92 -7.95,-5.53 -11.27,-5.65 -5.34,-0.19 -12.79,0.79 -13.99,2.82 -3.12,1.05 -4.3,1.5 -0.48,3.15 6.63,2.85 0.42,-1.52 10.51,8.36 2.61,2.56 6.24,6.52 10.42,11 4.1,-4.49 8.38,-8.81 12.88,-12.91 z"
       class="cls-12" />
    <path
       style="fill:#00b9ff"
       inkscape:connector-curvature="0"
       id="path218"
       d="m 518.69,207.15 c -4.71,20.98 -9.84,50.71 -9.84,50.71 0,0 -11.01,-8.96 -21.68,-17.16 -5.47,3.52 -8.82,7.16 -12.93,12.35 12.04,12.95 29.63,31.68 40.26,32.49 20.02,1.53 28.97,-67.69 28.97,-67.69 l 21.3,-37.66 c -39.27,5.66 -41.37,5.99 -46.08,26.97 z"
       class="cls-10" />
    <path
       style="fill:none;stroke:#211d28;stroke-linecap:round;stroke-linejoin:round"
       inkscape:connector-curvature="0"
       id="path220"
       d="m 455.59,232.76 c 1.6,-0.47 6.9,0.77 8.56,1.01"
       class="cls-3" />
    <path
       style="fill:none;stroke:#211d28;stroke-linecap:round;stroke-linejoin:round"
       inkscape:connector-curvature="0"
       id="path222"
       d="m 461.91,230.25 c 1.36,0 5.17,0.63 6.97,1.25"
       class="cls-3" />
    <path
       style="fill:#ffec8d"
       inkscape:connector-curvature="0"
       id="path224"
       d="m 478.83,235.29 c -1.91,-3.28 -6.97,-5.13 -5.03,-5.6 1.94,-0.47 7.73,1.27 8.41,6.11 0.69,4.84 -3.38,-0.51 -3.38,-0.51 z"
       class="cls-12" />
    <path
       style="fill:none;stroke:#b0dfff;stroke-linecap:round;stroke-linejoin:round"
       inkscape:connector-curvature="0"
       id="path226"
       d="m 508.57,259.41 -0.03,4.01"
       class="cls-8" />
  </g>
  <g
     data-name="Armchair"
     id="Armchair-2">
    <path
       style="fill:#ff504d"
       inkscape:connector-curvature="0"
       id="path229"
       d="m 491.07,331.42 c 0.74,8.05 6.91,44.31 6.91,44.31 l 7.23,1.66 0.31,-41.03 -14.45,-4.94 z"
       class="cls-14" />
    <path
       style="fill:#ff504d"
       inkscape:connector-curvature="0"
       id="path231"
       d="m 621.4,373.95 7.63,-41.54 -15.34,7.27 3.82,34.47 c 1.3,-0.06 2.59,-0.12 3.89,-0.21 z"
       class="cls-14" />
    <path
       style="fill:#ff504d"
       inkscape:connector-curvature="0"
       id="path233"
       d="m 659.32,189.68 c -37.17,3.6 -73.19,7.96 -96.5,10.94 -15.32,1.96 -27.18,14.37 -28.45,29.76 l -3.25,39.39 -24.69,-1.95 c -19.5,-1.54 -35.99,14.26 -35.27,33.81 l 1.38,37.8 166.48,1.25 20.31,-151 z"
       class="cls-14" />
    <path
       style="fill:none;stroke:#00b9ff;stroke-linecap:round;stroke-linejoin:round"
       inkscape:connector-curvature="0"
       id="path235"
       d="m 535.47,271.86 c 5.45,0.13 10.9,0.27 16.34,0.4"
       class="cls-5" />
  </g>
  <g
     id="Mail">
    <polygon
       class="cls-9"
       points="11.89 297.24 16.76 383.95 140.33 383.46 141.09 295.32 11.89 297.24"
       id="polygon238" />
    <path
       class="cls-4"
       d="M15.45,301.56c23.43,11.41,47.56,27.53,70.99,38.94,17.59-13.78,35.18-27.56,52.77-41.34"
       id="path240" />
    <path
       class="cls-4"
       d="M61.68,330.49s-31.03,35.62-45.54,49.73"
       id="path242" />
    <path
       class="cls-4"
       d="M101.67,330.9c13.62,14.08,36.04,49.62,36.04,49.62"
       id="path244" />
  </g>
</svg>
