<?xml version="1.0" encoding="UTF-8"?>
<svg id="_Слой_1" data-name="Слой 1" xmlns="http://www.w3.org/2000/svg" viewBox="0 0 659.32 383.95">
  <defs>
    <style>
      .cls-1 {
        stroke: #fff;
      }

      .cls-1, .cls-2, .cls-3, .cls-4, .cls-5, .cls-6 {
        fill: none;
        stroke-linecap: round;
        stroke-linejoin: round;
      }

      .cls-2 {
        stroke: #211d28;
      }

      .cls-3 {
        stroke: #000;
      }

      .cls-4 {
        stroke: #00b9ff;
      }

      .cls-5 {
        stroke: #00d692;
      }

      .cls-6 {
        stroke: #020202;
      }

      .cls-7 {
        fill: #00d692;
      }

      .cls-8 {
        fill: #00b9ff;
      }

      .cls-9 {
        fill: #fff;
      }

      .cls-10 {
        fill: #ffec8d;
      }

      .cls-11 {
        fill: #ffe032;
      }

      .cls-12 {
        fill: #ff504d;
      }

      .cls-13 {
        fill: #211d28;
      }

      .cls-14 {
        fill: #777;
      }
    </style>
  </defs>
  <g id="Tablet">
    <polygon class="cls-13" points="25.61 155.31 3.27 167.78 60.41 168.21 67.07 156.63 25.61 155.31"/>
    <path class="cls-5" d="M.5,171.91c21.88,.08,43.75,.16,65.63,.24,1.8-3.4,3.6-6.8,5.4-10.19"/>
    <path class="cls-7" d="M37.4,160.89c-14.34-16.62-20.87-45.8,1.04-43.79,28.01,2.58,.97,45.08-1.04,43.79Z"/>
    <path class="cls-9" d="M31.59,138.32c3.09,2.83,8.38,2.8,11.41-.08,3.03-2.89,3.3-8.21,.53-11.35-7.54-8.55-20.83,3.31-11.94,11.44Z"/>
  </g>
  <g id="Table">
    <path class="cls-4" d="M6.7,185.45c32.28,.24,74.3,2.81,74.3,2.81l3.53,129.9"/>
  </g>
  <g id="Man_1" data-name="Man 1">
    <g id="Legs">
      <path class="cls-13" d="M160.18,180.27c14.99,22.26,55.43,70.95,51.79,88.99-3.63,18.04-43.16,80.7-43.16,80.7,0,0,10.41,10.57,13.27,18.17l-47.06-20.76s35.57-79.01,40.85-83.05l-43.37-90.29,27.68,6.23Z"/>
      <path class="cls-13" d="M107.7,181.63c-2.54,27.38,48.24,95.96,48.24,95.96,0,0,28.54,80.08,37.8,89.47l41.51-16.59s-13.95-4.77-21.54-3.08c0,0-62.3-164.85-65.19-167.79-2.89-2.94-40.82,2.02-40.82,2.02Z"/>
      <path class="cls-4" d="M181.58,255.28c-9.39-16.42-18.78-32.84-28.16-49.26,2-1.59,4.01-3.18,6.02-4.77"/>
      <path class="cls-4" d="M181.58,255.28c-7.44,9.67-12.91,20.61-18.22,31.63"/>
      <path class="cls-4" d="M193.26,306.36c-4.82,8.73-9.64,17.46-14.45,26.19"/>
    </g>
    <g id="Hand_2" data-name="Hand 2">
      <path class="cls-10" d="M228.08,104.45c1.72-2.12-1.25-3.84-1.25-3.84,0,0,3.88-5.93-5.92-5.16-9.8,.78-24.25,52.64-24.25,52.64,0,0-5.79-6.95-12.37-15.98-5.49,5.07-10.83,10.3-16.15,15.54,12.27,15.43,27.46,32.11,33.42,28.59,10.7-6.31,20.93-63.74,25.19-64.98,4.27-1.25,1.33-6.81,1.33-6.81Z"/>
      <path class="cls-12" d="M178.95,124.53c-6.24-9.2-13.94-13.11-25.27-18.03-.31-.14-.64-.28-.96-.42-2.43,2-5.42,3.35-8.52,3.44l1.1,2.51,5.22,11.92s6.41,9.32,14.8,20.11c1.6,2.06,3.28,4.18,4.99,6.29,5.26-5.26,10.39-10.65,15.9-15.64-2.33-3.14-4.83-6.62-7.26-10.19Z"/>
      <polygon class="cls-8" points="226.8 93.11 231.75 115.44 245.61 117.19 249.74 93.94 226.8 93.11"/>
      <path class="cls-4" d="M229.58,96.09c-1.49,.31-3.03-.02-4.55,.07-1.52,.09-3.21,.85-3.56,2.33"/>
      <path class="cls-4" d="M226.95,110.26c2.57,1.07,5.54,1.13,8.16,.17"/>
      <path class="cls-2" d="M215.2,105.93c2.65-.62,5.15-1.88,7.24-3.61,1.84-1.53,.09-4.44-2.12-3.53-.33,.13-.64,.29-.95,.47"/>
      <path class="cls-2" d="M222.89,104.94c-.58,.25-1.19,.5-1.61,.97s-.61,1.21-.27,1.74c.35,.53,1.11,.65,1.71,.45s1.08-.66,1.53-1.1c-1.32,.28-1.95,2.16-1.06,3.17s2.84,.64,3.29-.63"/>
    </g>
    <g id="Body">
      <path class="cls-12" d="M165.32,144.07c-1.68-9-2.79-16.58-2.41-19.31,.53-3.72-5.26-9.66-11.9-15.17-.55-.46-1.11-.9-1.67-1.35-2.77,1.31-5.88,1.75-8.91,.73-.51-.17-.98-.38-1.43-.62-1.3-.33-2.52-.93-3.57-1.83-2.84-2.45-3.44-6.53-2.95-10.27l-1.55,.28-16.5,2.97c-1.15,3.62-4.33,6.6-5.23,10.81-6.77,31.92-4.5,77.98-4.5,77.98,0,0,63.41-1.79,70.19-.05,0,0-6.05-25.24-9.57-44.16Z"/>
    </g>
    <g id="Hand_1" data-name="Hand 1">
      <path class="cls-10" d="M88.29,139.05l16.42-19.75c-6.5-3.25-13-6.48-19.63-9.46-14.02,16.27-26.58,34.03-25.92,39.62,.8,6.85,61.51,5.59,64.88,11.6,3.37,6.01,.86,10.83,4.65,12.06,0,0-.12,1.82,1.39,1.94,1.62,.12,2.41-1.02,2.41-1.02,0,0,1.23-1.58,1.9-5.57,.67-3.99,.23-9.42-.7-13.58-.93-4.16-34.24-14.31-45.41-15.84Z"/>
      <path class="cls-12" d="M132.62,95.36c-.4-.24-.81-.47-1.19-.7-17.65-10.23-21.85-11.24-36.84,4.63-3.61,3.82-7.29,7.93-10.85,12.12,5.88,4.01,12.12,7.51,18.33,11.07l9.31-11.2,2.39-2.87,17.33-5.59,1.73-.56c-.63-2.19-.61-4.64-.2-6.91Z"/>
      <path class="cls-6" d="M129.96,163.45c-.22,3.13-.44,6.26-.66,9.39"/>
      <path class="cls-6" d="M132.47,161.44c.75,4.28,.67,8.7-.25,12.95"/>
    </g>
    <path id="Steam" class="cls-4" d="M239.39,86.59c2.39,1.6,5.95-.93,5.9-3.81-.04-2.88-2.69-5.2-5.5-5.81-2.81-.61-5.73,.12-8.48,.96-2.75,.85-5.53,1.84-8.41,1.78-2.88-.06-5.94-1.44-7.06-4.1-1.7-4.05,2.1-8.62,6.36-9.69,4.26-1.07,8.7,.15,13.05,.74,4.35,.6,9.33,.35,12.33-2.86,2.51-2.68,2.82-7.18,.64-10.14-2.18-2.96-6.64-3.98-9.85-2.2-3.21,1.78-4.7,6.17-3.17,9.51,1.96,4.27,7.48,5.59,12.16,5.17,13.94-1.25,25.69-14.59,25.16-28.58"/>
    <g id="Head">
      <path class="cls-10" d="M172.83,65.65c-4.09-5.2-10.46-8.57-17.01-9.53-6.55-.96-13.78,1.36-17.62,6.76-3.97,5.59-3.69,13.04-3.38,19.89,.22,4.98,.22,10-1.41,14.77-.26,.77-.64,1.66-1,2.59,.03,.04,.08,.06,.11,.1,2.34,2.9,4.79,5.71,7.17,8.59,1.69,.12,3.37,.06,4.62-.6,8.1-4.24,6.13-12.34,17.27-14.31,10.36-1.83,20.16-16.92,11.25-28.26Z"/>
      <path class="cls-13" d="M141.29,86.78c-1.93-.83-3.3-2.64-3.3-4.79,0-3.92,3.65-5.72,7.11-6.1,0-.12-.02-.25-.02-.36-.07-1.52-.3-3.02-.34-4.54-.04-1.57,1.16-2.94,2.61-3.37,6.33-1.9,12.87-4.28,18.44-8.01-3.07-1.79-6.49-2.98-9.97-3.49-6.55-.96-13.78,1.36-17.62,6.76-3.97,5.59-3.69,13.04-3.38,19.89,.13,2.87,.17,5.74-.12,8.58,.24,.05,.49,.11,.73,.15,1.99,.33,4.34,.41,6.1-.8,1.28-.88,1.96-2.13,1.89-3.37-.73-.07-1.45-.24-2.13-.54Z"/>
      <path class="cls-10" d="M153.68,106.5c-.7,1.17-1.6,2.22-2.67,3.09-1.53,1.23-3.43,2.11-5.71,2.44-.71,.1-1.46,.15-2.24,.15-6.73-.05-10.71-4.31-11.96-9.35-.5-2.05-.55-4.23-.16-6.31,.12-.63,.28-1.25,.49-1.86,2.64,1.53,5.58,3.27,8.91,5.18l-1.6,.51c.67,.46,1.37,.96,2.1,1.48l-.51-1.17c4.96,2.25,9.38,4.1,13.36,5.83Z"/>
      <path class="cls-2" d="M164.51,68.59c1.86,2.62,5.31,4.01,8.47,3.42-1.4,2.56-3.75,4.59-6.49,5.59"/>
      <path class="cls-2" d="M159.66,82.97c1.38,1.5,4.13,1.38,5.37-.24"/>
      <path class="cls-2" d="M164.76,59.42l.31,.31c2.04-.96,3.51-3.05,3.88-5.27"/>
    </g>
  </g>
  <g id="Woman">
    <g id="Armchair">
      <path class="cls-8" d="M405.98,73.88l19.31,1.95c9.86,1,16.61,10.42,14.37,20.08l-23.62,101.85c-1.47,6.32-8.75,12.69-15.24,12.98l-44.69,1.99c-1.66,.07-3.33-.14-4.92-.63l-42.73-15.56,20.67-58.51,76.84-64.15Z"/>
      <polyline class="cls-4" points="351.2 212.09 358.99 247.16 364.1 212.34"/>
      <path class="cls-4" d="M394.2,205.02c3.5,4.44,11.19,38.99,11.19,38.99l5.18-41.93-16.36,2.94Z"/>
    </g>
    <g id="Legs-2" data-name="Legs">
      <path class="cls-12" d="M306.41,132.68c-24.97,6.87-37.23,10.53-36.38,23.71,.84,13.17,44.08,77.92,44.08,77.92l-.56,11.75,17.03-13.04-26.76-67.44,37.3-20.88-34.71-12.02Z"/>
      <path class="cls-12" d="M399.11,141.36c-.65,5.18-1.71,21.16-13.47,22.01-11.76,.85-55.96,.05-55.96,.05l-12.43,89.72-38.47-11.1s9.43-3.22,16.48-3.17c0,0-.33-81.35,7.26-89.29,7.58-7.94,63.59-14.57,63.59-14.57l33.01,6.35Z"/>
      <path class="cls-2" d="M307.11,149.3c-3.08,.04-5.74,2.43-7.02,5.23-1.28,2.8-1.47,5.96-1.64,9.04-.69,12.78-1.38,25.56-2.06,38.35"/>
      <path class="cls-2" d="M321.28,213.48c-1.01,8.65-2.02,17.3-3.03,25.95"/>
      <path class="cls-2" d="M297.87,238c5.61,1.1,11.23,2.2,16.84,3.3"/>
      <path class="cls-2" d="M325.32,227.19c-1.37,.75-2.75,1.5-4.12,2.25"/>
    </g>
    <polygon id="Keyboard" class="cls-7" points="331.67 152.25 369.88 144.04 369.62 140.56 326.89 125.77 287.48 136.64 331.67 152.25"/>
    <path id="Hair" class="cls-11" d="M367.53,38.58c-5.05,4.87-12.81,5.05-19.77,5.9-6.96,.85-14.96,3.71-16.77,10.49-1.14,4.27,.73,8.91,3.78,12.11,3.05,3.19,7.14,5.18,11.22,6.88,12.28,5.09,25.42,8.12,38.7,8.91,5.45,.33,11.1,.24,16.1-1.95,6.42-2.82,10.96-8.81,13.81-15.21,3.4-7.62,4.78-16.28,3-24.43-1.78-8.15-6.9-15.7-14.27-19.61-6.45-3.42-16.19-4.19-22.48,.15-6.04,4.17-8.23,11.86-13.32,16.78Z"/>
    <path id="Hand_2-2" data-name="Hand 2" class="cls-13" d="M390.48,73.27c-16.69,5.33-47.15,37.73-47.15,37.73l-31.16,16.4,12.96,3.81,44.33-13.12,21.02-44.82Z"/>
    <g id="Body-2" data-name="Body">
      <path class="cls-13" d="M385.53,67.47c-13.81,8.89-26.05,18.61-20.24,28.08,0,0-4.84,16.85-23.74,23.38,0,0,44.19,24.29,57.55,22.42,0,0,18.57-67.79,8.02-73.76-10.56-5.97-21.6-.13-21.6-.13Z"/>
      <path class="cls-1" d="M364.55,92.29c-.33,1.97,.41,4.08,1.89,5.41-3.42,5.7-14.47,16.46-19.98,20.16"/>
    </g>
    <g id="Head-2" data-name="Head">
      <path class="cls-9" d="M404.41,36.84c-.08-2.27-1.04-5.51-1.86-7.24-1.51-3.2-5.25-3.42-8.43-3.55-5.22-.2-10.38,.59-15.57,.98-.38,1.25-.66,2.61-.86,4.07-.81,6-2.5,9.47-7.88,12.61,3.17,.9,4.61,1.38,8.31,1.52,.78,5.78,7.17,9.72,11.76,9.41,6.87-.46,11.71-4.04,15.01-8.8,.77-1.11,1.38-2.23,1.84-3.37,.16-.41-2.64-3.85-2.32-5.63Z"/>
      <path class="cls-11" d="M382.27,29.05c3.32,.44,6.42,.86,9.7,.47,3.02-.36,3.94,4.61,4.2,4.45,3.64-2.28,6.54,2.82,4.13,5.62-.18,.22,1.61,2.22,2.06,2.49,.88,.53,2,.59,3,.55,.46-.02,.92-.08,1.37-.16,1.36-3.36,1.46-6.87,.66-10.78-2.7-13.34-13.26-16.59-23.76-11.54-3.09,1.48-4.7,4.63-5.55,8.67,1.53,.13,3.4,.13,4.18,.23Z"/>
      <path class="cls-11" d="M372.24,26.83c3.57,3.57,7.3,4.39,12.22,5.53,3.92,.91,9.39,.12,9.4-.27,1.28-5.49-3.84-10.38-9.14-10.62-5.52-.25-9.37,2.71-12.48,5.36Z"/>
      <path class="cls-2" d="M386.04,37.99l.52,1.31"/>
      <path class="cls-2" d="M390.11,50.49c1.33,.08,2.63-1.01,2.77-2.33"/>
      <path class="cls-9" d="M386.66,52.07c2.32-.27,4.53,1.59,5.16,3.83,.63,2.24-.08,4.7-1.36,6.64s-3.11,3.46-4.92,4.93c3.17,3.74,8.2,5.83,13.1,5.44,4.89-.4,11.26-3.09,9.7-4.31s-5.38-6.31-5.86-8.22c-1.2-4.83-.78-10.05,1.18-14.62-3.76,1.81-7.53,3.62-11.29,5.43"/>
    </g>
    <g id="Armrest">
      <path class="cls-8" d="M412.38,137.6c-29.17,1.55-42.5,11.61-43.57,36.34-1.07,24.73,38.06-8.99,38.06-8.99l5.51-27.35Z"/>
    </g>
    <g id="Hand_1-2" data-name="Hand 1">
      <path class="cls-9" d="M348.06,123.35c-8.58,.08-16.11,3.9-19.55,10.36-3.45,6.47,2.49,2.14,2.49,2.14,0,0,.37,3.3,3.38,1.62,0,0,1.73,2.18,3.3,.02s1.95-2.47,12.45-.84c10.5,1.62-2.06-13.31-2.06-13.31Z"/>
      <path class="cls-13" d="M408.33,68.6c7.18,6.41,5.27,54.62-4.39,64.13-9.66,9.51-53.82,3.92-53.82,3.92l-2.06-13.31,42.39-4.63,17.88-50.12Z"/>
      <path class="cls-1" d="M395.15,88.8c-1.3,9.78-2.59,19.56-3.89,29.33-13.48,1.73-26.97,3.46-40.45,5.19"/>
      <path class="cls-4" d="M331.15,135.61c0-1.62,1.18-3.16,2.74-3.57"/>
      <path class="cls-4" d="M334.66,136.98c.05-1.38,.97-2.68,2.25-3.2"/>
    </g>
    <g id="Laptop_front" data-name="Laptop front">
      <path class="cls-7" d="M279.83,88.08l7.65,48.56,44.19,15.61-9.06-51.37c-.71-4.03-3.93-7.16-7.98-7.74l-34.79-5.06Z"/>
      <path class="cls-3" d="M300.09,110.17c-2.64,.43-4.89,2.66-5.34,5.3s.93,5.49,3.28,6.77,5.49,.89,7.46-.92"/>
    </g>
  </g>
  <g id="Message_1" data-name="Message 1">
    <path class="cls-7" d="M540.95,43.83l-94.98-.31c-10.24-.03-18.53,8.3-18.45,18.54l.18,22.93c.07,9.63,7.56,17.57,17.16,18.21l100.5,2.53,13.2,36.62,.73-80.28c-.09-10.07-8.26-18.19-18.33-18.23Z"/>
    <path class="cls-3" d="M438.43,71.86c8.31,1.65,17.44-3.66,20.11-11.71-2.65-.45-4.68,3.08-3.54,5.51,1.14,2.43,4.25,3.4,6.89,2.92,2.64-.48,4.92-2.08,7.1-3.65,2.89,2.67,7.69,2.96,10.88,.65,14.3,2.43,29.09,1.86,43.16-1.67"/>
    <path class="cls-3" d="M530.82,68.97c5.49,.49,11.16-1.6,15.02-5.54"/>
    <path class="cls-3" d="M449.18,87.78c14.14,3.01,28.92,2.99,43.06-.08,.04,3.38,4.06,5.57,7.4,5,3.34-.56,6.03-2.96,8.52-5.25,9.24,7.1,23.36,6.94,32.43-.37"/>
  </g>
  <g id="Message_2" data-name="Message 2">
    <path class="cls-7" d="M47.75,73.48s-.61-29.87-1.06-51.59C46.44,9.77,56.27-.14,68.39,0l105.49,1.26c13.62,.16,23.64,12.82,20.67,26.12h0c-2.2,9.86-10.99,16.85-21.09,16.77l-109.69-.83-16.02,30.15Z"/>
    <path class="cls-3" d="M68.3,26.78c10.51,.58,21.08,.16,31.51-1.24,2.78-.37,5.62-.84,8.05-2.24s4.39-3.93,4.34-6.74c-.09-4.75-6.6-7.6-10.57-4.99-3.97,2.6-4.48,8.81-1.61,12.59,2.87,3.78,8.22,5.11,12.85,4.04s8.56-4.18,11.58-7.85c2.85,6.72,13.2,8.55,18.19,3.21,5.67,3.25,12.99,3.44,18.82,.48"/>
  </g>
  <g id="Man_2" data-name="Man 2">
    <g id="Legs-3" data-name="Legs">
      <path class="cls-13" d="M443.38,291.71c-6.1,23.97-20.85,59.4-20.85,59.4,0,0-14.8-1.43-20.74,1.49l34.42,17.04,26.69-48.83-19.52-29.1Z"/>
      <path class="cls-13" d="M430.76,264.31c-3.35,8.53,32.79,102.25,32.79,102.25,0,0-9.91,4.53-12.24,8.46l32.92-2.06-11.93-76.76,63.52-1.5-16.53-33.69s-74.31-7.14-81.91-3.25c-7.6,3.89-6.63,6.53-6.63,6.53Z"/>
      <path class="cls-4" d="M442.74,307.05c3.26,9.85,6.51,19.7,9.77,29.54"/>
      <path class="cls-4" d="M422.16,349.83c4.28,5.1,8.56,10.2,12.84,15.3"/>
    </g>
    <g id="Cat">
      <path class="cls-14" d="M446.41,203.13l7.36-7.77s-1.84,35.99,22.21,30.43c24.04-5.56,33.35,5.99,36.3,29.49,2.95,23.5-28.87,22.74-28.87,22.74,0,0-12.31-1.06-10.46-5.93-5.26-2.77-11.82-5.93-18.06-8.07-7.95-.06-17.21-1.99-18.84-2.01-4.17-.03-5.28,8.31-6.79,.99s8.41-7.76,13.69-16.07c5.28-8.31-.92-16.18-9.23-21.98-8.3-5.8-8.6-19.3,2.76-21.57,4.36-.87,9.92-.25,9.92-.25Z"/>
      <path class="cls-2" d="M437.02,206.02l-1.4,1.02"/>
    </g>
    <g id="Head-3" data-name="Head">
      <path class="cls-10" d="M546.18,163.01c5.28,2.04,11.04,13.06,.95,19.29s23.8,.88,23.8,.88l-2.89-19.86-21.87-.3Z"/>
      <path class="cls-10" d="M539.52,142.37c-2.71,11.05,.9,15.14,3.06,17.66,4.15,4.84,12.95,7.13,19.28,6.34,8.42-1.05,15.23-4.97,19.61-12.24,7.98-13.26,2.86-34.1-15.68-35.96-17.1-1.71-18.54,15.6-33.5,13.26,1.14,4.8,4.08,6.97,7.24,10.94Z"/>
      <path class="cls-13" d="M568.47,129.14c-.06-.03-.11-.06-.16-.09-.72-.39-1.48-.7-2.23-1.03-2.62,5.48-4.92,11.38-9.86,15.14-2.72,2.07-6.11,3.21-9.52,2.44-2.66-.6-4.88-2.54-7.39-3.48,.07,.09,.14,.17,.21,.26-2.71,11.05,.9,15.14,3.06,17.66,.97,1.13,2.21,2.12,3.6,2.97,4.07-1.7,7.11-6.16,9.47-10.09,4.63-7.72,8.79-15.72,12.82-23.77Z"/>
      <path class="cls-13" d="M565.79,118.18c-6.81-.68-11.13,1.65-14.81,4.56,.31,3.98,4.95,6.58,9.55,7.8,2.06,.55,3.22,3.21,2.01,5.04-1.45,2.18-2.38,3.81-1.32,4.74,3.04-1.48,7.09-1.2,9.53,1.26,1.42,1.43,1.99,3.51,1.49,5.48-.79,3.09-4.12,4.57-6.83,5.01-.11,1.81-.38,9.95,2.08,13,1.86,2.3,7.54-1.17,11.11-5.99,.99-1.13,2.53-3.46,3.29-4.86,8.03-14.7,2.45-34.16-16.09-36.02Z"/>
      <path class="cls-1" d="M548.62,148.03c-.56,2.72-3.22,4.85-6,4.81"/>
      <path class="cls-6" d="M547.73,133.61c-.27-.56-.03-1.31,.51-1.62s1.3-.16,1.69,.32,.39,1.24,0,1.73"/>
      <path class="cls-13" d="M547.01,114.31c1.1-3.36,4.44-5.86,7.98-5.96,3.68-.1,6.98,2.11,9.91,4.34,3.07,2.35,6.03,4.83,8.87,7.44,2.39,2.19,4.9,5.24,3.87,8.31-.81,2.41-3.5,3.62-5.99,4.09-6.29,1.19-12.71-.84-17.56-4.89-4.06-3.38-9.06-7.23-7.06-13.34Z"/>
    </g>
    <path id="Body-3" data-name="Body" class="cls-8" d="M564.77,180.18c30.42-4.48,37.79,.93,39.34,14.13,1.55,13.2-2.7,84.48-2.7,84.48l-82.84-1.45,13.38-80.28,32.81-16.89Z"/>
    <g id="Wrist">
      <path class="cls-10" d="M515.04,196.76c4.66,4.23,14.11,17.79,14.11,17.79l-10.44,8.85-17.91-19.43,14.24-7.2Z"/>
      <path class="cls-10" d="M487.86,188.57c-5.03-.31-6.41,2.94,.5,5.85,6.91,2.91-.5-5.85-.5-5.85Z"/>
      <polygon class="cls-13" points="500.42 180.7 481.72 181.93 499.37 210.37 517.79 209.14 500.42 180.7"/>
      <polygon class="cls-7" points="501.66 182.15 487.01 183.12 500.84 205.41 515.28 204.44 501.66 182.15"/>
      <path class="cls-10" d="M515.04,196.76c-5.28-7.73-14.19-8.48-13.31-6.53,.89,1.96,4.59,2.98,6.2,5.42s8.91,9.02,8.91,9.02l-1.81-7.91Z"/>
      <path class="cls-10" d="M490.02,197.12c1.14-2.38,4.14-2.63,4.08,1.11,0,0,2.96-.92,1.56,3.93s-3.92,.17-3.92,.17c0,0-3.89-.65-1.72-5.21Z"/>
      <path class="cls-2" d="M492.77,198.07c-.26,1.31-.51,2.62-.77,3.92"/>
      <path class="cls-3" d="M497.23,192.14c1.38,2.6,2.76,5.2,4.14,7.8,1.17-.07,2.34-.15,3.52-.22"/>
    </g>
    <g id="Hand">
      <path class="cls-10" d="M488.82,241.96c-.55-.42-1.1-.85-1.65-1.27-2.17-1.67-4.28-4.12-6.42-5.5-4.54-2.92-7.95-5.53-11.27-5.65-5.34-.19-12.79,.79-13.99,2.82-3.12,1.05-4.3,1.5-.48,3.15,6.63,2.85,.42-1.52,10.51,8.36,2.61,2.56,6.24,6.52,10.42,11,4.1-4.49,8.38-8.81,12.88-12.91Z"/>
      <path class="cls-8" d="M518.69,207.15c-4.71,20.98-9.84,50.71-9.84,50.71,0,0-11.01-8.96-21.68-17.16-5.47,3.52-8.82,7.16-12.93,12.35,12.04,12.95,29.63,31.68,40.26,32.49,20.02,1.53,28.97-67.69,28.97-67.69l21.3-37.66c-39.27,5.66-41.37,5.99-46.08,26.97Z"/>
      <path class="cls-2" d="M455.59,232.76c1.6-.47,6.9,.77,8.56,1.01"/>
      <path class="cls-2" d="M461.91,230.25c1.36,0,5.17,.63,6.97,1.25"/>
      <path class="cls-10" d="M478.83,235.29c-1.91-3.28-6.97-5.13-5.03-5.6s7.73,1.27,8.41,6.11c.69,4.84-3.38-.51-3.38-.51Z"/>
    </g>
    <g id="Armchair-2" data-name="Armchair">
      <path class="cls-12" d="M491.07,331.42c.74,8.05,6.91,44.31,6.91,44.31l7.23,1.66,.31-41.03-14.45-4.94Z"/>
      <path class="cls-12" d="M621.4,373.95l7.63-41.54-15.34,7.27,3.82,34.47c1.3-.06,2.59-.12,3.89-.21Z"/>
      <path class="cls-12" d="M659.32,189.68c-37.17,3.6-73.19,7.96-96.5,10.94-15.32,1.96-27.18,14.37-28.45,29.76l-3.25,39.39-24.69-1.95c-19.5-1.54-35.99,14.26-35.27,33.81l1.38,37.8,166.48,1.25,20.31-151Z"/>
    </g>
  </g>
  <g id="Mail">
    <polygon class="cls-7" points="11.89 297.24 16.76 383.95 140.33 383.46 141.09 295.32 11.89 297.24"/>
    <path class="cls-3" d="M15.45,301.56c23.43,11.41,47.56,27.53,70.99,38.94,17.59-13.78,35.18-27.56,52.77-41.34"/>
    <path class="cls-3" d="M61.68,330.49s-31.03,35.62-45.54,49.73"/>
    <path class="cls-3" d="M101.67,330.9c13.62,14.08,36.04,49.62,36.04,49.62"/>
  </g>
</svg>