<?xml version="1.0" encoding="UTF-8"?>
<svg id="_Слой_1" data-name="Слой 1" xmlns="http://www.w3.org/2000/svg" xmlns:xlink="http://www.w3.org/1999/xlink" viewBox="0 0 480.72 259.01">
  <defs>
    <style>
      .cls-1 {
        stroke: #fff;
      }

      .cls-1, .cls-2, .cls-3 {
        stroke-linecap: round;
        stroke-linejoin: round;
      }

      .cls-1, .cls-2, .cls-3, .cls-4, .cls-5 {
        fill: none;
      }

      .cls-2 {
        stroke: #211d28;
      }

      .cls-3 {
        stroke: #18151e;
      }

      .cls-6 {
        fill: #ffd632;
      }

      .cls-7 {
        fill: #ff504d;
      }

      .cls-8 {
        fill: #00afff;
      }

      .cls-4 {
        stroke: #00cf8b;
      }

      .cls-4, .cls-5 {
        stroke-miterlimit: 10;
      }

      .cls-5 {
        stroke: #7a7a7a;
      }
    </style>
  </defs>
  <image width="2854" height="1508" transform="translate(134.72 0) scale(.11 .1)" xlink:href="../CleanShot 2023-01-20 at 15.08.52@2x.png"/>
  <g id="Mail">
    <polygon class="cls-6" points="4.83 150.66 26.96 214.57 114.1 194.04 97.69 121.59 4.83 150.66"/>
    <path class="cls-1" d="m9.64,157.17c19.1,4.37,38.21,8.74,57.31,13.12,10.04-15.04,20.08-30.09,30.13-45.13"/>
    <path class="cls-1" d="m47.16,167.33c-6.31,18.54-13.61,29.64-21.36,44.3"/>
    <path class="cls-1" d="m76.09,159.17c12.54,8.65,23.6,19.44,32.56,31.77"/>
  </g>
  <g id="Bird">
    <path class="cls-8" d="m48.27,90.65c4.17-2.17,8.81-4.06,13.45-3.29,6.88,1.14,11.76,8.34,11.55,15.31-.21,6.97-4.68,13.33-10.48,17.21-6.13,4.1-13.83,5.79-21.12,4.63-6.91-1.1-26.83-12.22-26.83-12.22,0,0,26.77-18.17,33.43-21.64Z"/>
    <path class="cls-7" d="m34.23,111.16c5.04-3.64,5.56-9.16,3.97-14.36-7.92,5.09-17.67,11.65-21.6,14.3,5.92,2.09,12.5,3.76,17.63.06Z"/>
    <path class="cls-1" d="m76.02,86.83c-3.7,3.52-7.39,7.04-11.09,10.56,4.68-.28,9.37-.56,14.05-.84"/>
    <path class="cls-2" d="m44.45,124.01c-.8,3.59-1.6,7.18-2.41,10.76,1.91-1.02,4.43-.73,6.06.69s2.24,3.89,1.48,5.92"/>
    <path class="cls-2" d="m53.61,122.62l-2.41,10.76c1.91-1.02,4.43-.73,6.06.69s2.24,3.89,1.48,5.92"/>
    <path class="cls-3" d="m59.71,93.04l.84,1.18"/>
    <path class="cls-8" d="m2.23,65.57c-10.32-3.22,17.76,18.69,29.9,22.46-6.7-1.88-13.4-3.76-20.1-5.64-16.89-4.11,8.58,9.99,21.11,13.55-9.17-1.73-18.34-3.45-27.5-5.18-2.83-.37-13.06-1.57,4.29,7.98,4.57,2.52,16.69,6.17,21.65,7.79,5.83,1.91,22.61,7,21.37-3.81-.86-7.52-14.5-15.42-19.89-19.21-9.73-6.85-20.05-12.85-30.81-17.93Z"/>
  </g>
  <line class="cls-5" x1="116.22" y1="258.51" x2="328.22" y2="258.51"/>
  <line class="cls-5" x1="232.72" y1="56.51" x2="479.72" y2="56.51"/>
  <line class="cls-5" x1="321.22" y1="213.51" x2="480.72" y2="214.51"/>
  <line class="cls-5" x1="480.22" y1="214.51" x2="479.22" y2="56.51"/>
  <line class="cls-5" x1="135.22" y1="0" x2="135.22" y2="102.51"/>
  <line class="cls-5" x1="450.47" y1=".51" x2="135.22" y2=".51"/>
  <line class="cls-4" x1="433.22" y1="208.51" x2="432.22" y2="208.51"/>
  <image width="2844" height="1788" transform="translate(233.72 57.01) scale(.09)" xlink:href="../CleanShot 2023-01-20 at 14.41.37@2x.png"/>
  <line class="cls-5" x1="116.22" y1="100.51" x2="116.39" y2="259"/>
  <image width="1422" height="968" transform="translate(400.72 134.01) scale(.05 .07)" xlink:href="../CleanShot 2023-01-20 at 14.48.45@2x.png"/>
  <line class="cls-5" x1="449.22" y1="56.51" x2="450.22" y2="0"/>
  <image width="2836" height="1792" transform="translate(118.72 100.01) scale(.07 .09)" xlink:href="../CleanShot 2023-01-20 at 14.30.49@2x.png"/>
  <line class="cls-5" x1="328.21" y1="99.51" x2="115.72" y2="100.51"/>
  <line class="cls-5" x1="233.23" y1="56.01" x2="233.22" y2="100.51"/>
  <line class="cls-5" x1="328.22" y1="99.01" x2="328.22" y2="259.01"/>
</svg>