<svg version="1.1" viewBox="0 0 520 520" width="520" height="520" xmlns="http://www.w3.org/2000/svg">
  <path fill="#fff" d="M245.441 288.37q-11.1.61-16.19 2.46a11.12 11.12 0 0 0-6.94 7.1q-1.84 5.24-1.85 16.95v152.93q0 11.73 1.85 17a11.09 11.09 0 0 0 6.94 7.09q5.09 1.86 16.19 2.47v6.16q-14.19-.92-39.16-.92-26.52 0-39.46.92v-6.16q11.09-.61 16.18-2.47a11.06 11.06 0 0 0 6.94-7.09q1.85-5.24 1.85-17V314.88q0-11.72-1.85-16.95a11.1 11.1 0 0 0-6.94-7.1q-5.08-1.84-16.18-2.46v-6.17q12.94.93 39.46.93 24.66 0 39.16-.93z"/>
  <path fill="#00d692" d="M128.761 397.2A205.31 205.31 0 0 1 .001 206.13C.001 92.47 92.471 0 206.131 0s206.12 92.47 206.12 206.13a205.32 205.32 0 0 1-128.76 191.07l-14.87-36.7a165.89 165.89 0 0 0 104-154.37c0-91.83-74.71-166.53-166.53-166.53s-166.49 74.7-166.49 166.53a165.88 165.88 0 0 0 104 154.37z"/>
</svg>