<svg xmlns="http://www.w3.org/2000/svg" width="167.785" height="25" viewBox="0 0 167.785 25"><defs><style>.a{fill:#4b3c3c}.b{fill:#ffcd00}.c{fill:none;stroke:#4b3c3c;stroke-miterlimit:10;stroke-width:1.589px}</style></defs><path class="a" d="M165.324 10.179h.392c.364 0 .447.14.447.755 0 .643-.112.755-.447.755h-.392zm0 5.984v-3.132h.392c.308 0 .475.112.475.364v2.489a.729.729 0 0 0 .084.308h1.51c-.112-.112-.112-.224-.112-.783v-1.594c0-.923-.28-1.342-.895-1.426a1.041 1.041 0 0 0 .867-1.119v-.923c0-1.174-.587-1.482-1.9-1.482h-1.9v7.3zm-2.852-7.3h-1.482v7.3h1.482zm-4.279 5.145l-1.286-5.145h-1.9v7.3h1.4v-5.089l1.314 5.089h1.874v-7.3h-1.4zm-7.411 2.153h3.076v-1.336h-1.566v-1.818h1.51v-1.314h-1.51v-1.482h1.566V8.897h-3.076zm-2.461-7.3l-.7 5.649-.7-5.649h-1.538l1.23 7.3h1.985l1.23-7.3zm-5.089 1.23l.336 3.44h-.727zm-.7 6.068l.14-1.286h1.035l.168 1.286h1.538l-1.23-7.3h-1.985l-1.23 7.3zm-3.607-7.3v1.314h.5l-.615 1.314h.755l.7-1.314V8.865zm.7 7.3v-1.334h-1.567v-5.96h-1.482v7.3zm-8.473-5.984h.391c.364 0 .447.14.447.755 0 .643-.112.755-.447.755h-.391zm0 5.984v-3.132h.391c.308 0 .475.112.475.364v2.489a.73.73 0 0 0 .084.308h1.51c-.112-.112-.112-.224-.112-.783v-1.59c0-.923-.28-1.342-.895-1.426a1.041 1.041 0 0 0 .867-1.119v-.923c0-1.174-.587-1.482-1.9-1.482h-1.9v7.3zm-2.88-7.3h-1.482v7.3h1.482zm-3.971 0l-.7 5.649-.7-5.649h-1.538l1.23 7.3h1.985l1.23-7.3zm-5.817 1.314h.392c.364 0 .447.14.447.755 0 .643-.112.755-.447.755h-.392zm0 5.984v-3.132h.392c.308 0 .475.112.475.364v2.489a.73.73 0 0 0 .084.308h1.51c-.112-.112-.112-.224-.112-.783v-1.588c0-.923-.28-1.342-.895-1.426a1.041 1.041 0 0 0 .867-1.119v-.923c0-1.174-.587-1.482-1.9-1.482h-1.93v7.3zm-5.733 0h3.076v-1.332h-1.569v-1.818h1.51v-1.314h-1.51v-1.482h1.566V8.897h-3.076zm-1.091-5.117v-.559c0-1.286-.615-1.762-1.874-1.762-1.426 0-1.93.559-1.93 1.846 0 2.433 2.349 2.265 2.349 3.775 0 .419-.112.615-.42.615s-.419-.2-.419-.615v-.5h-1.482v.671c0 1.342.559 1.762 1.9 1.762 1.454 0 1.93-.475 1.93-1.986 0-2.377-2.349-2.377-2.349-3.663 0-.419.112-.615.419-.615s.42.2.42.615v.419z"/><path class="b" d="M71.393 8.165c-1.147 0-1.706 2.041-1.342 5.089.419 3.691 3.719 3.691 5.956 2.741v1.818a13.245 13.245 0 0 1-3.468.475 5.745 5.745 0 0 1-6.208-6.012c0-2.349.839-5.593 5.285-5.593a4.332 4.332 0 0 1 4.67 4.5h-3.555c0-1.622-.336-3.02-1.342-3.02m15.725 4.253h-6.432v.056c.224 4.558 3.607 4.446 6.012 3.5v1.818a12.256 12.256 0 0 1-3.384.475c-5.481 0-6.292-4.055-6.292-6.152 0-2.4 1.035-5.481 5.229-5.453 3.076 0 4.866 1.958 4.866 4.642zm-3.775-1.594v-.224c-.056-1.119-.28-2.4-1.23-2.4-.923 0-1.258 1.091-1.37 2.573v.084h2.6zm-30.99 7.131h-6.015c-2.209 0-3.8-.895-3.8-3.356a3.373 3.373 0 0 1 2.489-3.412 8.823 8.823 0 0 1 2.013-.391c.643-.056 1.175-.056 1.538-.056h.056v-.336c0-2.573-2.573-2.293-4-1.874a7.144 7.144 0 0 0-.727.252V7.102a13.359 13.359 0 0 1 3.524-.391c3.216 0 4.95 1.51 4.95 4.027zm-3.715-1.542v-4.278h-.056a2.208 2.208 0 0 0-2.265 2.349c0 1.734.839 1.9 1.65 1.93z"/><path class="a" d="M27.153 7.047v10.906h-3.719V7.047z"/><path class="b" d="M42.449 8.278a2.122 2.122 0 0 0-2.237 2.4v7.243h-3.719v-7.355c0-2.209 2.041-3.887 5.2-3.887h.755zm-6.012-5.817v1.566c-.364 0-.727 0-1.091.028a3.107 3.107 0 0 0-1.035.224 1.748 1.748 0 0 0-1.035 1.846v.923h2.629v1.594h-2.629v9.284h-3.718V6.991c0-4.055 2.768-4.53 6.152-4.53zm28.244 15.492h-3.747v-6.544c0-2.573-.979-2.713-2.349-2.741h-.252v9.284h-3.719V7.019c.308.028 1.314.056 4.67.056 5.4 0 5.425 2.517 5.425 4.53z"/><path class="a" d="M25.303 4.81a2.4 2.4 0 1 1 2.4-2.4 2.4 2.4 0 0 1-2.4 2.4"/><path class="b" d="M25.303 25a2.4 2.4 0 1 1 2.4-2.4 2.4 2.4 0 0 1-2.4 2.4"/><path class="a" d="M0 17.953V2.461h3.747v4.586h1.175c2.6 0 3.887 1.007 4.53 2.181a6.564 6.564 0 0 1 .643 3.16c0 1.734-.531 5.537-4.838 5.537H0zm6.32-5.593c0-2.377-.559-3.831-2.265-3.831h-.308v7.914h.364c1.65 0 2.209-1.594 2.209-4.083m15.497.252a6.564 6.564 0 0 1-.643 3.16c-.643 1.175-1.93 2.181-4.53 2.181h-1.18v4.586h-3.747V7.047h5.257c4.306 0 4.838 3.831 4.838 5.565m-6.348-4.083v7.918h.308c1.706 0 2.265-1.454 2.265-3.831 0-2.489-.559-4.083-2.209-4.083z"/><path class="c" d="M97.567 1.063v22.903"/></svg>