<svg id="Calque_1" data-name="Calque 1" xmlns="http://www.w3.org/2000/svg" viewBox="0 0 184 40"><defs><style>.cls-1{fill:#4BD2AF;}.cls-2{fill:#00004B;}.cls-3{fill:#fff;}</style></defs><path class="cls-1" d="M20,40A20,20,0,1,0,0,20,20.06,20.06,0,0,0,20,40Z"/><path class="cls-2" d="M49.8,25.2a5.24,5.24,0,0,1-2-.8l1.4-2.7a7,7,0,0,0,3.6,1,3.59,3.59,0,0,0,1.1-.2c.3-.1.4-.3.4-.4s-.1-.3-.4-.4l-1.2-.4a18.88,18.88,0,0,1-1.8-.6,2.73,2.73,0,0,1-1.2-.9,2.07,2.07,0,0,1-.5-1.6,3.7,3.7,0,0,1,.6-2.1,4,4,0,0,1,1.9-1.4,8.36,8.36,0,0,1,2.9-.5,15,15,0,0,1,2.2.2,7.51,7.51,0,0,1,1.8.7l-1.3,2.7a3.51,3.51,0,0,0-1.4-.6,7.77,7.77,0,0,0-1.6-.2,3.73,3.73,0,0,0-1.2.2.51.51,0,0,0-.4.5.37.37,0,0,0,.4.4c.3.1.7.2,1.2.4.7.2,1.3.4,1.8.5a2.73,2.73,0,0,1,1.2.9,2,2,0,0,1,.5,1.5,3.14,3.14,0,0,1-.7,2.1,4,4,0,0,1-1.9,1.4,8.36,8.36,0,0,1-2.9.5A19.48,19.48,0,0,1,49.8,25.2Z"/><path class="cls-2" d="M70.8,14.5,68.7,25.3H65l.8-4H62.4l-.8,4H58l2.1-10.8h3.6L63,18.3h3.4l.8-3.8Z"/><path class="cls-2" d="M72.3,14.5h3.6L73.8,25.3H70.2Z"/><path class="cls-2" d="M80.6,17.2,80.2,19h4.5l-.5,2.7H79.7L79,25.2H75.4l2.1-10.8h8.7l-.5,2.7H80.6Z"/><path class="cls-2" d="M89.1,17.3H86l.6-2.8h9.9l-.6,2.8H92.8l-1.6,7.9H87.6Z"/><path class="cls-2" d="M106.6,21.3l-.8,3.9h-3.6l.8-3.9-2.7-6.8h3.6l1.5,3.7,3-3.7H112Z"/><path class="cls-2" d="M112.9,24.8a4.51,4.51,0,0,1-1.9-1.7,5.2,5.2,0,0,1-.7-2.5,6,6,0,0,1,.9-3.3,6.62,6.62,0,0,1,2.4-2.3,7.84,7.84,0,0,1,3.5-.8,6.84,6.84,0,0,1,2.9.6,4.51,4.51,0,0,1,1.9,1.7,5.2,5.2,0,0,1,.7,2.5,6,6,0,0,1-.9,3.3,6.62,6.62,0,0,1-2.4,2.3,7.84,7.84,0,0,1-3.5.8A6.53,6.53,0,0,1,112.9,24.8Zm4.6-2.7a4,4,0,0,0,1-1.2,4.71,4.71,0,0,0,.4-1.6,1.89,1.89,0,0,0-.6-1.5,2,2,0,0,0-1.5-.6,3.31,3.31,0,0,0-1.5.4,3.06,3.06,0,0,0-1,1.2,4.71,4.71,0,0,0-.4,1.6,1.89,1.89,0,0,0,.6,1.5,2,2,0,0,0,1.5.6A2.41,2.41,0,0,0,117.5,22.1Z"/><path class="cls-2" d="M125.5,25a3.64,3.64,0,0,1-1.6-1.4,3.7,3.7,0,0,1-.6-2.1,5.74,5.74,0,0,1,.1-1.2l1.2-5.9h3.6L127,20.3a2.2,2.2,0,0,0-.1.8,1.37,1.37,0,0,0,.4,1.1,1.82,1.82,0,0,0,1.1.4,1.5,1.5,0,0,0,1.2-.5,4.57,4.57,0,0,0,.7-1.7l1.2-5.9h3.6l-1.2,6.1a6.38,6.38,0,0,1-2,3.7,6.05,6.05,0,0,1-3.9,1.2A8.5,8.5,0,0,1,125.5,25Z"/><path class="cls-2" d="M145.1,20.5a4.91,4.91,0,0,1-2.1,1.6l1.8,3.1H141l-1.5-2.7h-.9l-.5,2.7h-3.6l2.1-10.8h4.9a5.39,5.39,0,0,1,3.3.9,3.09,3.09,0,0,1,1.2,2.6A6.67,6.67,0,0,1,145.1,20.5Zm-4.3-3.3h-1.2l-.5,2.5h1.5a1.59,1.59,0,0,0,1.2-.4,1.37,1.37,0,0,0,.4-1.1C142.2,17.6,141.7,17.2,140.8,17.2Z"/><path class="cls-2" d="M149.2,23.8l2.3-2.2a1.94,1.94,0,0,0,1.6,1,1,1,0,0,0,.8-.3,1.27,1.27,0,0,0,.4-.9l.8-4.2h-3.6l.5-2.7h7.2l-1.3,6.8a5.77,5.77,0,0,1-1.7,3.3,5.4,5.4,0,0,1-3.3,1A5.07,5.07,0,0,1,149.2,23.8Z"/><path class="cls-2" d="M161.9,24.8a4.51,4.51,0,0,1-1.9-1.7,5.2,5.2,0,0,1-.7-2.5,6,6,0,0,1,.9-3.3,6.62,6.62,0,0,1,2.4-2.3,6.71,6.71,0,0,1,3.5-.8,6.84,6.84,0,0,1,2.9.6,4.51,4.51,0,0,1,1.9,1.7,5.2,5.2,0,0,1,.7,2.5,6,6,0,0,1-.9,3.3,6.62,6.62,0,0,1-2.4,2.3,7.84,7.84,0,0,1-3.5.8A6.24,6.24,0,0,1,161.9,24.8Zm4.7-2.7a4,4,0,0,0,1-1.2,4.71,4.71,0,0,0,.4-1.6,1.89,1.89,0,0,0-.6-1.5,2,2,0,0,0-1.5-.6,3.31,3.31,0,0,0-1.5.4,3.06,3.06,0,0,0-1,1.2,4.71,4.71,0,0,0-.4,1.6,1.89,1.89,0,0,0,.6,1.5,2,2,0,0,0,1.5.6A2.82,2.82,0,0,0,166.6,22.1Z"/><path class="cls-2" d="M182.4,20.5a2,2,0,0,1,.4,1.3,2.9,2.9,0,0,1-1.4,2.6,6.4,6.4,0,0,1-3.6.9h-6.2l2.1-10.8h5.7a5,5,0,0,1,2.9.7,2.28,2.28,0,0,1,1,1.9,3,3,0,0,1-.5,1.6,3.81,3.81,0,0,1-1.4,1.1A2.29,2.29,0,0,1,182.4,20.5Zm-3.6,1.9a1,1,0,0,0,.4-.7.55.55,0,0,0-.3-.5,1.42,1.42,0,0,0-.6-.2H176l-.4,1.7h2.3A1.22,1.22,0,0,0,178.8,22.4Zm-2-5.4-.3,1.6h1.9q1.2,0,1.2-.9a.55.55,0,0,0-.3-.5,1.45,1.45,0,0,0-.7-.2Z"/><path class="cls-2" d="M24.4,11.1A12.08,12.08,0,1,1,11,31.2Z"/><path class="cls-3" d="M29.9,9.2,16.4,29.3c-6.2-4.1-8.2-12-4.5-17.5S23.7,5.1,29.9,9.2Z"/></svg>
